<?xml version="1.0" encoding="UTF-8"?>
<svg width="40px" height="40px" viewBox="0 0 40 40" version="1.1" xmlns="http://www.w3.org/2000/svg" xmlns:xlink="http://www.w3.org/1999/xlink">
    <!-- Generator: Sketch 52.5 (67469) - http://www.bohemiancoding.com/sketch -->
    <title>Controls/Buttons/Button Arrow Right LIght Purple</title>
    <desc>Created with Sketch.</desc>
    <g id="Controls/Buttons/Button-Arrow-Right-LIght-Purple" stroke="none" stroke-width="1" fill="none" fill-rule="evenodd">
        <g id="Group" transform="translate(20.000000, 20.000000) scale(-1, 1) translate(-20.000000, -20.000000) ">
            <circle id="Oval" fill="#6633FF" fill-rule="nonzero" cx="20" cy="20" r="20"></circle>
            <path d="M8.24785015,20.4697995 C7.91738328,20.1126919 7.91738328,19.5337727 8.24785015,19.1766652 L14.7610672,12.1339153 C14.9260879,11.9553616 15.1940341,11.9553616 15.3590548,12.1339153 L15.9570425,12.7804825 C16.1220633,12.9590362 16.1220633,13.2484958 15.9570425,13.4270496 L10.3403817,19.4997187 C10.1753609,19.6782724 10.1753609,19.9681922 10.3403817,20.1462858 L15.9570425,26.219415 C16.1220633,26.3979688 16.1220633,26.6874284 15.9570425,26.8659822 L15.3590548,27.5125493 C15.1940341,27.6911031 14.9260879,27.6911031 14.7610672,27.5125493 L8.24785015,20.4697995 Z" id="Icon" fill="#FFFFFF"></path>
            <path d="M10,20 L31,20" id="Line-2" stroke="#FFFFFF" stroke-width="2" stroke-linecap="square" fill-rule="nonzero"></path>
        </g>
    </g>
</svg>