<?xml version="1.0" encoding="UTF-8"?> <svg xmlns="http://www.w3.org/2000/svg" xmlns:xlink="http://www.w3.org/1999/xlink" height="64" viewBox="0 0 54 64" width="54"><mask id="a" fill="#fff"><path d="m0 64h54v-64h-54z" fill="#fff" fill-rule="evenodd"></path></mask><g fill="#9d7cff" fill-rule="evenodd"><path d="m30 64h-2v-2c0-2.206 1.794-4 4-4h14c3.309 0 6-2.691 6-6s-2.691-6-6-6h-38c-2.206 0-4-1.794-4-4s1.794-4 4-4h14c3.309 0 6-2.691 6-6v-5h2v5c0 4.411-3.589 8-8 8h-14c-1.103 0-2 .897-2 2s.897 2 2 2h38c4.411 0 8 3.589 8 8s-3.589 8-8 8h-14c-1.103 0-2 .897-2 2z"></path><path d="m26 64h-2v-2c0-4.411 3.589-8 8-8h14c1.103 0 2-.897 2-2s-.897-2-2-2h-38c-4.411 0-8-3.589-8-8s3.589-8 8-8h14c1.103 0 2-.897 2-2v-5h2v5c0 2.206-1.794 4-4 4h-14c-3.309 0-6 2.691-6 6s2.691 6 6 6h38c2.206 0 4 1.794 4 4s-1.794 4-4 4h-14c-3.309 0-6 2.691-6 6z"></path><path d="m17.0156 13c.266 8.278 3.871 13 9.984 13 6.114 0 9.719-4.722 9.985-13zm9.984 15c-7.514 0-12-5.981-12-16v-1h24v1c0 10.019-4.485 16-12 16z"></path><path d="m13 13h3v-2h-3z" mask="url(#a)"></path><path d="m38 13h3v-2h-3z" mask="url(#a)"></path><path d="m24 12h-2v-9c0-.552-.449-1-1-1s-1 .448-1 1v9h-2v-9c0-1.654 1.346-3 3-3s3 1.346 3 3z" mask="url(#a)"></path><path d="m36 12h-2v-9c0-.552-.449-1-1-1s-1 .448-1 1v9h-2v-9c0-1.654 1.346-3 3-3s3 1.346 3 3z" mask="url(#a)"></path><path d="m20 17h2v-2h-2z" mask="url(#a)"></path><path d="m32 17h2v-2h-2z" mask="url(#a)"></path><path d="m26 24h2v-2h-2z" mask="url(#a)"></path></g></svg> 