<?xml version="1.0" encoding="UTF-8"?> <svg xmlns="http://www.w3.org/2000/svg" xmlns:xlink="http://www.w3.org/1999/xlink" height="64" viewBox="0 0 64 64" width="64"><mask id="a" fill="#fff"><path d="m0 64h64v-64h-64z" fill="#fff" fill-rule="evenodd"></path></mask><g fill="#9d7cff" fill-rule="evenodd"><path d="m32 55.2727273c3.1956364 0 5.92 2.0552727 6.8785455 4.9847272 2.9541818-.7141818 5.744-1.8705454 8.3214545-3.4530909-.4305455-.9381818-.6545455-1.9490909-.6545455-2.9861818 0-4.0101818 3.2625455-7.2727273 7.2727273-7.2727273 1.0370909 0 2.0494546.2225455 2.9861818.6545455 1.5825455-2.5774545 2.7389091-5.3658182 3.4530909-8.3214545-2.9294545-.9585455-4.9847272-3.6829091-4.9847272-6.8785455s2.0552727-5.92 4.9847272-6.8785455c-.7141818-2.9556363-1.8705454-5.744-3.4530909-8.3214545-.9367272.432-1.9490909.6545455-2.9861818.6545455-4.0101818 0-7.2727273-3.2625455-7.2727273-7.2727273 0-1.03563638.224-2.04800002.6545455-2.98472729-2.5774545-1.584-5.3672727-2.74036364-8.3214545-3.45454546-.9585455 2.92945455-3.6829091 4.98472728-6.8785455 4.98472728s-5.92-2.05527273-6.8785455-4.98472728c-2.9541818.71418182-5.744 1.87054546-8.3214545 3.45454546.4305455.93672727.6545455 1.94909091.6545455 2.98472729 0 4.0101818-3.2625455 7.2727273-7.2727273 7.2727273-1.03709093 0-2.04945456-.2225455-2.98618184-.6545455-1.58254545 2.5774545-2.73890909 5.3658182-3.45309091 8.3214545 2.92945455.9585455 4.98472728 3.6829091 4.98472728 6.8785455s-2.05527273 5.92-4.98472728 6.8785455c.71418182 2.9556363 1.87054546 5.744 3.45309091 8.3214545.93672728-.432 1.94909091-.6545455 2.98618184-.6545455 4.0101818 0 7.2727273 3.2625455 7.2727273 7.2727273 0 1.0370909-.224 2.048-.6545455 2.9861818 2.5774545 1.5825455 5.3672727 2.7389091 8.3214545 3.4530909.9585455-2.9294545 3.6829091-4.9847272 6.8785455-4.9847272m5.7614545 8.1672727c-.3112727 0-.6181818-.1003636-.8712727-.2894545-.3272727-.2458182-.5367273-.6167273-.576-1.0254546-.2181818-2.2472727-2.0727273-3.9432727-4.3141818-3.9432727s-4.096 1.696-4.3141818 3.9432727c-.0392727.4087273-.2487273.7796364-.576 1.0254546-.3272727.2443636-.7418182.3403636-1.1447273.2647272-4.3127273-.8261818-8.3301818-2.4887272-11.9403636-4.9425454-.3272728-.2225455-.5498182-.5687273-.6167273-.9585455-.0654545-.3912727.0290909-.7912727.2647273-1.1098182.5701818-.7709091.8727272-1.6654545.8727272-2.5861818 0-2.4058182-1.9578181-4.3636363-4.3636363-4.3636363-.92218184 0-1.81672729.3010909-2.58472729.8712727-.31854546.2356363-.72.3345454-1.10981818.2661818-.39127273-.0669091-.73745455-.2894545-.96-.6167273-2.45381818-3.6072727-4.11636364-7.6247272-4.94254546-11.9403636-.07563636-.4014546.02036364-.8174546.26472728-1.1447273.24581818-.3272727.61672727-.5367273 1.024-.576 2.24872727-.2181818 3.94472727-2.0727273 3.94472727-4.3141818s-1.696-4.096-3.94472727-4.3141818c-.40727273-.0392727-.77818182-.2487273-1.024-.576-.24436364-.3272727-.34036364-.7432727-.26472728-1.1447273.82618182-4.3156364 2.48872728-8.3330909 4.94254546-11.9403636.22254545-.3272728.56872727-.5498182.96-.6167273.39127272-.0683636.79127272.0305455 1.10981818.2661818.768.5701818 1.66254545.8712727 2.58472729.8712727 2.4058182 0 4.3636363-1.9578181 4.3636363-4.3636363 0-.92072729-.3025454-1.81527275-.8727272-2.58472729-.2356364-.31854546-.3301818-.71854546-.2647273-1.10981818.0669091-.38981818.2894545-.736.6167273-.95854546 3.6087272-2.45527272 7.6261818-4.11781818 11.9403636-4.944.4029091-.07563636.8174546.02036364 1.1447273.26472728.3272727.24581818.5367273.61672727.576 1.02545454.2181818 2.24727273 2.0727273 3.94327273 4.3141818 3.94327273s4.096-1.696 4.3141818-3.94327273c.0392727-.40872727.2487273-.77963636.576-1.02545454.3272727-.24436364.7418182-.34036364 1.1447273-.26472728 4.3141818.82618182 8.3316364 2.48872728 11.9403636 4.944.3272728.22254546.5498182.56872728.6167273.95854546.0654545.39127272-.0290909.79127272-.2647273 1.10981818-.5701818.76945454-.8727272 1.664-.8727272 2.58472729 0 2.4058182 1.9578181 4.3636363 4.3636363 4.3636363.9221818 0 1.8167273-.3010909 2.5847273-.8712727.3185454-.2356363.7170909-.3374545 1.1098182-.2661818.3912727.0669091.7374545.2894545.96.6167273 2.4538182 3.6072727 4.1163636 7.6247272 4.9425454 11.9403636.0756364.4014546-.0203636.8174546-.2647272 1.1447273-.2458182.3272727-.6167273.5367273-1.024.576-2.2487273.2181818-3.9447273 2.0727273-3.9447273 4.3141818s1.696 4.096 3.9447273 4.3141818c.4072727.0392727.7781818.2487273 1.024.576.2443636.3272727.3403636.7432727.2647272 1.1447273-.8261818 4.3156364-2.4887272 8.3330909-4.9425454 11.9403636-.2225455.3272728-.5687273.5498182-.96.6167273-.3912728.0698182-.7912728-.0305455-1.1098182-.2661818-.768-.5701818-1.6625455-.8712727-2.5847273-.8712727-2.4058182 0-4.3636363 1.9578181-4.3636363 4.3636363 0 .9207273.3025454 1.8152727.8727272 2.5861818.2356364.3185455.3301818.7185455.2647273 1.1098182-.0669091.3898182-.2894545.736-.6167273.9585455-3.6101818 2.4538182-7.6276363 4.1163636-11.9403636 4.9425454-.0916364.016-.1832727.0247273-.2734546.0247273"></path><path d="m30.5454545 64h2.909091v-2.9090909h-2.909091z" mask="url(#a)"></path><path d="m8.72727273 55.2727273h2.90909087v-2.9090909h-2.90909087z" mask="url(#a)"></path><path d="m0 33.4545455h2.90909091v-2.909091h-2.90909091z" mask="url(#a)"></path><path d="m8.72727273 11.6363636h2.90909087v-2.90909087h-2.90909087z" mask="url(#a)"></path><path d="m30.5454545 2.90909091h2.909091v-2.90909091h-2.909091z" mask="url(#a)"></path><path d="m52.3636364 11.6363636h2.9090909v-2.90909087h-2.9090909z" mask="url(#a)"></path><path d="m52.3636364 55.2727273h2.9090909v-2.9090909h-2.9090909z" mask="url(#a)"></path><path d="m61.0909091 33.4545455h2.9090909v-2.909091h-2.9090909z" mask="url(#a)"></path><path d="m32 17.4545455c-8.0203636 0-14.5454545 6.5250909-14.5454545 14.5454545s6.5250909 14.5454545 14.5454545 14.5454545 14.5454545-6.5250909 14.5454545-14.5454545-6.5250909-14.5454545-14.5454545-14.5454545m0 32c-9.6247273 0-17.4545455-7.8298182-17.4545455-17.4545455s7.8298182-17.4545455 17.4545455-17.4545455 17.4545455 7.8298182 17.4545455 17.4545455-7.8298182 17.4545455-17.4545455 17.4545455" mask="url(#a)"></path><path d="m32 26.1818182c-3.2087273 0-5.8181818 2.6094545-5.8181818 5.8181818s2.6094545 5.8181818 5.8181818 5.8181818 5.8181818-2.6094545 5.8181818-5.8181818-2.6094545-5.8181818-5.8181818-5.8181818m0 14.5454545c-4.8130909 0-8.7272727-3.9141818-8.7272727-8.7272727s3.9141818-8.7272727 8.7272727-8.7272727 8.7272727 3.9141818 8.7272727 8.7272727-3.9141818 8.7272727-8.7272727 8.7272727" mask="url(#a)"></path></g></svg> 