<?xml version="1.0" encoding="UTF-8"?> <svg xmlns="http://www.w3.org/2000/svg" xmlns:xlink="http://www.w3.org/1999/xlink" width="180px" height="50px" viewBox="0 0 180 50"><!-- Generator: Sketch 51.3 (57544) - http://www.bohemiancoding.com/sketch --><title>Logo White</title><desc>Created with Sketch.</desc><defs></defs><g id="Symbols" stroke="none" stroke-width="1" fill="none" fill-rule="evenodd"><g id="Header" transform="translate(-180.000000, -30.000000)"><g id="Top-Nav"><g id="Logo-White" transform="translate(180.000000, 30.000000)"><g id="Group-28"><polygon id="Fill-1" fill="#6633FF" points="92.3650525 37.1345084 92.3650525 46.6666667 90.1351255 46.6666667 90.1351255 37.1345084 86.6666667 37.1345084 86.6666667 35 95.8333333 35 95.8333333 37.1345084"></polygon><g id="Group-27"><path d="M96.1930783,41.9678237 L99.6429325,41.9678237 C99.44997,40.9584712 98.8547783,40.4014568 97.946045,40.4014568 C96.9491617,40.4014568 96.3777992,40.991205 96.1930783,41.9678237 M101.750112,42.6942626 C101.750112,42.9444424 101.733628,43.2192626 101.709799,43.405054 L96.1848367,43.405054 C96.3942825,44.5347302 97.1982033,45.027536 98.1873825,45.027536 C98.8626617,45.027536 99.5866742,44.7609892 100.157678,44.2764568 L101.388195,45.6331115 C100.495407,46.4482194 99.38547,46.8194424 98.0669825,46.8194424 C95.6862158,46.8194424 94.0215783,45.1805935 94.0215783,42.7264568 C94.0215783,40.2723201 95.6299575,38.5856295 97.9619908,38.5856295 C100.205874,38.5856295 101.750112,40.2564928 101.750112,42.6942626" id="Fill-2" fill="#6633FF"></path><path d="M109.955676,40.062464 L108.443868,41.3302698 C107.961193,40.8135432 107.462572,40.5469964 106.77923,40.5469964 C105.69348,40.5469964 104.824701,41.4025719 104.824701,42.7025719 C104.824701,44.0104856 105.685418,44.8579676 106.771347,44.8579676 C107.446626,44.8579676 108.01781,44.5511331 108.467697,44.0666007 L109.963918,45.3498741 C109.22378,46.2951978 108.146451,46.8192986 106.835668,46.8192986 C104.350268,46.8192986 102.68581,45.0678597 102.68581,42.7025719 C102.68581,40.3371043 104.350268,38.5856655 106.835668,38.5856655 C108.146451,38.5856655 109.239726,39.1180396 109.955676,40.062464" id="Fill-4" fill="#6633FF"></path><path d="M115.114225,38.5856835 C116.883317,38.5856835 118.145904,39.8205755 118.145904,41.6371223 L118.145904,46.6176978 L116.046967,46.6176978 L116.046967,42.315 C116.046967,41.1763309 115.492087,40.5633813 114.527096,40.5633813 C113.626425,40.5633813 112.878404,41.1443165 112.878404,42.3313669 L112.878404,46.6176978 L110.779825,46.6176978 L110.779825,35.1871223 L112.878404,35.1871223 L112.878404,39.6346043 C113.433462,38.8596043 114.253687,38.5856835 115.114225,38.5856835" id="Fill-6" fill="#6633FF"></path><path d="M126.889184,41.6370863 L126.889184,46.6176619 L124.790246,46.6176619 L124.790246,42.3151439 C124.790246,41.176295 124.235367,40.5633453 123.270555,40.5633453 C122.369705,40.5633453 121.622042,41.1442806 121.622042,42.3313309 L121.622042,46.6176619 L119.523105,46.6176619 L119.523105,38.7953597 L121.565425,38.7953597 L121.565425,39.7151439 C122.120305,38.8842086 122.964896,38.5856475 123.857684,38.5856475 C125.626596,38.5856475 126.889184,39.8205396 126.889184,41.6370863" id="Fill-8" fill="#6633FF"></path><path d="M130.224067,42.702536 C130.224067,43.9703417 131.108612,44.8579317 132.290933,44.8579317 C133.481317,44.8579317 134.365683,43.9703417 134.365683,42.702536 C134.365683,41.4347302 133.481317,40.5471403 132.290933,40.5471403 C131.108612,40.5471403 130.224067,41.4347302 130.224067,42.702536 M136.512996,42.702536 C136.512996,45.0595504 134.719717,46.8194424 132.290933,46.8194424 C129.870212,46.8194424 128.084996,45.0595504 128.084996,42.702536 C128.084996,40.3455216 129.870212,38.5856295 132.290933,38.5856295 C134.719717,38.5856295 136.512996,40.3455216 136.512996,42.702536" id="Fill-10" fill="#6633FF"></path><polygon id="Clip-13" points="0 50 179.166667 50 179.166667 0.0419064748 0 0.0419064748"></polygon><polygon id="Fill-12" fill="#6633FF" points="137.789379 46.6178058 139.888317 46.6178058 139.888317 35.1955036 137.789379 35.1955036"></polygon><path d="M143.018573,42.702536 C143.018573,43.9703417 143.903119,44.8579317 145.08544,44.8579317 C146.275465,44.8579317 147.16019,43.9703417 147.16019,42.702536 C147.16019,41.4347302 146.275465,40.5471403 145.08544,40.5471403 C143.903119,40.5471403 143.018573,41.4347302 143.018573,42.702536 M149.307502,42.702536 C149.307502,45.0595504 147.514223,46.8194424 145.08544,46.8194424 C142.664898,46.8194424 140.879682,45.0595504 140.879682,42.702536 C140.879682,40.3455216 142.664898,38.5856295 145.08544,38.5856295 C147.514223,38.5856295 149.307502,40.3455216 149.307502,42.702536" id="Fill-14" fill="#6633FF"></path><path d="M152.49778,42.5815108 C152.49778,43.7119065 153.261747,44.6316906 154.459834,44.6316906 C155.62603,44.6316906 156.414005,43.7441007 156.414005,42.5815108 C156.414005,41.4108273 155.62603,40.5232374 154.459834,40.5232374 C153.261747,40.5232374 152.49778,41.4430216 152.49778,42.5815108 M156.341622,39.6667626 L156.341622,38.7953597 L158.400247,38.7953597 L158.400247,45.9719784 C158.400247,48.4905036 156.76768,50.000036 154.194488,50.000036 C152.96433,50.000036 151.669313,49.6773741 150.784947,49.0554317 L151.532788,47.3361871 C152.312701,47.8527338 153.164997,48.1356475 154.106338,48.1356475 C155.40888,48.1356475 156.325497,47.4167626 156.325497,46.0608273 L156.325497,45.5120863 C155.786742,46.1653237 155.014713,46.5692806 153.929142,46.5692806 C152.03123,46.5692806 150.342405,44.9789928 150.342405,42.5815108 C150.342405,40.1759353 152.03123,38.5856475 153.929142,38.5856475 C155.022955,38.5856475 155.803047,38.9969784 156.341622,39.6667626" id="Fill-15" fill="#6633FF"></path><path d="M160.080937,46.6176259 L162.179875,46.6176259 L162.179875,38.7953237 L160.080937,38.7953237 L160.080937,46.6176259 Z M162.461346,36.2359712 C162.461346,36.9955036 161.865796,37.576259 161.118133,37.576259 C160.36205,37.576259 159.783342,36.9955036 159.783342,36.2359712 C159.783342,35.477518 160.36205,34.8802158 161.118133,34.8802158 C161.865796,34.8802158 162.461346,35.477518 162.461346,36.2359712 Z" id="Fill-16" fill="#6633FF"></path><path d="M165.767831,41.9678237 L169.217864,41.9678237 C169.024722,40.9584712 168.42971,40.4014568 167.520797,40.4014568 C166.523914,40.4014568 165.952552,40.991205 165.767831,41.9678237 M171.324864,42.6942626 C171.324864,42.9444424 171.308918,43.2192626 171.284731,43.405054 L165.759589,43.405054 C165.968677,44.5347302 166.772956,45.027536 167.762314,45.027536 C168.437414,45.027536 169.161606,44.7609892 169.732431,44.2764568 L170.962947,45.6331115 C170.07016,46.4482194 168.960402,46.8194424 167.641377,46.8194424 C165.261327,46.8194424 163.59651,45.1805935 163.59651,42.7264568 C163.59651,40.2723201 165.20471,38.5856295 167.536922,38.5856295 C169.780627,38.5856295 171.324864,40.2564928 171.324864,42.6942626" id="Fill-17" fill="#6633FF"></path><path d="M175.77282,40.3371763 C174.968541,40.3371763 174.574732,40.6193705 174.574732,41.0472482 C174.574732,41.5080396 175.137674,41.612536 175.845024,41.7177518 L176.536787,41.8222482 C178.233495,42.0805216 179.166595,42.8316007 179.166595,44.1636151 C179.166595,45.7785432 177.84757,46.8193705 175.587741,46.8193705 C174.526357,46.8193705 173.135128,46.6096583 172.121762,45.8995863 L172.950228,44.3010252 C173.609741,44.7452698 174.437849,45.0679317 175.604045,45.0679317 C176.57692,45.0679317 177.043649,44.7929317 177.043649,44.3332194 C177.043649,43.953723 176.657545,43.7440108 175.748632,43.615054 L175.113487,43.5260252 C173.320028,43.2760252 172.419178,42.4844784 172.419178,41.152464 C172.419178,39.5458094 173.657578,38.5931115 175.708678,38.5931115 C176.946899,38.5931115 177.94432,38.8193705 178.965391,39.3360971 L178.257682,40.974946 C177.638662,40.676205 176.649482,40.3371763 175.77282,40.3371763" id="Fill-18" fill="#6633FF"></path><path d="M6.77070833,0.041852518 L6.77052917,0.041852518 C3.03132083,0.041852518 0,3.08483813 0,6.83861511 C0,10.5922122 3.03132083,13.6351978 6.77052917,13.6351978 L6.77070833,13.6351978 C10.5099167,13.6351978 13.5412375,10.5922122 13.5412375,6.83861511 C13.5412375,3.08483813 10.5099167,0.041852518 6.77070833,0.041852518 M6.77070833,4.11361511 C8.26746667,4.11361511 9.48508333,5.33609712 9.48508333,6.83861511 C9.48508333,8.34113309 8.26746667,9.56343525 6.77052917,9.56343525 C5.27395,9.56343525 4.05615417,8.34113309 4.05615417,6.83861511 C4.05615417,5.33609712 5.27395,4.11361511 6.77070833,4.11361511" id="Fill-19" fill="#6633FF"></path><path d="M92.3665442,20.3239748 C92.3665442,23.8038309 94.7956858,26.2416007 98.0414692,26.2416007 C101.30929,26.2416007 103.738432,23.8038309 103.738432,20.3239748 C103.738432,16.8433993 101.30929,14.4056295 98.0414692,14.4056295 C94.7956858,14.4056295 92.3665442,16.8433993 92.3665442,20.3239748 M109.633373,20.3239748 C109.633373,26.7957374 104.710053,31.6281115 98.0414692,31.6281115 C91.3949233,31.6281115 86.4931025,26.7957374 86.4931025,20.3239748 C86.4931025,13.8514928 91.3949233,9.01911871 98.0414692,9.01911871 C104.710053,9.01911871 109.633373,13.8514928 109.633373,20.3239748" id="Fill-20" fill="#FFFFFF"></path><path d="M121.417792,31.6281115 C116.05193,31.6281115 111.282692,28.7023921 111.282692,21.9196583 L111.282692,9.59555755 L117.045767,9.59555755 L117.045767,21.409946 C117.045767,24.8453777 118.922717,26.2416007 121.417792,26.2416007 C123.89065,26.2416007 125.7891,24.8453777 125.7891,21.409946 L125.7891,9.59555755 L131.530675,9.59555755 L131.530675,21.9196583 C131.530675,28.7023921 126.782759,31.6281115 121.417792,31.6281115" id="Fill-21" fill="#FFFFFF"></path><path d="M154.57201,17.397536 L154.57201,31.0739748 L148.808935,31.0739748 L148.808935,19.2595863 C148.808935,16.1344065 147.285302,14.4495144 144.636144,14.4495144 C142.162569,14.4495144 140.10914,16.0459173 140.10914,19.3041906 L140.10914,31.0739748 L134.346065,31.0739748 L134.346065,9.59555755 L139.955056,9.59555755 L139.955056,12.122536 C141.47851,9.8396223 143.79639,9.01911871 146.247927,9.01911871 C151.105315,9.01911871 154.57201,12.4104856 154.57201,17.397536" id="Fill-22" fill="#FFFFFF"></path><path d="M45.4855792,18.3065647 L54.9575833,18.3065647 C54.4276083,15.5355216 52.7937875,14.006205 50.2985333,14.006205 C47.5605083,14.006205 45.9931583,15.6247302 45.4855792,18.3065647 M60.742875,20.3017086 C60.742875,20.9883993 60.6989792,21.742536 60.6323292,22.2520683 L45.4633625,22.2520683 C46.036875,25.354946 48.2451042,26.7072842 50.9612708,26.7072842 C52.8160042,26.7072842 54.8035,25.9759892 56.3706708,24.6459532 L59.3344458,28.7322842 C56.9574417,30.7186151 54.049925,31.6281475 50.6299917,31.6281475 C44.0938125,31.6281475 39.5232708,27.1283273 39.5232708,20.3901978 C39.5232708,13.6520683 43.9397292,9.01915468 50.3429667,9.01915468 C56.5032542,9.01915468 60.742875,13.607464 60.742875,20.3017086" id="Fill-23" fill="#FFFFFF"></path><path d="M74.6195842,9.01911871 C71.7267592,9.01911871 69.76148,10.1498741 68.3482133,11.8338669 L68.3482133,0.0417805755 L62.6075342,0.0417805755 L62.6075342,31.0739748 L68.0613675,31.0739748 L68.0613675,20.323795 C68.0613675,16.9326079 70.2912758,14.4056295 73.5592758,14.4056295 C76.9600383,14.4056295 79.0799383,17.0433993 79.0799383,20.323795 C79.0799383,23.6038309 76.9600383,26.2416007 73.5592758,26.2416007 C72.1306008,26.2416007 70.9004425,25.7585072 69.9682383,24.9317086 L69.9682383,30.3020324 C71.1871092,31.1279317 72.70698,31.6281115 74.6410842,31.6281115 C80.5589592,31.6281115 84.9970967,26.7734353 84.9970967,20.323795 C84.9970967,13.8736151 80.5145258,9.01911871 74.6195842,9.01911871" id="Fill-24" fill="#FFFFFF"></path><path d="M30.8562087,18.6390468 C36.7963004,18.0401259 40.3287504,14.5825719 40.3287504,9.48473022 C40.3287504,3.54408273 36.3766921,0.0419244604 29.0012962,0.0419244604 L15.9300129,0.0419244604 L15.9300129,31.0739388 L22.0903004,31.0739388 L22.0903004,5.73850719 L28.8909296,5.73850719 C32.1811462,5.73850719 33.9921629,6.89156475 33.9921629,9.48473022 C33.9921629,12.1225 32.2692962,13.3410252 28.8909296,13.3410252 L23.9971712,13.3410252 L23.9971712,18.8597302 L32.9096379,31.0739388 L40.3731837,31.0739388 L30.8562087,18.6390468 Z" id="Fill-25" fill="#FFFFFF"></path><path d="M173.13554,0.041852518 L173.13554,11.8339388 C171.722453,10.1497662 169.735136,9.01919065 166.84267,9.01919065 C160.925511,9.01919065 156.486657,13.8736871 156.486657,20.3238669 C156.486657,26.7735072 160.925511,31.6280036 166.84267,31.6280036 C168.754378,31.6280036 170.286253,31.1244065 171.516411,30.2940108 L171.516411,24.9278237 C170.580265,25.7569604 169.34294,26.2414928 167.90244,26.2414928 C164.524074,26.2414928 162.382315,23.603723 162.382315,20.3238669 C162.382315,17.0432914 164.524074,14.4055216 167.90244,14.4055216 C171.192657,14.4055216 173.423103,16.9325 173.423103,20.3238669 L173.423103,31.0738669 L178.876399,31.0738669 L178.876399,0.041852518 L173.13554,0.041852518 Z" id="Fill-26" fill="#FFFFFF"></path></g></g></g></g></g></g></svg> 