<?xml version="1.0" standalone="no"?>
<!DOCTYPE svg PUBLIC "-//W3C//DTD SVG 1.1//EN" "http://www.w3.org/Graphics/SVG/1.1/DTD/svg11.dtd" >
<svg>
<metadata>
Created by FontForge 20120731 at Mon Jan 21 06:16:50 2019
 By www-data
2013 published by FontShop International GmbH
</metadata>
<defs>
<font id="Mark-Thin" horiz-adv-x="1200" >
  <font-face 
    font-family="Mark"
    font-weight="275"
    font-stretch="normal"
    units-per-em="2000"
    panose-1="2 0 4 0 0 0 0 0 0 0"
    ascent="1580"
    descent="-420"
    x-height="927"
    cap-height="1400"
    bbox="-882 -481 2152 1848"
    underline-thickness="33"
    underline-position="-228"
    stemh="478"
    stemv="71"
    unicode-range="U+0020-FEFF"
  />
<missing-glyph horiz-adv-x="1189" 
d="M196 1400h797v-1400h-797v1400zM960 33v1334h-731v-1334h731z" />
    <glyph glyph-name="ellipsis" unicode="&#x2e;&#x2e;&#x2e;" horiz-adv-x="1223" 
d="M274 0h-35v132h35v-132zM984 0h-35v132h35v-132zM629 0h-35v132h35v-132z" />
    <glyph glyph-name=".notdef" horiz-adv-x="1189" 
d="M196 1400h797v-1400h-797v1400zM960 33v1334h-731v-1334h731z" />
    <glyph glyph-name=".null" unicode="&#xe000;" horiz-adv-x="0" 
 />
    <glyph glyph-name="CR" unicode="&#xe001;" horiz-adv-x="523" 
 />
    <glyph glyph-name="space" unicode=" " horiz-adv-x="523" 
 />
    <glyph glyph-name="exclam" unicode="!" horiz-adv-x="513" 
d="M274 413h-35v987h35v-987zM274 0h-35v132h35v-132z" />
    <glyph glyph-name="quotedbl" unicode="&#x22;" horiz-adv-x="930" 
d="M350 1440v-434h-35v434h35zM615 1440v-434h-35v434h35z" />
    <glyph glyph-name="numbersign" unicode="#" horiz-adv-x="1437" 
d="M508 1009l83 391h34l-83 -391h489l83 391h33l-83 -391h238l-7 -32h-238l-117 -548h239l-7 -32h-239l-84 -397h-33l84 397h-489l-84 -397h-34l84 397h-242l8 32h241l117 548h-243l7 32h243zM418 429h489l117 548h-489z" />
    <glyph glyph-name="dollar" unicode="$" horiz-adv-x="1400" 
d="M717 1596v-194c198 -5 365 -75 463 -147l-19 -29c-95 69 -256 136 -444 141v-646l103 -10c256 -25 393 -147 393 -335c0 -253 -221 -374 -496 -379v-195h-33v195c-188 3 -391 85 -490 155l20 29c93 -67 286 -146 470 -149v657l-70 8c-282 29 -390 169 -390 336
c0 232 201 367 460 370v193h33zM717 686v-654c259 5 460 112 460 343c0 167 -121 275 -370 302zM260 1033c0 -146 93 -274 368 -303l56 -6v644c-242 -3 -424 -123 -424 -335z" />
    <glyph glyph-name="percent" unicode="%" horiz-adv-x="1852" 
d="M436 1408c189 0 334 -144 334 -333c0 -192 -145 -333 -334 -333c-184 0 -328 141 -328 333c0 189 144 333 328 333zM436 1376c-166 0 -295 -128 -295 -301c0 -174 129 -302 295 -302c172 0 301 128 301 302c0 173 -129 301 -301 301zM504 0h-38l883 1400h38zM1411 659
c188 0 333 -145 333 -334s-145 -333 -333 -333c-185 0 -329 144 -329 333s144 334 329 334zM1411 627c-167 0 -295 -128 -295 -302c0 -173 128 -301 295 -301c171 0 300 128 300 301c0 174 -129 302 -300 302z" />
    <glyph glyph-name="ampersand" unicode="&#x26;" horiz-adv-x="1319" 
d="M1219 0l-294 292c-112 -160 -235 -300 -441 -300c-211 0 -356 128 -356 315c0 209 164 334 325 452c-160 155 -233 244 -233 372c0 147 121 276 285 276c163 0 285 -124 285 -266c0 -167 -136 -276 -283 -383l416 -411l261 370l28 -17l-265 -377l324 -323h-52zM486 26
c190 0 303 130 415 290l-424 419c-157 -114 -312 -236 -312 -427c0 -164 133 -282 321 -282zM257 1129c0 -115 68 -193 226 -348c141 104 271 206 271 359c0 125 -105 234 -249 234s-248 -114 -248 -245z" />
    <glyph glyph-name="quotesingle" unicode="'" horiz-adv-x="665" 
d="M350 1440v-434h-35v434h35z" />
    <glyph glyph-name="parenleft" unicode="(" horiz-adv-x="757" 
d="M667 1377c-272 -85 -468 -420 -468 -809c0 -388 196 -723 468 -808l-11 -33c-285 91 -494 438 -494 841c0 404 209 751 494 842z" />
    <glyph glyph-name="parenright" unicode=")" horiz-adv-x="757" 
d="M90 -240c272 85 468 420 468 809c0 388 -196 723 -468 808l11 33c285 -91 494 -438 494 -841c0 -404 -209 -751 -494 -842z" />
    <glyph glyph-name="asterisk" unicode="*" horiz-adv-x="797" 
d="M385 1163v277h29v-277l262 86l8 -28l-261 -86l162 -223l-23 -17l-163 224l-162 -224l-23 17l162 223l-263 86l8 28z" />
    <glyph glyph-name="plus" unicode="+" 
d="M579 120v385h-385v33h385v394h33v-394h394v-33h-394v-385h-33z" />
    <glyph glyph-name="comma" unicode="," horiz-adv-x="474" 
d="M286 205l-76 -434h-31l68 434h39z" />
    <glyph glyph-name="hyphen" unicode="-" horiz-adv-x="824" 
d="M667 505h-510v33h510v-33z" />
    <glyph glyph-name="period" unicode="." horiz-adv-x="513" 
d="M274 0h-35v133h35v-133z" />
    <glyph glyph-name="slash" unicode="/" horiz-adv-x="965" 
d="M70 -200h-39l849 1740h39z" />
    <glyph glyph-name="zero.lf" unicode="&#xe022;" horiz-adv-x="1413" 
d="M707 1407c304 0 555 -263 555 -706c0 -442 -251 -708 -555 -708c-305 0 -556 266 -556 708c0 443 251 706 556 706zM707 1373c-284 0 -519 -250 -519 -672c0 -423 235 -674 519 -674s518 251 518 674c0 422 -234 672 -518 672z" />
    <glyph glyph-name="one.lf" unicode="&#xe00e;" horiz-adv-x="878" 
d="M637 0h-36v1355l-525 -228v38l561 242v-1407z" />
    <glyph glyph-name="two.lf" unicode="&#xe01a;" horiz-adv-x="1073" 
d="M98 1180c64 111 180 227 393 227c273 0 415 -183 415 -402c0 -170 -91 -297 -191 -402l-546 -568h799v-35h-853v28l573 596c99 104 181 223 181 381c0 199 -128 368 -379 368c-194 0 -301 -105 -365 -214z" />
    <glyph glyph-name="three.lf" unicode="&#xe017;" horiz-adv-x="1061" 
d="M466 1407c260 0 436 -150 436 -353c0 -191 -115 -309 -280 -346c179 -40 311 -162 311 -342c0 -254 -223 -373 -455 -373c-172 0 -302 58 -402 153l24 25c96 -91 220 -144 377 -144c216 0 419 107 419 339c0 200 -183 325 -405 325h-213v35h213c212 0 374 113 374 328
c0 183 -165 319 -401 319c-157 0 -279 -73 -356 -174l-28 22c83 107 214 186 386 186z" />
    <glyph glyph-name="four.lf" unicode="&#xe008;" horiz-adv-x="1151" 
d="M806 370h285v-35h-285v-335h-36v335h-710v29l523 1036h40l-520 -1030h667v416h36v-416z" />
    <glyph glyph-name="five.lf" unicode="&#xe005;" horiz-adv-x="1139" 
d="M953 1366h-678l-26 -557h248c333 0 507 -165 507 -397c0 -256 -188 -420 -457 -420c-187 0 -336 69 -449 208l25 23c107 -132 249 -196 424 -196c253 0 420 154 420 382c0 215 -158 366 -478 366h-274l26 625h712v-34z" />
    <glyph glyph-name="six.lf" unicode="&#xe014;" horiz-adv-x="1139" 
d="M267 777c81 60 184 92 300 92c275 0 474 -188 474 -438c0 -252 -199 -438 -474 -438c-276 0 -476 188 -476 438c0 83 22 158 63 227l442 742h44zM567 835c-254 0 -439 -172 -439 -404s183 -404 439 -404c254 0 437 172 437 404s-183 404 -437 404z" />
    <glyph glyph-name="seven.lf" unicode="&#xe011;" horiz-adv-x="1093" 
d="M1018 1372l-683 -1372h-41l681 1366h-884v34h927v-28z" />
    <glyph glyph-name="eight.lf" unicode="&#xe002;" horiz-adv-x="1243" 
d="M622 1407c251 0 460 -125 460 -354c0 -192 -135 -304 -311 -344c195 -37 344 -155 344 -347c0 -244 -223 -370 -493 -370c-271 0 -494 126 -494 370c0 192 150 310 344 347c-176 40 -310 152 -310 344c0 229 209 354 460 354zM622 692c-252 0 -456 -115 -456 -330
c0 -221 205 -336 456 -336s456 115 456 336c0 215 -205 330 -456 330zM622 1373c-231 0 -422 -110 -422 -320c0 -219 191 -328 422 -328c230 0 422 109 422 328c0 210 -192 320 -422 320z" />
    <glyph glyph-name="nine.lf" unicode="&#xe00b;" horiz-adv-x="1139" 
d="M873 624c-81 -60 -184 -93 -301 -93c-275 0 -474 188 -474 439c0 248 199 437 474 437c276 0 476 -189 476 -437c0 -83 -21 -158 -62 -227l-443 -743h-43zM572 565c255 0 439 172 439 405c0 229 -183 404 -439 404c-255 0 -437 -175 -437 -404c0 -232 182 -405 437 -405z
" />
    <glyph glyph-name="colon" unicode=":" horiz-adv-x="512" 
d="M274 0h-35v132h35v-132zM274 795h-35v132h35v-132z" />
    <glyph glyph-name="semicolon" unicode=";" horiz-adv-x="474" 
d="M286 205l-76 -434h-31l68 434h39zM255 795h-35v132h35v-132z" />
    <glyph glyph-name="less" unicode="&#x3c;" 
d="M967 145l-734 358v37l734 358v-37l-699 -339l699 -339v-38z" />
    <glyph glyph-name="equal" unicode="=" 
d="M1006 349h-812v33h812v-33zM1006 662h-812v32h812v-32z" />
    <glyph glyph-name="greater" unicode="&#x3e;" 
d="M233 899l734 -358v-37l-734 -358v37l699 339l-699 339v38z" />
    <glyph glyph-name="question" unicode="?" horiz-adv-x="814" 
d="M244 413v299h16c256 0 423 131 423 332c0 197 -178 328 -413 328c-31 0 -67 -2 -95 -5l-4 35c31 4 68 6 101 6c255 0 449 -144 449 -363c0 -215 -174 -359 -443 -367l-2 -265h-32zM278 0h-35v132h35v-132z" />
    <glyph glyph-name="at" unicode="@" horiz-adv-x="1986" 
d="M1367 350c0 -153 65 -212 151 -212c147 0 247 164 247 385c0 452 -344 741 -772 741c-429 0 -771 -338 -771 -764c0 -432 342 -773 771 -773c175 0 332 55 463 151l18 -24c-136 -100 -301 -157 -481 -157c-447 0 -804 357 -804 803c0 440 357 794 804 794
s804 -305 804 -771c0 -231 -112 -415 -280 -415c-106 0 -181 74 -181 229v4c-56 -139 -189 -233 -356 -233c-218 0 -387 169 -387 392s169 392 387 392c167 0 300 -95 356 -235v228h31v-535zM980 862c-203 0 -355 -155 -355 -362s152 -362 355 -362c205 0 357 155 357 362
c0 208 -152 362 -357 362z" />
    <glyph glyph-name="A" unicode="A" horiz-adv-x="1371" 
d="M1324 0h-40l-199 452h-800l-198 -452h-39l616 1404h43zM301 487h769l-385 876z" />
    <glyph glyph-name="B" unicode="B" horiz-adv-x="1397" 
d="M765 1400c284 0 471 -102 471 -350c0 -184 -113 -290 -289 -330c196 -38 315 -151 315 -352c0 -256 -191 -368 -482 -368h-555v1400h540zM262 702v-667h517c269 0 445 96 445 334s-175 333 -445 333h-517zM262 1365v-628h502c261 0 434 89 434 313
c0 226 -173 315 -435 315h-501z" />
    <glyph glyph-name="C" unicode="C" horiz-adv-x="1525" 
d="M839 1408c232 0 444 -109 555 -284l-31 -21c-107 166 -304 269 -524 269c-368 0 -666 -269 -666 -672s298 -672 666 -672c219 0 418 102 524 269l30 -22c-111 -175 -321 -283 -554 -283c-390 0 -704 287 -704 708s314 708 704 708z" />
    <glyph glyph-name="D" unicode="D" horiz-adv-x="1616" 
d="M698 1400c490 0 783 -263 783 -700s-293 -700 -783 -700h-473v1400h473zM262 1365v-1329h436c472 0 745 250 745 664c0 415 -273 665 -745 665h-436z" />
    <glyph glyph-name="E" unicode="E" horiz-adv-x="1321" 
d="M1141 0h-916v1400h914v-35h-877v-642h857v-36h-857v-652h879v-35z" />
    <glyph glyph-name="F" unicode="F" horiz-adv-x="1273" 
d="M1115 687h-853v-687h-37v1400h913v-35h-876v-642h853v-36z" />
    <glyph glyph-name="G" unicode="G" horiz-adv-x="1636" 
d="M839 1408c218 0 415 -96 543 -250l-28 -25c-123 147 -306 239 -515 239c-368 0 -666 -269 -666 -672s298 -672 665 -672c373 0 618 260 623 654h-559v35h599v-16c0 -419 -263 -709 -663 -709c-383 0 -703 280 -703 708c0 421 313 708 704 708z" />
    <glyph glyph-name="H" unicode="H" horiz-adv-x="1544" 
d="M262 723h1020v677h37v-1400h-37v687h-1020v-687h-37v1400h37v-677z" />
    <glyph glyph-name="I" unicode="I" horiz-adv-x="487" 
d="M262 0h-37v1400h37v-1400z" />
    <glyph glyph-name="J" unicode="J" horiz-adv-x="1152" 
d="M938 507c0 -331 -209 -515 -483 -515c-182 0 -318 81 -398 163l24 26c79 -79 205 -153 374 -153c255 0 446 170 446 482v890h37v-893z" />
    <glyph glyph-name="K" unicode="K" horiz-adv-x="1320" 
d="M484 686h-222v-686h-37v1400h37v-678h221l693 678h49l-712 -694l753 -706h-51z" />
    <glyph glyph-name="L" unicode="L" horiz-adv-x="1184" 
d="M1139 0h-914v1400h37v-1364h877v-36z" />
    <glyph glyph-name="M" unicode="M" horiz-adv-x="1836" 
d="M1611 0h-37v1353l-637 -1163h-38l-637 1162v-1352h-37v1404h50l643 -1170l642 1170h51v-1404z" />
    <glyph glyph-name="N" unicode="N" horiz-adv-x="1548" 
d="M1323 -4h-32l-1029 1343v-1339h-37v1404h33l1028 -1343v1339h37v-1404z" />
    <glyph glyph-name="O" unicode="O" horiz-adv-x="1678" 
d="M839 1408c392 0 704 -286 704 -708s-312 -708 -704 -708c-391 0 -704 287 -704 708s313 708 704 708zM839 1372c-369 0 -666 -269 -666 -672s297 -672 666 -672s666 269 666 672s-297 672 -666 672z" />
    <glyph glyph-name="P" unicode="P" horiz-adv-x="1336" 
d="M262 587v-587h-37v1400h501c299 0 493 -146 493 -407c0 -262 -194 -406 -493 -406h-464zM262 1365v-743h463c276 0 456 129 456 371c0 243 -180 372 -456 372h-463z" />
    <glyph glyph-name="Q" unicode="Q" horiz-adv-x="1678" 
d="M839 1408c392 0 704 -286 704 -708c0 -183 -57 -335 -154 -454l206 -246h-44l-185 218c-129 -144 -315 -226 -527 -226c-391 0 -704 287 -704 708s313 708 704 708zM839 1372c-369 0 -666 -269 -666 -672s297 -672 666 -672c203 0 380 79 503 219l-386 461h45l364 -434
c88 113 140 255 140 426c0 403 -297 672 -666 672z" />
    <glyph glyph-name="R" unicode="R" horiz-adv-x="1316" 
d="M724 1400c299 0 473 -139 473 -376s-176 -377 -473 -377h-124l589 -647h-48l-586 647h-293v-647h-37v1400h499zM262 1365v-684h466c273 0 431 126 431 343c0 216 -159 341 -431 341h-466z" />
    <glyph glyph-name="S" unicode="S" horiz-adv-x="1336" 
d="M1132 1220c-101 77 -257 152 -476 152c-256 0 -450 -123 -450 -337c0 -155 99 -276 383 -303l201 -20c268 -27 411 -128 411 -337c0 -262 -240 -383 -542 -383c-224 0 -417 89 -524 166l21 29c98 -72 284 -159 503 -159c283 0 504 107 504 344c0 187 -130 277 -386 304
l-202 20c-295 29 -408 158 -408 337c0 239 213 374 489 374c230 0 391 -77 496 -157z" />
    <glyph glyph-name="T" unicode="T" horiz-adv-x="1220" 
d="M1175 1365h-546v-1365h-37v1365h-547v35h1130v-35z" />
    <glyph glyph-name="U" unicode="U" horiz-adv-x="1490" 
d="M1288 540c0 -363 -244 -548 -543 -548c-301 0 -543 185 -543 548v860h37v-858c0 -340 224 -514 506 -514c281 0 506 174 506 514v858h37v-860z" />
    <glyph glyph-name="V" unicode="V" horiz-adv-x="1365" 
d="M703 -4h-42l-613 1404h39l595 -1364l596 1364h39z" />
    <glyph glyph-name="W" unicode="W" horiz-adv-x="2229" 
d="M1644 -4h-42l-488 1357l-487 -1357h-42l-508 1404h39l491 -1359l488 1363h40l488 -1363l491 1359h38z" />
    <glyph glyph-name="X" unicode="X" horiz-adv-x="1388" 
d="M718 719l581 -719h-46l-560 692l-560 -692h-44l581 719l-550 681h46l528 -653l529 653h45z" />
    <glyph glyph-name="Y" unicode="Y" horiz-adv-x="1209" 
d="M623 635v-635h-37v636l-572 764h45l546 -728l546 728h44z" />
    <glyph glyph-name="Z" unicode="Z" horiz-adv-x="1356" 
d="M1214 1373l-1029 -1337h1036v-36h-1086v29l1028 1336h-1002v35h1053v-27z" />
    <glyph glyph-name="bracketleft" unicode="[" horiz-adv-x="707" 
d="M617 -263h-392v1663h392v-33h-356v-1597h356v-33z" />
    <glyph glyph-name="backslash" unicode="\" horiz-adv-x="965" 
d="M46 1540h39l849 -1740h-39z" />
    <glyph glyph-name="bracketright" unicode="]" horiz-adv-x="707" 
d="M90 1400h392v-1663h-392v33h356v1597h-356v33z" />
    <glyph glyph-name="underscore" unicode="_" horiz-adv-x="931" 
d="M936 -213h-941v33h941v-33z" />
    <glyph glyph-name="a" unicode="a" horiz-adv-x="1243" 
d="M1046 0h-35v284c-66 -172 -227 -292 -428 -292c-264 0 -466 203 -466 471c0 270 202 471 466 471c201 0 362 -120 428 -292v285h35v-927zM583 901c-246 0 -430 -189 -430 -438c0 -248 184 -437 430 -437c245 0 429 189 429 437c0 250 -184 438 -429 438z" />
    <glyph glyph-name="b" unicode="b" horiz-adv-x="1242" 
d="M659 934c264 0 466 -201 466 -471c0 -268 -202 -471 -466 -471c-201 0 -364 120 -428 292v-284h-35v1440h35v-798c66 172 227 292 428 292zM659 901c-245 0 -429 -188 -429 -438c0 -248 184 -437 429 -437c246 0 430 189 430 437c0 249 -184 438 -430 438z" />
    <glyph glyph-name="c" unicode="c" horiz-adv-x="1019" 
d="M582 934c136 0 253 -53 337 -141l-24 -23c-80 83 -189 131 -314 131c-244 0 -428 -188 -428 -438c0 -251 184 -437 428 -437c125 0 235 50 314 131l24 -24c-84 -88 -201 -141 -337 -141c-267 0 -465 203 -465 471s198 471 465 471z" />
    <glyph glyph-name="d" unicode="d" horiz-adv-x="1243" 
d="M583 934c201 0 362 -120 428 -292v798h35v-1440h-35v284c-66 -172 -227 -292 -428 -292c-264 0 -466 203 -466 471c0 270 202 471 466 471zM583 901c-246 0 -430 -189 -430 -438c0 -248 184 -437 430 -437c245 0 429 189 429 437c0 250 -184 438 -429 438z" />
    <glyph glyph-name="e" unicode="e" horiz-adv-x="1123" 
d="M575 934c236 0 426 -194 431 -462c0 -7 0 -13 -1 -16h-852c3 -253 182 -430 425 -430c163 0 269 66 356 164l22 -24c-121 -139 -251 -174 -380 -174c-266 0 -459 197 -459 470c0 272 205 472 458 472zM574 901c-228 0 -409 -175 -420 -413h815c-8 238 -182 413 -395 413z
" />
    <glyph glyph-name="f" unicode="f" horiz-adv-x="901" 
d="M827 894h-469v-894h-35v894h-264v33h264v162c0 220 79 359 302 359c97 0 184 -30 244 -70l-15 -29c-56 36 -138 65 -227 65c-200 0 -269 -123 -269 -325v-162h469v-33z" />
    <glyph glyph-name="g" unicode="g" horiz-adv-x="1241" 
d="M582 934c199 0 361 -117 427 -287v280h35v-865c0 -324 -235 -469 -477 -469c-167 0 -305 61 -393 157l19 25c84 -91 217 -149 374 -149c224 0 442 132 442 435v218c-66 -170 -228 -287 -427 -287c-264 0 -465 203 -465 471c0 270 201 471 465 471zM582 901
c-245 0 -429 -189 -429 -438c0 -248 184 -437 429 -437s430 189 430 437c0 250 -185 438 -430 438z" />
    <glyph glyph-name="h" unicode="h" horiz-adv-x="1189" 
d="M231 692c56 142 194 242 372 242c244 0 401 -142 401 -385v-549h-35v549c0 212 -131 352 -369 352c-212 0 -369 -157 -369 -361v-540h-35v1440h35v-748z" />
    <glyph glyph-name="i" unicode="i" horiz-adv-x="428" 
d="M231 0h-35v927h35v-927zM231 1201h-35v133h35v-133z" />
    <glyph glyph-name="j" unicode="j" horiz-adv-x="429" 
d="M232 -227c0 -116 -47 -180 -150 -180c-49 0 -92 17 -119 36l11 30c25 -19 62 -32 105 -32c84 0 118 50 118 147v1153h35v-1154zM232 1201h-35v133h35v-133z" />
    <glyph glyph-name="k" unicode="k" horiz-adv-x="1007" 
d="M231 504h186l469 423h46l-487 -438l498 -489h-45l-481 471h-186v-471h-35v1440h35v-936z" />
    <glyph glyph-name="l" unicode="l" horiz-adv-x="428" 
d="M231 0h-35v1440h35v-1440z" />
    <glyph glyph-name="m" unicode="m" horiz-adv-x="1962" 
d="M1373 934c246 0 404 -142 404 -385v-549h-35v549c0 212 -131 352 -369 352c-212 0 -369 -157 -369 -361v-540h-35v549c0 212 -131 352 -369 352c-212 0 -369 -157 -369 -361v-540h-35v927h35v-235c56 142 194 242 372 242c200 0 344 -98 387 -269c51 157 196 269 383 269
z" />
    <glyph glyph-name="n" unicode="n" horiz-adv-x="1189" 
d="M603 934c244 0 401 -142 401 -385v-549h-35v549c0 212 -131 352 -369 352c-212 0 -369 -157 -369 -361v-540h-35v927h35v-235c56 142 194 242 372 242z" />
    <glyph glyph-name="o" unicode="o" horiz-adv-x="1168" 
d="M583 934c264 0 468 -203 468 -471s-204 -471 -468 -471c-265 0 -466 203 -466 471s201 471 466 471zM583 901c-245 0 -430 -188 -430 -438c0 -251 185 -437 430 -437s432 186 432 437c0 250 -187 438 -432 438z" />
    <glyph glyph-name="p" unicode="p" horiz-adv-x="1242" 
d="M659 934c264 0 466 -201 466 -471c0 -268 -202 -471 -466 -471c-201 0 -364 120 -428 292v-684h-35v1327h35v-285c66 172 227 292 428 292zM659 901c-245 0 -429 -188 -429 -438c0 -248 184 -437 429 -437c246 0 430 189 430 437c0 249 -184 438 -430 438z" />
    <glyph glyph-name="q" unicode="q" horiz-adv-x="1243" 
d="M583 934c201 0 362 -120 428 -292v285h35v-1327h-35v684c-66 -172 -227 -292 -428 -292c-264 0 -466 203 -466 471c0 270 202 471 466 471zM583 901c-246 0 -430 -189 -430 -438c0 -248 184 -437 430 -437c245 0 429 189 429 437c0 250 -184 438 -429 438z" />
    <glyph glyph-name="r" unicode="r" horiz-adv-x="777" 
d="M537 935c67 0 130 -14 181 -43l-11 -32c-48 28 -109 42 -172 42c-180 0 -304 -160 -304 -366v-536h-35v927h35v-220c48 134 157 228 306 228z" />
    <glyph glyph-name="s" unicode="s" horiz-adv-x="945" 
d="M804 797c-68 53 -194 104 -338 104c-174 0 -307 -79 -307 -216c0 -103 68 -176 261 -195l137 -13c187 -19 290 -91 290 -228c0 -174 -166 -256 -381 -256c-168 0 -284 52 -368 117l18 27c78 -62 183 -112 351 -112c191 0 344 69 344 222c0 115 -87 181 -260 197l-138 13
c-214 19 -290 111 -290 227c0 157 147 250 343 250c149 0 281 -51 355 -109z" />
    <glyph glyph-name="t" unicode="t" horiz-adv-x="902" 
d="M820 894h-488v-592c0 -184 96 -276 255 -276c99 0 180 30 235 85l20 -25c-60 -59 -148 -94 -257 -94c-178 0 -288 105 -288 310v592h-238v33h238v321h35v-321h488v-33z" />
    <glyph glyph-name="u" unicode="u" horiz-adv-x="1176" 
d="M991 375c0 -235 -168 -383 -404 -383c-237 0 -403 148 -403 383v552h35v-549c0 -216 147 -352 368 -352s369 136 369 352v549h35v-552z" />
    <glyph glyph-name="v" unicode="v" horiz-adv-x="1004" 
d="M520 -4h-36l-441 931h38l421 -892l422 892h37z" />
    <glyph glyph-name="w" unicode="w" horiz-adv-x="1769" 
d="M1272 36l395 891h37l-412 -927h-40l-368 889l-368 -889h-40l-411 927h37l394 -890l369 890h38z" />
    <glyph glyph-name="x" unicode="x" horiz-adv-x="970" 
d="M508 474l423 -474h-44l-403 448l-403 -448h-42l422 473l-403 454h43l384 -430l385 430h42z" />
    <glyph glyph-name="y" unicode="y" horiz-adv-x="972" 
d="M152 -401h-40l375 623l-457 705h40l438 -671l402 671h40z" />
    <glyph glyph-name="z" unicode="z" horiz-adv-x="1088" 
d="M943 900l-758 -867h765v-33h-813v26l760 868h-737v33h783v-27z" />
    <glyph glyph-name="braceleft" unicode="{" horiz-adv-x="805" 
d="M634 1367c-140 0 -242 -83 -229 -281l13 -200c11 -193 -72 -290 -201 -317c129 -27 212 -124 201 -317l-12 -183c-13 -213 87 -298 228 -298h81v-33h-81c-162 0 -280 100 -264 334l12 183c13 213 -95 298 -247 298v33c152 0 260 84 247 297l-13 202
c-13 215 101 315 265 315h81v-33h-81z" />
    <glyph glyph-name="bar" unicode="|" horiz-adv-x="665" 
d="M350 -265h-35v1665h35v-1665z" />
    <glyph glyph-name="braceright" unicode="}" horiz-adv-x="805" 
d="M171 -229c140 0 242 83 229 281l-13 200c-13 193 74 291 201 317c-127 26 -214 124 -201 317l12 183c13 213 -87 298 -228 298h-81v33h81c162 0 280 -100 264 -334l-12 -183c-13 -213 95 -298 247 -298v-33c-152 0 -260 -84 -247 -297l13 -203
c13 -213 -101 -314 -265 -314h-81v33h81z" />
    <glyph glyph-name="uni00A0" unicode="&#xa0;" horiz-adv-x="523" 
 />
    <glyph glyph-name="exclamdown" unicode="&#xa1;" horiz-adv-x="513" 
d="M239 514h35v-987h-35v987zM239 927h35v-132h-35v132z" />
    <glyph glyph-name="sterling" unicode="&#xa3;" horiz-adv-x="1400" 
d="M1196 0h-992v35h203v649h-203v32h203v246c0 292 185 445 411 445c149 0 271 -64 351 -195l-28 -21c-72 121 -184 182 -323 182c-208 0 -376 -139 -376 -413v-244h583v-32h-583v-649h754v-35z" />
    <glyph glyph-name="yen" unicode="&#xa5;" horiz-adv-x="1400" 
d="M1158 378h-439v-378h-36v378h-439v32h439v272h-439v32h427l-529 686h44l515 -667l514 667h43l-527 -686h427v-32h-439v-272h439v-32z" />
    <glyph glyph-name="section" unicode="&#xa7;" horiz-adv-x="1314" 
d="M1087 1222c-90 77 -247 152 -432 152c-233 0 -408 -104 -408 -280c0 -144 127 -234 352 -253l173 -15c199 -16 380 -112 380 -285c0 -124 -74 -212 -186 -261c100 -47 166 -122 166 -230c0 -221 -219 -322 -486 -322c-219 0 -386 86 -484 163l19 29
c96 -72 248 -159 465 -159c253 0 450 89 450 287c0 152 -155 233 -349 252l-187 18c-229 21 -369 121 -369 284c0 117 70 206 182 258c-104 49 -162 128 -162 233c0 198 196 314 444 314c192 0 357 -76 450 -156zM583 808c-67 7 -123 18 -174 37
c-113 -47 -182 -129 -182 -242c0 -144 120 -229 347 -252l183 -18c63 -7 121 -18 174 -38c113 45 185 124 185 244c0 153 -162 238 -356 254z" />
    <glyph glyph-name="copyright" unicode="&#xa9;" horiz-adv-x="1889" 
d="M944 1483c432 0 783 -351 783 -782c0 -430 -351 -781 -783 -781c-431 0 -782 351 -782 781c0 431 351 782 782 782zM944 1451c-414 0 -749 -335 -749 -750c0 -414 335 -749 749 -749s750 335 750 749c0 415 -336 750 -750 750zM1271 933c-63 97 -175 156 -303 156
c-212 0 -383 -156 -383 -388c0 -235 171 -387 383 -387c128 0 242 59 303 156l26 -20c-69 -104 -191 -168 -329 -168c-230 0 -416 170 -416 419c0 250 186 420 416 420c136 0 263 -65 330 -169z" />
    <glyph glyph-name="guillemotleft" unicode="&#xab;" horiz-adv-x="946" 
d="M744 170h-39l-197 352l197 352h39l-197 -352zM402 170h-39l-197 352l197 352h39l-197 -352z" />
    <glyph glyph-name="uni00AD" unicode="&#xad;" horiz-adv-x="824" 
d="M667 505h-510v33h510v-33z" />
    <glyph glyph-name="registered" unicode="&#xae;" horiz-adv-x="768" 
d="M387 1423c180 0 327 -147 327 -331c0 -180 -148 -327 -327 -327c-185 0 -333 147 -333 327c0 184 148 331 333 331zM387 790c166 0 301 134 301 302c0 171 -134 306 -301 306c-171 0 -307 -135 -307 -306c0 -168 136 -302 307 -302zM407 1269c73 0 122 -36 122 -97
c0 -60 -49 -98 -122 -98h-3l125 -149h-28l-124 149h-79v-149h-23v344h132zM298 1248v-154h108c61 0 100 27 100 78c0 49 -39 76 -100 76h-108z" />
    <glyph glyph-name="degree" unicode="&#xb0;" horiz-adv-x="708" 
d="M355 809c-166 0 -301 134 -301 300c0 164 135 299 301 299c165 0 299 -135 299 -299c0 -166 -134 -300 -299 -300zM355 839c148 0 268 119 268 270c0 149 -120 269 -268 269c-150 0 -270 -120 -270 -269c0 -151 120 -270 270 -270z" />
    <glyph glyph-name="periodcentered" unicode="&#xb7;" horiz-adv-x="846" 
d="M441 500h-35v131h35v-131z" />
    <glyph glyph-name="guillemotright" unicode="&#xbb;" horiz-adv-x="946" 
d="M202 873h39l197 -352l-197 -352h-39l197 352zM544 873h39l197 -352l-197 -352h-39l197 352z" />
    <glyph glyph-name="questiondown" unicode="&#xbf;" horiz-adv-x="814" 
d="M570 514v-299h-16c-256 0 -423 -133 -423 -332c0 -197 178 -328 413 -328c31 0 67 2 95 5l4 -35c-31 -4 -68 -6 -101 -6c-255 0 -449 144 -449 363c0 213 173 358 442 366l3 266h32zM536 927h35v-132h-35v132z" />
    <glyph glyph-name="Agrave" unicode="&#xc0;" horiz-adv-x="1371" 
d="M1324 0h-40l-199 452h-800l-198 -452h-39l616 1404h43zM301 487h769l-385 876zM505 1775h45l243 -300h-37z" />
    <glyph glyph-name="Aacute" unicode="&#xc1;" horiz-adv-x="1371" 
d="M1324 0h-40l-199 452h-800l-198 -452h-39l616 1404h43zM301 487h769l-385 876zM577 1475l243 300h45l-251 -300h-37z" />
    <glyph glyph-name="Acircumflex" unicode="&#xc2;" horiz-adv-x="1371" 
d="M1324 0h-40l-199 452h-800l-198 -452h-39l616 1404h43zM301 487h769l-385 876zM943 1495l-257 238l-257 -238h-41l279 267h38l279 -267h-41z" />
    <glyph glyph-name="Atilde" unicode="&#xc3;" horiz-adv-x="1371" 
d="M1324 0h-40l-199 452h-800l-198 -452h-39l616 1404h43zM301 487h769l-385 876zM372 1594c47 71 97 109 180 109c133 0 148 -101 268 -101c71 0 113 33 157 97l23 -20c-48 -71 -99 -109 -180 -109c-132 0 -147 102 -268 102c-71 0 -113 -34 -157 -98z" />
    <glyph glyph-name="Adieresis" unicode="&#xc4;" horiz-adv-x="1371" 
d="M1324 0h-40l-199 452h-800l-198 -452h-39l616 1404h43zM301 487h769l-385 876zM495 1542h-35v133h35v-133zM913 1542h-35v133h35v-133z" />
    <glyph glyph-name="Aring" unicode="&#xc5;" horiz-adv-x="1371" 
d="M1324 0h-40l-199 452h-800l-198 -452h-39l616 1404h43zM301 487h769l-385 876zM686 1468c-103 0 -188 83 -188 187c0 101 85 187 188 187c104 0 187 -86 187 -187c0 -104 -83 -187 -187 -187zM686 1498c85 0 156 70 156 157s-71 157 -156 157c-87 0 -157 -70 -157 -157
s70 -157 157 -157z" />
    <glyph glyph-name="AE" unicode="&#xc6;" horiz-adv-x="2221" 
d="M2041 0h-916v447h-699l-343 -447h-45l1076 1400h925v-35h-877v-642h857v-36h-857v-652h879v-35zM1125 483v874l-672 -874h672z" />
    <glyph glyph-name="Ccedilla" unicode="&#xc7;" horiz-adv-x="1525" 
d="M769 -325h-38l105 329l36 -1zM839 1408c232 0 444 -109 555 -284l-31 -21c-107 166 -304 269 -524 269c-368 0 -666 -269 -666 -672s298 -672 666 -672c219 0 418 102 524 269l30 -22c-111 -175 -321 -283 -554 -283c-390 0 -704 287 -704 708s314 708 704 708z" />
    <glyph glyph-name="Egrave" unicode="&#xc8;" horiz-adv-x="1321" 
d="M1141 0h-916v1400h914v-35h-877v-642h857v-36h-857v-652h879v-35zM493 1775h45l243 -300h-37z" />
    <glyph glyph-name="Eacute" unicode="&#xc9;" horiz-adv-x="1321" 
d="M1141 0h-916v1400h914v-35h-877v-642h857v-36h-857v-652h879v-35zM565 1475l243 300h45l-251 -300h-37z" />
    <glyph glyph-name="Ecircumflex" unicode="&#xca;" horiz-adv-x="1321" 
d="M1141 0h-916v1400h914v-35h-877v-642h857v-36h-857v-652h879v-35zM931 1495l-257 238l-257 -238h-41l279 267h38l279 -267h-41z" />
    <glyph glyph-name="Edieresis" unicode="&#xcb;" horiz-adv-x="1321" 
d="M1141 0h-916v1400h914v-35h-877v-642h857v-36h-857v-652h879v-35zM483 1542h-35v133h35v-133zM901 1542h-35v133h35v-133z" />
    <glyph glyph-name="Igrave" unicode="&#xcc;" horiz-adv-x="487" 
d="M262 0h-37v1400h37v-1400zM63 1775h45l243 -300h-37z" />
    <glyph glyph-name="Iacute" unicode="&#xcd;" horiz-adv-x="487" 
d="M262 0h-37v1400h37v-1400zM135 1475l243 300h45l-251 -300h-37z" />
    <glyph glyph-name="Icircumflex" unicode="&#xce;" horiz-adv-x="487" 
d="M262 0h-37v1400h37v-1400zM501 1495l-257 238l-257 -238h-41l279 267h38l279 -267h-41z" />
    <glyph glyph-name="Idieresis" unicode="&#xcf;" horiz-adv-x="487" 
d="M262 0h-37v1400h37v-1400zM53 1542h-35v133h35v-133zM471 1542h-35v133h35v-133z" />
    <glyph glyph-name="Eth" unicode="&#xd0;" horiz-adv-x="1839" 
d="M921 1400c490 0 783 -263 783 -700s-293 -700 -783 -700h-473v687h-313v36h313v677h473zM943 687h-458v-651h436c472 0 745 250 745 664c0 415 -273 665 -745 665h-436v-642h458v-36z" />
    <glyph glyph-name="Ntilde" unicode="&#xd1;" horiz-adv-x="1548" 
d="M1323 -4h-32l-1029 1343v-1339h-37v1404h33l1028 -1343v1339h37v-1404zM460 1594c47 71 97 109 180 109c133 0 148 -101 268 -101c71 0 113 33 157 97l23 -20c-48 -71 -99 -109 -180 -109c-132 0 -147 102 -268 102c-71 0 -113 -34 -157 -98z" />
    <glyph glyph-name="Ograve" unicode="&#xd2;" horiz-adv-x="1678" 
d="M839 1408c392 0 704 -286 704 -708s-312 -708 -704 -708c-391 0 -704 287 -704 708s313 708 704 708zM839 1372c-369 0 -666 -269 -666 -672s297 -672 666 -672s666 269 666 672s-297 672 -666 672zM658 1775h45l243 -300h-37z" />
    <glyph glyph-name="Oacute" unicode="&#xd3;" horiz-adv-x="1678" 
d="M839 1408c392 0 704 -286 704 -708s-312 -708 -704 -708c-391 0 -704 287 -704 708s313 708 704 708zM839 1372c-369 0 -666 -269 -666 -672s297 -672 666 -672s666 269 666 672s-297 672 -666 672zM730 1475l243 300h45l-251 -300h-37z" />
    <glyph glyph-name="Ocircumflex" unicode="&#xd4;" horiz-adv-x="1678" 
d="M839 1408c392 0 704 -286 704 -708s-312 -708 -704 -708c-391 0 -704 287 -704 708s313 708 704 708zM839 1372c-369 0 -666 -269 -666 -672s297 -672 666 -672s666 269 666 672s-297 672 -666 672zM1096 1495l-257 238l-257 -238h-41l279 267h38l279 -267h-41z" />
    <glyph glyph-name="Otilde" unicode="&#xd5;" horiz-adv-x="1678" 
d="M839 1408c392 0 704 -286 704 -708s-312 -708 -704 -708c-391 0 -704 287 -704 708s313 708 704 708zM839 1372c-369 0 -666 -269 -666 -672s297 -672 666 -672s666 269 666 672s-297 672 -666 672zM525 1594c47 71 97 109 180 109c133 0 148 -101 268 -101
c71 0 113 33 157 97l23 -20c-48 -71 -99 -109 -180 -109c-132 0 -147 102 -268 102c-71 0 -113 -34 -157 -98z" />
    <glyph glyph-name="Odieresis" unicode="&#xd6;" horiz-adv-x="1678" 
d="M839 1408c392 0 704 -286 704 -708s-312 -708 -704 -708c-391 0 -704 287 -704 708s313 708 704 708zM839 1372c-369 0 -666 -269 -666 -672s297 -672 666 -672s666 269 666 672s-297 672 -666 672zM648 1542h-35v133h35v-133zM1066 1542h-35v133h35v-133z" />
    <glyph glyph-name="multiply" unicode="&#xd7;" 
d="M267 214l307 307l-308 308l24 24l308 -308l313 314l23 -23l-314 -314l315 -314l-24 -24l-315 314l-306 -307z" />
    <glyph glyph-name="Oslash" unicode="&#xd8;" horiz-adv-x="1678" 
d="M839 1408c193 0 365 -69 492 -190l189 189l26 -25l-190 -190c117 -124 187 -291 187 -492c0 -422 -312 -708 -704 -708c-195 0 -365 69 -493 190l-188 -188l-26 25l189 189c-117 124 -186 291 -186 492c0 421 313 708 704 708zM1505 700c0 191 -66 349 -175 466
l-958 -958c121 -116 284 -180 467 -180c369 0 666 269 666 672zM839 1372c-369 0 -666 -269 -666 -672c0 -191 66 -349 174 -466l958 958c-121 115 -283 180 -466 180z" />
    <glyph glyph-name="Ugrave" unicode="&#xd9;" horiz-adv-x="1490" 
d="M1288 540c0 -363 -244 -548 -543 -548c-301 0 -543 185 -543 548v860h37v-858c0 -340 224 -514 506 -514c281 0 506 174 506 514v858h37v-860zM564 1775h45l243 -300h-37z" />
    <glyph glyph-name="Uacute" unicode="&#xda;" horiz-adv-x="1490" 
d="M1288 540c0 -363 -244 -548 -543 -548c-301 0 -543 185 -543 548v860h37v-858c0 -340 224 -514 506 -514c281 0 506 174 506 514v858h37v-860zM636 1475l243 300h45l-251 -300h-37z" />
    <glyph glyph-name="Ucircumflex" unicode="&#xdb;" horiz-adv-x="1490" 
d="M1288 540c0 -363 -244 -548 -543 -548c-301 0 -543 185 -543 548v860h37v-858c0 -340 224 -514 506 -514c281 0 506 174 506 514v858h37v-860zM1002 1495l-257 238l-257 -238h-41l279 267h38l279 -267h-41z" />
    <glyph glyph-name="Udieresis" unicode="&#xdc;" horiz-adv-x="1490" 
d="M1288 540c0 -363 -244 -548 -543 -548c-301 0 -543 185 -543 548v860h37v-858c0 -340 224 -514 506 -514c281 0 506 174 506 514v858h37v-860zM554 1542h-35v133h35v-133zM972 1542h-35v133h35v-133z" />
    <glyph glyph-name="Yacute" unicode="&#xdd;" horiz-adv-x="1209" 
d="M623 635v-635h-37v636l-572 764h45l546 -728l546 728h44zM497 1475l243 300h45l-251 -300h-37z" />
    <glyph glyph-name="Thorn" unicode="&#xde;" horiz-adv-x="1336" 
d="M262 1122h464c299 0 493 -146 493 -407c0 -262 -194 -407 -493 -407h-464v-308h-37v1400h37v-278zM262 1086v-742h463c276 0 456 129 456 371s-180 371 -456 371h-463z" />
    <glyph glyph-name="germandbls" unicode="&#xdf;" horiz-adv-x="1195" 
d="M186 1016c0 274 175 432 424 432c240 0 430 -140 430 -369c0 -184 -115 -307 -269 -341c180 -29 307 -172 307 -362c0 -242 -178 -384 -386 -384c-119 0 -198 28 -265 67l11 31c64 -37 139 -64 250 -64c192 0 355 126 355 350c0 202 -155 344 -369 344h-107v32h88
c192 0 349 116 349 327c0 210 -172 335 -395 335c-225 0 -388 -140 -388 -400v-1014h-35v1016z" />
    <glyph glyph-name="agrave" unicode="&#xe0;" horiz-adv-x="1243" 
d="M1046 0h-35v284c-66 -172 -227 -292 -428 -292c-264 0 -466 203 -466 471c0 270 202 471 466 471c201 0 362 -120 428 -292v285h35v-927zM583 901c-246 0 -430 -189 -430 -438c0 -248 184 -437 430 -437c245 0 429 189 429 437c0 250 -184 438 -429 438zM387 1359h45
l243 -300h-37z" />
    <glyph glyph-name="aacute" unicode="&#xe1;" horiz-adv-x="1243" 
d="M1046 0h-35v284c-66 -172 -227 -292 -428 -292c-264 0 -466 203 -466 471c0 270 202 471 466 471c201 0 362 -120 428 -292v285h35v-927zM583 901c-246 0 -430 -189 -430 -438c0 -248 184 -437 430 -437c245 0 429 189 429 437c0 250 -184 438 -429 438zM504 1059
l243 300h45l-251 -300h-37z" />
    <glyph glyph-name="acircumflex" unicode="&#xe2;" horiz-adv-x="1243" 
d="M1046 0h-35v284c-66 -172 -227 -292 -428 -292c-264 0 -466 203 -466 471c0 270 202 471 466 471c201 0 362 -120 428 -292v285h35v-927zM583 901c-246 0 -430 -189 -430 -438c0 -248 184 -437 430 -437c245 0 429 189 429 437c0 250 -184 438 -429 438zM852 1079
l-257 238l-257 -238h-41l279 267h38l279 -267h-41z" />
    <glyph glyph-name="atilde" unicode="&#xe3;" horiz-adv-x="1243" 
d="M1046 0h-35v284c-66 -172 -227 -292 -428 -292c-264 0 -466 203 -466 471c0 270 202 471 466 471c201 0 362 -120 428 -292v285h35v-927zM583 901c-246 0 -430 -189 -430 -438c0 -248 184 -437 430 -437c245 0 429 189 429 437c0 250 -184 438 -429 438zM299 1178
c47 71 97 109 180 109c133 0 148 -101 268 -101c71 0 113 33 157 97l23 -20c-48 -71 -99 -109 -180 -109c-132 0 -147 102 -268 102c-71 0 -113 -34 -157 -98z" />
    <glyph glyph-name="adieresis" unicode="&#xe4;" horiz-adv-x="1243" 
d="M1046 0h-35v284c-66 -172 -227 -292 -428 -292c-264 0 -466 203 -466 471c0 270 202 471 466 471c201 0 362 -120 428 -292v285h35v-927zM583 901c-246 0 -430 -189 -430 -438c0 -248 184 -437 430 -437c245 0 429 189 429 437c0 250 -184 438 -429 438zM404 1197h-35
v133h35v-133zM822 1197h-35v133h35v-133z" />
    <glyph glyph-name="aring" unicode="&#xe5;" horiz-adv-x="1243" 
d="M1046 0h-35v284c-66 -172 -227 -292 -428 -292c-264 0 -466 203 -466 471c0 270 202 471 466 471c201 0 362 -120 428 -292v285h35v-927zM583 901c-246 0 -430 -189 -430 -438c0 -248 184 -437 430 -437c245 0 429 189 429 437c0 250 -184 438 -429 438zM595 1052
c-103 0 -188 83 -188 187c0 101 85 187 188 187c104 0 187 -86 187 -187c0 -104 -83 -187 -187 -187zM595 1082c85 0 156 70 156 157s-71 157 -156 157c-87 0 -157 -70 -157 -157s70 -157 157 -157z" />
    <glyph glyph-name="ae" unicode="&#xe6;" horiz-adv-x="1864" 
d="M1316 934c236 0 426 -194 431 -462c0 -7 0 -13 -1 -16h-852c3 -253 180 -430 422 -430c164 0 274 68 359 164l22 -24c-121 -139 -254 -174 -383 -174c-183 0 -325 89 -401 236c-90 -138 -260 -236 -443 -236c-214 0 -353 97 -353 249s126 247 385 247h357v74
c0 248 -147 338 -347 338c-144 0 -244 -51 -316 -110l-19 27c80 65 188 117 337 117c200 0 354 -84 375 -309c61 183 229 309 427 309zM1315 901c-226 0 -409 -175 -420 -413h815c-8 237 -183 413 -395 413zM470 26c176 0 339 95 427 234c-25 60 -39 124 -39 196h-351
c-244 0 -353 -83 -353 -215s125 -215 316 -215z" />
    <glyph glyph-name="ccedilla" unicode="&#xe7;" horiz-adv-x="1019" 
d="M582 934c136 0 253 -53 337 -141l-24 -23c-80 83 -189 131 -314 131c-244 0 -428 -188 -428 -438c0 -251 184 -437 428 -437c125 0 235 50 314 131l24 -24c-84 -88 -201 -141 -337 -141c-267 0 -465 203 -465 471s198 471 465 471zM502 -325h-37l105 329l35 -1z" />
    <glyph glyph-name="egrave" unicode="&#xe8;" horiz-adv-x="1123" 
d="M575 934c236 0 426 -194 431 -462c0 -7 0 -13 -1 -16h-852c3 -253 182 -430 425 -430c163 0 269 66 356 164l22 -24c-121 -139 -251 -174 -380 -174c-266 0 -459 197 -459 470c0 272 205 472 458 472zM574 901c-228 0 -409 -175 -420 -413h815c-8 238 -182 413 -395 413z
M367 1359h45l243 -300h-37z" />
    <glyph glyph-name="eacute" unicode="&#xe9;" horiz-adv-x="1123" 
d="M575 934c236 0 426 -194 431 -462c0 -7 0 -13 -1 -16h-852c3 -253 182 -430 425 -430c163 0 269 66 356 164l22 -24c-121 -139 -251 -174 -380 -174c-266 0 -459 197 -459 470c0 272 205 472 458 472zM574 901c-228 0 -409 -175 -420 -413h815c-8 238 -182 413 -395 413z
M484 1059l243 300h45l-251 -300h-37z" />
    <glyph glyph-name="ecircumflex" unicode="&#xea;" horiz-adv-x="1123" 
d="M575 934c236 0 426 -194 431 -462c0 -7 0 -13 -1 -16h-852c3 -253 182 -430 425 -430c163 0 269 66 356 164l22 -24c-121 -139 -251 -174 -380 -174c-266 0 -459 197 -459 470c0 272 205 472 458 472zM574 901c-228 0 -409 -175 -420 -413h815c-8 238 -182 413 -395 413z
M832 1079l-257 238l-257 -238h-41l279 267h38l279 -267h-41z" />
    <glyph glyph-name="edieresis" unicode="&#xeb;" horiz-adv-x="1123" 
d="M575 934c236 0 426 -194 431 -462c0 -7 0 -13 -1 -16h-852c3 -253 182 -430 425 -430c163 0 269 66 356 164l22 -24c-121 -139 -251 -174 -380 -174c-266 0 -459 197 -459 470c0 272 205 472 458 472zM574 901c-228 0 -409 -175 -420 -413h815c-8 238 -182 413 -395 413z
M384 1197h-35v133h35v-133zM802 1197h-35v133h35v-133z" />
    <glyph glyph-name="igrave" unicode="&#xec;" horiz-adv-x="428" 
d="M231 0h-35v927h35v-927zM6 1359h45l243 -300h-37z" />
    <glyph glyph-name="iacute" unicode="&#xed;" horiz-adv-x="428" 
d="M231 0h-35v927h35v-927zM123 1059l243 300h45l-251 -300h-37z" />
    <glyph glyph-name="icircumflex" unicode="&#xee;" horiz-adv-x="428" 
d="M231 0h-35v927h35v-927zM471 1079l-257 238l-257 -238h-41l279 267h38l279 -267h-41z" />
    <glyph glyph-name="idieresis" unicode="&#xef;" horiz-adv-x="428" 
d="M231 0h-35v927h35v-927zM23 1197h-35v133h35v-133zM441 1197h-35v133h35v-133z" />
    <glyph glyph-name="eth" unicode="&#xf0;" horiz-adv-x="1168" 
d="M921 1381l-277 -155c203 -182 407 -467 407 -763c0 -267 -204 -471 -468 -471s-466 204 -466 471c0 268 202 471 466 471c160 0 294 -73 377 -190c-69 171 -194 332 -347 465l-277 -153l-15 26l267 149c-87 73 -180 135 -277 185l16 29c103 -52 200 -119 291 -196
l288 159zM583 901c-245 0 -430 -186 -430 -438c0 -251 185 -437 430 -437s432 186 432 437c0 252 -187 438 -432 438z" />
    <glyph glyph-name="ntilde" unicode="&#xf1;" horiz-adv-x="1189" 
d="M603 934c244 0 401 -142 401 -385v-549h-35v549c0 212 -131 352 -369 352c-212 0 -369 -157 -369 -361v-540h-35v927h35v-235c56 142 194 242 372 242zM310 1178c47 71 97 109 180 109c133 0 148 -101 268 -101c71 0 113 33 157 97l23 -20c-48 -71 -99 -109 -180 -109
c-132 0 -147 102 -268 102c-71 0 -113 -34 -157 -98z" />
    <glyph glyph-name="ograve" unicode="&#xf2;" horiz-adv-x="1168" 
d="M583 934c264 0 468 -203 468 -471s-204 -471 -468 -471c-265 0 -466 203 -466 471s201 471 466 471zM583 901c-245 0 -430 -188 -430 -438c0 -251 185 -437 430 -437s432 186 432 437c0 250 -187 438 -432 438zM376 1359h45l243 -300h-37z" />
    <glyph glyph-name="oacute" unicode="&#xf3;" horiz-adv-x="1168" 
d="M583 934c264 0 468 -203 468 -471s-204 -471 -468 -471c-265 0 -466 203 -466 471s201 471 466 471zM583 901c-245 0 -430 -188 -430 -438c0 -251 185 -437 430 -437s432 186 432 437c0 250 -187 438 -432 438zM493 1059l243 300h45l-251 -300h-37z" />
    <glyph glyph-name="ocircumflex" unicode="&#xf4;" horiz-adv-x="1168" 
d="M583 934c264 0 468 -203 468 -471s-204 -471 -468 -471c-265 0 -466 203 -466 471s201 471 466 471zM583 901c-245 0 -430 -188 -430 -438c0 -251 185 -437 430 -437s432 186 432 437c0 250 -187 438 -432 438zM841 1079l-257 238l-257 -238h-41l279 267h38l279 -267h-41
z" />
    <glyph glyph-name="otilde" unicode="&#xf5;" horiz-adv-x="1168" 
d="M583 934c264 0 468 -203 468 -471s-204 -471 -468 -471c-265 0 -466 203 -466 471s201 471 466 471zM583 901c-245 0 -430 -188 -430 -438c0 -251 185 -437 430 -437s432 186 432 437c0 250 -187 438 -432 438zM288 1178c47 71 97 109 180 109c133 0 148 -101 268 -101
c71 0 113 33 157 97l23 -20c-48 -71 -99 -109 -180 -109c-132 0 -147 102 -268 102c-71 0 -113 -34 -157 -98z" />
    <glyph glyph-name="odieresis" unicode="&#xf6;" horiz-adv-x="1168" 
d="M583 934c264 0 468 -203 468 -471s-204 -471 -468 -471c-265 0 -466 203 -466 471s201 471 466 471zM583 901c-245 0 -430 -188 -430 -438c0 -251 185 -437 430 -437s432 186 432 437c0 250 -187 438 -432 438zM393 1197h-35v133h35v-133zM811 1197h-35v133h35v-133z" />
    <glyph glyph-name="oslash" unicode="&#xf8;" horiz-adv-x="1168" 
d="M583 934c128 0 239 -46 323 -126l130 130l23 -22l-130 -130c76 -84 122 -195 122 -323c0 -268 -204 -471 -468 -471c-129 0 -239 46 -323 125l-128 -128l-23 22l129 129c-76 84 -121 195 -121 323c0 268 201 471 466 471zM583 901c-245 0 -430 -188 -430 -438
c0 -119 41 -221 110 -298l619 619c-76 73 -180 117 -299 117zM1015 463c0 117 -42 221 -111 298l-619 -619c76 -73 179 -116 298 -116c245 0 432 186 432 437z" />
    <glyph glyph-name="ugrave" unicode="&#xf9;" horiz-adv-x="1176" 
d="M991 375c0 -235 -168 -383 -404 -383c-237 0 -403 148 -403 383v552h35v-549c0 -216 147 -352 368 -352s369 136 369 352v549h35v-552zM379 1359h45l243 -300h-37z" />
    <glyph glyph-name="uacute" unicode="&#xfa;" horiz-adv-x="1176" 
d="M991 375c0 -235 -168 -383 -404 -383c-237 0 -403 148 -403 383v552h35v-549c0 -216 147 -352 368 -352s369 136 369 352v549h35v-552zM496 1059l243 300h45l-251 -300h-37z" />
    <glyph glyph-name="ucircumflex" unicode="&#xfb;" horiz-adv-x="1176" 
d="M991 375c0 -235 -168 -383 -404 -383c-237 0 -403 148 -403 383v552h35v-549c0 -216 147 -352 368 -352s369 136 369 352v549h35v-552zM844 1079l-257 238l-257 -238h-41l279 267h38l279 -267h-41z" />
    <glyph glyph-name="udieresis" unicode="&#xfc;" horiz-adv-x="1176" 
d="M991 375c0 -235 -168 -383 -404 -383c-237 0 -403 148 -403 383v552h35v-549c0 -216 147 -352 368 -352s369 136 369 352v549h35v-552zM396 1197h-35v133h35v-133zM814 1197h-35v133h35v-133z" />
    <glyph glyph-name="yacute" unicode="&#xfd;" horiz-adv-x="972" 
d="M152 -401h-40l375 623l-457 705h40l438 -671l402 671h40zM399 1059l243 300h45l-251 -300h-37z" />
    <glyph glyph-name="thorn" unicode="&#xfe;" horiz-adv-x="1242" 
d="M659 934c264 0 466 -201 466 -471c0 -268 -202 -471 -466 -471c-201 0 -364 120 -428 292v-684h-35v1840h35v-798c66 172 227 292 428 292zM659 901c-244 0 -429 -188 -429 -438c0 -248 185 -437 429 -437c245 0 430 189 430 437c0 249 -185 438 -430 438z" />
    <glyph glyph-name="ydieresis" unicode="&#xff;" horiz-adv-x="972" 
d="M152 -401h-40l375 623l-457 705h40l438 -671l402 671h40zM299 1197h-35v133h35v-133zM717 1197h-35v133h35v-133z" />
    <glyph glyph-name="Amacron" unicode="&#x100;" horiz-adv-x="1371" 
d="M1324 0h-40l-199 452h-800l-198 -452h-39l616 1404h43zM301 487h769l-385 876zM408 1639h556v-30h-556v30z" />
    <glyph glyph-name="amacron" unicode="&#x101;" horiz-adv-x="1243" 
d="M1046 0h-35v284c-66 -172 -227 -292 -428 -292c-264 0 -466 203 -466 471c0 270 202 471 466 471c201 0 362 -120 428 -292v285h35v-927zM583 901c-246 0 -430 -189 -430 -438c0 -248 184 -437 430 -437c245 0 429 189 429 437c0 250 -184 438 -429 438zM317 1223h556
v-30h-556v30z" />
    <glyph glyph-name="Abreve" unicode="&#x102;" horiz-adv-x="1371" 
d="M1324 0h-40l-199 452h-800l-198 -452h-39l616 1404h43zM301 487h769l-385 876zM427 1757c35 -147 128 -223 259 -223s225 76 260 223l30 -8c-39 -160 -145 -246 -290 -246s-250 86 -289 246z" />
    <glyph glyph-name="abreve" unicode="&#x103;" horiz-adv-x="1243" 
d="M1046 0h-35v284c-66 -172 -227 -292 -428 -292c-264 0 -466 203 -466 471c0 270 202 471 466 471c201 0 362 -120 428 -292v285h35v-927zM583 901c-246 0 -430 -189 -430 -438c0 -248 184 -437 430 -437c245 0 429 189 429 437c0 250 -184 438 -429 438zM336 1341
c35 -147 128 -223 259 -223s225 76 260 223l30 -8c-39 -160 -145 -246 -290 -246s-250 86 -289 246z" />
    <glyph glyph-name="Aogonek" unicode="&#x104;" horiz-adv-x="1371" 
d="M1324 0h-40l-199 452h-800l-198 -452h-39l616 1404h43zM301 487h769l-385 876zM1340 -324c-46 -55 -101 -83 -165 -83c-99 0 -171 59 -171 151c0 121 114 202 299 282l13 -26c-177 -78 -278 -149 -278 -253c0 -76 56 -123 139 -123c55 0 102 25 142 74z" />
    <glyph glyph-name="aogonek" unicode="&#x105;" horiz-adv-x="1243" 
d="M1046 0h-35v284c-66 -172 -227 -292 -428 -292c-264 0 -466 203 -466 471c0 270 202 471 466 471c201 0 362 -120 428 -292v285h35v-927zM583 901c-246 0 -430 -189 -430 -438c0 -248 184 -437 430 -437c245 0 429 189 429 437c0 250 -184 438 -429 438zM1070 -324
c-46 -55 -101 -83 -165 -83c-99 0 -171 59 -171 151c0 121 114 202 299 282l13 -26c-177 -78 -278 -149 -278 -253c0 -76 56 -123 139 -123c55 0 102 25 142 74z" />
    <glyph glyph-name="Cacute" unicode="&#x106;" horiz-adv-x="1525" 
d="M839 1408c232 0 444 -109 555 -284l-31 -21c-107 166 -304 269 -524 269c-368 0 -666 -269 -666 -672s298 -672 666 -672c219 0 418 102 524 269l30 -22c-111 -175 -321 -283 -554 -283c-390 0 -704 287 -704 708s314 708 704 708zM727 1475l243 300h45l-251 -300h-37z
" />
    <glyph glyph-name="cacute" unicode="&#x107;" horiz-adv-x="1019" 
d="M582 934c136 0 253 -53 337 -141l-24 -23c-80 83 -189 131 -314 131c-244 0 -428 -188 -428 -438c0 -251 184 -437 428 -437c125 0 235 50 314 131l24 -24c-84 -88 -201 -141 -337 -141c-267 0 -465 203 -465 471s198 471 465 471zM489 1059l243 300h45l-251 -300h-37z
" />
    <glyph glyph-name="Ccircumflex" unicode="&#x108;" horiz-adv-x="1525" 
d="M839 1408c232 0 444 -109 555 -284l-31 -21c-107 166 -304 269 -524 269c-368 0 -666 -269 -666 -672s298 -672 666 -672c219 0 418 102 524 269l30 -22c-111 -175 -321 -283 -554 -283c-390 0 -704 287 -704 708s314 708 704 708zM1093 1495l-257 238l-257 -238h-41
l279 267h38l279 -267h-41z" />
    <glyph glyph-name="ccircumflex" unicode="&#x109;" horiz-adv-x="1019" 
d="M582 934c136 0 253 -53 337 -141l-24 -23c-80 83 -189 131 -314 131c-244 0 -428 -188 -428 -438c0 -251 184 -437 428 -437c125 0 235 50 314 131l24 -24c-84 -88 -201 -141 -337 -141c-267 0 -465 203 -465 471s198 471 465 471zM837 1079l-257 238l-257 -238h-41
l279 267h38l279 -267h-41z" />
    <glyph glyph-name="Cdotaccent" unicode="&#x10a;" horiz-adv-x="1525" 
d="M839 1408c232 0 444 -109 555 -284l-31 -21c-107 166 -304 269 -524 269c-368 0 -666 -269 -666 -672s298 -672 666 -672c219 0 418 102 524 269l30 -22c-111 -175 -321 -283 -554 -283c-390 0 -704 287 -704 708s314 708 704 708zM851 1541h-35v134h35v-134z" />
    <glyph glyph-name="cdotaccent" unicode="&#x10b;" horiz-adv-x="1019" 
d="M582 934c136 0 253 -53 337 -141l-24 -23c-80 83 -189 131 -314 131c-244 0 -428 -188 -428 -438c0 -251 184 -437 428 -437c125 0 235 50 314 131l24 -24c-84 -88 -201 -141 -337 -141c-267 0 -465 203 -465 471s198 471 465 471zM597 1201h-35v133h35v-133z" />
    <glyph glyph-name="Ccaron" unicode="&#x10c;" horiz-adv-x="1525" 
d="M839 1408c232 0 444 -109 555 -284l-31 -21c-107 166 -304 269 -524 269c-368 0 -666 -269 -666 -672s298 -672 666 -672c219 0 418 102 524 269l30 -22c-111 -175 -321 -283 -554 -283c-390 0 -704 287 -704 708s314 708 704 708zM579 1757l257 -239l257 239h41
l-279 -267h-38l-279 267h41z" />
    <glyph glyph-name="ccaron" unicode="&#x10d;" horiz-adv-x="1019" 
d="M582 934c136 0 253 -53 337 -141l-24 -23c-80 83 -189 131 -314 131c-244 0 -428 -188 -428 -438c0 -251 184 -437 428 -437c125 0 235 50 314 131l24 -24c-84 -88 -201 -141 -337 -141c-267 0 -465 203 -465 471s198 471 465 471zM323 1341l257 -239l257 239h41
l-279 -267h-38l-279 267h41z" />
    <glyph glyph-name="Dcaron" unicode="&#x10e;" horiz-adv-x="1616" 
d="M698 1400c490 0 783 -263 783 -700s-293 -700 -783 -700h-473v1400h473zM262 1365v-1329h436c472 0 745 250 745 664c0 415 -273 665 -745 665h-436zM475 1757l257 -239l257 239h41l-279 -267h-38l-279 267h41z" />
    <glyph glyph-name="dcaron" unicode="&#x10f;" horiz-adv-x="1251" 
d="M583 934c201 0 362 -120 428 -292v798h35v-1440h-35v284c-66 -172 -227 -292 -428 -292c-264 0 -466 203 -466 471c0 270 202 471 466 471zM583 901c-246 0 -430 -189 -430 -438c0 -248 184 -437 430 -437c245 0 429 189 429 437c0 250 -184 438 -429 438zM1182 1052
l19 388h36l-24 -388h-31z" />
    <glyph glyph-name="Dcroat" unicode="&#x110;" horiz-adv-x="1839" 
d="M921 1400c490 0 783 -263 783 -700s-293 -700 -783 -700h-473v687h-313v36h313v677h473zM943 687h-458v-651h436c472 0 745 250 745 664c0 415 -273 665 -745 665h-436v-642h458v-36z" />
    <glyph glyph-name="dcroat" unicode="&#x111;" horiz-adv-x="1243" 
d="M1237 1148h-191v-1148h-35v284c-66 -172 -227 -292 -428 -292c-264 0 -466 203 -466 471c0 270 202 471 466 471c201 0 362 -120 428 -292v506h-469v33h469v259h35v-259h191v-33zM583 901c-246 0 -430 -189 -430 -438c0 -248 184 -437 430 -437c245 0 429 189 429 437
c0 250 -184 438 -429 438z" />
    <glyph glyph-name="Emacron" unicode="&#x112;" horiz-adv-x="1321" 
d="M1141 0h-916v1400h914v-35h-877v-642h857v-36h-857v-652h879v-35zM396 1639h556v-30h-556v30z" />
    <glyph glyph-name="emacron" unicode="&#x113;" horiz-adv-x="1123" 
d="M575 934c236 0 426 -194 431 -462c0 -7 0 -13 -1 -16h-852c3 -253 182 -430 425 -430c163 0 269 66 356 164l22 -24c-121 -139 -251 -174 -380 -174c-266 0 -459 197 -459 470c0 272 205 472 458 472zM574 901c-228 0 -409 -175 -420 -413h815c-8 238 -182 413 -395 413z
M297 1223h556v-30h-556v30z" />
    <glyph glyph-name="Ebreve" unicode="&#x114;" horiz-adv-x="1321" 
d="M1141 0h-916v1400h914v-35h-877v-642h857v-36h-857v-652h879v-35zM415 1757c35 -147 128 -223 259 -223s225 76 260 223l30 -8c-39 -160 -145 -246 -290 -246s-250 86 -289 246z" />
    <glyph glyph-name="ebreve" unicode="&#x115;" horiz-adv-x="1123" 
d="M575 934c236 0 426 -194 431 -462c0 -7 0 -13 -1 -16h-852c3 -253 182 -430 425 -430c163 0 269 66 356 164l22 -24c-121 -139 -251 -174 -380 -174c-266 0 -459 197 -459 470c0 272 205 472 458 472zM574 901c-228 0 -409 -175 -420 -413h815c-8 238 -182 413 -395 413z
M316 1341c35 -147 128 -223 259 -223s225 76 260 223l30 -8c-39 -160 -145 -246 -290 -246s-250 86 -289 246z" />
    <glyph glyph-name="Edotaccent" unicode="&#x116;" horiz-adv-x="1321" 
d="M1141 0h-916v1400h914v-35h-877v-642h857v-36h-857v-652h879v-35zM689 1541h-35v134h35v-134z" />
    <glyph glyph-name="edotaccent" unicode="&#x117;" horiz-adv-x="1123" 
d="M575 934c236 0 426 -194 431 -462c0 -7 0 -13 -1 -16h-852c3 -253 182 -430 425 -430c163 0 269 66 356 164l22 -24c-121 -139 -251 -174 -380 -174c-266 0 -459 197 -459 470c0 272 205 472 458 472zM574 901c-228 0 -409 -175 -420 -413h815c-8 238 -182 413 -395 413z
M592 1201h-35v133h35v-133z" />
    <glyph glyph-name="Eogonek" unicode="&#x118;" horiz-adv-x="1321" 
d="M1141 0h-916v1400h914v-35h-877v-642h857v-36h-857v-652h879v-35zM966 6c-110 -65 -186 -130 -186 -231c0 -90 73 -151 173 -151c67 0 128 25 176 76l21 -23c-53 -55 -123 -84 -199 -84c-120 0 -206 73 -206 180c0 116 82 183 199 252z" />
    <glyph glyph-name="eogonek" unicode="&#x119;" horiz-adv-x="1123" 
d="M575 934c236 0 426 -194 431 -462c0 -7 0 -13 -1 -16h-852c3 -253 182 -430 425 -430c163 0 269 66 356 164l22 -24c-121 -139 -251 -174 -380 -174c-266 0 -459 197 -459 470c0 272 205 472 458 472zM574 901c-228 0 -409 -175 -420 -413h815c-8 238 -182 413 -395 413z
M927 -323c-53 -55 -123 -84 -199 -84c-120 0 -206 73 -206 180c0 143 132 215 283 300l15 -20c-144 -85 -263 -152 -263 -278c0 -90 73 -151 173 -151c67 0 128 25 176 76z" />
    <glyph glyph-name="Ecaron" unicode="&#x11a;" horiz-adv-x="1321" 
d="M1141 0h-916v1400h914v-35h-877v-642h857v-36h-857v-652h879v-35zM417 1757l257 -239l257 239h41l-279 -267h-38l-279 267h41z" />
    <glyph glyph-name="ecaron" unicode="&#x11b;" horiz-adv-x="1123" 
d="M575 934c236 0 426 -194 431 -462c0 -7 0 -13 -1 -16h-852c3 -253 182 -430 425 -430c163 0 269 66 356 164l22 -24c-121 -139 -251 -174 -380 -174c-266 0 -459 197 -459 470c0 272 205 472 458 472zM574 901c-228 0 -409 -175 -420 -413h815c-8 238 -182 413 -395 413z
M318 1341l257 -239l257 239h41l-279 -267h-38l-279 267h41z" />
    <glyph glyph-name="Gcircumflex" unicode="&#x11c;" horiz-adv-x="1636" 
d="M839 1408c218 0 415 -96 543 -250l-28 -25c-123 147 -306 239 -515 239c-368 0 -666 -269 -666 -672s298 -672 665 -672c373 0 618 260 623 654h-559v35h599v-16c0 -419 -263 -709 -663 -709c-383 0 -703 280 -703 708c0 421 313 708 704 708zM1082 1495l-257 238
l-257 -238h-41l279 267h38l279 -267h-41z" />
    <glyph glyph-name="gcircumflex" unicode="&#x11d;" horiz-adv-x="1241" 
d="M582 934c199 0 361 -117 427 -287v280h35v-865c0 -324 -235 -469 -477 -469c-167 0 -305 61 -393 157l19 25c84 -91 217 -149 374 -149c224 0 442 132 442 435v218c-66 -170 -228 -287 -427 -287c-264 0 -465 203 -465 471c0 270 201 471 465 471zM582 901
c-245 0 -429 -189 -429 -438c0 -248 184 -437 429 -437s430 189 430 437c0 250 -185 438 -430 438zM850 1079l-257 238l-257 -238h-41l279 267h38l279 -267h-41z" />
    <glyph glyph-name="Gbreve" unicode="&#x11e;" horiz-adv-x="1636" 
d="M839 1408c218 0 415 -96 543 -250l-28 -25c-123 147 -306 239 -515 239c-368 0 -666 -269 -666 -672s298 -672 665 -672c373 0 618 260 623 654h-559v35h599v-16c0 -419 -263 -709 -663 -709c-383 0 -703 280 -703 708c0 421 313 708 704 708zM566 1757
c35 -147 128 -223 259 -223s225 76 260 223l30 -8c-39 -160 -145 -246 -290 -246s-250 86 -289 246z" />
    <glyph glyph-name="gbreve" unicode="&#x11f;" horiz-adv-x="1241" 
d="M582 934c199 0 361 -117 427 -287v280h35v-865c0 -324 -235 -469 -477 -469c-167 0 -305 61 -393 157l19 25c84 -91 217 -149 374 -149c224 0 442 132 442 435v218c-66 -170 -228 -287 -427 -287c-264 0 -465 203 -465 471c0 270 201 471 465 471zM582 901
c-245 0 -429 -189 -429 -438c0 -248 184 -437 429 -437s430 189 430 437c0 250 -185 438 -430 438zM334 1341c35 -147 128 -223 259 -223s225 76 260 223l30 -8c-39 -160 -145 -246 -290 -246s-250 86 -289 246z" />
    <glyph glyph-name="Gdotaccent" unicode="&#x120;" horiz-adv-x="1636" 
d="M839 1408c218 0 415 -96 543 -250l-28 -25c-123 147 -306 239 -515 239c-368 0 -666 -269 -666 -672s298 -672 665 -672c373 0 618 260 623 654h-559v35h599v-16c0 -419 -263 -709 -663 -709c-383 0 -703 280 -703 708c0 421 313 708 704 708zM841 1542h-36v134h36v-134z
" />
    <glyph glyph-name="gdotaccent" unicode="&#x121;" horiz-adv-x="1241" 
d="M582 934c199 0 361 -117 427 -287v280h35v-865c0 -324 -235 -469 -477 -469c-167 0 -305 61 -393 157l19 25c84 -91 217 -149 374 -149c224 0 442 132 442 435v218c-66 -170 -228 -287 -427 -287c-264 0 -465 203 -465 471c0 270 201 471 465 471zM582 901
c-245 0 -429 -189 -429 -438c0 -248 184 -437 429 -437s430 189 430 437c0 250 -185 438 -430 438zM610 1201h-35v133h35v-133z" />
    <glyph glyph-name="Gcommaaccent" unicode="&#x122;" horiz-adv-x="1636" 
d="M839 1408c218 0 415 -96 543 -250l-28 -25c-123 147 -306 239 -515 239c-368 0 -666 -269 -666 -672s298 -672 665 -672c373 0 618 260 623 654h-559v35h599v-16c0 -419 -263 -709 -663 -709c-383 0 -703 280 -703 708c0 421 313 708 704 708zM862 -90l-56 -317h-32
l50 317h38z" />
    <glyph glyph-name="gcommaaccent" unicode="&#x123;" horiz-adv-x="1241" 
d="M582 934c199 0 361 -117 427 -287v280h35v-865c0 -324 -235 -469 -477 -469c-167 0 -305 61 -393 157l19 25c84 -91 217 -149 374 -149c224 0 442 132 442 435v218c-66 -170 -228 -287 -427 -287c-264 0 -465 203 -465 471c0 270 201 471 465 471zM582 901
c-245 0 -429 -189 -429 -438c0 -248 184 -437 429 -437s430 189 430 437c0 250 -185 438 -430 438zM564 1059l56 318h32l-50 -318h-38z" />
    <glyph glyph-name="Hcircumflex" unicode="&#x124;" horiz-adv-x="1544" 
d="M262 723h1020v677h37v-1400h-37v687h-1020v-687h-37v1400h37v-677zM1029 1495l-257 238l-257 -238h-41l279 267h38l279 -267h-41z" />
    <glyph glyph-name="hcircumflex" unicode="&#x125;" horiz-adv-x="1189" 
d="M231 692c56 142 194 242 372 242c244 0 401 -142 401 -385v-549h-35v549c0 212 -131 352 -369 352c-212 0 -369 -157 -369 -361v-540h-35v1440h35v-748zM858 1552l-257 238l-257 -238h-41l279 267h38l279 -267h-41z" />
    <glyph glyph-name="Itilde" unicode="&#x128;" horiz-adv-x="487" 
d="M262 0h-37v1400h37v-1400zM-70 1594c47 71 97 109 180 109c133 0 148 -101 268 -101c71 0 113 33 157 97l23 -20c-48 -71 -99 -109 -180 -109c-132 0 -147 102 -268 102c-71 0 -113 -34 -157 -98z" />
    <glyph glyph-name="itilde" unicode="&#x129;" horiz-adv-x="428" 
d="M231 0h-35v927h35v-927zM-82 1178c47 71 97 109 180 109c133 0 148 -101 268 -101c71 0 113 33 157 97l23 -20c-48 -71 -99 -109 -180 -109c-132 0 -147 102 -268 102c-71 0 -113 -34 -157 -98z" />
    <glyph glyph-name="Imacron" unicode="&#x12a;" horiz-adv-x="487" 
d="M262 0h-37v1400h37v-1400zM-34 1639h556v-30h-556v30z" />
    <glyph glyph-name="imacron" unicode="&#x12b;" horiz-adv-x="428" 
d="M231 0h-35v927h35v-927zM-64 1223h556v-30h-556v30z" />
    <glyph glyph-name="Ibreve" unicode="&#x12c;" horiz-adv-x="487" 
d="M262 0h-37v1400h37v-1400zM-15 1757c35 -147 128 -223 259 -223s225 76 260 223l30 -8c-39 -160 -145 -246 -290 -246s-250 86 -289 246z" />
    <glyph glyph-name="ibreve" unicode="&#x12d;" horiz-adv-x="428" 
d="M231 0h-35v927h35v-927zM-45 1341c35 -147 128 -223 259 -223s225 76 260 223l30 -8c-39 -160 -145 -246 -290 -246s-250 86 -289 246z" />
    <glyph glyph-name="Iogonek" unicode="&#x12e;" horiz-adv-x="487" 
d="M262 0h-37v1400h37v-1400zM399 -324c-46 -55 -101 -83 -165 -83c-99 0 -171 59 -171 153c0 93 83 184 179 275l20 -21c-91 -85 -165 -175 -165 -252s58 -124 139 -124c55 0 102 25 142 74z" />
    <glyph glyph-name="iogonek" unicode="&#x12f;" horiz-adv-x="428" 
d="M368 -324c-46 -55 -101 -83 -165 -83c-99 0 -171 59 -171 153c0 93 83 184 179 275l20 -21c-91 -85 -165 -175 -165 -252s58 -124 139 -124c55 0 102 25 142 74zM231 0h-35v927h35v-927zM231 1201h-35v133h35v-133z" />
    <glyph glyph-name="Idotaccent" unicode="&#x130;" horiz-adv-x="487" 
d="M262 0h-37v1400h37v-1400zM259 1541h-35v134h35v-134z" />
    <glyph glyph-name="dotlessi" unicode="&#x131;" horiz-adv-x="428" 
d="M231 0h-35v927h35v-927z" />
    <glyph glyph-name="Kcommaaccent" unicode="&#x136;" horiz-adv-x="1320" 
d="M484 686h-222v-686h-37v1400h37v-678h221l693 678h49l-712 -694l753 -706h-51zM700 -90l-56 -317h-32l50 317h38z" />
    <glyph glyph-name="kcommaaccent" unicode="&#x137;" horiz-adv-x="1007" 
d="M231 504h186l469 423h46l-487 -438l498 -489h-45l-481 471h-186v-471h-35v1440h35v-936zM584 -90l-56 -317h-32l50 317h38z" />
    <glyph glyph-name="Lacute" unicode="&#x139;" horiz-adv-x="1184" 
d="M1139 0h-914v1400h37v-1364h877v-36zM135 1475l243 300h45l-251 -300h-37z" />
    <glyph glyph-name="lacute" unicode="&#x13a;" horiz-adv-x="428" 
d="M231 0h-35v1440h35v-1440zM59 1548l243 300h45l-251 -300h-37z" />
    <glyph glyph-name="Lcommaaccent" unicode="&#x13b;" horiz-adv-x="1184" 
d="M1139 0h-914v1400h37v-1364h877v-36zM708 -90l-56 -317h-32l50 317h38z" />
    <glyph glyph-name="lcommaaccent" unicode="&#x13c;" horiz-adv-x="428" 
d="M231 0h-35v1440h35v-1440zM257 -90l-56 -317h-32l50 317h38z" />
    <glyph glyph-name="Lcaron" unicode="&#x13d;" horiz-adv-x="1184" 
d="M1139 0h-914v1400h37v-1364h877v-36zM581 1013l19 388h36l-24 -388h-31z" />
    <glyph glyph-name="lcaron" unicode="&#x13e;" horiz-adv-x="436" 
d="M231 0h-35v1440h35v-1440zM357 1052l19 388h36l-24 -388h-31z" />
    <glyph glyph-name="Ldot" unicode="&#x13f;" horiz-adv-x="1184" 
d="M1139 0h-914v1400h37v-1364h877v-36zM839 634h-35v134h35v-134z" />
    <glyph glyph-name="ldot" unicode="&#x140;" horiz-adv-x="467" 
d="M231 0h-35v1440h35v-1440zM461 660h-35v133h35v-133z" />
    <glyph glyph-name="Lslash" unicode="&#x141;" horiz-adv-x="1354" 
d="M1309 0h-914v590l-260 -148v41l260 148v769h37v-748l579 331v-41l-579 -331v-575h877v-36z" />
    <glyph glyph-name="lslash" unicode="&#x142;" horiz-adv-x="629" 
d="M332 793l238 186v-38l-238 -186v-755h-35v727l-238 -186v38l238 186v675h35v-647z" />
    <glyph glyph-name="Nacute" unicode="&#x143;" horiz-adv-x="1548" 
d="M1323 -4h-32l-1029 1343v-1339h-37v1404h33l1028 -1343v1339h37v-1404zM665 1475l243 300h45l-251 -300h-37z" />
    <glyph glyph-name="nacute" unicode="&#x144;" horiz-adv-x="1189" 
d="M603 934c244 0 401 -142 401 -385v-549h-35v549c0 212 -131 352 -369 352c-212 0 -369 -157 -369 -361v-540h-35v927h35v-235c56 142 194 242 372 242zM515 1059l243 300h45l-251 -300h-37z" />
    <glyph glyph-name="Ncommaaccent" unicode="&#x145;" horiz-adv-x="1548" 
d="M1323 -4h-32l-1029 1343v-1339h-37v1404h33l1028 -1343v1339h37v-1404zM817 -90l-56 -317h-32l50 317h38z" />
    <glyph glyph-name="ncommaaccent" unicode="&#x146;" horiz-adv-x="1189" 
d="M603 934c244 0 401 -142 401 -385v-549h-35v549c0 212 -131 352 -369 352c-212 0 -369 -157 -369 -361v-540h-35v927h35v-235c56 142 194 242 372 242zM640 -90l-56 -317h-32l50 317h38z" />
    <glyph glyph-name="Ncaron" unicode="&#x147;" horiz-adv-x="1548" 
d="M1323 -4h-32l-1029 1343v-1339h-37v1404h33l1028 -1343v1339h37v-1404zM517 1757l257 -239l257 239h41l-279 -267h-38l-279 267h41z" />
    <glyph glyph-name="ncaron" unicode="&#x148;" horiz-adv-x="1189" 
d="M603 934c244 0 401 -142 401 -385v-549h-35v549c0 212 -131 352 -369 352c-212 0 -369 -157 -369 -361v-540h-35v927h35v-235c56 142 194 242 372 242zM349 1341l257 -239l257 239h41l-279 -267h-38l-279 267h41z" />
    <glyph glyph-name="napostrophe" unicode="&#x149;" horiz-adv-x="1476" 
d="M286 1441l-76 -434h-31l68 434h39zM890 934c244 0 401 -142 401 -385v-549h-35v549c0 212 -131 352 -369 352c-212 0 -369 -157 -369 -361v-540h-35v927h35v-235c56 142 194 242 372 242z" />
    <glyph glyph-name="Omacron" unicode="&#x14c;" horiz-adv-x="1678" 
d="M839 1408c392 0 704 -286 704 -708s-312 -708 -704 -708c-391 0 -704 287 -704 708s313 708 704 708zM839 1372c-369 0 -666 -269 -666 -672s297 -672 666 -672s666 269 666 672s-297 672 -666 672zM561 1639h556v-30h-556v30z" />
    <glyph glyph-name="omacron" unicode="&#x14d;" horiz-adv-x="1168" 
d="M583 934c264 0 468 -203 468 -471s-204 -471 -468 -471c-265 0 -466 203 -466 471s201 471 466 471zM583 901c-245 0 -430 -188 -430 -438c0 -251 185 -437 430 -437s432 186 432 437c0 250 -187 438 -432 438zM306 1223h556v-30h-556v30z" />
    <glyph glyph-name="Obreve" unicode="&#x14e;" horiz-adv-x="1678" 
d="M839 1408c392 0 704 -286 704 -708s-312 -708 -704 -708c-391 0 -704 287 -704 708s313 708 704 708zM839 1372c-369 0 -666 -269 -666 -672s297 -672 666 -672s666 269 666 672s-297 672 -666 672zM580 1757c35 -147 128 -223 259 -223s225 76 260 223l30 -8
c-39 -160 -145 -246 -290 -246s-250 86 -289 246z" />
    <glyph glyph-name="obreve" unicode="&#x14f;" horiz-adv-x="1168" 
d="M583 934c264 0 468 -203 468 -471s-204 -471 -468 -471c-265 0 -466 203 -466 471s201 471 466 471zM583 901c-245 0 -430 -188 -430 -438c0 -251 185 -437 430 -437s432 186 432 437c0 250 -187 438 -432 438zM325 1341c35 -147 128 -223 259 -223s225 76 260 223l30 -8
c-39 -160 -145 -246 -290 -246s-250 86 -289 246z" />
    <glyph glyph-name="Ohungarumlaut" unicode="&#x150;" horiz-adv-x="1678" 
d="M839 1408c392 0 704 -286 704 -708s-312 -708 -704 -708c-391 0 -704 287 -704 708s313 708 704 708zM839 1372c-369 0 -666 -269 -666 -672s297 -672 666 -672s666 269 666 672s-297 672 -666 672zM956 1475l245 300h42l-249 -300h-38zM616 1475l242 300h41l-245 -300
h-38z" />
    <glyph glyph-name="ohungarumlaut" unicode="&#x151;" horiz-adv-x="1168" 
d="M583 934c264 0 468 -203 468 -471s-204 -471 -468 -471c-265 0 -466 203 -466 471s201 471 466 471zM583 901c-245 0 -430 -188 -430 -438c0 -251 185 -437 430 -437s432 186 432 437c0 250 -187 438 -432 438zM712 1059l245 300h42l-249 -300h-38zM372 1059l242 300h41
l-245 -300h-38z" />
    <glyph glyph-name="OE" unicode="&#x152;" horiz-adv-x="2264" 
d="M2084 0h-1166c-491 0 -783 263 -783 700s292 700 783 700h1164v-35h-877v-642h857v-36h-857v-652h879v-35zM173 700c0 -414 273 -664 745 -664h250v1329h-250c-472 0 -745 -251 -745 -665z" />
    <glyph glyph-name="oe" unicode="&#x153;" horiz-adv-x="2020" 
d="M1473 934c237 0 425 -194 430 -462c0 -7 0 -13 -1 -16h-852v-13c8 -247 185 -417 422 -417c164 0 274 68 359 164l22 -24c-121 -139 -254 -174 -383 -174c-219 0 -385 133 -438 333c-56 -196 -231 -333 -449 -333c-265 0 -466 203 -466 471s201 471 466 471
c219 0 394 -137 450 -336c56 200 230 336 440 336zM583 901c-244 0 -430 -188 -430 -438c0 -251 186 -437 430 -437s432 186 432 437c0 250 -188 438 -432 438zM1471 901c-226 0 -409 -175 -420 -413h815c-8 237 -183 413 -395 413z" />
    <glyph glyph-name="Racute" unicode="&#x154;" horiz-adv-x="1316" 
d="M724 1400c299 0 473 -139 473 -376s-176 -377 -473 -377h-124l589 -647h-48l-586 647h-293v-647h-37v1400h499zM262 1365v-684h466c273 0 431 126 431 343c0 216 -159 341 -431 341h-466zM546 1475l243 300h45l-251 -300h-37z" />
    <glyph glyph-name="racute" unicode="&#x155;" horiz-adv-x="777" 
d="M537 935c67 0 130 -14 181 -43l-11 -32c-48 28 -109 42 -172 42c-180 0 -304 -160 -304 -366v-536h-35v927h35v-220c48 134 157 228 306 228zM356 1059l243 300h45l-251 -300h-37z" />
    <glyph glyph-name="Rcommaaccent" unicode="&#x156;" horiz-adv-x="1316" 
d="M724 1400c299 0 473 -139 473 -376s-176 -377 -473 -377h-124l589 -647h-48l-586 647h-293v-647h-37v1400h499zM262 1365v-684h466c273 0 431 126 431 343c0 216 -159 341 -431 341h-466zM690 -90l-56 -317h-32l50 317h38z" />
    <glyph glyph-name="rcommaaccent" unicode="&#x157;" horiz-adv-x="777" 
d="M537 935c67 0 130 -14 181 -43l-11 -32c-48 28 -109 42 -172 42c-180 0 -304 -160 -304 -366v-536h-35v927h35v-220c48 134 157 228 306 228zM257 -90l-56 -317h-32l50 317h38z" />
    <glyph glyph-name="Rcaron" unicode="&#x158;" horiz-adv-x="1316" 
d="M724 1400c299 0 473 -139 473 -376s-176 -377 -473 -377h-124l589 -647h-48l-586 647h-293v-647h-37v1400h499zM262 1365v-684h466c273 0 431 126 431 343c0 216 -159 341 -431 341h-466zM398 1757l257 -239l257 239h41l-279 -267h-38l-279 267h41z" />
    <glyph glyph-name="rcaron" unicode="&#x159;" horiz-adv-x="777" 
d="M537 935c67 0 130 -14 181 -43l-11 -32c-48 28 -109 42 -172 42c-180 0 -304 -160 -304 -366v-536h-35v927h35v-220c48 134 157 228 306 228zM190 1341l257 -239l257 239h41l-279 -267h-38l-279 267h41z" />
    <glyph glyph-name="Sacute" unicode="&#x15a;" horiz-adv-x="1336" 
d="M1132 1220c-101 77 -257 152 -476 152c-256 0 -450 -123 -450 -337c0 -155 99 -276 383 -303l201 -20c268 -27 411 -128 411 -337c0 -262 -240 -383 -542 -383c-224 0 -417 89 -524 166l21 29c98 -72 284 -159 503 -159c283 0 504 107 504 344c0 187 -130 277 -386 304
l-202 20c-295 29 -408 158 -408 337c0 239 213 374 489 374c230 0 391 -77 496 -157zM574 1475l243 300h45l-251 -300h-37z" />
    <glyph glyph-name="sacute" unicode="&#x15b;" horiz-adv-x="945" 
d="M804 797c-68 53 -194 104 -338 104c-174 0 -307 -79 -307 -216c0 -103 68 -176 261 -195l137 -13c187 -19 290 -91 290 -228c0 -174 -166 -256 -381 -256c-168 0 -284 52 -368 117l18 27c78 -62 183 -112 351 -112c191 0 344 69 344 222c0 115 -87 181 -260 197l-138 13
c-214 19 -290 111 -290 227c0 157 147 250 343 250c149 0 281 -51 355 -109zM389 1059l243 300h45l-251 -300h-37z" />
    <glyph glyph-name="Scircumflex" unicode="&#x15c;" horiz-adv-x="1336" 
d="M1132 1220c-101 77 -257 152 -476 152c-256 0 -450 -123 -450 -337c0 -155 99 -276 383 -303l201 -20c268 -27 411 -128 411 -337c0 -262 -240 -383 -542 -383c-224 0 -417 89 -524 166l21 29c98 -72 284 -159 503 -159c283 0 504 107 504 344c0 187 -130 277 -386 304
l-202 20c-295 29 -408 158 -408 337c0 239 213 374 489 374c230 0 391 -77 496 -157zM940 1495l-257 238l-257 -238h-41l279 267h38l279 -267h-41z" />
    <glyph glyph-name="scircumflex" unicode="&#x15d;" horiz-adv-x="945" 
d="M804 797c-68 53 -194 104 -338 104c-174 0 -307 -79 -307 -216c0 -103 68 -176 261 -195l137 -13c187 -19 290 -91 290 -228c0 -174 -166 -256 -381 -256c-168 0 -284 52 -368 117l18 27c78 -62 183 -112 351 -112c191 0 344 69 344 222c0 115 -87 181 -260 197l-138 13
c-214 19 -290 111 -290 227c0 157 147 250 343 250c149 0 281 -51 355 -109zM737 1079l-257 238l-257 -238h-41l279 267h38l279 -267h-41z" />
    <glyph glyph-name="Scedilla" unicode="&#x15e;" horiz-adv-x="1336" 
d="M618 -325h-38l105 329l36 -1zM1132 1220c-101 77 -257 152 -476 152c-256 0 -450 -123 -450 -337c0 -155 99 -276 383 -303l201 -20c268 -27 411 -128 411 -337c0 -262 -240 -383 -542 -383c-224 0 -417 89 -524 166l21 29c98 -72 284 -159 503 -159
c283 0 504 107 504 344c0 187 -130 277 -386 304l-202 20c-295 29 -408 158 -408 337c0 239 213 374 489 374c230 0 391 -77 496 -157z" />
    <glyph glyph-name="scedilla" unicode="&#x15f;" horiz-adv-x="945" 
d="M804 797c-68 53 -194 104 -338 104c-174 0 -307 -79 -307 -216c0 -103 68 -176 261 -195l137 -13c187 -19 290 -91 290 -228c0 -174 -166 -256 -381 -256c-168 0 -284 52 -368 117l18 27c78 -62 183 -112 351 -112c191 0 344 69 344 222c0 115 -87 181 -260 197l-138 13
c-214 19 -290 111 -290 227c0 157 147 250 343 250c149 0 281 -51 355 -109zM417 -325h-37l105 329l35 -1z" />
    <glyph glyph-name="Scaron" unicode="&#x160;" horiz-adv-x="1336" 
d="M1132 1220c-101 77 -257 152 -476 152c-256 0 -450 -123 -450 -337c0 -155 99 -276 383 -303l201 -20c268 -27 411 -128 411 -337c0 -262 -240 -383 -542 -383c-224 0 -417 89 -524 166l21 29c98 -72 284 -159 503 -159c283 0 504 107 504 344c0 187 -130 277 -386 304
l-202 20c-295 29 -408 158 -408 337c0 239 213 374 489 374c230 0 391 -77 496 -157zM426 1757l257 -239l257 239h41l-279 -267h-38l-279 267h41z" />
    <glyph glyph-name="scaron" unicode="&#x161;" horiz-adv-x="945" 
d="M804 797c-68 53 -194 104 -338 104c-174 0 -307 -79 -307 -216c0 -103 68 -176 261 -195l137 -13c187 -19 290 -91 290 -228c0 -174 -166 -256 -381 -256c-168 0 -284 52 -368 117l18 27c78 -62 183 -112 351 -112c191 0 344 69 344 222c0 115 -87 181 -260 197l-138 13
c-214 19 -290 111 -290 227c0 157 147 250 343 250c149 0 281 -51 355 -109zM223 1341l257 -239l257 239h41l-279 -267h-38l-279 267h41z" />
    <glyph glyph-name="Tcommaaccent" unicode="&#x162;" horiz-adv-x="1220" 
d="M525 -325h-38l105 329l36 -1zM1175 1365h-546v-1365h-37v1365h-547v35h1130v-35z" />
    <glyph glyph-name="tcommaaccent" unicode="&#x163;" horiz-adv-x="902" 
d="M820 894h-488v-592c0 -184 96 -276 255 -276c99 0 180 30 235 85l20 -25c-60 -59 -148 -94 -257 -94c-178 0 -288 105 -288 310v592h-238v33h238v321h35v-321h488v-33zM502 -325h-37l105 329l35 -1z" />
    <glyph glyph-name="Tcaron" unicode="&#x164;" horiz-adv-x="1220" 
d="M1175 1365h-546v-1365h-37v1365h-547v35h1130v-35zM353 1757l257 -239l257 239h41l-279 -267h-38l-279 267h41z" />
    <glyph glyph-name="tcaron" unicode="&#x165;" horiz-adv-x="902" 
d="M820 894h-488v-592c0 -184 96 -276 255 -276c99 0 180 30 235 85l20 -25c-60 -59 -148 -94 -257 -94c-178 0 -288 105 -288 310v592h-238v33h238v321h35v-321h488v-33zM519 1052l19 388h36l-24 -388h-31z" />
    <glyph glyph-name="Utilde" unicode="&#x168;" horiz-adv-x="1490" 
d="M1288 540c0 -363 -244 -548 -543 -548c-301 0 -543 185 -543 548v860h37v-858c0 -340 224 -514 506 -514c281 0 506 174 506 514v858h37v-860zM431 1594c47 71 97 109 180 109c133 0 148 -101 268 -101c71 0 113 33 157 97l23 -20c-48 -71 -99 -109 -180 -109
c-132 0 -147 102 -268 102c-71 0 -113 -34 -157 -98z" />
    <glyph glyph-name="utilde" unicode="&#x169;" horiz-adv-x="1176" 
d="M991 375c0 -235 -168 -383 -404 -383c-237 0 -403 148 -403 383v552h35v-549c0 -216 147 -352 368 -352s369 136 369 352v549h35v-552zM291 1178c47 71 97 109 180 109c133 0 148 -101 268 -101c71 0 113 33 157 97l23 -20c-48 -71 -99 -109 -180 -109
c-132 0 -147 102 -268 102c-71 0 -113 -34 -157 -98z" />
    <glyph glyph-name="Umacron" unicode="&#x16a;" horiz-adv-x="1490" 
d="M1288 540c0 -363 -244 -548 -543 -548c-301 0 -543 185 -543 548v860h37v-858c0 -340 224 -514 506 -514c281 0 506 174 506 514v858h37v-860zM467 1639h556v-30h-556v30z" />
    <glyph glyph-name="umacron" unicode="&#x16b;" horiz-adv-x="1176" 
d="M991 375c0 -235 -168 -383 -404 -383c-237 0 -403 148 -403 383v552h35v-549c0 -216 147 -352 368 -352s369 136 369 352v549h35v-552zM309 1223h556v-30h-556v30z" />
    <glyph glyph-name="Ubreve" unicode="&#x16c;" horiz-adv-x="1490" 
d="M1288 540c0 -363 -244 -548 -543 -548c-301 0 -543 185 -543 548v860h37v-858c0 -340 224 -514 506 -514c281 0 506 174 506 514v858h37v-860zM486 1757c35 -147 128 -223 259 -223s225 76 260 223l30 -8c-39 -160 -145 -246 -290 -246s-250 86 -289 246z" />
    <glyph glyph-name="ubreve" unicode="&#x16d;" horiz-adv-x="1176" 
d="M991 375c0 -235 -168 -383 -404 -383c-237 0 -403 148 -403 383v552h35v-549c0 -216 147 -352 368 -352s369 136 369 352v549h35v-552zM328 1341c35 -147 128 -223 259 -223s225 76 260 223l30 -8c-39 -160 -145 -246 -290 -246s-250 86 -289 246z" />
    <glyph glyph-name="Uring" unicode="&#x16e;" horiz-adv-x="1490" 
d="M1288 540c0 -363 -244 -548 -543 -548c-301 0 -543 185 -543 548v860h37v-858c0 -340 224 -514 506 -514c281 0 506 174 506 514v858h37v-860zM745 1468c-103 0 -188 83 -188 187c0 101 85 187 188 187c104 0 187 -86 187 -187c0 -104 -83 -187 -187 -187zM745 1498
c85 0 156 70 156 157s-71 157 -156 157c-87 0 -157 -70 -157 -157s70 -157 157 -157z" />
    <glyph glyph-name="uring" unicode="&#x16f;" horiz-adv-x="1176" 
d="M991 375c0 -235 -168 -383 -404 -383c-237 0 -403 148 -403 383v552h35v-549c0 -216 147 -352 368 -352s369 136 369 352v549h35v-552zM587 1052c-103 0 -188 83 -188 187c0 101 85 187 188 187c104 0 187 -86 187 -187c0 -104 -83 -187 -187 -187zM587 1082
c85 0 156 70 156 157s-71 157 -156 157c-87 0 -157 -70 -157 -157s70 -157 157 -157z" />
    <glyph glyph-name="Uhungarumlaut" unicode="&#x170;" horiz-adv-x="1490" 
d="M1288 540c0 -363 -244 -548 -543 -548c-301 0 -543 185 -543 548v860h37v-858c0 -340 224 -514 506 -514c281 0 506 174 506 514v858h37v-860zM862 1475l245 300h42l-249 -300h-38zM522 1475l242 300h41l-245 -300h-38z" />
    <glyph glyph-name="uhungarumlaut" unicode="&#x171;" horiz-adv-x="1176" 
d="M991 375c0 -235 -168 -383 -404 -383c-237 0 -403 148 -403 383v552h35v-549c0 -216 147 -352 368 -352s369 136 369 352v549h35v-552zM715 1059l245 300h42l-249 -300h-38zM375 1059l242 300h41l-245 -300h-38z" />
    <glyph glyph-name="Uogonek" unicode="&#x172;" horiz-adv-x="1490" 
d="M1288 540c0 -363 -244 -548 -543 -548c-301 0 -543 185 -543 548v860h37v-858c0 -340 224 -514 506 -514c281 0 506 174 506 514v858h37v-860zM1129 -323c-53 -55 -123 -84 -199 -84c-120 0 -206 73 -206 181c0 143 130 216 283 302l15 -20c-144 -85 -263 -154 -263 -279
c0 -92 73 -153 173 -153c67 0 128 25 176 76z" />
    <glyph glyph-name="uogonek" unicode="&#x173;" horiz-adv-x="1176" 
d="M991 375c0 -235 -168 -383 -404 -383c-237 0 -403 148 -403 383v552h35v-549c0 -216 147 -352 368 -352s369 136 369 352v549h35v-552zM933 -323c-53 -55 -123 -84 -199 -84c-120 0 -206 73 -206 181c0 143 130 216 283 302l15 -20c-144 -85 -263 -154 -263 -279
c0 -92 73 -153 173 -153c67 0 128 25 176 76z" />
    <glyph glyph-name="Ydieresis" unicode="&#x178;" horiz-adv-x="1209" 
d="M623 635v-635h-37v636l-572 764h45l546 -728l546 728h44zM415 1542h-35v133h35v-133zM833 1542h-35v133h35v-133z" />
    <glyph glyph-name="Zacute" unicode="&#x179;" horiz-adv-x="1356" 
d="M1214 1373l-1029 -1337h1036v-36h-1086v29l1028 1336h-1002v35h1053v-27zM578 1475l243 300h45l-251 -300h-37z" />
    <glyph glyph-name="zacute" unicode="&#x17a;" horiz-adv-x="1088" 
d="M943 900l-758 -867h765v-33h-813v26l760 868h-737v33h783v-27zM461 1059l243 300h45l-251 -300h-37z" />
    <glyph glyph-name="Zdotaccent" unicode="&#x17b;" horiz-adv-x="1356" 
d="M1214 1373l-1029 -1337h1036v-36h-1086v29l1028 1336h-1002v35h1053v-27zM703 1542h-36v134h36v-134z" />
    <glyph glyph-name="zdotaccent" unicode="&#x17c;" horiz-adv-x="1088" 
d="M943 900l-758 -867h765v-33h-813v26l760 868h-737v33h783v-27zM569 1201h-35v133h35v-133z" />
    <glyph glyph-name="Zcaron" unicode="&#x17d;" horiz-adv-x="1356" 
d="M1214 1373l-1029 -1337h1036v-36h-1086v29l1028 1336h-1002v35h1053v-27zM430 1757l257 -239l257 239h41l-279 -267h-38l-279 267h41z" />
    <glyph glyph-name="zcaron" unicode="&#x17e;" horiz-adv-x="1088" 
d="M943 900l-758 -867h765v-33h-813v26l760 868h-737v33h783v-27zM295 1341l257 -239l257 239h41l-279 -267h-38l-279 267h41z" />
    <glyph glyph-name="longs" unicode="&#x17f;" horiz-adv-x="665" 
d="M488 1448c97 0 184 -30 244 -70l-15 -29c-56 36 -138 65 -227 65c-198 0 -269 -123 -269 -325v-1089h-35v1089c0 220 79 359 302 359z" />
    <glyph glyph-name="Scommaaccent" unicode="&#x218;" horiz-adv-x="1336" 
d="M1132 1220c-101 77 -257 152 -476 152c-256 0 -450 -123 -450 -337c0 -155 99 -276 383 -303l201 -20c268 -27 411 -128 411 -337c0 -262 -240 -383 -542 -383c-224 0 -417 89 -524 166l21 29c98 -72 284 -159 503 -159c283 0 504 107 504 344c0 187 -130 277 -386 304
l-202 20c-295 29 -408 158 -408 337c0 239 213 374 489 374c230 0 391 -77 496 -157zM748 -90l-56 -317h-32l50 317h38z" />
    <glyph glyph-name="scommaaccent" unicode="&#x219;" horiz-adv-x="945" 
d="M804 797c-68 53 -194 104 -338 104c-174 0 -307 -79 -307 -216c0 -103 68 -176 261 -195l137 -13c187 -19 290 -91 290 -228c0 -174 -166 -256 -381 -256c-168 0 -284 52 -368 117l18 27c78 -62 183 -112 351 -112c191 0 344 69 344 222c0 115 -87 181 -260 197l-138 13
c-214 19 -290 111 -290 227c0 157 147 250 343 250c149 0 281 -51 355 -109zM514 -90l-56 -317h-32l50 317h38z" />
    <glyph glyph-name="uni021A" unicode="&#x21a;" horiz-adv-x="1220" 
d="M1175 1365h-546v-1365h-37v1365h-547v35h1130v-35zM654 -90l-56 -317h-32l50 317h38z" />
    <glyph glyph-name="uni021B" unicode="&#x21b;" horiz-adv-x="902" 
d="M820 894h-488v-592c0 -184 96 -276 255 -276c99 0 180 30 235 85l20 -25c-60 -59 -148 -94 -257 -94c-178 0 -288 105 -288 310v592h-238v33h238v321h35v-321h488v-33zM599 -90l-56 -317h-32l50 317h38z" />
    <glyph glyph-name="gravecomb" unicode="&#x300;" horiz-adv-x="1" 
d="M-792 1359h45l243 -300h-37z" />
    <glyph glyph-name="acutecomb" unicode="&#x301;" horiz-adv-x="1" 
d="M-675 1059l243 300h45l-251 -300h-37z" />
    <glyph glyph-name="uni0302" unicode="&#x302;" horiz-adv-x="1" 
d="M-327 1079l-257 238l-257 -238h-41l279 267h38l279 -267h-41z" />
    <glyph glyph-name="tildecomb" unicode="&#x303;" horiz-adv-x="1" 
d="M-880 1178c47 71 97 109 180 109c133 0 148 -101 268 -101c71 0 113 33 157 97l23 -20c-48 -71 -99 -109 -180 -109c-132 0 -147 102 -268 102c-71 0 -113 -34 -157 -98z" />
    <glyph glyph-name="uni0304" unicode="&#x304;" horiz-adv-x="1" 
d="M-862 1223h556v-30h-556v30z" />
    <glyph glyph-name="uni0306" unicode="&#x306;" horiz-adv-x="1" 
d="M-843 1341c35 -147 128 -223 259 -223s225 76 260 223l30 -8c-39 -160 -145 -246 -290 -246s-250 86 -289 246z" />
    <glyph glyph-name="uni0307" unicode="&#x307;" horiz-adv-x="1" 
d="M-567 1201h-35v133h35v-133z" />
    <glyph glyph-name="uni0308" unicode="&#x308;" horiz-adv-x="1" 
d="M-775 1197h-35v133h35v-133zM-357 1197h-35v133h35v-133z" />
    <glyph glyph-name="uni030A" unicode="&#x30a;" horiz-adv-x="1" 
d="M-584 1052c-103 0 -188 83 -188 187c0 101 85 187 188 187c104 0 187 -86 187 -187c0 -104 -83 -187 -187 -187zM-584 1082c85 0 156 70 156 157s-71 157 -156 157c-87 0 -157 -70 -157 -157s70 -157 157 -157z" />
    <glyph glyph-name="uni030B" unicode="&#x30b;" horiz-adv-x="1" 
d="M-456 1059l245 300h42l-249 -300h-38zM-796 1059l242 300h41l-245 -300h-38z" />
    <glyph glyph-name="uni030C" unicode="&#x30c;" horiz-adv-x="1" 
d="M-841 1341l257 -239l257 239h41l-279 -267h-38l-279 267h41z" />
    <glyph glyph-name="uni0312" unicode="&#x312;" horiz-adv-x="1" 
d="M-613 1059l56 318h32l-50 -318h-38z" />
    <glyph glyph-name="uni0326" unicode="&#x326;" horiz-adv-x="1" 
d="M-540 -90l-56 -317h-32l50 317h38z" />
    <glyph glyph-name="uni0327" unicode="&#x327;" horiz-adv-x="1" 
d="M-616 -325h-37l105 329l35 -1z" />
    <glyph glyph-name="uni0328" unicode="&#x328;" horiz-adv-x="1" 
d="M-380 -323c-53 -55 -123 -84 -199 -84c-120 0 -206 73 -206 181c0 143 130 216 283 302l15 -20c-144 -85 -263 -154 -263 -279c0 -92 73 -153 173 -153c67 0 128 25 176 76z" />
    <glyph glyph-name="uni1E9E" unicode="&#x1e9e;" horiz-adv-x="1464" 
d="M787 716l427 453c-80 110 -211 203 -477 203c-288 0 -498 -153 -498 -441v-931h-37v933c0 303 222 475 535 475c293 0 438 -110 526 -235l-423 -452c281 -8 489 -152 489 -371c0 -221 -215 -357 -476 -357c-158 0 -256 31 -335 70l12 34c73 -36 170 -68 318 -68
c250 0 442 121 442 321c0 203 -197 338 -478 338h-25v28z" />
    <glyph glyph-name="uni2008" unicode="&#x2008;" horiz-adv-x="513" 
 />
    <glyph glyph-name="uni2009" unicode="&#x2009;" horiz-adv-x="174" 
 />
    <glyph glyph-name="uni200B" unicode="&#x200b;" horiz-adv-x="0" 
 />
    <glyph glyph-name="uniFEFF" unicode="&#xfeff;" horiz-adv-x="0" 
 />
    <glyph glyph-name="endash" unicode="&#x2013;" horiz-adv-x="1220" 
d="M1085 505h-950v33h950v-33z" />
    <glyph glyph-name="emdash" unicode="&#x2014;" horiz-adv-x="1636" 
d="M1568 505h-1500v33h1500v-33z" />
    <glyph glyph-name="quoteleft" unicode="&#x2018;" horiz-adv-x="474" 
d="M188 1006l76 434h31l-68 -434h-39z" />
    <glyph glyph-name="quoteright" unicode="&#x2019;" horiz-adv-x="474" 
d="M286 1441l-76 -434h-31l68 434h39z" />
    <glyph glyph-name="quotesinglbase" unicode="&#x201a;" horiz-adv-x="474" 
d="M286 205l-76 -434h-31l68 434h39z" />
    <glyph glyph-name="quotedblleft" unicode="&#x201c;" horiz-adv-x="761" 
d="M188 1006l76 434h31l-68 -434h-39zM475 1006l76 434h31l-68 -434h-39z" />
    <glyph glyph-name="quotedblright" unicode="&#x201d;" horiz-adv-x="761" 
d="M573 1441l-76 -434h-31l68 434h39zM286 1441l-76 -434h-31l68 434h39z" />
    <glyph glyph-name="quotedblbase" unicode="&#x201e;" horiz-adv-x="761" 
d="M573 205l-76 -434h-31l68 434h39zM286 205l-76 -434h-31l68 434h39z" />
    <glyph glyph-name="bullet" unicode="&#x2022;" horiz-adv-x="940" 
d="M470 633c60 0 112 -48 112 -111c0 -61 -52 -112 -112 -112c-62 0 -111 51 -111 112c0 63 49 111 111 111z" />
    <glyph glyph-name="guilsinglleft" unicode="&#x2039;" horiz-adv-x="604" 
d="M402 170h-39l-197 352l197 352h39l-197 -352z" />
    <glyph glyph-name="guilsinglright" unicode="&#x203a;" horiz-adv-x="604" 
d="M202 874h39l197 -352l-197 -352h-39l197 352z" />
    <glyph glyph-name="Euro" unicode="&#x20ac;" horiz-adv-x="1400" 
d="M1050 532h-764c48 -309 238 -505 542 -505c217 0 376 102 461 263l25 -22c-89 -171 -258 -275 -486 -275c-327 0 -528 210 -579 539h-165v32h161c-5 43 -8 89 -8 136s3 92 8 136h-161v32h165c51 328 253 539 579 539c227 0 396 -105 487 -274l-26 -23
c-85 161 -244 264 -461 264c-306 0 -494 -197 -542 -506h764v-32h-768c-7 -44 -8 -89 -8 -136c0 -48 1 -93 8 -136h768v-32z" />
    <glyph glyph-name="trademark" unicode="&#x2122;" horiz-adv-x="1157" 
d="M1040 920v439l-204 -379h-26l-205 379v-439h-27v482h35l210 -387l209 387h35v-482h-27zM273 920v454h-183v26h392v-26h-182v-454h-27z" />
    <glyph glyph-name="uniFB00" unicode="&#xfb00;" horiz-adv-x="1764" 
d="M827 894h-469v-894h-35v894h-264v33h264v162c0 220 79 359 302 359c97 0 184 -30 244 -70l-15 -29c-56 36 -138 65 -227 65c-200 0 -269 -123 -269 -325v-162h469v-33zM1690 894h-469v-894h-35v894h-264v33h264v162c0 220 79 359 302 359c97 0 184 -30 244 -70l-15 -29
c-56 36 -138 65 -227 65c-200 0 -269 -123 -269 -325v-162h469v-33z" />
    <glyph glyph-name="fi" unicode="&#xfb01;" horiz-adv-x="1329" 
d="M827 894h-469v-894h-35v894h-264v33h264v162c0 220 79 359 302 359c97 0 184 -30 244 -70l-15 -29c-56 36 -138 65 -227 65c-200 0 -269 -123 -269 -325v-162h469v-33zM1132 0h-35v927h35v-927zM1132 1201h-35v133h35v-133z" />
    <glyph glyph-name="fl" unicode="&#xfb02;" horiz-adv-x="1329" 
d="M827 894h-469v-894h-35v894h-264v33h264v162c0 220 79 359 302 359c97 0 184 -30 244 -70l-15 -29c-56 36 -138 65 -227 65c-200 0 -269 -123 -269 -325v-162h469v-33zM1132 0h-35v1440h35v-1440z" />
    <glyph glyph-name="uniFB03" unicode="&#xfb03;" horiz-adv-x="2192" 
d="M827 894h-469v-894h-35v894h-264v33h264v162c0 220 79 359 302 359c97 0 184 -30 244 -70l-15 -29c-56 36 -138 65 -227 65c-200 0 -269 -123 -269 -325v-162h469v-33zM1690 894h-469v-894h-35v894h-264v33h264v162c0 220 79 359 302 359c97 0 184 -30 244 -70l-15 -29
c-56 36 -138 65 -227 65c-200 0 -269 -123 -269 -325v-162h469v-33zM1995 0h-35v927h35v-927zM1995 1201h-35v133h35v-133z" />
    <glyph glyph-name="uniFB04" unicode="&#xfb04;" horiz-adv-x="2192" 
d="M827 894h-469v-894h-35v894h-264v33h264v162c0 220 79 359 302 359c97 0 184 -30 244 -70l-15 -29c-56 36 -138 65 -227 65c-200 0 -269 -123 -269 -325v-162h469v-33zM1690 894h-469v-894h-35v894h-264v33h264v162c0 220 79 359 302 359c97 0 184 -30 244 -70l-15 -29
c-56 36 -138 65 -227 65c-200 0 -269 -123 -269 -325v-162h469v-33zM1995 0h-35v1440h35v-1440z" />
    <glyph glyph-name="uniFB05" unicode="&#xfb05;" horiz-adv-x="1470" 
d="M1389 894h-488v-592c0 -184 96 -276 255 -276c99 0 179 30 235 85l19 -25c-60 -59 -148 -94 -256 -94c-179 0 -288 105 -288 310v592h-238v33h238v137c0 214 -128 350 -323 350c-193 0 -322 -136 -322 -350v-1064h-35v1065c0 236 148 383 357 383
c210 0 358 -147 358 -383v-138h488v-33z" />
    <glyph glyph-name="uniFB06" unicode="&#xfb06;" horiz-adv-x="1847" 
d="M804 797c-68 53 -194 104 -338 104c-174 0 -307 -79 -307 -216c0 -103 68 -176 261 -195l137 -13c187 -19 290 -91 290 -228c0 -174 -166 -256 -381 -256c-168 0 -284 52 -368 117l18 27c78 -62 183 -112 351 -112c191 0 344 69 344 222c0 115 -87 181 -260 197l-138 13
c-214 19 -290 111 -290 227c0 157 147 250 343 250c149 0 281 -51 355 -109zM1765 894h-488v-592c0 -184 96 -276 255 -276c99 0 180 30 235 85l20 -25c-60 -59 -148 -94 -257 -94c-178 0 -288 105 -288 310v592h-238v33h238v321h35v-321h488v-33z" />
    <glyph glyph-name="uni030C.alt001" unicode="&#xe01d;" horiz-adv-x="1" 
d="M-611 1052l19 388h36l-24 -388h-31z" />
    <glyph glyph-name="uni0328.alt001" unicode="&#xe01e;" horiz-adv-x="1" 
d="M-415 -324c-46 -55 -101 -83 -165 -83c-99 0 -171 59 -171 153c0 93 83 184 179 275l20 -21c-91 -85 -165 -175 -165 -252s58 -124 139 -124c55 0 102 25 142 74z" />
    <glyph glyph-name="uni0328.alt002" unicode="&#xe01f;" horiz-adv-x="1" 
d="M-564 6c-110 -65 -186 -130 -186 -231c0 -90 73 -151 173 -151c67 0 128 25 176 76l21 -23c-53 -55 -123 -84 -199 -84c-120 0 -206 73 -206 180c0 116 82 183 199 252z" />
    <glyph glyph-name="uni0328.alt003" unicode="&#xe020;" horiz-adv-x="1" 
d="M-415 -324c-46 -55 -101 -83 -165 -83c-99 0 -171 59 -171 151c0 121 114 202 299 282l13 -26c-177 -78 -278 -149 -278 -253c0 -76 56 -123 139 -123c55 0 102 25 142 74z" />
    <glyph glyph-name="uni0328.alt004" unicode="&#xe021;" horiz-adv-x="1" 
d="M-380 -323c-53 -55 -123 -84 -199 -84c-120 0 -206 73 -206 180c0 143 132 215 283 300l15 -20c-144 -85 -263 -152 -263 -278c0 -90 73 -151 173 -151c67 0 128 25 176 76z" />
    <glyph glyph-name="zero.osf" unicode="&#xe023;" horiz-adv-x="1311" 
d="M655 1015c288 0 522 -203 522 -509c0 -311 -234 -514 -522 -514s-522 210 -522 514c0 306 234 509 522 509zM655 982c-269 0 -486 -190 -486 -476c0 -284 217 -480 486 -480c268 0 487 188 487 480c0 286 -219 476 -487 476z" />
    <glyph glyph-name="one.osf" unicode="&#xe00f;" horiz-adv-x="743" 
d="M529 0h-35v970l-421 -151v36l456 163v-1018z" />
    <glyph glyph-name="two.osf" unicode="&#xe01b;" horiz-adv-x="1024" 
d="M86 818c63 82 178 197 388 197c251 0 386 -159 386 -336c0 -146 -84 -278 -300 -409l-391 -236h762v-34h-829v29l438 266c219 131 283 256 283 383c0 156 -118 303 -350 303c-195 0 -297 -104 -361 -184z" />
    <glyph glyph-name="three.osf" unicode="&#xe018;" horiz-adv-x="1035" 
d="M456 1015c258 0 436 -151 436 -353c0 -191 -118 -309 -283 -346c178 -37 313 -164 313 -343c0 -254 -222 -373 -454 -373c-172 0 -301 58 -401 154l24 25c96 -91 217 -145 377 -145c217 0 417 107 417 339c0 201 -183 326 -404 326h-212v34h212c212 0 374 113 374 329
c0 184 -163 319 -401 319c-157 0 -278 -73 -355 -174l-28 21c83 107 211 187 385 187z" />
    <glyph glyph-name="four.osf" unicode="&#xe009;" horiz-adv-x="1128" 
d="M770 34h305v-34h-305v-393h-35v393h-682v29l493 978h38l-489 -973h640v408h35v-408z" />
    <glyph glyph-name="five.osf" unicode="&#xe006;" horiz-adv-x="1111" 
d="M940 973h-678l-25 -557h231c347 0 523 -153 523 -417c0 -244 -188 -400 -456 -400c-187 0 -337 69 -449 208l25 23c107 -132 249 -196 424 -196c256 0 419 146 419 363c0 249 -160 385 -495 385h-256l26 625h711v-34z" />
    <glyph glyph-name="six.osf" unicode="&#xe015;" horiz-adv-x="1116" 
d="M254 776c81 60 185 93 301 93c275 0 474 -188 474 -439c0 -249 -199 -438 -474 -438s-475 189 -475 438c0 82 21 158 62 227l442 743h44zM555 835c-254 0 -439 -172 -439 -405c0 -232 183 -404 439 -404s438 172 438 404c0 233 -182 405 -438 405z" />
    <glyph glyph-name="seven.osf" unicode="&#xe012;" horiz-adv-x="1087" 
d="M1007 979l-684 -1372h-41l682 1366h-884v34h927v-28z" />
    <glyph glyph-name="eight.osf" unicode="&#xe003;" horiz-adv-x="1173" 
d="M587 1408c240 0 439 -135 439 -355c0 -184 -130 -304 -301 -344c188 -40 335 -160 335 -347c0 -233 -213 -370 -473 -370s-474 137 -474 370c0 188 145 307 335 347c-171 40 -301 160 -301 344c0 220 200 355 440 355zM587 692c-240 0 -437 -124 -437 -330
c0 -213 197 -337 437 -337s436 124 436 337c0 206 -196 330 -436 330zM587 1374c-222 0 -403 -121 -403 -321c0 -208 181 -328 403 -328c221 0 402 120 402 328c0 200 -181 321 -402 321z" />
    <glyph glyph-name="nine.osf" unicode="&#xe00c;" horiz-adv-x="1116" 
d="M861 231c-81 -60 -184 -93 -300 -93c-275 0 -474 189 -474 439c0 249 197 438 474 438c275 0 475 -189 475 -438c0 -82 -21 -158 -62 -227l-442 -743h-44zM561 172c254 0 439 173 439 405s-183 404 -439 404s-438 -172 -438 -404s182 -405 438 -405z" />
    <glyph glyph-name="zero" unicode="0" 
d="M601 1407c288 0 500 -242 500 -706c0 -467 -212 -708 -500 -708c-291 0 -502 241 -502 708c0 466 211 706 502 706zM601 1373c-268 0 -465 -228 -465 -672c0 -446 197 -674 465 -674c267 0 463 228 463 674c0 441 -196 672 -463 672z" />
    <glyph glyph-name="one" unicode="1" 
d="M635 35v1323l-466 -167v38l502 178v-1372h425v-35h-919v35h458z" />
    <glyph glyph-name="two" unicode="2" 
d="M171 1180c64 111 180 227 393 227c273 0 415 -183 415 -402c0 -170 -91 -297 -191 -402l-546 -568h799v-35h-853v28l573 596c99 104 181 223 181 381c0 199 -128 368 -379 368c-194 0 -301 -105 -365 -214z" />
    <glyph glyph-name="three" unicode="3" 
d="M551 1407c260 0 436 -150 436 -353c0 -191 -115 -309 -280 -346c179 -40 311 -162 311 -342c0 -254 -223 -373 -455 -373c-172 0 -302 58 -402 153l24 25c96 -91 220 -144 377 -144c216 0 419 107 419 339c0 200 -183 325 -405 325h-213v35h213c212 0 374 113 374 328
c0 183 -165 319 -401 319c-157 0 -279 -73 -356 -174l-28 22c83 107 214 186 386 186z" />
    <glyph glyph-name="four" unicode="4" 
d="M847 370h285v-35h-285v-335h-36v335h-710v29l523 1036h40l-520 -1030h667v416h36v-416z" />
    <glyph glyph-name="five" unicode="5" 
d="M987 1366h-678l-26 -557h248c333 0 507 -165 507 -397c0 -256 -188 -420 -457 -420c-187 0 -336 69 -449 208l25 23c107 -132 249 -196 424 -196c253 0 420 154 420 382c0 215 -158 366 -478 366h-274l26 625h712v-34z" />
    <glyph glyph-name="six" unicode="6" 
d="M301 777c81 60 184 92 300 92c275 0 474 -188 474 -438c0 -252 -199 -438 -474 -438c-276 0 -476 188 -476 438c0 83 22 158 63 227l442 742h44zM601 835c-254 0 -439 -172 -439 -404s183 -404 439 -404c254 0 437 172 437 404s-183 404 -437 404z" />
    <glyph glyph-name="seven" unicode="7" 
d="M1072 1372l-683 -1372h-41l681 1366h-884v34h927v-28z" />
    <glyph glyph-name="eight" unicode="8" 
d="M601 1407c251 0 460 -125 460 -354c0 -192 -135 -304 -311 -344c195 -37 344 -155 344 -347c0 -244 -223 -370 -493 -370c-271 0 -494 126 -494 370c0 192 150 310 344 347c-176 40 -310 152 -310 344c0 229 209 354 460 354zM601 692c-252 0 -456 -115 -456 -330
c0 -221 205 -336 456 -336s456 115 456 336c0 215 -205 330 -456 330zM601 1373c-231 0 -422 -110 -422 -320c0 -219 191 -328 422 -328c230 0 422 109 422 328c0 210 -192 320 -422 320z" />
    <glyph glyph-name="nine" unicode="9" 
d="M901 624c-81 -60 -184 -93 -301 -93c-275 0 -474 188 -474 439c0 248 199 437 474 437c276 0 476 -189 476 -437c0 -83 -21 -158 -62 -227l-443 -743h-43zM600 565c255 0 439 172 439 405c0 229 -183 404 -439 404c-255 0 -437 -175 -437 -404c0 -232 182 -405 437 -405z
" />
    <glyph glyph-name="uni2007" unicode="&#x2007;" 
 />
    <glyph glyph-name="zero.tosf" unicode="&#xe024;" 
d="M600 1015c276 0 501 -193 501 -509c0 -320 -225 -514 -501 -514s-501 202 -501 514c0 316 225 509 501 509zM600 982c-256 0 -465 -181 -465 -476c0 -293 209 -481 465 -481s465 181 465 481c0 295 -209 476 -465 476z" />
    <glyph glyph-name="one.tosf" unicode="&#xe010;" 
d="M649 34v938l-447 -126v35l482 137v-984l406 1v-35h-880v34h439z" />
    <glyph glyph-name="two.tosf" unicode="&#xe01c;" 
d="M205 818c63 82 178 197 388 197c251 0 386 -159 386 -336c0 -146 -84 -278 -300 -409l-391 -236h762v-34h-829v29l438 266c219 131 283 256 283 383c0 156 -118 303 -350 303c-195 0 -297 -104 -361 -184z" />
    <glyph glyph-name="three.tosf" unicode="&#xe019;" 
d="M565 1015c258 0 436 -151 436 -353c0 -191 -118 -309 -283 -346c178 -37 313 -164 313 -343c0 -254 -222 -373 -454 -373c-172 0 -301 58 -401 154l24 25c96 -91 217 -145 377 -145c217 0 417 107 417 339c0 201 -183 326 -404 326h-212v34h212c212 0 374 113 374 329
c0 184 -163 319 -401 319c-157 0 -278 -73 -355 -174l-28 21c83 107 211 187 385 187z" />
    <glyph glyph-name="four.tosf" unicode="&#xe00a;" 
d="M829 34h305v-34h-305v-393h-35v393h-682v29l493 978h38l-489 -973h640v408h35v-408z" />
    <glyph glyph-name="five.tosf" unicode="&#xe007;" 
d="M982 973h-678l-25 -557h231c347 0 523 -153 523 -417c0 -244 -188 -400 -456 -400c-187 0 -337 69 -449 208l25 23c107 -132 249 -196 424 -196c256 0 419 146 419 363c0 249 -160 385 -495 385h-256l26 625h711v-34z" />
    <glyph glyph-name="six.tosf" unicode="&#xe016;" 
d="M303 776c81 60 185 93 301 93c275 0 474 -188 474 -439c0 -249 -199 -438 -474 -438s-475 189 -475 438c0 82 21 158 62 227l442 743h44zM604 835c-254 0 -439 -172 -439 -405c0 -232 183 -404 439 -404s438 172 438 404c0 233 -182 405 -438 405z" />
    <glyph glyph-name="seven.tosf" unicode="&#xe013;" 
d="M1090 979l-684 -1372h-41l682 1366h-884v34h927v-28z" />
    <glyph glyph-name="eight.tosf" unicode="&#xe004;" 
d="M612 1408c240 0 439 -135 439 -355c0 -184 -130 -304 -301 -344c188 -40 335 -160 335 -347c0 -233 -213 -370 -473 -370s-474 137 -474 370c0 188 145 307 335 347c-171 40 -301 160 -301 344c0 220 200 355 440 355zM612 692c-240 0 -437 -124 -437 -330
c0 -213 197 -337 437 -337s436 124 436 337c0 206 -196 330 -436 330zM612 1374c-222 0 -403 -121 -403 -321c0 -208 181 -328 403 -328c221 0 402 120 402 328c0 200 -181 321 -402 321z" />
    <glyph glyph-name="nine.tosf" unicode="&#xe00d;" 
d="M896 231c-81 -60 -184 -93 -300 -93c-275 0 -474 189 -474 439c0 249 197 438 474 438c275 0 475 -189 475 -438c0 -82 -21 -158 -62 -227l-442 -743h-44zM596 172c254 0 439 173 439 405s-183 404 -439 404s-438 -172 -438 -404s182 -405 438 -405z" />
    </font>
</defs>
</svg>
