<?xml version="1.0" standalone="no"?>
<!DOCTYPE svg PUBLIC "-//W3C//DTD SVG 1.1//EN" "http://www.w3.org/Graphics/SVG/1.1/DTD/svg11.dtd" >
<svg>
<metadata>
Created by FontForge 20120731 at Wed Jan 16 09:58:54 2019
 By www-data
2013 published by FontShop International GmbH
</metadata>
<defs>
<font id="Mark-Black" horiz-adv-x="1200" >
  <font-face 
    font-family="Mark"
    font-weight="900"
    font-stretch="normal"
    units-per-em="2000"
    panose-1="2 0 10 0 0 0 0 0 0 0"
    ascent="1580"
    descent="-420"
    x-height="991"
    cap-height="1400"
    bbox="-1035 -507 2196 2028"
    underline-thickness="200"
    underline-position="-60"
    stemh="331"
    stemv="356"
    unicode-range="U+0020-FEFF"
  />
<missing-glyph horiz-adv-x="1130" 
d="M87 1400h956v-1400h-956v1400zM787 256v888h-444v-888h444z" />
    <glyph glyph-name="ellipsis" unicode="&#x2e;&#x2e;&#x2e;" horiz-adv-x="1721" 
d="M302 435c123 0 229 -106 229 -229c0 -125 -106 -232 -229 -232c-125 0 -232 107 -232 232c0 123 107 229 232 229zM862 435c123 0 229 -106 229 -229c0 -125 -106 -232 -229 -232c-125 0 -232 107 -232 232c0 123 107 229 232 229zM1422 435c123 0 229 -106 229 -229
c0 -125 -106 -232 -229 -232c-125 0 -232 107 -232 232c0 123 107 229 232 229z" />
    <glyph glyph-name=".notdef" horiz-adv-x="1130" 
d="M87 1400h956v-1400h-956v1400zM787 256v888h-444v-888h444z" />
    <glyph glyph-name=".null" unicode="&#xe000;" horiz-adv-x="0" 
 />
    <glyph glyph-name="CR" unicode="&#xe001;" horiz-adv-x="410" 
 />
    <glyph glyph-name="space" unicode=" " horiz-adv-x="410" 
 />
    <glyph glyph-name="exclam" unicode="!" horiz-adv-x="601" 
d="M470 518h-336l-40 882h416zM302 413c117 0 218 -101 218 -218c0 -119 -101 -221 -218 -221c-119 0 -221 102 -221 221c0 117 102 218 221 218z" />
    <glyph glyph-name="quotedbl" unicode="&#x22;" horiz-adv-x="1139" 
d="M496 1440v-694h-356v694h356zM999 1440v-694h-356v694h356z" />
    <glyph glyph-name="numbersign" unicode="#" horiz-adv-x="1453" 
d="M401 1118l60 282h322l-60 -282h183l60 282h322l-60 -282h165l-63 -294h-165l-51 -241h165l-62 -294h-166l-61 -289h-322l61 289h-183l-61 -289h-322l61 289h-164l62 294h165l51 241h-165l63 294h165zM609 583h183l51 241h-183z" />
    <glyph glyph-name="dollar" unicode="$" horiz-adv-x="1400" 
d="M1114 954c-115 64 -246 111 -395 111c-108 0 -187 -27 -190 -87c-3 -77 133 -86 280 -113l51 -9c276 -48 426 -184 426 -384c0 -257 -172 -397 -429 -440v-189h-275v184c-191 17 -361 70 -486 158l174 285c131 -77 262 -136 446 -136c108 0 186 27 189 92
c3 73 -89 86 -260 115l-59 10c-301 51 -442 175 -435 402c5 223 175 382 431 419v179h275v-180c168 -19 283 -66 411 -130z" />
    <glyph glyph-name="percent" unicode="%" horiz-adv-x="1970" 
d="M436 1426c227 0 396 -165 396 -389s-169 -389 -396 -389s-396 165 -396 389s169 389 396 389zM436 1172c-74 0 -127 -60 -127 -135s53 -135 127 -135s127 60 127 135c0 76 -53 135 -127 135zM629 0h-341l1043 1400h341zM1534 752c227 0 396 -165 396 -389
s-169 -389 -396 -389s-396 165 -396 389c0 219 169 389 396 389zM1534 498c-74 0 -127 -60 -127 -135s53 -135 127 -135s127 60 127 135c0 76 -53 135 -127 135z" />
    <glyph glyph-name="ampersand" unicode="&#x26;" horiz-adv-x="1508" 
d="M1036 0l-111 107c-104 -75 -232 -133 -394 -133c-301 0 -473 157 -473 378c0 157 104 279 229 375c-98 106 -148 194 -148 317c0 228 180 382 455 382c272 0 453 -153 453 -382c0 -139 -123 -249 -258 -342l145 -143l213 250l250 -191l-238 -280l344 -338h-467zM569 286
c44 0 87 16 128 41l-187 182c-44 -39 -72 -76 -72 -115c0 -68 48 -108 131 -108zM488 1034c0 -32 18 -57 85 -121c76 48 128 89 128 129c0 43 -42 80 -107 80c-67 0 -106 -32 -106 -88z" />
    <glyph glyph-name="quotesingle" unicode="'" horiz-adv-x="636" 
d="M496 1440v-694h-356v694h356z" />
    <glyph glyph-name="parenleft" unicode="(" horiz-adv-x="833" 
d="M793 1155c-259 -125 -363 -332 -363 -587c0 -254 104 -464 363 -587l-101 -308c-368 123 -632 460 -632 895c0 436 264 770 632 895z" />
    <glyph glyph-name="parenright" unicode=")" horiz-adv-x="833" 
d="M40 -19c259 123 363 333 363 587c0 255 -104 462 -363 587l101 308c368 -125 632 -459 632 -895c0 -435 -264 -772 -632 -895z" />
    <glyph glyph-name="asterisk" unicode="*" horiz-adv-x="946" 
d="M344 1218l-11 222h280l-11 -222l207 79l87 -266l-215 -58l140 -173l-227 -164l-121 185l-121 -185l-227 164l139 173l-214 58l87 266z" />
    <glyph glyph-name="plus" unicode="+" 
d="M454 51v337h-334v286h334v337h292v-337h334v-286h-334v-337h-292z" />
    <glyph glyph-name="comma" unicode="," horiz-adv-x="590" 
d="M526 402l-177 -694h-294l88 694h383z" />
    <glyph glyph-name="hyphen" unicode="-" horiz-adv-x="750" 
d="M680 381h-610v300h610v-300z" />
    <glyph glyph-name="period" unicode="." horiz-adv-x="601" 
d="M302 435c123 0 229 -106 229 -229c0 -125 -106 -232 -229 -232c-125 0 -232 107 -232 232c0 123 107 229 232 229z" />
    <glyph glyph-name="slash" unicode="/" horiz-adv-x="1092" 
d="M303 -200h-363l849 1740h363z" />
    <glyph glyph-name="zero.lf" unicode="&#xe022;" horiz-adv-x="1392" 
d="M696 1426c352 0 628 -272 628 -726s-276 -726 -628 -726c-351 0 -628 272 -628 726s277 726 628 726zM696 1072c-139 0 -244 -128 -244 -372s105 -372 244 -372s244 128 244 372s-105 372 -244 372z" />
    <glyph glyph-name="one.lf" unicode="&#xe00e;" horiz-adv-x="807" 
d="M698 0h-369v920l-295 -105v358l664 249v-1422z" />
    <glyph glyph-name="two.lf" unicode="&#xe01a;" horiz-adv-x="1153" 
d="M44 1174c97 113 261 252 537 252c299 0 496 -177 496 -454c0 -162 -59 -278 -233 -441l-200 -190h461v-341h-982v289l476 449c63 60 95 122 95 187c0 90 -71 147 -159 147c-118 0 -205 -73 -282 -153z" />
    <glyph glyph-name="three.lf" unicode="&#xe017;" horiz-adv-x="1151" 
d="M531 1426c312 0 534 -161 534 -406c0 -145 -70 -252 -199 -315c145 -60 227 -169 227 -314c0 -283 -270 -417 -555 -417c-217 0 -391 74 -504 207l204 240c77 -79 171 -120 279 -120c106 0 193 40 193 124c0 81 -99 122 -218 122h-153v320h157c108 0 190 43 190 119
s-66 113 -169 113c-129 0 -218 -59 -283 -126l-198 244c115 121 265 209 495 209z" />
    <glyph glyph-name="four.lf" unicode="&#xe008;" horiz-adv-x="1196" 
d="M1010 566h159v-341h-159v-225h-369v225h-614v253l429 922h402l-391 -834h174v124l110 241h259v-365z" />
    <glyph glyph-name="five.lf" unicode="&#xe005;" horiz-adv-x="1167" 
d="M1017 1063h-532l-5 -171h118c323 0 508 -160 508 -422c0 -299 -225 -496 -549 -496c-218 0 -404 81 -513 182l168 279c61 -53 204 -128 343 -128c109 0 169 47 169 139c0 75 -57 127 -216 127h-355l19 827h845v-337z" />
    <glyph glyph-name="six.lf" unicode="&#xe014;" horiz-adv-x="1205" 
d="M657 938c332 -5 504 -212 504 -466c0 -289 -242 -498 -561 -498c-316 0 -559 205 -559 485c0 137 54 269 146 406l359 535h442zM600 634c-100 0 -170 -71 -170 -166c0 -98 70 -168 170 -168s173 70 173 168c0 95 -73 166 -173 166z" />
    <glyph glyph-name="seven.lf" unicode="&#xe011;" horiz-adv-x="1109" 
d="M1075 1110l-529 -1110h-442l533 1059h-596v341h1034v-290z" />
    <glyph glyph-name="eight.lf" unicode="&#xe002;" horiz-adv-x="1261" 
d="M630 1426c296 0 537 -152 537 -406c0 -157 -90 -257 -209 -313c137 -56 245 -154 245 -325c0 -257 -257 -408 -573 -408c-315 0 -572 151 -572 408c0 170 108 272 244 325c-119 56 -208 156 -208 313c0 254 241 406 536 406zM630 570c-89 0 -167 -51 -167 -142
c0 -90 78 -138 167 -138c91 0 168 48 168 138c0 91 -77 142 -168 142zM630 1102c-79 0 -141 -42 -141 -122s62 -125 141 -125s141 45 141 125s-62 122 -141 122z" />
    <glyph glyph-name="nine.lf" unicode="&#xe00b;" horiz-adv-x="1205" 
d="M548 462c-332 3 -504 213 -504 466c0 289 240 498 560 498c317 0 560 -205 560 -485c0 -137 -54 -269 -146 -406l-359 -535h-442zM604 766c100 0 171 71 171 166c0 98 -71 168 -171 168s-172 -70 -172 -168c0 -95 72 -166 172 -166z" />
    <glyph glyph-name="colon" unicode=":" horiz-adv-x="601" 
d="M302 1018c123 0 229 -106 229 -229c0 -125 -106 -232 -229 -232c-125 0 -232 107 -232 232c0 123 107 229 232 229zM302 435c123 0 229 -106 229 -229c0 -125 -106 -232 -229 -232c-125 0 -232 107 -232 232c0 123 107 229 232 229z" />
    <glyph glyph-name="semicolon" unicode=";" horiz-adv-x="590" 
d="M314 1018c123 0 229 -106 229 -229c0 -125 -106 -232 -229 -232c-125 0 -232 107 -232 232c0 123 107 229 232 229zM526 402l-177 -694h-294l88 694h383z" />
    <glyph glyph-name="less" unicode="&#x3c;" 
d="M1013 -9l-825 381v317l825 381v-328l-516 -211l516 -212v-328z" />
    <glyph glyph-name="equal" unicode="=" 
d="M1080 153h-960v286h960v-286zM1080 623h-960v286h960v-286z" />
    <glyph glyph-name="greater" unicode="&#x3e;" 
d="M188 1070l825 -381v-317l-825 -381v328l516 211l-516 212v328z" />
    <glyph glyph-name="question" unicode="?" horiz-adv-x="892" 
d="M135 508v373h108c155 0 228 28 228 92c0 67 -73 94 -228 95c-47 0 -98 -2 -138 -7l-19 353c65 8 141 12 228 12c345 0 548 -158 548 -412c0 -215 -136 -357 -384 -413l-7 -93h-336zM303 414c117 0 218 -101 218 -218c0 -119 -101 -222 -218 -222
c-119 0 -221 102 -221 221c0 118 102 219 221 219z" />
    <glyph glyph-name="at" unicode="@" horiz-adv-x="1864" 
d="M1301 422c0 -56 23 -89 74 -89c83 0 133 68 133 217c0 304 -232 529 -571 529s-571 -235 -571 -579s225 -579 551 -579c115 0 220 16 312 89l162 -211c-145 -105 -318 -139 -474 -139c-496 0 -847 356 -847 840s359 840 867 840s857 -344 857 -789
c0 -279 -175 -472 -433 -472c-154 0 -242 63 -287 138c-43 -63 -110 -108 -217 -108c-208 0 -330 177 -330 391c0 212 129 390 319 390c88 0 146 -34 187 -83v62h268v-447zM923 629c-60 0 -107 -53 -107 -130s47 -130 107 -130c61 0 106 54 106 130s-45 130 -106 130z" />
    <glyph glyph-name="A" unicode="A" horiz-adv-x="1518" 
d="M1513 0h-403l-93 267h-523l-92 -267h-397l530 1400h448zM612 606h287l-143 414z" />
    <glyph glyph-name="B" unicode="B" horiz-adv-x="1349" 
d="M728 1400c376 0 543 -154 543 -402c0 -136 -77 -239 -186 -295c122 -45 214 -165 214 -301c0 -248 -164 -402 -535 -402h-664v1400h628zM480 549v-240l263 -1c110 0 165 40 165 121c0 80 -55 120 -165 120h-263zM480 1090v-233h239c105 0 158 39 158 117
c0 77 -52 116 -157 116h-240z" />
    <glyph glyph-name="C" unicode="C" horiz-adv-x="1469" 
d="M789 1426c275 0 516 -131 639 -355l-337 -186c-68 117 -171 177 -308 177c-195 0 -338 -149 -338 -362c0 -239 166 -362 339 -362c134 0 239 59 316 176l312 -218c-133 -197 -346 -322 -623 -322c-433 0 -739 299 -739 726s306 726 739 726z" />
    <glyph glyph-name="D" unicode="D" horiz-adv-x="1494" 
d="M718 1400c437 0 726 -278 726 -700s-289 -700 -726 -700h-618v1400h618zM480 1051v-702h228c229 0 341 149 341 351c0 205 -112 351 -341 351h-228z" />
    <glyph glyph-name="E" unicode="E" horiz-adv-x="1274" 
d="M1194 0h-1094v1400h1094v-338h-714v-185h664v-338h-664v-201h714v-338z" />
    <glyph glyph-name="F" unicode="F" horiz-adv-x="1244" 
d="M1134 509h-654v-509h-380v1400h1084v-338h-704v-215h654v-338z" />
    <glyph glyph-name="G" unicode="G" horiz-adv-x="1526" 
d="M800 1426c224 0 392 -73 512 -194l-268 -264c-64 63 -147 103 -267 103c-197 0 -338 -151 -338 -371c0 -255 165 -382 344 -382c177 0 277 69 317 206h-328v278h696c7 -44 8 -86 8 -126c0 -467 -347 -701 -676 -701c-440 0 -750 300 -750 725c0 426 310 726 750 726z" />
    <glyph glyph-name="H" unicode="H" horiz-adv-x="1478" 
d="M480 882h518v518h380v-1400h-380v533h-518v-533h-380v1400h380v-518z" />
    <glyph glyph-name="I" unicode="I" horiz-adv-x="580" 
d="M480 0h-380v1400h380v-1400z" />
    <glyph glyph-name="J" unicode="J" horiz-adv-x="1091" 
d="M996 539c0 -381 -210 -565 -529 -565c-208 0 -362 75 -445 156l184 294c51 -43 125 -86 225 -86c117 0 185 62 185 233v829h380v-861z" />
    <glyph glyph-name="K" unicode="K" horiz-adv-x="1423" 
d="M588 536h-108v-536h-380v1400h380v-526h110l353 526h462l-507 -683l552 -717h-467z" />
    <glyph glyph-name="L" unicode="L" horiz-adv-x="1174" 
d="M1154 0h-1054v1400h380v-1050h674v-350z" />
    <glyph glyph-name="M" unicode="M" horiz-adv-x="1815" 
d="M1715 0h-380v876l-225 -746h-405l-225 746v-876h-380v1400h527l281 -842l280 842h527v-1400z" />
    <glyph glyph-name="N" unicode="N" horiz-adv-x="1527" 
d="M1427 0h-370l-577 787v-787h-380v1400h370l577 -787v787h380v-1400z" />
    <glyph glyph-name="O" unicode="O" horiz-adv-x="1580" 
d="M790 1426c433 0 740 -307 740 -726s-307 -726 -740 -726s-740 307 -740 726s307 726 740 726zM790 1062c-204 0 -345 -149 -345 -362s141 -362 345 -362s345 149 345 362s-141 362 -345 362z" />
    <glyph glyph-name="P" unicode="P" horiz-adv-x="1314" 
d="M480 441v-441h-380v1400h624c356 0 543 -196 543 -484c0 -283 -186 -475 -538 -475h-249zM480 1059v-285h240c93 0 163 51 163 142s-70 143 -163 143h-240z" />
    <glyph glyph-name="Q" unicode="Q" horiz-adv-x="1611" 
d="M790 1426c433 0 740 -307 740 -726c0 -147 -41 -267 -110 -371l242 -329h-448l-58 78c-104 -64 -225 -104 -366 -104c-433 0 -740 307 -740 726s307 726 740 726zM790 1062c-204 0 -345 -149 -345 -362s141 -362 345 -362c51 0 99 9 144 28l-191 257l385 -1
c5 23 7 49 7 78c0 213 -141 362 -345 362z" />
    <glyph glyph-name="R" unicode="R" horiz-adv-x="1336" 
d="M724 1400c356 0 543 -183 543 -466c0 -216 -125 -372 -362 -420l381 -514h-448l-337 497h-21v-497h-380v1400h624zM480 1059v-249h240c93 0 163 39 163 124s-70 125 -163 125h-240z" />
    <glyph glyph-name="S" unicode="S" horiz-adv-x="1356" 
d="M1113 967c-94 51 -230 117 -404 117c-101 0 -180 -28 -180 -91c0 -78 143 -89 286 -115l45 -9c291 -56 436 -194 436 -410c0 -355 -299 -485 -597 -485c-252 0 -478 59 -639 174l186 310c112 -66 244 -144 458 -144c101 0 177 28 177 97c0 72 -88 87 -261 116l-53 9
c-322 56 -457 193 -449 442c8 268 231 447 568 447c183 0 348 -19 591 -147z" />
    <glyph glyph-name="T" unicode="T" horiz-adv-x="1216" 
d="M1196 1050h-398v-1050h-380v1050h-398v350h1176v-350z" />
    <glyph glyph-name="U" unicode="U" horiz-adv-x="1420" 
d="M1330 571c0 -381 -218 -597 -620 -597s-620 216 -620 597v829h381v-818c0 -161 91 -244 239 -244s239 83 239 244v818h381v-829z" />
    <glyph glyph-name="V" unicode="V" horiz-adv-x="1478" 
d="M963 0h-448l-510 1400h403l334 -1003l334 1003h397z" />
    <glyph glyph-name="W" unicode="W" horiz-adv-x="2180" 
d="M1772 0h-448l-234 819l-234 -819h-448l-400 1400h391l239 -939l252 939h405l252 -940l239 940h386z" />
    <glyph glyph-name="X" unicode="X" horiz-adv-x="1356" 
d="M908 705l443 -705h-430l-245 415l-244 -415h-427l443 704l-443 696h430l245 -414l244 414h427z" />
    <glyph glyph-name="Y" unicode="Y" horiz-adv-x="1428" 
d="M910 530v-530h-380v525l-528 875h436l283 -529l282 529h423z" />
    <glyph glyph-name="Z" unicode="Z" horiz-adv-x="1280" 
d="M1220 1102l-655 -764h655v-338h-1160v298l655 764h-655v338h1160v-298z" />
    <glyph glyph-name="bracketleft" unicode="[" horiz-adv-x="748" 
d="M708 -263h-608v1663h608v-316h-250v-1031h250v-316z" />
    <glyph glyph-name="backslash" unicode="\" horiz-adv-x="1092" 
d="M-60 1540h363l849 -1740h-363z" />
    <glyph glyph-name="bracketright" unicode="]" horiz-adv-x="748" 
d="M40 1400h608v-1663h-608v316h250v1031h-250v316z" />
    <glyph glyph-name="underscore" unicode="_" horiz-adv-x="940" 
d="M945 -339h-950v256h950v-256z" />
    <glyph glyph-name="a" unicode="a" horiz-adv-x="1192" 
d="M1105 0h-342v87c-60 -67 -145 -113 -270 -113c-265 0 -451 235 -451 523c0 286 185 521 452 521c125 0 209 -48 269 -116v89h342v-991zM585 687c-102 0 -176 -79 -176 -191s74 -191 176 -191s176 79 176 191s-74 191 -176 191z" />
    <glyph glyph-name="b" unicode="b" horiz-adv-x="1191" 
d="M697 1018c267 0 452 -235 452 -521c0 -288 -186 -523 -451 -523c-125 0 -210 46 -270 113v-87h-341v1440h356v-521c59 60 139 99 254 99zM606 687c-102 0 -176 -79 -176 -191s74 -191 176 -191s176 79 176 191s-74 191 -176 191z" />
    <glyph glyph-name="c" unicode="c" horiz-adv-x="1043" 
d="M582 1018c199 0 346 -91 445 -240l-292 -184c-43 64 -90 93 -161 93c-87 0 -168 -67 -168 -191s78 -191 165 -191c67 0 122 31 164 94l293 -187c-97 -147 -247 -238 -446 -238c-316 0 -540 215 -540 522s224 522 540 522z" />
    <glyph glyph-name="d" unicode="d" horiz-adv-x="1191" 
d="M494 1018c115 0 194 -39 254 -99v521h356v-1440h-341v87c-60 -67 -145 -113 -270 -113c-265 0 -451 235 -451 523c0 286 185 521 452 521zM585 687c-102 0 -176 -79 -176 -191s74 -191 176 -191s176 79 176 191s-74 191 -176 191z" />
    <glyph glyph-name="e" unicode="e" horiz-adv-x="1106" 
d="M557 1018c299 0 507 -213 507 -522c0 -34 -4 -86 -7 -106h-647c24 -80 83 -120 178 -120c64 0 132 27 187 80l244 -204c-96 -104 -251 -172 -448 -172c-317 0 -529 206 -529 513c0 314 210 531 515 531zM559 719c-76 0 -125 -38 -148 -114h298c-25 76 -75 114 -150 114z
" />
    <glyph glyph-name="f" unicode="f" horiz-adv-x="859" 
d="M794 677h-252v-677h-356v677h-160v314h160v39c0 296 166 436 395 436c172 0 278 -53 358 -117l-162 -254c-45 21 -83 40 -142 40c-64 0 -93 -33 -93 -114v-30h252v-314z" />
    <glyph glyph-name="g" unicode="g" horiz-adv-x="1186" 
d="M493 1018c123 0 207 -46 264 -114v87h342v-885c0 -332 -218 -526 -539 -526c-175 0 -343 42 -468 130l126 280c96 -72 194 -101 310 -101c99 0 224 53 224 200v45c-57 -64 -139 -108 -259 -108c-268 0 -451 222 -451 496s183 496 451 496zM582 695
c-98 0 -171 -73 -171 -173s73 -173 171 -173s167 73 167 173s-69 173 -167 173z" />
    <glyph glyph-name="h" unicode="h" horiz-adv-x="1130" 
d="M443 913c56 70 140 105 251 105c205 0 354 -145 354 -373v-645h-356v533c0 100 -46 152 -125 152c-69 0 -124 -45 -124 -154v-531h-356v1442h356v-529z" />
    <glyph glyph-name="i" unicode="i" horiz-adv-x="530" 
d="M443 0h-356v991h356v-991zM264 1485c116 0 204 -88 204 -204s-88 -204 -204 -204s-204 88 -204 204s88 204 204 204z" />
    <glyph glyph-name="j" unicode="j" horiz-adv-x="530" 
d="M443 -42c0 -242 -132 -384 -339 -384c-44 0 -116 9 -151 22l21 317c17 -5 35 -8 58 -8c32 0 55 18 55 77v1009h356v-1033zM262 1485c116 0 204 -88 204 -204s-88 -204 -204 -204s-204 88 -204 204s88 204 204 204z" />
    <glyph glyph-name="k" unicode="k" horiz-adv-x="1113" 
d="M443 682h59l200 309h428l-347 -468l347 -523h-426l-212 369h-49v-369h-356v1440h356v-758z" />
    <glyph glyph-name="l" unicode="l" horiz-adv-x="530" 
d="M443 0h-356v1440h356v-1440z" />
    <glyph glyph-name="m" unicode="m" horiz-adv-x="1735" 
d="M1283 1018c229 0 370 -145 370 -373v-645h-356v533c0 100 -46 152 -125 152c-69 0 -124 -45 -124 -154v-531h-356v533c0 100 -46 152 -125 152c-69 0 -124 -45 -124 -154v-531h-356v991h339v-102c56 86 145 129 268 129c128 0 231 -56 294 -153c60 102 158 153 295 153z
" />
    <glyph glyph-name="n" unicode="n" horiz-adv-x="1130" 
d="M694 1018c205 0 354 -145 354 -373v-645h-356v533c0 100 -46 152 -125 152c-71 0 -124 -47 -124 -154v-531h-356v991h339v-102c56 86 145 129 268 129z" />
    <glyph glyph-name="o" unicode="o" horiz-adv-x="1164" 
d="M582 1018c312 0 540 -221 540 -522s-228 -522 -540 -522s-540 221 -540 522s228 522 540 522zM582 687c-102 0 -176 -79 -176 -191s74 -191 176 -191s176 79 176 191s-74 191 -176 191z" />
    <glyph glyph-name="p" unicode="p" horiz-adv-x="1191" 
d="M697 1018c267 0 452 -235 452 -521c0 -288 -186 -523 -451 -523c-116 0 -196 38 -255 97v-471h-356v1391h341v-89c60 68 144 116 269 116zM606 687c-102 0 -176 -79 -176 -191s74 -191 176 -191s176 79 176 191s-74 191 -176 191z" />
    <glyph glyph-name="q" unicode="q" horiz-adv-x="1191" 
d="M494 1018c125 0 209 -48 269 -116v89h341v-1391h-356v471c-60 -59 -140 -97 -255 -97c-265 0 -451 235 -451 523c0 286 185 521 452 521zM585 687c-102 0 -176 -79 -176 -191s74 -191 176 -191s176 79 176 191s-74 191 -176 191z" />
    <glyph glyph-name="r" unicode="r" horiz-adv-x="805" 
d="M690 1018c39 0 74 -7 89 -10l-20 -356c-41 11 -99 23 -156 23c-99 0 -159 -35 -159 -144v-531h-357v991h340v-100c56 88 142 127 263 127z" />
    <glyph glyph-name="s" unicode="s" horiz-adv-x="1020" 
d="M862 663c-112 43 -244 73 -334 73c-69 0 -86 -14 -86 -37c0 -37 67 -37 158 -53l60 -10c212 -35 316 -137 316 -304c0 -229 -171 -358 -461 -358c-195 0 -372 34 -471 95l114 278c110 -60 230 -90 359 -90c79 0 103 13 103 42c0 31 -41 39 -151 55l-39 6
c-245 37 -355 136 -355 320c0 219 159 338 436 338c163 0 249 -16 436 -77z" />
    <glyph glyph-name="t" unicode="t" horiz-adv-x="980" 
d="M884 677h-322v-232c0 -107 56 -140 133 -140c55 0 116 33 161 60l119 -276c-98 -69 -199 -115 -372 -115c-282 0 -397 173 -397 416v287h-180v314h180v284h356v-284h322v-314z" />
    <glyph glyph-name="u" unicode="u" horiz-adv-x="1136" 
d="M1054 426c0 -308 -209 -452 -486 -452s-486 145 -486 453v564h356v-534c0 -100 51 -152 130 -152s130 52 130 152v534h356v-565z" />
    <glyph glyph-name="v" unicode="v" horiz-adv-x="1170" 
d="M790 0h-403l-378 991h389l192 -593l194 593h377z" />
    <glyph glyph-name="w" unicode="w" horiz-adv-x="1844" 
d="M1279 411l175 580h376l-347 -991h-390l-173 530l-168 -530h-390l-348 991h380l174 -579l182 579h345z" />
    <glyph glyph-name="x" unicode="x" horiz-adv-x="1188" 
d="M831 496l340 -496h-409l-172 259l-165 -259h-408l346 499l-333 492h412l160 -261l158 261h407z" />
    <glyph glyph-name="y" unicode="y" horiz-adv-x="1185" 
d="M469 -400h-389l334 624l-408 767h411l187 -390l186 390h390z" />
    <glyph glyph-name="z" unicode="z" horiz-adv-x="1039" 
d="M967 726l-395 -412h406v-314h-917v255l406 422h-389v314h889v-265z" />
    <glyph glyph-name="braceleft" unicode="{" horiz-adv-x="881" 
d="M744 1096c-80 0 -127 -48 -123 -144l3 -68c8 -150 -31 -262 -218 -315c187 -56 226 -165 218 -316l-3 -68c-4 -96 43 -144 123 -144h97v-304h-157c-290 0 -430 176 -419 452l3 78c4 100 -72 154 -208 154v295c136 0 212 54 208 154l-3 78c-11 276 129 452 419 452h157
v-304h-97z" />
    <glyph glyph-name="bar" unicode="|" horiz-adv-x="636" 
d="M496 -265h-356v1665h356v-1665z" />
    <glyph glyph-name="braceright" unicode="}" horiz-adv-x="881" 
d="M137 41c80 0 127 48 123 144l-3 68c-8 149 30 262 218 315c-187 55 -226 165 -218 316l3 68c4 96 -43 144 -123 144h-97v304h157c288 0 430 -176 419 -452l-3 -78c-4 -100 72 -154 208 -154v-295c-136 0 -212 -54 -208 -154l3 -78c11 -276 -131 -452 -419 -452h-157v304
h97z" />
    <glyph glyph-name="uni00A0" unicode="&#xa0;" horiz-adv-x="410" 
 />
    <glyph glyph-name="exclamdown" unicode="&#xa1;" horiz-adv-x="601" 
d="M131 474h336l40 -882h-416zM299 579c-117 0 -218 101 -218 218c0 119 101 221 218 221c119 0 221 -102 221 -221c0 -117 -102 -218 -221 -218z" />
    <glyph glyph-name="sterling" unicode="&#xa3;" horiz-adv-x="1400" 
d="M1216 0h-1084v341h148v223h-148v272h148v32c0 376 266 558 578 558c161 0 309 -50 410 -150l-244 -262c-43 39 -102 58 -166 58c-113 0 -208 -59 -208 -206v-30h452v-272h-452v-223h566v-341z" />
    <glyph glyph-name="yen" unicode="&#xa5;" horiz-adv-x="1400" 
d="M1237 248h-345v-248h-370v248h-346v208h346v94h-346v208h265l-428 642h422l272 -436l270 436h410l-419 -642h269v-208h-345v-94h345v-208z" />
    <glyph glyph-name="section" unicode="&#xa7;" horiz-adv-x="1295" 
d="M1049 1009c-80 43 -207 100 -365 100c-87 0 -154 -20 -154 -70c0 -67 132 -79 259 -103l38 -7c267 -48 396 -173 396 -333c0 -125 -49 -214 -126 -278c65 -59 97 -134 97 -226c0 -326 -277 -445 -545 -445c-228 0 -432 49 -577 148l169 290c101 -56 219 -123 415 -123
c87 0 151 20 151 75c0 65 -79 63 -232 95l-46 9c-265 54 -412 156 -412 359c0 104 47 191 131 255c-72 61 -103 142 -103 247c0 251 206 424 522 424c154 0 301 -13 531 -125zM566 632c-40 -15 -65 -38 -65 -77c0 -75 133 -78 260 -104l28 -6c29 16 47 40 47 77
c0 68 -77 78 -233 105z" />
    <glyph glyph-name="copyright" unicode="&#xa9;" horiz-adv-x="1778" 
d="M889 1512c459 0 829 -359 829 -801s-370 -803 -829 -803s-829 361 -829 803s370 801 829 801zM889 1225c-291 0 -525 -230 -525 -514c0 -285 234 -516 525 -516c290 0 525 231 525 516c0 284 -235 514 -525 514zM1030 751c-28 69 -72 98 -139 98
c-69 0 -118 -52 -118 -139c0 -109 69 -137 118 -137c64 0 111 27 147 98l231 -141c-72 -127 -198 -207 -373 -207c-239 0 -403 156 -403 387c0 232 164 388 403 388c173 0 324 -87 385 -239z" />
    <glyph glyph-name="guillemotleft" unicode="&#xab;" horiz-adv-x="1133" 
d="M1084 120h-336l-200 411l200 411h336l-200 -411zM591 120h-336l-200 411l200 411h336l-200 -411z" />
    <glyph glyph-name="uni00AD" unicode="&#xad;" horiz-adv-x="750" 
d="M680 381h-610v300h610v-300z" />
    <glyph glyph-name="registered" unicode="&#xae;" horiz-adv-x="991" 
d="M496 1446c268 0 475 -207 475 -463c0 -253 -210 -462 -475 -462c-269 0 -476 209 -476 462c0 256 207 463 476 463zM496 669c169 0 312 143 312 314c0 172 -143 315 -312 315c-173 0 -315 -143 -315 -315c0 -171 142 -314 315 -314zM516 1195c117 0 178 -58 178 -145
c0 -67 -40 -113 -119 -129l125 -149h-147l-109 144h-7v-144h-124v423h203zM437 1085v-66h77c31 0 53 8 53 31s-22 35 -53 35h-77z" />
    <glyph glyph-name="degree" unicode="&#xb0;" horiz-adv-x="889" 
d="M445 587c-235 0 -425 187 -425 415c0 234 190 424 425 424c234 0 424 -190 424 -424c0 -228 -190 -415 -424 -415zM445 857c79 0 144 65 144 145c0 79 -65 144 -144 144c-80 0 -145 -65 -145 -144c0 -80 65 -145 145 -145z" />
    <glyph glyph-name="periodcentered" unicode="&#xb7;" horiz-adv-x="699" 
d="M351 760c123 0 229 -106 229 -229c0 -125 -106 -232 -229 -232c-125 0 -232 107 -232 232c0 123 107 229 232 229z" />
    <glyph glyph-name="guillemotright" unicode="&#xbb;" horiz-adv-x="1133" 
d="M49 942h336l200 -411l-200 -411h-336l200 411zM542 942h336l200 -411l-200 -411h-336l200 411z" />
    <glyph glyph-name="questiondown" unicode="&#xbf;" horiz-adv-x="892" 
d="M757 484v-373h-108c-155 0 -228 -28 -228 -92c0 -67 73 -94 228 -95c47 0 98 2 138 7l19 -353c-65 -8 -141 -12 -228 -12c-345 0 -548 158 -548 412c0 215 136 356 384 412l7 94h336zM589 578c-117 0 -218 101 -218 218c0 119 101 222 218 222c119 0 221 -102 221 -221
c0 -118 -102 -219 -221 -219z" />
    <glyph glyph-name="Agrave" unicode="&#xc0;" horiz-adv-x="1518" 
d="M1513 0h-403l-93 267h-523l-92 -267h-397l530 1400h448zM612 606h287l-143 414zM359 1849h398l221 -346h-329z" />
    <glyph glyph-name="Aacute" unicode="&#xc1;" horiz-adv-x="1518" 
d="M1513 0h-403l-93 267h-523l-92 -267h-397l530 1400h448zM612 606h287l-143 414zM529 1503l221 346h398l-290 -346h-329z" />
    <glyph glyph-name="Acircumflex" unicode="&#xc2;" horiz-adv-x="1518" 
d="M1513 0h-403l-93 267h-523l-92 -267h-397l530 1400h448zM612 606h287l-143 414zM865 1493l-106 136l-107 -136h-309l231 346h369l231 -346h-309z" />
    <glyph glyph-name="Atilde" unicode="&#xc3;" horiz-adv-x="1518" 
d="M1513 0h-403l-93 267h-523l-92 -267h-397l530 1400h448zM612 606h287l-143 414zM328 1680c82 127 192 169 306 169c144 0 197 -74 250 -74c31 0 68 25 108 70l197 -179c-82 -127 -192 -169 -306 -169c-144 0 -197 74 -250 74c-31 0 -68 -25 -108 -70z" />
    <glyph glyph-name="Adieresis" unicode="&#xc4;" horiz-adv-x="1518" 
d="M1513 0h-403l-93 267h-523l-92 -267h-397l530 1400h448zM612 606h287l-143 414zM514 1870c116 0 204 -88 204 -204s-88 -204 -204 -204s-204 88 -204 204s88 204 204 204zM1004 1870c116 0 204 -88 204 -204s-88 -204 -204 -204s-204 88 -204 204s88 204 204 204z" />
    <glyph glyph-name="Aring" unicode="&#xc5;" horiz-adv-x="1518" 
d="M1513 0h-403l-93 267h-523l-92 -267h-397l530 1400h448zM612 606h287l-143 414zM758 1462c-158 0 -287 126 -287 283c0 156 129 283 287 283c160 0 288 -127 288 -283c0 -157 -128 -283 -288 -283zM758 1643c54 0 100 44 100 102c0 57 -46 102 -100 102
c-53 0 -99 -45 -99 -102c0 -58 46 -102 99 -102z" />
    <glyph glyph-name="AE" unicode="&#xc6;" horiz-adv-x="2276" 
d="M2196 0h-1094v242h-497l-155 -242h-446l930 1400h1262v-338h-714v-185h664v-338h-664v-201h714v-338zM1102 581v437l-280 -437h280z" />
    <glyph glyph-name="Ccedilla" unicode="&#xc7;" horiz-adv-x="1469" 
d="M844 -321h-340l111 328h332zM789 1426c275 0 516 -131 639 -355l-337 -186c-68 117 -171 177 -308 177c-195 0 -338 -149 -338 -362c0 -239 166 -362 339 -362c134 0 239 59 316 176l312 -218c-133 -197 -346 -322 -623 -322c-433 0 -739 299 -739 726s306 726 739 726z
" />
    <glyph glyph-name="Egrave" unicode="&#xc8;" horiz-adv-x="1274" 
d="M1194 0h-1094v1400h1094v-338h-714v-185h664v-338h-664v-201h714v-338zM247 1849h398l221 -346h-329z" />
    <glyph glyph-name="Eacute" unicode="&#xc9;" horiz-adv-x="1274" 
d="M1194 0h-1094v1400h1094v-338h-714v-185h664v-338h-664v-201h714v-338zM417 1503l221 346h398l-290 -346h-329z" />
    <glyph glyph-name="Ecircumflex" unicode="&#xca;" horiz-adv-x="1274" 
d="M1194 0h-1094v1400h1094v-338h-714v-185h664v-338h-664v-201h714v-338zM753 1493l-106 136l-107 -136h-309l231 346h369l231 -346h-309z" />
    <glyph glyph-name="Edieresis" unicode="&#xcb;" horiz-adv-x="1274" 
d="M1194 0h-1094v1400h1094v-338h-714v-185h664v-338h-664v-201h714v-338zM402 1870c116 0 204 -88 204 -204s-88 -204 -204 -204s-204 88 -204 204s88 204 204 204zM892 1870c116 0 204 -88 204 -204s-88 -204 -204 -204s-204 88 -204 204s88 204 204 204z" />
    <glyph glyph-name="Igrave" unicode="&#xcc;" horiz-adv-x="580" 
d="M480 0h-380v1400h380v-1400zM-110 1849h398l221 -346h-329z" />
    <glyph glyph-name="Iacute" unicode="&#xcd;" horiz-adv-x="580" 
d="M480 0h-380v1400h380v-1400zM60 1503l221 346h398l-290 -346h-329z" />
    <glyph glyph-name="Icircumflex" unicode="&#xce;" horiz-adv-x="580" 
d="M480 0h-380v1400h380v-1400zM396 1493l-106 136l-107 -136h-309l231 346h369l231 -346h-309z" />
    <glyph glyph-name="Idieresis" unicode="&#xcf;" horiz-adv-x="580" 
d="M480 0h-380v1400h380v-1400zM45 1870c116 0 204 -88 204 -204s-88 -204 -204 -204s-204 88 -204 204s88 204 204 204zM535 1870c116 0 204 -88 204 -204s-88 -204 -204 -204s-204 88 -204 204s88 204 204 204z" />
    <glyph glyph-name="Eth" unicode="&#xd0;" horiz-adv-x="1586" 
d="M810 1400c437 0 726 -278 726 -700s-289 -700 -726 -700h-618v548h-132v320h132v532h618zM870 548h-298v-199h228c229 0 341 149 341 351c0 205 -112 351 -341 351h-228v-183h298v-320z" />
    <glyph glyph-name="Ntilde" unicode="&#xd1;" horiz-adv-x="1527" 
d="M1427 0h-370l-577 787v-787h-380v1400h370l577 -787v787h380v-1400zM349 1680c82 127 192 169 306 169c144 0 197 -74 250 -74c31 0 68 25 108 70l197 -179c-82 -127 -192 -169 -306 -169c-144 0 -197 74 -250 74c-31 0 -68 -25 -108 -70z" />
    <glyph glyph-name="Ograve" unicode="&#xd2;" horiz-adv-x="1580" 
d="M790 1426c433 0 740 -307 740 -726s-307 -726 -740 -726s-740 307 -740 726s307 726 740 726zM790 1062c-204 0 -345 -149 -345 -362s141 -362 345 -362s345 149 345 362s-141 362 -345 362zM390 1849h398l221 -346h-329z" />
    <glyph glyph-name="Oacute" unicode="&#xd3;" horiz-adv-x="1580" 
d="M790 1426c433 0 740 -307 740 -726s-307 -726 -740 -726s-740 307 -740 726s307 726 740 726zM790 1062c-204 0 -345 -149 -345 -362s141 -362 345 -362s345 149 345 362s-141 362 -345 362zM560 1503l221 346h398l-290 -346h-329z" />
    <glyph glyph-name="Ocircumflex" unicode="&#xd4;" horiz-adv-x="1580" 
d="M790 1426c433 0 740 -307 740 -726s-307 -726 -740 -726s-740 307 -740 726s307 726 740 726zM790 1062c-204 0 -345 -149 -345 -362s141 -362 345 -362s345 149 345 362s-141 362 -345 362zM896 1493l-106 136l-107 -136h-309l231 346h369l231 -346h-309z" />
    <glyph glyph-name="Otilde" unicode="&#xd5;" horiz-adv-x="1580" 
d="M790 1426c433 0 740 -307 740 -726s-307 -726 -740 -726s-740 307 -740 726s307 726 740 726zM790 1062c-204 0 -345 -149 -345 -362s141 -362 345 -362s345 149 345 362s-141 362 -345 362zM359 1680c82 127 192 169 306 169c144 0 197 -74 250 -74c31 0 68 25 108 70
l197 -179c-82 -127 -192 -169 -306 -169c-144 0 -197 74 -250 74c-31 0 -68 -25 -108 -70z" />
    <glyph glyph-name="Odieresis" unicode="&#xd6;" horiz-adv-x="1580" 
d="M790 1426c433 0 740 -307 740 -726s-307 -726 -740 -726s-740 307 -740 726s307 726 740 726zM790 1062c-204 0 -345 -149 -345 -362s141 -362 345 -362s345 149 345 362s-141 362 -345 362zM545 1870c116 0 204 -88 204 -204s-88 -204 -204 -204s-204 88 -204 204
s88 204 204 204zM1035 1870c116 0 204 -88 204 -204s-88 -204 -204 -204s-204 88 -204 204s88 204 204 204z" />
    <glyph glyph-name="multiply" unicode="&#xd7;" 
d="M130 265l264 264l-266 266l208 208l266 -266l264 264l204 -204l-264 -264l266 -266l-208 -208l-266 266l-264 -264z" />
    <glyph glyph-name="Oslash" unicode="&#xd8;" horiz-adv-x="1580" 
d="M790 1426c160 0 299 -42 416 -115l115 115l205 -205l-113 -113c76 -115 117 -253 117 -408c0 -419 -307 -726 -740 -726c-153 0 -291 38 -404 107l-107 -107l-205 205l101 101c-80 117 -125 259 -125 420c0 419 307 726 740 726zM790 1062c-204 0 -345 -149 -345 -362
c0 -47 7 -91 19 -131l466 466c-42 18 -89 27 -140 27zM1135 700c0 41 -6 79 -15 115l-456 -456c38 -14 80 -21 126 -21c204 0 345 149 345 362z" />
    <glyph glyph-name="Ugrave" unicode="&#xd9;" horiz-adv-x="1420" 
d="M1330 571c0 -381 -218 -597 -620 -597s-620 216 -620 597v829h381v-818c0 -161 91 -244 239 -244s239 83 239 244v818h381v-829zM310 1849h398l221 -346h-329z" />
    <glyph glyph-name="Uacute" unicode="&#xda;" horiz-adv-x="1420" 
d="M1330 571c0 -381 -218 -597 -620 -597s-620 216 -620 597v829h381v-818c0 -161 91 -244 239 -244s239 83 239 244v818h381v-829zM480 1503l221 346h398l-290 -346h-329z" />
    <glyph glyph-name="Ucircumflex" unicode="&#xdb;" horiz-adv-x="1420" 
d="M1330 571c0 -381 -218 -597 -620 -597s-620 216 -620 597v829h381v-818c0 -161 91 -244 239 -244s239 83 239 244v818h381v-829zM816 1493l-106 136l-107 -136h-309l231 346h369l231 -346h-309z" />
    <glyph glyph-name="Udieresis" unicode="&#xdc;" horiz-adv-x="1420" 
d="M1330 571c0 -381 -218 -597 -620 -597s-620 216 -620 597v829h381v-818c0 -161 91 -244 239 -244s239 83 239 244v818h381v-829zM465 1870c116 0 204 -88 204 -204s-88 -204 -204 -204s-204 88 -204 204s88 204 204 204zM955 1870c116 0 204 -88 204 -204
s-88 -204 -204 -204s-204 88 -204 204s88 204 204 204z" />
    <glyph glyph-name="Yacute" unicode="&#xdd;" horiz-adv-x="1428" 
d="M910 530v-530h-380v525l-528 875h436l283 -529l282 529h423zM491 1503l221 346h398l-290 -346h-329z" />
    <glyph glyph-name="Thorn" unicode="&#xde;" horiz-adv-x="1314" 
d="M480 1197h244c356 0 543 -196 543 -484c0 -283 -186 -475 -538 -475h-249v-238h-380v1400h380v-203zM480 856v-285h240c93 0 163 51 163 142s-70 143 -163 143h-240z" />
    <glyph glyph-name="germandbls" unicode="&#xdf;" horiz-adv-x="1222" 
d="M83 970c0 241 117 496 529 496c362 0 530 -214 530 -432c0 -166 -74 -270 -179 -324c122 -48 217 -171 217 -316c0 -249 -172 -420 -482 -420c-68 0 -130 6 -181 22l27 284c32 -9 65 -14 100 -14c102 0 172 58 172 143c0 103 -68 152 -188 152h-52v292h27
c117 0 175 49 175 148c0 77 -64 144 -174 144c-111 0 -165 -73 -165 -184v-961h-356v970z" />
    <glyph glyph-name="agrave" unicode="&#xe0;" horiz-adv-x="1192" 
d="M1105 0h-342v87c-60 -67 -145 -113 -270 -113c-265 0 -451 235 -451 523c0 286 185 521 452 521c125 0 209 -48 269 -116v89h342v-991zM585 687c-102 0 -176 -79 -176 -191s74 -191 176 -191s176 79 176 191s-74 191 -176 191zM222 1449h398l221 -346h-329z" />
    <glyph glyph-name="aacute" unicode="&#xe1;" horiz-adv-x="1192" 
d="M1105 0h-342v87c-60 -67 -145 -113 -270 -113c-265 0 -451 235 -451 523c0 286 185 521 452 521c125 0 209 -48 269 -116v89h342v-991zM585 687c-102 0 -176 -79 -176 -191s74 -191 176 -191s176 79 176 191s-74 191 -176 191zM393 1103l221 346h398l-290 -346h-329z" />
    <glyph glyph-name="acircumflex" unicode="&#xe2;" horiz-adv-x="1192" 
d="M1105 0h-342v87c-60 -67 -145 -113 -270 -113c-265 0 -451 235 -451 523c0 286 185 521 452 521c125 0 209 -48 269 -116v89h342v-991zM585 687c-102 0 -176 -79 -176 -191s74 -191 176 -191s176 79 176 191s-74 191 -176 191zM716 1093l-106 136l-107 -136h-309l231 346
h369l231 -346h-309z" />
    <glyph glyph-name="atilde" unicode="&#xe3;" horiz-adv-x="1192" 
d="M1105 0h-342v87c-60 -67 -145 -113 -270 -113c-265 0 -451 235 -451 523c0 286 185 521 452 521c125 0 209 -48 269 -116v89h342v-991zM585 687c-102 0 -176 -79 -176 -191s74 -191 176 -191s176 79 176 191s-74 191 -176 191zM171 1280c82 127 192 169 306 169
c144 0 197 -74 250 -74c31 0 68 25 108 70l197 -179c-82 -127 -192 -169 -306 -169c-144 0 -197 74 -250 74c-31 0 -68 -25 -108 -70z" />
    <glyph glyph-name="adieresis" unicode="&#xe4;" horiz-adv-x="1192" 
d="M1105 0h-342v87c-60 -67 -145 -113 -270 -113c-265 0 -451 235 -451 523c0 286 185 521 452 521c125 0 209 -48 269 -116v89h342v-991zM585 687c-102 0 -176 -79 -176 -191s74 -191 176 -191s176 79 176 191s-74 191 -176 191zM361 1470c116 0 204 -88 204 -204
s-88 -204 -204 -204s-204 88 -204 204s88 204 204 204zM851 1470c116 0 204 -88 204 -204s-88 -204 -204 -204s-204 88 -204 204s88 204 204 204z" />
    <glyph glyph-name="aring" unicode="&#xe5;" horiz-adv-x="1192" 
d="M1105 0h-342v87c-60 -67 -145 -113 -270 -113c-265 0 -451 235 -451 523c0 286 185 521 452 521c125 0 209 -48 269 -116v89h342v-991zM585 687c-102 0 -176 -79 -176 -191s74 -191 176 -191s176 79 176 191s-74 191 -176 191zM609 1062c-158 0 -287 126 -287 283
c0 156 129 283 287 283c160 0 288 -127 288 -283c0 -157 -128 -283 -288 -283zM609 1243c54 0 100 44 100 102c0 57 -46 102 -100 102c-53 0 -99 -45 -99 -102c0 -58 46 -102 99 -102z" />
    <glyph glyph-name="ae" unicode="&#xe6;" horiz-adv-x="1718" 
d="M1191 1018c293 0 485 -211 485 -522c0 -34 -4 -86 -7 -106h-647c24 -80 83 -120 178 -120c64 0 132 27 187 80l244 -204c-99 -104 -259 -172 -460 -172c-156 0 -284 42 -376 130c-66 -61 -170 -130 -356 -130c-240 0 -397 115 -397 311c0 197 155 311 450 311h159
c-13 76 -65 115 -162 115c-89 0 -206 -38 -272 -75l-112 277c72 45 250 105 436 105c159 0 259 -51 316 -115c80 80 191 115 334 115zM507 237c81 0 135 36 170 71c-7 25 -12 52 -16 80h-116c-92 0 -144 -28 -144 -76c0 -47 38 -75 106 -75zM1171 719
c-67 0 -127 -24 -151 -124h304c-24 85 -77 124 -153 124z" />
    <glyph glyph-name="ccedilla" unicode="&#xe7;" horiz-adv-x="1043" 
d="M582 1018c199 0 346 -91 445 -240l-292 -184c-43 64 -90 93 -161 93c-87 0 -168 -67 -168 -191s78 -191 165 -191c67 0 122 31 164 94l293 -187c-97 -147 -247 -238 -446 -238c-316 0 -540 215 -540 522s224 522 540 522zM623 -321h-316l111 328h308z" />
    <glyph glyph-name="egrave" unicode="&#xe8;" horiz-adv-x="1106" 
d="M557 1018c299 0 507 -213 507 -522c0 -34 -4 -86 -7 -106h-647c24 -80 83 -120 178 -120c64 0 132 27 187 80l244 -204c-96 -104 -251 -172 -448 -172c-317 0 -529 206 -529 513c0 314 210 531 515 531zM559 719c-76 0 -125 -38 -148 -114h298c-25 76 -75 114 -150 114z
M169 1449h398l221 -346h-329z" />
    <glyph glyph-name="eacute" unicode="&#xe9;" horiz-adv-x="1106" 
d="M557 1018c299 0 507 -213 507 -522c0 -34 -4 -86 -7 -106h-647c24 -80 83 -120 178 -120c64 0 132 27 187 80l244 -204c-96 -104 -251 -172 -448 -172c-317 0 -529 206 -529 513c0 314 210 531 515 531zM559 719c-76 0 -125 -38 -148 -114h298c-25 76 -75 114 -150 114z
M340 1103l221 346h398l-290 -346h-329z" />
    <glyph glyph-name="ecircumflex" unicode="&#xea;" horiz-adv-x="1106" 
d="M557 1018c299 0 507 -213 507 -522c0 -34 -4 -86 -7 -106h-647c24 -80 83 -120 178 -120c64 0 132 27 187 80l244 -204c-96 -104 -251 -172 -448 -172c-317 0 -529 206 -529 513c0 314 210 531 515 531zM559 719c-76 0 -125 -38 -148 -114h298c-25 76 -75 114 -150 114z
M663 1093l-106 136l-107 -136h-309l231 346h369l231 -346h-309z" />
    <glyph glyph-name="edieresis" unicode="&#xeb;" horiz-adv-x="1106" 
d="M557 1018c299 0 507 -213 507 -522c0 -34 -4 -86 -7 -106h-647c24 -80 83 -120 178 -120c64 0 132 27 187 80l244 -204c-96 -104 -251 -172 -448 -172c-317 0 -529 206 -529 513c0 314 210 531 515 531zM559 719c-76 0 -125 -38 -148 -114h298c-25 76 -75 114 -150 114z
M308 1470c116 0 204 -88 204 -204s-88 -204 -204 -204s-204 88 -204 204s88 204 204 204zM798 1470c116 0 204 -88 204 -204s-88 -204 -204 -204s-204 88 -204 204s88 204 204 204z" />
    <glyph glyph-name="igrave" unicode="&#xec;" horiz-adv-x="530" 
d="M443 0h-356v991h356v-991zM-124 1449h398l221 -346h-329z" />
    <glyph glyph-name="iacute" unicode="&#xed;" horiz-adv-x="530" 
d="M443 0h-356v991h356v-991zM47 1103l221 346h398l-290 -346h-329z" />
    <glyph glyph-name="icircumflex" unicode="&#xee;" horiz-adv-x="530" 
d="M443 0h-356v991h356v-991zM370 1093l-106 136l-107 -136h-309l231 346h369l231 -346h-309z" />
    <glyph glyph-name="idieresis" unicode="&#xef;" horiz-adv-x="530" 
d="M443 0h-356v991h356v-991zM15 1470c116 0 204 -88 204 -204s-88 -204 -204 -204s-204 88 -204 204s88 204 204 204zM505 1470c116 0 204 -88 204 -204s-88 -204 -204 -204s-204 88 -204 204s88 204 204 204z" />
    <glyph glyph-name="eth" unicode="&#xf0;" horiz-adv-x="1155" 
d="M943 1285l-127 -79c173 -176 297 -418 297 -704c0 -305 -212 -528 -542 -528c-300 0 -529 203 -529 476c0 269 196 466 452 466c75 0 141 -16 197 -49c-39 72 -89 129 -148 178l-201 -125l-105 163l132 82c-45 27 -91 51 -135 78l221 217c73 -33 142 -74 208 -122
l175 110zM582 623c-102 0 -176 -73 -176 -173c0 -101 74 -174 176 -174s176 73 176 174c0 100 -74 173 -176 173z" />
    <glyph glyph-name="ntilde" unicode="&#xf1;" horiz-adv-x="1130" 
d="M694 1018c205 0 354 -145 354 -373v-645h-356v533c0 100 -46 152 -125 152c-71 0 -124 -47 -124 -154v-531h-356v991h339v-102c56 86 145 129 268 129zM135 1280c82 127 192 169 306 169c144 0 197 -74 250 -74c31 0 68 25 108 70l197 -179c-82 -127 -192 -169 -306 -169
c-144 0 -197 74 -250 74c-31 0 -68 -25 -108 -70z" />
    <glyph glyph-name="ograve" unicode="&#xf2;" horiz-adv-x="1164" 
d="M582 1018c312 0 540 -221 540 -522s-228 -522 -540 -522s-540 221 -540 522s228 522 540 522zM582 687c-102 0 -176 -79 -176 -191s74 -191 176 -191s176 79 176 191s-74 191 -176 191zM194 1449h398l221 -346h-329z" />
    <glyph glyph-name="oacute" unicode="&#xf3;" horiz-adv-x="1164" 
d="M582 1018c312 0 540 -221 540 -522s-228 -522 -540 -522s-540 221 -540 522s228 522 540 522zM582 687c-102 0 -176 -79 -176 -191s74 -191 176 -191s176 79 176 191s-74 191 -176 191zM365 1103l221 346h398l-290 -346h-329z" />
    <glyph glyph-name="ocircumflex" unicode="&#xf4;" horiz-adv-x="1164" 
d="M582 1018c312 0 540 -221 540 -522s-228 -522 -540 -522s-540 221 -540 522s228 522 540 522zM582 687c-102 0 -176 -79 -176 -191s74 -191 176 -191s176 79 176 191s-74 191 -176 191zM688 1093l-106 136l-107 -136h-309l231 346h369l231 -346h-309z" />
    <glyph glyph-name="otilde" unicode="&#xf5;" horiz-adv-x="1164" 
d="M582 1018c312 0 540 -221 540 -522s-228 -522 -540 -522s-540 221 -540 522s228 522 540 522zM582 687c-102 0 -176 -79 -176 -191s74 -191 176 -191s176 79 176 191s-74 191 -176 191zM143 1280c82 127 192 169 306 169c144 0 197 -74 250 -74c31 0 68 25 108 70
l197 -179c-82 -127 -192 -169 -306 -169c-144 0 -197 74 -250 74c-31 0 -68 -25 -108 -70z" />
    <glyph glyph-name="odieresis" unicode="&#xf6;" horiz-adv-x="1164" 
d="M582 1018c312 0 540 -221 540 -522s-228 -522 -540 -522s-540 221 -540 522s228 522 540 522zM582 687c-102 0 -176 -79 -176 -191s74 -191 176 -191s176 79 176 191s-74 191 -176 191zM333 1470c116 0 204 -88 204 -204s-88 -204 -204 -204s-204 88 -204 204
s88 204 204 204zM823 1470c116 0 204 -88 204 -204s-88 -204 -204 -204s-204 88 -204 204s88 204 204 204z" />
    <glyph glyph-name="oslash" unicode="&#xf8;" horiz-adv-x="1164" 
d="M582 1018c100 0 189 -23 268 -64l99 99l194 -190l-94 -94c47 -79 73 -170 73 -273c0 -301 -228 -522 -540 -522c-100 0 -189 22 -266 62l-97 -97l-194 190l92 92c-48 79 -75 171 -75 275c0 301 228 522 540 522zM582 705c-111 0 -193 -88 -193 -209c0 -12 1 -24 2 -35
l238 238c-15 3 -31 6 -47 6zM775 496c0 11 -1 20 -2 31l-235 -235c15 -3 28 -5 44 -5c111 0 193 88 193 209z" />
    <glyph glyph-name="ugrave" unicode="&#xf9;" horiz-adv-x="1136" 
d="M1054 426c0 -308 -209 -452 -486 -452s-486 145 -486 453v564h356v-534c0 -100 51 -152 130 -152s130 52 130 152v534h356v-565zM180 1449h398l221 -346h-329z" />
    <glyph glyph-name="uacute" unicode="&#xfa;" horiz-adv-x="1136" 
d="M1054 426c0 -308 -209 -452 -486 -452s-486 145 -486 453v564h356v-534c0 -100 51 -152 130 -152s130 52 130 152v534h356v-565zM351 1103l221 346h398l-290 -346h-329z" />
    <glyph glyph-name="ucircumflex" unicode="&#xfb;" horiz-adv-x="1136" 
d="M1054 426c0 -308 -209 -452 -486 -452s-486 145 -486 453v564h356v-534c0 -100 51 -152 130 -152s130 52 130 152v534h356v-565zM674 1093l-106 136l-107 -136h-309l231 346h369l231 -346h-309z" />
    <glyph glyph-name="udieresis" unicode="&#xfc;" horiz-adv-x="1136" 
d="M1054 426c0 -308 -209 -452 -486 -452s-486 145 -486 453v564h356v-534c0 -100 51 -152 130 -152s130 52 130 152v534h356v-565zM319 1470c116 0 204 -88 204 -204s-88 -204 -204 -204s-204 88 -204 204s88 204 204 204zM809 1470c116 0 204 -88 204 -204
s-88 -204 -204 -204s-204 88 -204 204s88 204 204 204z" />
    <glyph glyph-name="yacute" unicode="&#xfd;" horiz-adv-x="1185" 
d="M469 -400h-389l334 624l-408 767h411l187 -390l186 390h390zM387 1103l221 346h398l-290 -346h-329z" />
    <glyph glyph-name="thorn" unicode="&#xfe;" horiz-adv-x="1191" 
d="M697 1018c267 0 452 -235 452 -521c0 -288 -186 -523 -451 -523c-116 0 -196 38 -255 97v-471h-356v1840h356v-521c59 60 139 99 254 99zM606 687c-102 0 -176 -79 -176 -191s74 -191 176 -191s176 79 176 191s-74 191 -176 191z" />
    <glyph glyph-name="ydieresis" unicode="&#xff;" horiz-adv-x="1185" 
d="M469 -400h-389l334 624l-408 767h411l187 -390l186 390h390zM355 1470c116 0 204 -88 204 -204s-88 -204 -204 -204s-204 88 -204 204s88 204 204 204zM845 1470c116 0 204 -88 204 -204s-88 -204 -204 -204s-204 88 -204 204s88 204 204 204z" />
    <glyph glyph-name="Amacron" unicode="&#x100;" horiz-adv-x="1518" 
d="M1513 0h-403l-93 267h-523l-92 -267h-397l530 1400h448zM612 606h287l-143 414zM389 1808h740v-284h-740v284z" />
    <glyph glyph-name="amacron" unicode="&#x101;" horiz-adv-x="1192" 
d="M1105 0h-342v87c-60 -67 -145 -113 -270 -113c-265 0 -451 235 -451 523c0 286 185 521 452 521c125 0 209 -48 269 -116v89h342v-991zM585 687c-102 0 -176 -79 -176 -191s74 -191 176 -191s176 79 176 191s-74 191 -176 191zM240 1408h740v-284h-740v284z" />
    <glyph glyph-name="Abreve" unicode="&#x102;" horiz-adv-x="1518" 
d="M1513 0h-403l-93 267h-523l-92 -267h-397l530 1400h448zM612 606h287l-143 414zM608 1898c25 -97 76 -146 151 -146s126 49 151 146l258 -72c-48 -215 -197 -344 -409 -344s-361 129 -409 344z" />
    <glyph glyph-name="abreve" unicode="&#x103;" horiz-adv-x="1192" 
d="M1105 0h-342v87c-60 -67 -145 -113 -270 -113c-265 0 -451 235 -451 523c0 286 185 521 452 521c125 0 209 -48 269 -116v89h342v-991zM585 687c-102 0 -176 -79 -176 -191s74 -191 176 -191s176 79 176 191s-74 191 -176 191zM459 1498c25 -97 76 -146 151 -146
s126 49 151 146l258 -72c-48 -215 -197 -344 -409 -344s-361 129 -409 344z" />
    <glyph glyph-name="Aogonek" unicode="&#x104;" horiz-adv-x="1518" 
d="M1513 0h-403l-93 267h-523l-92 -267h-397l530 1400h448zM612 606h287l-143 414zM1521 -318c-50 -45 -158 -102 -295 -102c-147 0 -272 76 -272 217c0 152 194 241 298 281l115 -69c-120 -43 -134 -90 -134 -117c0 -37 26 -52 61 -52c19 0 41 7 69 27z" />
    <glyph glyph-name="aogonek" unicode="&#x105;" horiz-adv-x="1192" 
d="M1105 0h-342v87c-60 -67 -145 -113 -270 -113c-265 0 -451 235 -451 523c0 286 185 521 452 521c125 0 209 -48 269 -116v89h342v-991zM585 687c-102 0 -176 -79 -176 -191s74 -191 176 -191s176 79 176 191s-74 191 -176 191zM1183 -318c-50 -45 -158 -102 -295 -102
c-147 0 -272 76 -272 217c0 152 194 241 298 281l115 -69c-120 -43 -134 -90 -134 -117c0 -37 26 -52 61 -52c19 0 41 7 69 27z" />
    <glyph glyph-name="Cacute" unicode="&#x106;" horiz-adv-x="1469" 
d="M789 1426c275 0 516 -131 639 -355l-337 -186c-68 117 -171 177 -308 177c-195 0 -338 -149 -338 -362c0 -239 166 -362 339 -362c134 0 239 59 316 176l312 -218c-133 -197 -346 -322 -623 -322c-433 0 -739 299 -739 726s306 726 739 726zM553 1503l221 346h398
l-290 -346h-329z" />
    <glyph glyph-name="cacute" unicode="&#x107;" horiz-adv-x="1043" 
d="M582 1018c199 0 346 -91 445 -240l-292 -184c-43 64 -90 93 -161 93c-87 0 -168 -67 -168 -191s78 -191 165 -191c67 0 122 31 164 94l293 -187c-97 -147 -247 -238 -446 -238c-316 0 -540 215 -540 522s224 522 540 522zM358 1103l221 346h398l-290 -346h-329z" />
    <glyph glyph-name="Ccircumflex" unicode="&#x108;" horiz-adv-x="1469" 
d="M789 1426c275 0 516 -131 639 -355l-337 -186c-68 117 -171 177 -308 177c-195 0 -338 -149 -338 -362c0 -239 166 -362 339 -362c134 0 239 59 316 176l312 -218c-133 -197 -346 -322 -623 -322c-433 0 -739 299 -739 726s306 726 739 726zM889 1493l-106 136l-107 -136
h-309l231 346h369l231 -346h-309z" />
    <glyph glyph-name="ccircumflex" unicode="&#x109;" horiz-adv-x="1043" 
d="M582 1018c199 0 346 -91 445 -240l-292 -184c-43 64 -90 93 -161 93c-87 0 -168 -67 -168 -191s78 -191 165 -191c67 0 122 31 164 94l293 -187c-97 -147 -247 -238 -446 -238c-316 0 -540 215 -540 522s224 522 540 522zM681 1093l-106 136l-107 -136h-309l231 346h369
l231 -346h-309z" />
    <glyph glyph-name="Cdotaccent" unicode="&#x10a;" horiz-adv-x="1469" 
d="M789 1426c275 0 516 -131 639 -355l-337 -186c-68 117 -171 177 -308 177c-195 0 -338 -149 -338 -362c0 -239 166 -362 339 -362c134 0 239 59 316 176l312 -218c-133 -197 -346 -322 -623 -322c-433 0 -739 299 -739 726s306 726 739 726zM758 1890
c122 0 214 -92 214 -214s-92 -214 -214 -214s-214 92 -214 214s92 214 214 214z" />
    <glyph glyph-name="cdotaccent" unicode="&#x10b;" horiz-adv-x="1043" 
d="M582 1018c199 0 346 -91 445 -240l-292 -184c-43 64 -90 93 -161 93c-87 0 -168 -67 -168 -191s78 -191 165 -191c67 0 122 31 164 94l293 -187c-97 -147 -247 -238 -446 -238c-316 0 -540 215 -540 522s224 522 540 522zM575 1485c116 0 204 -88 204 -204
s-88 -204 -204 -204s-204 88 -204 204s88 204 204 204z" />
    <glyph glyph-name="Ccaron" unicode="&#x10c;" horiz-adv-x="1469" 
d="M789 1426c275 0 516 -131 639 -355l-337 -186c-68 117 -171 177 -308 177c-195 0 -338 -149 -338 -362c0 -239 166 -362 339 -362c134 0 239 59 316 176l312 -218c-133 -197 -346 -322 -623 -322c-433 0 -739 299 -739 726s306 726 739 726zM676 1839l107 -136l106 136
h309l-231 -346h-369l-231 346h309z" />
    <glyph glyph-name="ccaron" unicode="&#x10d;" horiz-adv-x="1043" 
d="M582 1018c199 0 346 -91 445 -240l-292 -184c-43 64 -90 93 -161 93c-87 0 -168 -67 -168 -191s78 -191 165 -191c67 0 122 31 164 94l293 -187c-97 -147 -247 -238 -446 -238c-316 0 -540 215 -540 522s224 522 540 522zM468 1439l107 -136l106 136h309l-231 -346h-369
l-231 346h309z" />
    <glyph glyph-name="Dcaron" unicode="&#x10e;" horiz-adv-x="1494" 
d="M718 1400c437 0 726 -278 726 -700s-289 -700 -726 -700h-618v1400h618zM480 1051v-702h228c229 0 341 149 341 351c0 205 -112 351 -341 351h-228zM585 1839l107 -136l106 136h309l-231 -346h-369l-231 346h309z" />
    <glyph glyph-name="dcaron" unicode="&#x10f;" horiz-adv-x="1386" 
d="M494 1018c115 0 194 -39 254 -99v521h356v-1440h-341v87c-60 -67 -145 -113 -270 -113c-265 0 -451 235 -451 523c0 286 185 521 452 521zM585 687c-102 0 -176 -79 -176 -191s74 -191 176 -191s176 79 176 191s-74 191 -176 191zM1182 940v500h334l-70 -500h-264z" />
    <glyph glyph-name="Dcroat" unicode="&#x110;" horiz-adv-x="1586" 
d="M810 1400c437 0 726 -278 726 -700s-289 -700 -726 -700h-618v548h-132v320h132v532h618zM870 548h-298v-199h228c229 0 341 149 341 351c0 205 -112 351 -341 351h-228v-183h298v-320z" />
    <glyph glyph-name="dcroat" unicode="&#x111;" horiz-adv-x="1201" 
d="M1201 1069h-97v-1069h-341v87c-60 -67 -145 -113 -270 -113c-265 0 -451 235 -451 523c0 286 185 521 452 521c115 0 194 -39 254 -99v150h-307v270h307v101h356v-101h97v-270zM585 687c-102 0 -176 -79 -176 -191s74 -191 176 -191s176 79 176 191s-74 191 -176 191z
" />
    <glyph glyph-name="Emacron" unicode="&#x112;" horiz-adv-x="1274" 
d="M1194 0h-1094v1400h1094v-338h-714v-185h664v-338h-664v-201h714v-338zM277 1808h740v-284h-740v284z" />
    <glyph glyph-name="emacron" unicode="&#x113;" horiz-adv-x="1106" 
d="M557 1018c299 0 507 -213 507 -522c0 -34 -4 -86 -7 -106h-647c24 -80 83 -120 178 -120c64 0 132 27 187 80l244 -204c-96 -104 -251 -172 -448 -172c-317 0 -529 206 -529 513c0 314 210 531 515 531zM559 719c-76 0 -125 -38 -148 -114h298c-25 76 -75 114 -150 114z
M187 1408h740v-284h-740v284z" />
    <glyph glyph-name="Ebreve" unicode="&#x114;" horiz-adv-x="1274" 
d="M1194 0h-1094v1400h1094v-338h-714v-185h664v-338h-664v-201h714v-338zM496 1898c25 -97 76 -146 151 -146s126 49 151 146l258 -72c-48 -215 -197 -344 -409 -344s-361 129 -409 344z" />
    <glyph glyph-name="ebreve" unicode="&#x115;" horiz-adv-x="1106" 
d="M557 1018c299 0 507 -213 507 -522c0 -34 -4 -86 -7 -106h-647c24 -80 83 -120 178 -120c64 0 132 27 187 80l244 -204c-96 -104 -251 -172 -448 -172c-317 0 -529 206 -529 513c0 314 210 531 515 531zM559 719c-76 0 -125 -38 -148 -114h298c-25 76 -75 114 -150 114z
M406 1498c25 -97 76 -146 151 -146s126 49 151 146l258 -72c-48 -215 -197 -344 -409 -344s-361 129 -409 344z" />
    <glyph glyph-name="Edotaccent" unicode="&#x116;" horiz-adv-x="1274" 
d="M1194 0h-1094v1400h1094v-338h-714v-185h664v-338h-664v-201h714v-338zM622 1890c122 0 214 -92 214 -214s-92 -214 -214 -214s-214 92 -214 214s92 214 214 214z" />
    <glyph glyph-name="edotaccent" unicode="&#x117;" horiz-adv-x="1106" 
d="M557 1018c299 0 507 -213 507 -522c0 -34 -4 -86 -7 -106h-647c24 -80 83 -120 178 -120c64 0 132 27 187 80l244 -204c-96 -104 -251 -172 -448 -172c-317 0 -529 206 -529 513c0 314 210 531 515 531zM559 719c-76 0 -125 -38 -148 -114h298c-25 76 -75 114 -150 114z
M557 1485c116 0 204 -88 204 -204s-88 -204 -204 -204s-204 88 -204 204s88 204 204 204z" />
    <glyph glyph-name="Eogonek" unicode="&#x118;" horiz-adv-x="1274" 
d="M1194 0h-1094v1400h1094v-338h-714v-185h664v-338h-664v-201h714v-338zM1076 29c-148 -64 -162 -116 -162 -142c0 -29 21 -47 54 -47c31 0 56 13 81 36l184 -171c-80 -77 -184 -125 -321 -125c-174 0 -307 78 -307 217c0 155 149 228 289 286z" />
    <glyph glyph-name="eogonek" unicode="&#x119;" horiz-adv-x="1106" 
d="M557 1018c299 0 507 -213 507 -522c0 -34 -4 -86 -7 -106h-647c24 -80 83 -120 178 -120c64 0 132 27 187 80l244 -204c-96 -104 -251 -172 -448 -172c-317 0 -529 206 -529 513c0 314 210 531 515 531zM559 719c-76 0 -125 -38 -148 -114h298c-25 76 -75 114 -150 114z
M1008 -295c-80 -77 -184 -125 -321 -125c-174 0 -307 78 -307 217c0 155 149 228 289 286l182 -54c-148 -64 -162 -116 -162 -142c0 -29 21 -47 54 -47c31 0 56 13 81 36z" />
    <glyph glyph-name="Ecaron" unicode="&#x11a;" horiz-adv-x="1274" 
d="M1194 0h-1094v1400h1094v-338h-714v-185h664v-338h-664v-201h714v-338zM540 1839l107 -136l106 136h309l-231 -346h-369l-231 346h309z" />
    <glyph glyph-name="ecaron" unicode="&#x11b;" horiz-adv-x="1106" 
d="M557 1018c299 0 507 -213 507 -522c0 -34 -4 -86 -7 -106h-647c24 -80 83 -120 178 -120c64 0 132 27 187 80l244 -204c-96 -104 -251 -172 -448 -172c-317 0 -529 206 -529 513c0 314 210 531 515 531zM559 719c-76 0 -125 -38 -148 -114h298c-25 76 -75 114 -150 114z
M450 1439l107 -136l106 136h309l-231 -346h-369l-231 346h309z" />
    <glyph glyph-name="Gcircumflex" unicode="&#x11c;" horiz-adv-x="1526" 
d="M800 1426c224 0 392 -73 512 -194l-268 -264c-64 63 -147 103 -267 103c-197 0 -338 -151 -338 -371c0 -255 165 -382 344 -382c177 0 277 69 317 206h-328v278h696c7 -44 8 -86 8 -126c0 -467 -347 -701 -676 -701c-440 0 -750 300 -750 725c0 426 310 726 750 726z
M881 1493l-106 136l-107 -136h-309l231 346h369l231 -346h-309z" />
    <glyph glyph-name="gcircumflex" unicode="&#x11d;" horiz-adv-x="1186" 
d="M493 1018c123 0 207 -46 264 -114v87h342v-885c0 -332 -218 -526 -539 -526c-175 0 -343 42 -468 130l126 280c96 -72 194 -101 310 -101c99 0 224 53 224 200v45c-57 -64 -139 -108 -259 -108c-268 0 -451 222 -451 496s183 496 451 496zM582 695
c-98 0 -171 -73 -171 -173s73 -173 171 -173s167 73 167 173s-69 173 -167 173zM697 1093l-106 136l-107 -136h-309l231 346h369l231 -346h-309z" />
    <glyph glyph-name="Gbreve" unicode="&#x11e;" horiz-adv-x="1526" 
d="M800 1426c224 0 392 -73 512 -194l-268 -264c-64 63 -147 103 -267 103c-197 0 -338 -151 -338 -371c0 -255 165 -382 344 -382c177 0 277 69 317 206h-328v278h696c7 -44 8 -86 8 -126c0 -467 -347 -701 -676 -701c-440 0 -750 300 -750 725c0 426 310 726 750 726z
M624 1898c25 -97 76 -146 151 -146s126 49 151 146l258 -72c-48 -215 -197 -344 -409 -344s-361 129 -409 344z" />
    <glyph glyph-name="gbreve" unicode="&#x11f;" horiz-adv-x="1186" 
d="M493 1018c123 0 207 -46 264 -114v87h342v-885c0 -332 -218 -526 -539 -526c-175 0 -343 42 -468 130l126 280c96 -72 194 -101 310 -101c99 0 224 53 224 200v45c-57 -64 -139 -108 -259 -108c-268 0 -451 222 -451 496s183 496 451 496zM582 695
c-98 0 -171 -73 -171 -173s73 -173 171 -173s167 73 167 173s-69 173 -167 173zM440 1498c25 -97 76 -146 151 -146s126 49 151 146l258 -72c-48 -215 -197 -344 -409 -344s-361 129 -409 344z" />
    <glyph glyph-name="Gdotaccent" unicode="&#x120;" horiz-adv-x="1526" 
d="M800 1426c224 0 392 -73 512 -194l-268 -264c-64 63 -147 103 -267 103c-197 0 -338 -151 -338 -371c0 -255 165 -382 344 -382c177 0 277 69 317 206h-328v278h696c7 -44 8 -86 8 -126c0 -467 -347 -701 -676 -701c-440 0 -750 300 -750 725c0 426 310 726 750 726z
M750 1890c122 0 214 -92 214 -214s-92 -214 -214 -214s-214 92 -214 214s92 214 214 214z" />
    <glyph glyph-name="gdotaccent" unicode="&#x121;" horiz-adv-x="1186" 
d="M493 1018c123 0 207 -46 264 -114v87h342v-885c0 -332 -218 -526 -539 -526c-175 0 -343 42 -468 130l126 280c96 -72 194 -101 310 -101c99 0 224 53 224 200v45c-57 -64 -139 -108 -259 -108c-268 0 -451 222 -451 496s183 496 451 496zM582 695
c-98 0 -171 -73 -171 -173s73 -173 171 -173s167 73 167 173s-69 173 -167 173zM591 1485c116 0 204 -88 204 -204s-88 -204 -204 -204s-204 88 -204 204s88 204 204 204z" />
    <glyph glyph-name="Gcommaaccent" unicode="&#x122;" horiz-adv-x="1526" 
d="M800 1426c224 0 392 -73 512 -194l-268 -264c-64 63 -147 103 -267 103c-197 0 -338 -151 -338 -371c0 -255 165 -382 344 -382c177 0 277 69 317 206h-328v278h696c7 -44 8 -86 8 -126c0 -467 -347 -701 -676 -701c-440 0 -750 300 -750 725c0 426 310 726 750 726z
M944 -77l-110 -430h-275l54 430h331z" />
    <glyph glyph-name="gcommaaccent" unicode="&#x123;" horiz-adv-x="1186" 
d="M493 1018c123 0 207 -46 264 -114v87h342v-885c0 -332 -218 -526 -539 -526c-175 0 -343 42 -468 130l126 280c96 -72 194 -101 310 -101c99 0 224 53 224 200v45c-57 -64 -139 -108 -259 -108c-268 0 -451 222 -451 496s183 496 451 496zM582 695
c-98 0 -171 -73 -171 -173s73 -173 171 -173s167 73 167 173s-69 173 -167 173zM430 1103l110 430h275l-54 -430h-331z" />
    <glyph glyph-name="Hcircumflex" unicode="&#x124;" horiz-adv-x="1478" 
d="M480 882h518v518h380v-1400h-380v533h-518v-533h-380v1400h380v-518zM845 1493l-106 136l-107 -136h-309l231 346h369l231 -346h-309z" />
    <glyph glyph-name="hcircumflex" unicode="&#x125;" horiz-adv-x="1130" 
d="M443 913c56 70 140 105 251 105c205 0 354 -145 354 -373v-645h-356v533c0 100 -46 152 -125 152c-69 0 -124 -45 -124 -154v-531h-356v1442h356v-529zM676 1502l-106 136l-107 -136h-309l231 346h369l231 -346h-309z" />
    <glyph glyph-name="Itilde" unicode="&#x128;" horiz-adv-x="580" 
d="M480 0h-380v1400h380v-1400zM-141 1680c82 127 192 169 306 169c144 0 197 -74 250 -74c31 0 68 25 108 70l197 -179c-82 -127 -192 -169 -306 -169c-144 0 -197 74 -250 74c-31 0 -68 -25 -108 -70z" />
    <glyph glyph-name="itilde" unicode="&#x129;" horiz-adv-x="530" 
d="M443 0h-356v991h356v-991zM-175 1280c82 127 192 169 306 169c144 0 197 -74 250 -74c31 0 68 25 108 70l197 -179c-82 -127 -192 -169 -306 -169c-144 0 -197 74 -250 74c-31 0 -68 -25 -108 -70z" />
    <glyph glyph-name="Imacron" unicode="&#x12a;" horiz-adv-x="580" 
d="M480 0h-380v1400h380v-1400zM-80 1808h740v-284h-740v284z" />
    <glyph glyph-name="imacron" unicode="&#x12b;" horiz-adv-x="530" 
d="M443 0h-356v991h356v-991zM-106 1408h740v-284h-740v284z" />
    <glyph glyph-name="Ibreve" unicode="&#x12c;" horiz-adv-x="580" 
d="M480 0h-380v1400h380v-1400zM139 1898c25 -97 76 -146 151 -146s126 49 151 146l258 -72c-48 -215 -197 -344 -409 -344s-361 129 -409 344z" />
    <glyph glyph-name="ibreve" unicode="&#x12d;" horiz-adv-x="530" 
d="M443 0h-356v991h356v-991zM113 1498c25 -97 76 -146 151 -146s126 49 151 146l258 -72c-48 -215 -197 -344 -409 -344s-361 129 -409 344z" />
    <glyph glyph-name="Iogonek" unicode="&#x12e;" horiz-adv-x="580" 
d="M480 0h-380v1400h380v-1400zM583 -318c-50 -45 -158 -102 -295 -102c-147 0 -272 72 -272 207c0 157 181 251 278 291l115 -69c-101 -43 -114 -90 -114 -117c0 -37 26 -52 61 -52c19 0 41 7 69 27z" />
    <glyph glyph-name="iogonek" unicode="&#x12f;" horiz-adv-x="530" 
d="M558 -318c-50 -45 -158 -102 -295 -102c-147 0 -272 72 -272 207c0 157 181 251 278 291l115 -69c-101 -43 -114 -90 -114 -117c0 -37 26 -52 61 -52c19 0 41 7 69 27zM443 0h-356v991h356v-991zM264 1485c116 0 204 -88 204 -204s-88 -204 -204 -204s-204 88 -204 204
s88 204 204 204z" />
    <glyph glyph-name="Idotaccent" unicode="&#x130;" horiz-adv-x="580" 
d="M480 0h-380v1400h380v-1400zM265 1890c122 0 214 -92 214 -214s-92 -214 -214 -214s-214 92 -214 214s92 214 214 214z" />
    <glyph glyph-name="dotlessi" unicode="&#x131;" horiz-adv-x="530" 
d="M443 0h-356v991h356v-991z" />
    <glyph glyph-name="Kcommaaccent" unicode="&#x136;" horiz-adv-x="1423" 
d="M588 536h-108v-536h-380v1400h380v-526h110l353 526h462l-507 -683l552 -717h-467zM889 -77l-110 -430h-275l54 430h331z" />
    <glyph glyph-name="kcommaaccent" unicode="&#x137;" horiz-adv-x="1113" 
d="M443 682h59l200 309h428l-347 -468l347 -523h-426l-212 369h-49v-369h-356v1440h356v-758zM767 -77l-110 -430h-275l54 430h331z" />
    <glyph glyph-name="Lacute" unicode="&#x139;" horiz-adv-x="1174" 
d="M1154 0h-1054v1400h380v-1050h674v-350zM60 1503l221 346h398l-290 -346h-329z" />
    <glyph glyph-name="lacute" unicode="&#x13a;" horiz-adv-x="530" 
d="M443 0h-356v1440h356v-1440zM18 1523l221 346h398l-290 -346h-329z" />
    <glyph glyph-name="Lcommaaccent" unicode="&#x13b;" horiz-adv-x="1174" 
d="M1154 0h-1054v1400h380v-1050h674v-350zM808 -77l-110 -430h-275l54 430h331z" />
    <glyph glyph-name="lcommaaccent" unicode="&#x13c;" horiz-adv-x="530" 
d="M443 0h-356v1440h356v-1440zM458 -77l-110 -430h-275l54 430h331z" />
    <glyph glyph-name="Lcaron" unicode="&#x13d;" horiz-adv-x="1174" 
d="M1154 0h-1054v1400h380v-1050h674v-350zM600 901v500h334l-70 -500h-264z" />
    <glyph glyph-name="lcaron" unicode="&#x13e;" horiz-adv-x="712" 
d="M443 0h-356v1440h356v-1440zM508 940v500h334l-70 -500h-264z" />
    <glyph glyph-name="Ldot" unicode="&#x13f;" horiz-adv-x="1174" 
d="M1154 0h-1054v1400h380v-1050h674v-350zM847 946c122 0 214 -92 214 -214s-92 -214 -214 -214s-214 92 -214 214s92 214 214 214z" />
    <glyph glyph-name="ldot" unicode="&#x140;" horiz-adv-x="826" 
d="M443 0h-356v1440h356v-1440zM731 915c105 0 184 -80 184 -184s-79 -184 -184 -184c-104 0 -183 80 -183 184s79 184 183 184z" />
    <glyph glyph-name="Lslash" unicode="&#x141;" horiz-adv-x="1266" 
d="M1246 0h-1054v366l-132 -74v356l132 74v678h380v-466l382 214v-356l-382 -214v-228h674v-350z" />
    <glyph glyph-name="lslash" unicode="&#x142;" horiz-adv-x="768" 
d="M562 1013l180 101v-344l-180 -101v-669h-356v470l-180 -100v344l180 100v626h356v-427z" />
    <glyph glyph-name="Nacute" unicode="&#x143;" horiz-adv-x="1527" 
d="M1427 0h-370l-577 787v-787h-380v1400h370l577 -787v787h380v-1400zM550 1503l221 346h398l-290 -346h-329z" />
    <glyph glyph-name="nacute" unicode="&#x144;" horiz-adv-x="1130" 
d="M694 1018c205 0 354 -145 354 -373v-645h-356v533c0 100 -46 152 -125 152c-71 0 -124 -47 -124 -154v-531h-356v991h339v-102c56 86 145 129 268 129zM357 1103l221 346h398l-290 -346h-329z" />
    <glyph glyph-name="Ncommaaccent" unicode="&#x145;" horiz-adv-x="1527" 
d="M1427 0h-370l-577 787v-787h-380v1400h370l577 -787v787h380v-1400zM959 -77l-110 -430h-275l54 430h331z" />
    <glyph glyph-name="ncommaaccent" unicode="&#x146;" horiz-adv-x="1130" 
d="M694 1018c205 0 354 -145 354 -373v-645h-356v533c0 100 -46 152 -125 152c-71 0 -124 -47 -124 -154v-531h-356v991h339v-102c56 86 145 129 268 129zM761 -77l-110 -430h-275l54 430h331z" />
    <glyph glyph-name="Ncaron" unicode="&#x147;" horiz-adv-x="1527" 
d="M1427 0h-370l-577 787v-787h-380v1400h370l577 -787v787h380v-1400zM673 1839l107 -136l106 136h309l-231 -346h-369l-231 346h309z" />
    <glyph glyph-name="ncaron" unicode="&#x148;" horiz-adv-x="1130" 
d="M694 1018c205 0 354 -145 354 -373v-645h-356v533c0 100 -46 152 -125 152c-71 0 -124 -47 -124 -154v-531h-356v991h339v-102c56 86 145 129 268 129zM467 1439l107 -136l106 136h309l-231 -346h-369l-231 346h309z" />
    <glyph glyph-name="napostrophe" unicode="&#x149;" horiz-adv-x="1510" 
d="M526 1440l-177 -694h-294l88 694h383zM1074 1018c205 0 354 -145 354 -373v-645h-356v533c0 100 -46 152 -125 152c-71 0 -124 -47 -124 -154v-531h-356v991h339v-102c56 86 145 129 268 129z" />
    <glyph glyph-name="Omacron" unicode="&#x14c;" horiz-adv-x="1580" 
d="M790 1426c433 0 740 -307 740 -726s-307 -726 -740 -726s-740 307 -740 726s307 726 740 726zM790 1062c-204 0 -345 -149 -345 -362s141 -362 345 -362s345 149 345 362s-141 362 -345 362zM420 1808h740v-284h-740v284z" />
    <glyph glyph-name="omacron" unicode="&#x14d;" horiz-adv-x="1164" 
d="M582 1018c312 0 540 -221 540 -522s-228 -522 -540 -522s-540 221 -540 522s228 522 540 522zM582 687c-102 0 -176 -79 -176 -191s74 -191 176 -191s176 79 176 191s-74 191 -176 191zM212 1408h740v-284h-740v284z" />
    <glyph glyph-name="Obreve" unicode="&#x14e;" horiz-adv-x="1580" 
d="M790 1426c433 0 740 -307 740 -726s-307 -726 -740 -726s-740 307 -740 726s307 726 740 726zM790 1062c-204 0 -345 -149 -345 -362s141 -362 345 -362s345 149 345 362s-141 362 -345 362zM639 1898c25 -97 76 -146 151 -146s126 49 151 146l258 -72
c-48 -215 -197 -344 -409 -344s-361 129 -409 344z" />
    <glyph glyph-name="obreve" unicode="&#x14f;" horiz-adv-x="1164" 
d="M582 1018c312 0 540 -221 540 -522s-228 -522 -540 -522s-540 221 -540 522s228 522 540 522zM582 687c-102 0 -176 -79 -176 -191s74 -191 176 -191s176 79 176 191s-74 191 -176 191zM431 1498c25 -97 76 -146 151 -146s126 49 151 146l258 -72
c-48 -215 -197 -344 -409 -344s-361 129 -409 344z" />
    <glyph glyph-name="Ohungarumlaut" unicode="&#x150;" horiz-adv-x="1580" 
d="M790 1426c433 0 740 -307 740 -726s-307 -726 -740 -726s-740 307 -740 726s307 726 740 726zM790 1062c-204 0 -345 -149 -345 -362s141 -362 345 -362s345 149 345 362s-141 362 -345 362zM839 1503l250 346h358l-270 -346h-338zM409 1503l221 346h353l-250 -346h-324z
" />
    <glyph glyph-name="ohungarumlaut" unicode="&#x151;" horiz-adv-x="1164" 
d="M582 1018c312 0 540 -221 540 -522s-228 -522 -540 -522s-540 221 -540 522s228 522 540 522zM582 687c-102 0 -176 -79 -176 -191s74 -191 176 -191s176 79 176 191s-74 191 -176 191zM628 1103l250 346h358l-270 -346h-338zM198 1103l221 346h353l-250 -346h-324z" />
    <glyph glyph-name="OE" unicode="&#x152;" horiz-adv-x="2154" 
d="M2074 0h-1298c-437 0 -726 278 -726 700s289 700 726 700h1298v-338h-714v-185h664v-338h-664v-201h714v-338zM445 700c0 -205 112 -351 341 -351h194v702h-194c-229 0 -341 -149 -341 -351z" />
    <glyph glyph-name="oe" unicode="&#x153;" horiz-adv-x="1822" 
d="M1273 1019c299 0 507 -212 507 -523c0 -34 -4 -86 -7 -106h-647c24 -80 83 -120 178 -120c64 0 132 27 187 80l244 -204c-99 -104 -259 -172 -460 -172c-141 0 -258 49 -343 134c-89 -85 -210 -134 -350 -134c-312 0 -540 221 -540 522s228 522 540 522
c140 0 261 -50 350 -134c85 87 202 135 341 135zM582 687c-102 0 -176 -79 -176 -191s74 -191 176 -191s176 79 176 191s-74 191 -176 191zM1275 719c-76 0 -125 -38 -148 -114h298c-25 76 -75 114 -150 114z" />
    <glyph glyph-name="Racute" unicode="&#x154;" horiz-adv-x="1336" 
d="M724 1400c356 0 543 -183 543 -466c0 -216 -125 -372 -362 -420l381 -514h-448l-337 497h-21v-497h-380v1400h624zM480 1059v-249h240c93 0 163 39 163 124s-70 125 -163 125h-240zM415 1503l221 346h398l-290 -346h-329z" />
    <glyph glyph-name="racute" unicode="&#x155;" horiz-adv-x="805" 
d="M690 1018c39 0 74 -7 89 -10l-20 -356c-41 11 -99 23 -156 23c-99 0 -159 -35 -159 -144v-531h-357v991h340v-100c56 88 142 127 263 127zM213 1103l221 346h398l-290 -346h-329z" />
    <glyph glyph-name="Rcommaaccent" unicode="&#x156;" horiz-adv-x="1336" 
d="M724 1400c356 0 543 -183 543 -466c0 -216 -125 -372 -362 -420l381 -514h-448l-337 497h-21v-497h-380v1400h624zM480 1059v-249h240c93 0 163 39 163 124s-70 125 -163 125h-240zM832 -77l-110 -430h-275l54 430h331z" />
    <glyph glyph-name="rcommaaccent" unicode="&#x157;" horiz-adv-x="805" 
d="M690 1018c39 0 74 -7 89 -10l-20 -356c-41 11 -99 23 -156 23c-99 0 -159 -35 -159 -144v-531h-357v991h340v-100c56 88 142 127 263 127zM454 -77l-110 -430h-275l54 430h331z" />
    <glyph glyph-name="Rcaron" unicode="&#x158;" horiz-adv-x="1336" 
d="M724 1400c356 0 543 -183 543 -466c0 -216 -125 -372 -362 -420l381 -514h-448l-337 497h-21v-497h-380v1400h624zM480 1059v-249h240c93 0 163 39 163 124s-70 125 -163 125h-240zM538 1839l107 -136l106 136h309l-231 -346h-369l-231 346h309z" />
    <glyph glyph-name="rcaron" unicode="&#x159;" horiz-adv-x="805" 
d="M690 1018c39 0 74 -7 89 -10l-20 -356c-41 11 -99 23 -156 23c-99 0 -159 -35 -159 -144v-531h-357v991h340v-100c56 88 142 127 263 127zM323 1439l107 -136l106 136h309l-231 -346h-369l-231 346h309z" />
    <glyph glyph-name="Sacute" unicode="&#x15a;" horiz-adv-x="1356" 
d="M1113 967c-94 51 -230 117 -404 117c-101 0 -180 -28 -180 -91c0 -78 143 -89 286 -115l45 -9c291 -56 436 -194 436 -410c0 -355 -299 -485 -597 -485c-252 0 -478 59 -639 174l186 310c112 -66 244 -144 458 -144c101 0 177 28 177 97c0 72 -88 87 -261 116l-53 9
c-322 56 -457 193 -449 442c8 268 231 447 568 447c183 0 348 -19 591 -147zM480 1503l221 346h398l-290 -346h-329z" />
    <glyph glyph-name="sacute" unicode="&#x15b;" horiz-adv-x="1020" 
d="M862 663c-112 43 -244 73 -334 73c-69 0 -86 -14 -86 -37c0 -37 67 -37 158 -53l60 -10c212 -35 316 -137 316 -304c0 -229 -171 -358 -461 -358c-195 0 -372 34 -471 95l114 278c110 -60 230 -90 359 -90c79 0 103 13 103 42c0 31 -41 39 -151 55l-39 6
c-245 37 -355 136 -355 320c0 219 159 338 436 338c163 0 249 -16 436 -77zM312 1103l221 346h398l-290 -346h-329z" />
    <glyph glyph-name="Scircumflex" unicode="&#x15c;" horiz-adv-x="1356" 
d="M1113 967c-94 51 -230 117 -404 117c-101 0 -180 -28 -180 -91c0 -78 143 -89 286 -115l45 -9c291 -56 436 -194 436 -410c0 -355 -299 -485 -597 -485c-252 0 -478 59 -639 174l186 310c112 -66 244 -144 458 -144c101 0 177 28 177 97c0 72 -88 87 -261 116l-53 9
c-322 56 -457 193 -449 442c8 268 231 447 568 447c183 0 348 -19 591 -147zM816 1493l-106 136l-107 -136h-309l231 346h369l231 -346h-309z" />
    <glyph glyph-name="scircumflex" unicode="&#x15d;" horiz-adv-x="1020" 
d="M862 663c-112 43 -244 73 -334 73c-69 0 -86 -14 -86 -37c0 -37 67 -37 158 -53l60 -10c212 -35 316 -137 316 -304c0 -229 -171 -358 -461 -358c-195 0 -372 34 -471 95l114 278c110 -60 230 -90 359 -90c79 0 103 13 103 42c0 31 -41 39 -151 55l-39 6
c-245 37 -355 136 -355 320c0 219 159 338 436 338c163 0 249 -16 436 -77zM635 1093l-106 136l-107 -136h-309l231 346h369l231 -346h-309z" />
    <glyph glyph-name="Scedilla" unicode="&#x15e;" horiz-adv-x="1356" 
d="M780 -321h-340l111 328h332zM1113 967c-94 51 -230 117 -404 117c-101 0 -180 -28 -180 -91c0 -78 143 -89 286 -115l45 -9c291 -56 436 -194 436 -410c0 -355 -299 -485 -597 -485c-252 0 -478 59 -639 174l186 310c112 -66 244 -144 458 -144c101 0 177 28 177 97
c0 72 -88 87 -261 116l-53 9c-322 56 -457 193 -449 442c8 268 231 447 568 447c183 0 348 -19 591 -147z" />
    <glyph glyph-name="scedilla" unicode="&#x15f;" horiz-adv-x="1020" 
d="M862 663c-112 43 -244 73 -334 73c-69 0 -86 -14 -86 -37c0 -37 67 -37 158 -53l60 -10c212 -35 316 -137 316 -304c0 -229 -171 -358 -461 -358c-195 0 -372 34 -471 95l114 278c110 -60 230 -90 359 -90c79 0 103 13 103 42c0 31 -41 39 -151 55l-39 6
c-245 37 -355 136 -355 320c0 219 159 338 436 338c163 0 249 -16 436 -77zM581 -321h-316l111 328h308z" />
    <glyph glyph-name="Scaron" unicode="&#x160;" horiz-adv-x="1356" 
d="M1113 967c-94 51 -230 117 -404 117c-101 0 -180 -28 -180 -91c0 -78 143 -89 286 -115l45 -9c291 -56 436 -194 436 -410c0 -355 -299 -485 -597 -485c-252 0 -478 59 -639 174l186 310c112 -66 244 -144 458 -144c101 0 177 28 177 97c0 72 -88 87 -261 116l-53 9
c-322 56 -457 193 -449 442c8 268 231 447 568 447c183 0 348 -19 591 -147zM603 1839l107 -136l106 136h309l-231 -346h-369l-231 346h309z" />
    <glyph glyph-name="scaron" unicode="&#x161;" horiz-adv-x="1020" 
d="M862 663c-112 43 -244 73 -334 73c-69 0 -86 -14 -86 -37c0 -37 67 -37 158 -53l60 -10c212 -35 316 -137 316 -304c0 -229 -171 -358 -461 -358c-195 0 -372 34 -471 95l114 278c110 -60 230 -90 359 -90c79 0 103 13 103 42c0 31 -41 39 -151 55l-39 6
c-245 37 -355 136 -355 320c0 219 159 338 436 338c163 0 249 -16 436 -77zM422 1439l107 -136l106 136h309l-231 -346h-369l-231 346h309z" />
    <glyph glyph-name="Tcommaaccent" unicode="&#x162;" horiz-adv-x="1216" 
d="M677 -321h-340l111 328h332zM1196 1050h-398v-1050h-380v1050h-398v350h1176v-350z" />
    <glyph glyph-name="tcommaaccent" unicode="&#x163;" horiz-adv-x="980" 
d="M884 677h-322v-232c0 -107 56 -140 133 -140c55 0 116 33 161 60l119 -276c-98 -69 -199 -115 -372 -115c-282 0 -397 173 -397 416v287h-180v314h180v284h356v-284h322v-314zM623 -321h-316l111 328h308z" />
    <glyph glyph-name="Tcaron" unicode="&#x164;" horiz-adv-x="1216" 
d="M1196 1050h-398v-1050h-380v1050h-398v350h1176v-350zM516 1839l107 -136l106 136h309l-231 -346h-369l-231 346h309z" />
    <glyph glyph-name="tcaron" unicode="&#x165;" horiz-adv-x="980" 
d="M884 677h-322v-232c0 -107 56 -140 133 -140c55 0 116 33 161 60l119 -276c-98 -69 -199 -115 -372 -115c-282 0 -397 173 -397 416v287h-180v314h180v284h356v-284h322v-314zM608 1040v500h334l-70 -500h-264z" />
    <glyph glyph-name="Utilde" unicode="&#x168;" horiz-adv-x="1420" 
d="M1330 571c0 -381 -218 -597 -620 -597s-620 216 -620 597v829h381v-818c0 -161 91 -244 239 -244s239 83 239 244v818h381v-829zM279 1680c82 127 192 169 306 169c144 0 197 -74 250 -74c31 0 68 25 108 70l197 -179c-82 -127 -192 -169 -306 -169
c-144 0 -197 74 -250 74c-31 0 -68 -25 -108 -70z" />
    <glyph glyph-name="utilde" unicode="&#x169;" horiz-adv-x="1136" 
d="M1054 426c0 -308 -209 -452 -486 -452s-486 145 -486 453v564h356v-534c0 -100 51 -152 130 -152s130 52 130 152v534h356v-565zM129 1280c82 127 192 169 306 169c144 0 197 -74 250 -74c31 0 68 25 108 70l197 -179c-82 -127 -192 -169 -306 -169
c-144 0 -197 74 -250 74c-31 0 -68 -25 -108 -70z" />
    <glyph glyph-name="Umacron" unicode="&#x16a;" horiz-adv-x="1420" 
d="M1330 571c0 -381 -218 -597 -620 -597s-620 216 -620 597v829h381v-818c0 -161 91 -244 239 -244s239 83 239 244v818h381v-829zM340 1808h740v-284h-740v284z" />
    <glyph glyph-name="umacron" unicode="&#x16b;" horiz-adv-x="1136" 
d="M1054 426c0 -308 -209 -452 -486 -452s-486 145 -486 453v564h356v-534c0 -100 51 -152 130 -152s130 52 130 152v534h356v-565zM198 1408h740v-284h-740v284z" />
    <glyph glyph-name="Ubreve" unicode="&#x16c;" horiz-adv-x="1420" 
d="M1330 571c0 -381 -218 -597 -620 -597s-620 216 -620 597v829h381v-818c0 -161 91 -244 239 -244s239 83 239 244v818h381v-829zM559 1898c25 -97 76 -146 151 -146s126 49 151 146l258 -72c-48 -215 -197 -344 -409 -344s-361 129 -409 344z" />
    <glyph glyph-name="ubreve" unicode="&#x16d;" horiz-adv-x="1136" 
d="M1054 426c0 -308 -209 -452 -486 -452s-486 145 -486 453v564h356v-534c0 -100 51 -152 130 -152s130 52 130 152v534h356v-565zM417 1498c25 -97 76 -146 151 -146s126 49 151 146l258 -72c-48 -215 -197 -344 -409 -344s-361 129 -409 344z" />
    <glyph glyph-name="Uring" unicode="&#x16e;" horiz-adv-x="1420" 
d="M1330 571c0 -381 -218 -597 -620 -597s-620 216 -620 597v829h381v-818c0 -161 91 -244 239 -244s239 83 239 244v818h381v-829zM709 1462c-158 0 -287 126 -287 283c0 156 129 283 287 283c160 0 288 -127 288 -283c0 -157 -128 -283 -288 -283zM709 1643
c54 0 100 44 100 102c0 57 -46 102 -100 102c-53 0 -99 -45 -99 -102c0 -58 46 -102 99 -102z" />
    <glyph glyph-name="uring" unicode="&#x16f;" horiz-adv-x="1136" 
d="M1054 426c0 -308 -209 -452 -486 -452s-486 145 -486 453v564h356v-534c0 -100 51 -152 130 -152s130 52 130 152v534h356v-565zM567 1062c-158 0 -287 126 -287 283c0 156 129 283 287 283c160 0 288 -127 288 -283c0 -157 -128 -283 -288 -283zM567 1243
c54 0 100 44 100 102c0 57 -46 102 -100 102c-53 0 -99 -45 -99 -102c0 -58 46 -102 99 -102z" />
    <glyph glyph-name="Uhungarumlaut" unicode="&#x170;" horiz-adv-x="1420" 
d="M1330 571c0 -381 -218 -597 -620 -597s-620 216 -620 597v829h381v-818c0 -161 91 -244 239 -244s239 83 239 244v818h381v-829zM759 1503l250 346h358l-270 -346h-338zM329 1503l221 346h353l-250 -346h-324z" />
    <glyph glyph-name="uhungarumlaut" unicode="&#x171;" horiz-adv-x="1136" 
d="M1054 426c0 -308 -209 -452 -486 -452s-486 145 -486 453v564h356v-534c0 -100 51 -152 130 -152s130 52 130 152v534h356v-565zM614 1103l250 346h358l-270 -346h-338zM184 1103l221 346h353l-250 -346h-324z" />
    <glyph glyph-name="Uogonek" unicode="&#x172;" horiz-adv-x="1420" 
d="M1330 571c0 -381 -218 -597 -620 -597s-620 216 -620 597v829h381v-818c0 -161 91 -244 239 -244s239 83 239 244v818h381v-829zM1223 -295c-80 -77 -184 -125 -321 -125c-174 0 -307 78 -307 217c0 155 149 228 289 286l152 -45c-121 -70 -132 -120 -132 -151
c0 -29 21 -47 54 -47c31 0 56 13 81 36z" />
    <glyph glyph-name="uogonek" unicode="&#x173;" horiz-adv-x="1136" 
d="M1054 426c0 -308 -209 -452 -486 -452s-486 145 -486 453v564h356v-534c0 -100 51 -152 130 -152s130 52 130 152v534h356v-565zM1033 -295c-80 -77 -184 -125 -321 -125c-174 0 -307 78 -307 217c0 155 149 228 289 286l152 -45c-121 -70 -132 -120 -132 -151
c0 -29 21 -47 54 -47c31 0 56 13 81 36z" />
    <glyph glyph-name="Ydieresis" unicode="&#x178;" horiz-adv-x="1428" 
d="M910 530v-530h-380v525l-528 875h436l283 -529l282 529h423zM476 1870c116 0 204 -88 204 -204s-88 -204 -204 -204s-204 88 -204 204s88 204 204 204zM966 1870c116 0 204 -88 204 -204s-88 -204 -204 -204s-204 88 -204 204s88 204 204 204z" />
    <glyph glyph-name="Zacute" unicode="&#x179;" horiz-adv-x="1280" 
d="M1220 1102l-655 -764h655v-338h-1160v298l655 764h-655v338h1160v-298zM410 1503l221 346h398l-290 -346h-329z" />
    <glyph glyph-name="zacute" unicode="&#x17a;" horiz-adv-x="1039" 
d="M967 726l-395 -412h406v-314h-917v255l406 422h-389v314h889v-265zM306 1103l221 346h398l-290 -346h-329z" />
    <glyph glyph-name="Zdotaccent" unicode="&#x17b;" horiz-adv-x="1280" 
d="M1220 1102l-655 -764h655v-338h-1160v298l655 764h-655v338h1160v-298zM615 1890c122 0 214 -92 214 -214s-92 -214 -214 -214s-214 92 -214 214s92 214 214 214z" />
    <glyph glyph-name="zdotaccent" unicode="&#x17c;" horiz-adv-x="1039" 
d="M967 726l-395 -412h406v-314h-917v255l406 422h-389v314h889v-265zM523 1485c116 0 204 -88 204 -204s-88 -204 -204 -204s-204 88 -204 204s88 204 204 204z" />
    <glyph glyph-name="Zcaron" unicode="&#x17d;" horiz-adv-x="1280" 
d="M1220 1102l-655 -764h655v-338h-1160v298l655 764h-655v338h1160v-298zM533 1839l107 -136l106 136h309l-231 -346h-369l-231 346h309z" />
    <glyph glyph-name="zcaron" unicode="&#x17e;" horiz-adv-x="1039" 
d="M967 726l-395 -412h406v-314h-917v255l406 422h-389v314h889v-265zM416 1439l107 -136l106 136h309l-231 -346h-369l-231 346h309z" />
    <glyph glyph-name="longs" unicode="&#x17f;" horiz-adv-x="701" 
d="M478 1466c172 0 278 -53 358 -117l-162 -254c-45 21 -83 40 -142 40c-64 0 -93 -33 -93 -114v-1021h-356v1030c0 296 166 436 395 436z" />
    <glyph glyph-name="Scommaaccent" unicode="&#x218;" horiz-adv-x="1356" 
d="M1113 967c-94 51 -230 117 -404 117c-101 0 -180 -28 -180 -91c0 -78 143 -89 286 -115l45 -9c291 -56 436 -194 436 -410c0 -355 -299 -485 -597 -485c-252 0 -478 59 -639 174l186 310c112 -66 244 -144 458 -144c101 0 177 28 177 97c0 72 -88 87 -261 116l-53 9
c-322 56 -457 193 -449 442c8 268 231 447 568 447c183 0 348 -19 591 -147zM892 -77l-110 -430h-275l54 430h331z" />
    <glyph glyph-name="scommaaccent" unicode="&#x219;" horiz-adv-x="1020" 
d="M862 663c-112 43 -244 73 -334 73c-69 0 -86 -14 -86 -37c0 -37 67 -37 158 -53l60 -10c212 -35 316 -137 316 -304c0 -229 -171 -358 -461 -358c-195 0 -372 34 -471 95l114 278c110 -60 230 -90 359 -90c79 0 103 13 103 42c0 31 -41 39 -151 55l-39 6
c-245 37 -355 136 -355 320c0 219 159 338 436 338c163 0 249 -16 436 -77zM702 -77l-110 -430h-275l54 430h331z" />
    <glyph glyph-name="uni021A" unicode="&#x21a;" horiz-adv-x="1216" 
d="M1196 1050h-398v-1050h-380v1050h-398v350h1176v-350zM789 -77l-110 -430h-275l54 430h331z" />
    <glyph glyph-name="uni021B" unicode="&#x21b;" horiz-adv-x="980" 
d="M884 677h-322v-232c0 -107 56 -140 133 -140c55 0 116 33 161 60l119 -276c-98 -69 -199 -115 -372 -115c-282 0 -397 173 -397 416v287h-180v314h180v284h356v-284h322v-314zM744 -77l-110 -430h-275l54 430h331z" />
    <glyph glyph-name="gravecomb" unicode="&#x300;" horiz-adv-x="1" 
d="M-970 1449h398l221 -346h-329z" />
    <glyph glyph-name="acutecomb" unicode="&#x301;" horiz-adv-x="1" 
d="M-799 1103l221 346h398l-290 -346h-329z" />
    <glyph glyph-name="uni0302" unicode="&#x302;" horiz-adv-x="1" 
d="M-476 1093l-106 136l-107 -136h-309l231 346h369l231 -346h-309z" />
    <glyph glyph-name="tildecomb" unicode="&#x303;" horiz-adv-x="1" 
d="M-1021 1280c82 127 192 169 306 169c144 0 197 -74 250 -74c31 0 68 25 108 70l197 -179c-82 -127 -192 -169 -306 -169c-144 0 -197 74 -250 74c-31 0 -68 -25 -108 -70z" />
    <glyph glyph-name="uni0304" unicode="&#x304;" horiz-adv-x="1" 
d="M-952 1408h740v-284h-740v284z" />
    <glyph glyph-name="uni0306" unicode="&#x306;" horiz-adv-x="1" 
d="M-733 1498c25 -97 76 -146 151 -146s126 49 151 146l258 -72c-48 -215 -197 -344 -409 -344s-361 129 -409 344z" />
    <glyph glyph-name="uni0307" unicode="&#x307;" horiz-adv-x="1" 
d="M-582 1485c116 0 204 -88 204 -204s-88 -204 -204 -204s-204 88 -204 204s88 204 204 204z" />
    <glyph glyph-name="uni0308" unicode="&#x308;" horiz-adv-x="1" 
d="M-831 1470c116 0 204 -88 204 -204s-88 -204 -204 -204s-204 88 -204 204s88 204 204 204zM-341 1470c116 0 204 -88 204 -204s-88 -204 -204 -204s-204 88 -204 204s88 204 204 204z" />
    <glyph glyph-name="uni030A" unicode="&#x30a;" horiz-adv-x="1" 
d="M-583 1062c-158 0 -287 126 -287 283c0 156 129 283 287 283c160 0 288 -127 288 -283c0 -157 -128 -283 -288 -283zM-583 1243c54 0 100 44 100 102c0 57 -46 102 -100 102c-53 0 -99 -45 -99 -102c0 -58 46 -102 99 -102z" />
    <glyph glyph-name="uni030B" unicode="&#x30b;" horiz-adv-x="1" 
d="M-536 1103l250 346h358l-270 -346h-338zM-966 1103l221 346h353l-250 -346h-324z" />
    <glyph glyph-name="uni030C" unicode="&#x30c;" horiz-adv-x="1" 
d="M-689 1439l107 -136l106 136h309l-231 -346h-369l-231 346h309z" />
    <glyph glyph-name="uni0312" unicode="&#x312;" horiz-adv-x="1" 
d="M-743 1103l110 430h275l-54 -430h-331z" />
    <glyph glyph-name="uni0326" unicode="&#x326;" horiz-adv-x="1" 
d="M-389 -77l-110 -430h-275l54 430h331z" />
    <glyph glyph-name="uni0327" unicode="&#x327;" horiz-adv-x="1" 
d="M-475 -321h-316l111 328h308z" />
    <glyph glyph-name="uni0328" unicode="&#x328;" horiz-adv-x="1" 
d="M-268 -295c-80 -77 -184 -125 -321 -125c-174 0 -307 78 -307 217c0 155 149 228 289 286l152 -45c-121 -70 -132 -120 -132 -151c0 -29 21 -47 54 -47c31 0 56 13 81 36z" />
    <glyph glyph-name="uni1E9E" unicode="&#x1e9e;" horiz-adv-x="1418" 
d="M665 774l187 277c-43 25 -87 36 -154 36c-151 0 -227 -84 -227 -213v-874h-381v882c0 262 148 544 617 544c315 0 494 -132 608 -275l-260 -364c200 -61 313 -193 313 -373c0 -272 -212 -440 -563 -440c-89 0 -165 5 -229 20l44 328c45 -9 84 -12 127 -12
c161 0 230 32 230 104s-87 104 -250 104h-62v256z" />
    <glyph glyph-name="uni2008" unicode="&#x2008;" horiz-adv-x="601" 
 />
    <glyph glyph-name="uni2009" unicode="&#x2009;" horiz-adv-x="137" 
 />
    <glyph glyph-name="uni200B" unicode="&#x200b;" horiz-adv-x="0" 
 />
    <glyph glyph-name="uniFEFF" unicode="&#xfeff;" horiz-adv-x="0" 
 />
    <glyph glyph-name="endash" unicode="&#x2013;" horiz-adv-x="1120" 
d="M1060 388h-1000v286h1000v-286z" />
    <glyph glyph-name="emdash" unicode="&#x2014;" horiz-adv-x="1560" 
d="M1530 388h-1500v286h1500v-286z" />
    <glyph glyph-name="quoteleft" unicode="&#x2018;" horiz-adv-x="590" 
d="M64 746l177 694h294l-88 -694h-383z" />
    <glyph glyph-name="quoteright" unicode="&#x2019;" horiz-adv-x="590" 
d="M526 1440l-177 -694h-294l88 694h383z" />
    <glyph glyph-name="quotesinglbase" unicode="&#x201a;" horiz-adv-x="590" 
d="M526 402l-177 -694h-294l88 694h383z" />
    <glyph glyph-name="quotedblleft" unicode="&#x201c;" horiz-adv-x="1105" 
d="M64 746l177 694h294l-88 -694h-383zM579 746l177 694h294l-88 -694h-383z" />
    <glyph glyph-name="quotedblright" unicode="&#x201d;" horiz-adv-x="1105" 
d="M1041 1440l-177 -694h-294l88 694h383zM526 1440l-177 -694h-294l88 694h383z" />
    <glyph glyph-name="quotedblbase" unicode="&#x201e;" horiz-adv-x="1105" 
d="M1041 402l-177 -694h-294l88 694h383zM526 402l-177 -694h-294l88 694h383z" />
    <glyph glyph-name="bullet" unicode="&#x2022;" horiz-adv-x="953" 
d="M476 901c204 0 372 -166 372 -371c0 -206 -168 -372 -372 -372c-205 0 -371 166 -371 372c0 205 166 371 371 371z" />
    <glyph glyph-name="guilsinglleft" unicode="&#x2039;" horiz-adv-x="640" 
d="M591 120h-336l-200 411l200 411h336l-200 -411z" />
    <glyph glyph-name="guilsinglright" unicode="&#x203a;" horiz-adv-x="640" 
d="M49 942h336l200 -411l-200 -411h-336l200 411z" />
    <glyph glyph-name="Euro" unicode="&#x20ac;" horiz-adv-x="1400" 
d="M1046 445h-408c63 -95 158 -143 261 -143c104 0 190 35 254 88l168 -284c-113 -84 -250 -132 -417 -132c-326 0 -578 172 -666 471h-160v208h126c-1 7 -1 15 -1 23v47c0 8 0 16 1 24h-126v208h160c88 299 340 471 666 471c157 0 299 -44 419 -136l-172 -282
c-67 57 -152 90 -253 90c-109 0 -202 -54 -262 -143h410v-208h-478c-1 -8 -1 -16 -1 -24v-23c0 -16 1 -32 2 -47h477v-208z" />
    <glyph glyph-name="trademark" unicode="&#x2122;" horiz-adv-x="1695" 
d="M1424 740v372l-108 -315h-214l-113 320v-377h-226v660h312l134 -346l132 346h314v-660h-231zM246 740v453h-206v207h640v-207h-206v-453h-228z" />
    <glyph glyph-name="uniFB00" unicode="&#xfb00;" horiz-adv-x="1688" 
d="M794 677h-252v-677h-356v677h-160v314h160v39c0 296 166 436 395 436c172 0 278 -53 358 -117l-162 -254c-45 21 -83 40 -142 40c-64 0 -93 -33 -93 -114v-30h252v-314zM1623 677h-252v-677h-356v677h-160v314h160v39c0 296 166 436 395 436c172 0 278 -53 358 -117
l-162 -254c-45 21 -83 40 -142 40c-64 0 -93 -33 -93 -114v-30h252v-314z" />
    <glyph glyph-name="fi" unicode="&#xfb01;" horiz-adv-x="1389" 
d="M794 677h-252v-677h-356v677h-160v314h160v39c0 296 166 436 395 436c172 0 278 -53 358 -117l-162 -254c-45 21 -83 40 -142 40c-64 0 -93 -33 -93 -114v-30h252v-314zM1302 0h-356v991h356v-991zM1123 1485c116 0 204 -88 204 -204s-88 -204 -204 -204
s-204 88 -204 204s88 204 204 204z" />
    <glyph glyph-name="fl" unicode="&#xfb02;" horiz-adv-x="1389" 
d="M794 677h-252v-677h-356v677h-160v314h160v39c0 296 166 436 395 436c172 0 278 -53 358 -117l-162 -254c-45 21 -83 40 -142 40c-64 0 -93 -33 -93 -114v-30h252v-314zM1302 0h-356v1440h356v-1440z" />
    <glyph glyph-name="uniFB03" unicode="&#xfb03;" horiz-adv-x="2218" 
d="M794 677h-252v-677h-356v677h-160v314h160v39c0 296 166 436 395 436c172 0 278 -53 358 -117l-162 -254c-45 21 -83 40 -142 40c-64 0 -93 -33 -93 -114v-30h252v-314zM1623 677h-252v-677h-356v677h-160v314h160v39c0 296 166 436 395 436c172 0 278 -53 358 -117
l-162 -254c-45 21 -83 40 -142 40c-64 0 -93 -33 -93 -114v-30h252v-314zM2131 0h-356v991h356v-991zM1952 1485c116 0 204 -88 204 -204s-88 -204 -204 -204s-204 88 -204 204s88 204 204 204z" />
    <glyph glyph-name="uniFB04" unicode="&#xfb04;" horiz-adv-x="2218" 
d="M794 677h-252v-677h-356v677h-160v314h160v39c0 296 166 436 395 436c172 0 278 -53 358 -117l-162 -254c-45 21 -83 40 -142 40c-64 0 -93 -33 -93 -114v-30h252v-314zM1623 677h-252v-677h-356v677h-160v314h160v39c0 296 166 436 395 436c172 0 278 -53 358 -117
l-162 -254c-45 21 -83 40 -142 40c-64 0 -93 -33 -93 -114v-30h252v-314zM2131 0h-356v1440h356v-1440z" />
    <glyph glyph-name="uniFB05" unicode="&#xfb05;" horiz-adv-x="1433" 
d="M1337 677h-322v-232c0 -107 56 -140 133 -140c55 0 116 33 161 60l119 -276c-98 -69 -199 -115 -372 -115c-282 0 -397 173 -397 416v287h-114v314h114v28c0 87 -42 132 -110 132s-110 -45 -110 -132v-1019h-356v1024c0 301 197 442 466 442s466 -142 466 -443v-32h322
v-314z" />
    <glyph glyph-name="uniFB06" unicode="&#xfb06;" horiz-adv-x="1980" 
d="M862 663c-112 43 -244 73 -334 73c-69 0 -86 -14 -86 -37c0 -37 67 -37 158 -53l60 -10c212 -35 316 -137 316 -304c0 -229 -171 -358 -461 -358c-195 0 -372 34 -471 95l114 278c110 -60 230 -90 359 -90c79 0 103 13 103 42c0 31 -41 39 -151 55l-39 6
c-245 37 -355 136 -355 320c0 219 159 338 436 338c163 0 249 -16 436 -77zM1884 677h-322v-232c0 -107 56 -140 133 -140c55 0 116 33 161 60l119 -276c-98 -69 -199 -115 -372 -115c-282 0 -397 173 -397 416v287h-180v314h180v284h356v-284h322v-314z" />
    <glyph glyph-name="uni030C.alt001" unicode="&#xe01d;" horiz-adv-x="1" 
d="M-749 940v500h334l-70 -500h-264z" />
    <glyph glyph-name="uni0328.alt001" unicode="&#xe01e;" horiz-adv-x="1" 
d="M-298 -318c-50 -45 -158 -102 -295 -102c-147 0 -272 72 -272 207c0 157 181 251 278 291l115 -69c-101 -43 -114 -90 -114 -117c0 -37 26 -52 61 -52c19 0 41 7 69 27z" />
    <glyph glyph-name="uni0328.alt002" unicode="&#xe01f;" horiz-adv-x="1" 
d="M-425 29c-148 -64 -162 -116 -162 -142c0 -29 21 -47 54 -47c31 0 56 13 81 36l184 -171c-80 -77 -184 -125 -321 -125c-174 0 -307 78 -307 217c0 155 149 228 289 286z" />
    <glyph glyph-name="uni0328.alt003" unicode="&#xe020;" horiz-adv-x="1" 
d="M-298 -318c-50 -45 -158 -102 -295 -102c-147 0 -272 76 -272 217c0 152 194 241 298 281l115 -69c-120 -43 -134 -90 -134 -117c0 -37 26 -52 61 -52c19 0 41 7 69 27z" />
    <glyph glyph-name="uni0328.alt004" unicode="&#xe021;" horiz-adv-x="1" 
d="M-268 -295c-80 -77 -184 -125 -321 -125c-174 0 -307 78 -307 217c0 155 149 228 289 286l182 -54c-148 -64 -162 -116 -162 -142c0 -29 21 -47 54 -47c31 0 56 13 81 36z" />
    <glyph glyph-name="zero.osf" unicode="&#xe023;" horiz-adv-x="1296" 
d="M648 1115c337 0 595 -225 595 -572s-258 -569 -595 -569c-335 0 -595 222 -595 569s260 572 595 572zM648 779c-134 0 -236 -98 -236 -235c0 -136 102 -234 236 -234s236 98 236 234c0 137 -102 235 -236 235z" />
    <glyph glyph-name="one.osf" unicode="&#xe00f;" horiz-adv-x="770" 
d="M685 0h-363v648l-293 -85v348l656 207v-1118z" />
    <glyph glyph-name="two.osf" unicode="&#xe01b;" horiz-adv-x="1126" 
d="M34 884c90 103 252 231 515 231c289 0 484 -140 484 -363c0 -160 -84 -281 -310 -401l-61 -32h427v-319h-987v276l363 212c162 95 196 146 196 195c0 74 -75 111 -159 111c-114 0 -203 -70 -276 -148z" />
    <glyph glyph-name="three.osf" unicode="&#xe018;" horiz-adv-x="1111" 
d="M514 1115c308 0 524 -161 524 -406c0 -147 -69 -254 -197 -315c144 -60 225 -169 225 -314c0 -283 -264 -417 -545 -417c-212 0 -382 74 -494 206l195 229c77 -80 170 -124 278 -124c104 0 189 42 189 131c0 88 -97 133 -213 133h-150v315h153c108 0 187 44 187 123
c0 77 -65 117 -166 117c-126 0 -217 -58 -278 -127l-193 239c112 122 259 210 485 210z" />
    <glyph glyph-name="four.osf" unicode="&#xe009;" horiz-adv-x="1172" 
d="M969 335h182v-335h-182v-312h-362l-1 312h-585v250l364 838h385l-331 -753h167v130l85 193h278v-323z" />
    <glyph glyph-name="five.osf" unicode="&#xe006;" horiz-adv-x="1140" 
d="M1004 756h-535l-5 -178h122c322 0 506 -162 506 -422c0 -300 -225 -494 -546 -494c-217 0 -403 81 -512 184l167 273c63 -55 204 -129 343 -129c113 0 173 50 173 142c0 76 -57 132 -221 132h-353l18 824h843v-332z" />
    <glyph glyph-name="six.osf" unicode="&#xe015;" horiz-adv-x="1181" 
d="M640 936c330 -3 507 -210 507 -466c0 -288 -241 -496 -558 -496c-316 0 -557 203 -557 484c0 137 53 268 145 404l361 538h434zM589 637c-103 0 -176 -72 -176 -170c0 -100 73 -173 176 -173s178 73 178 173c0 98 -75 170 -178 170z" />
    <glyph glyph-name="seven.osf" unicode="&#xe012;" horiz-adv-x="1095" 
d="M1063 803l-533 -1115h-434l536 1065h-600v335h1031v-285z" />
    <glyph glyph-name="eight.osf" unicode="&#xe003;" horiz-adv-x="1209" 
d="M604 1426c289 0 524 -154 524 -406c0 -157 -89 -257 -207 -313c136 -53 243 -154 243 -325c0 -255 -252 -408 -560 -408s-559 153 -559 408c0 169 107 272 242 325c-118 57 -206 155 -206 313c0 252 235 406 523 406zM604 571c-87 0 -162 -52 -162 -144
c0 -93 75 -142 162 -142s162 49 162 142c0 92 -75 144 -162 144zM604 1107c-75 0 -135 -44 -135 -125c0 -83 60 -129 135 -129c76 0 136 46 136 129c0 81 -60 125 -136 125z" />
    <glyph glyph-name="nine.osf" unicode="&#xe00c;" horiz-adv-x="1181" 
d="M540 152c-331 3 -506 210 -506 466c0 288 241 497 558 497c316 0 557 -205 557 -484c0 -137 -53 -268 -145 -405l-361 -537h-434zM592 451c103 0 176 73 176 171c0 100 -73 173 -176 173s-178 -73 -178 -173c0 -98 75 -171 178 -171z" />
    <glyph glyph-name="zero" unicode="0" 
d="M605 1426c320 0 563 -233 563 -726s-243 -726 -563 -726c-326 0 -573 233 -573 726s247 726 573 726zM605 1072c-108 0 -193 -108 -193 -372s85 -372 193 -372c101 0 183 108 183 372s-82 372 -183 372z" />
    <glyph glyph-name="one" unicode="1" 
d="M468 350v585l-296 -103v358l665 232v-1072h279v-350h-933v350h285z" />
    <glyph glyph-name="two" unicode="2" 
d="M55 1174c97 113 261 252 537 252c299 0 496 -177 496 -454c0 -162 -59 -278 -233 -441l-200 -190h461v-341h-982v289l476 449c63 60 95 122 95 187c0 90 -71 147 -159 147c-118 0 -205 -73 -282 -153z" />
    <glyph glyph-name="three" unicode="3" 
d="M551 1426c312 0 534 -161 534 -406c0 -145 -70 -252 -199 -315c145 -60 227 -169 227 -314c0 -283 -270 -417 -555 -417c-217 0 -391 74 -504 207l204 240c77 -79 171 -120 279 -120c106 0 193 40 193 124c0 81 -99 122 -218 122h-153v320h157c108 0 190 43 190 119
s-66 113 -169 113c-129 0 -218 -59 -283 -126l-198 244c115 121 265 209 495 209z" />
    <glyph glyph-name="four" unicode="4" 
d="M1012 566h159v-341h-159v-225h-369v225h-614v253l429 922h402l-391 -834h174v124l110 241h259v-365z" />
    <glyph glyph-name="five" unicode="5" 
d="M1031 1063h-532l-5 -171h118c323 0 508 -160 508 -422c0 -299 -225 -496 -549 -496c-218 0 -404 81 -513 182l168 279c61 -53 204 -128 343 -128c109 0 169 47 169 139c0 75 -57 127 -216 127h-355l19 827h845v-337z" />
    <glyph glyph-name="six" unicode="6" 
d="M651 938c332 -5 504 -212 504 -466c0 -289 -242 -498 -561 -498c-316 0 -559 205 -559 485c0 137 54 269 146 406l359 535h442zM594 634c-100 0 -170 -71 -170 -166c0 -98 70 -168 170 -168s173 70 173 168c0 95 -73 166 -173 166z" />
    <glyph glyph-name="seven" unicode="7" 
d="M1121 1110l-529 -1110h-442l533 1059h-596v341h1034v-290z" />
    <glyph glyph-name="eight" unicode="8" 
d="M600 1426c296 0 537 -152 537 -406c0 -157 -90 -257 -209 -313c137 -56 245 -154 245 -325c0 -257 -257 -408 -573 -408c-315 0 -572 151 -572 408c0 170 108 272 244 325c-119 56 -208 156 -208 313c0 254 241 406 536 406zM600 570c-89 0 -167 -51 -167 -142
c0 -90 78 -138 167 -138c91 0 168 48 168 138c0 91 -77 142 -168 142zM600 1102c-79 0 -141 -42 -141 -122s62 -125 141 -125s141 45 141 125s-62 122 -141 122z" />
    <glyph glyph-name="nine" unicode="9" 
d="M550 462c-332 3 -504 213 -504 466c0 289 240 498 560 498c317 0 560 -205 560 -485c0 -137 -54 -269 -146 -406l-359 -535h-442zM606 766c100 0 171 71 171 166c0 98 -71 168 -171 168s-172 -70 -172 -168c0 -95 72 -166 172 -166z" />
    <glyph glyph-name="uni2007" unicode="&#x2007;" 
 />
    <glyph glyph-name="zero.tosf" unicode="&#xe024;" 
d="M600 1115c313 0 555 -215 555 -572c0 -356 -242 -569 -555 -569c-311 0 -555 213 -555 569c0 357 244 572 555 572zM600 790c-110 0 -196 -92 -196 -247c0 -153 86 -244 196 -244s196 91 196 244c0 155 -86 247 -196 247z" />
    <glyph glyph-name="one.tosf" unicode="&#xe010;" 
d="M454 330v337l-294 -86v351l657 186v-788h282v-330h-933v330h288z" />
    <glyph glyph-name="two.tosf" unicode="&#xe01c;" 
d="M66 884c90 103 252 231 515 231c289 0 484 -140 484 -363c0 -160 -84 -281 -310 -401l-61 -32h427v-319h-987v276l363 212c162 95 196 146 196 195c0 74 -75 111 -159 111c-114 0 -203 -70 -276 -148z" />
    <glyph glyph-name="three.tosf" unicode="&#xe019;" 
d="M548 1115c308 0 524 -161 524 -406c0 -147 -69 -254 -197 -315c144 -60 225 -169 225 -314c0 -283 -264 -417 -545 -417c-212 0 -382 74 -494 206l195 229c77 -80 170 -124 278 -124c104 0 189 42 189 131c0 88 -97 133 -213 133h-150v315h153c108 0 187 44 187 123
c0 77 -65 117 -166 117c-126 0 -217 -58 -278 -127l-193 239c112 122 259 210 485 210z" />
    <glyph glyph-name="four.tosf" unicode="&#xe00a;" 
d="M991 335h182v-335h-182v-312h-362l-1 312h-585v250l364 838h385l-331 -753h167v130l85 193h278v-323z" />
    <glyph glyph-name="five.tosf" unicode="&#xe007;" 
d="M1022 756h-535l-5 -178h122c322 0 506 -162 506 -422c0 -300 -225 -494 -546 -494c-217 0 -403 81 -512 184l167 273c63 -55 204 -129 343 -129c113 0 173 50 173 142c0 76 -57 132 -221 132h-353l18 824h843v-332z" />
    <glyph glyph-name="six.tosf" unicode="&#xe016;" 
d="M644 936c330 -3 507 -210 507 -466c0 -288 -241 -496 -558 -496c-316 0 -557 203 -557 484c0 137 53 268 145 404l361 538h434zM593 637c-103 0 -176 -72 -176 -170c0 -100 73 -173 176 -173s178 73 178 173c0 98 -75 170 -178 170z" />
    <glyph glyph-name="seven.tosf" unicode="&#xe013;" 
d="M1123 803l-533 -1115h-434l536 1065h-600v335h1031v-285z" />
    <glyph glyph-name="eight.tosf" unicode="&#xe004;" 
d="M600 1426c289 0 524 -154 524 -406c0 -157 -89 -257 -207 -313c136 -53 243 -154 243 -325c0 -255 -252 -408 -560 -408s-559 153 -559 408c0 169 107 272 242 325c-118 57 -206 155 -206 313c0 252 235 406 523 406zM600 571c-87 0 -162 -52 -162 -144
c0 -93 75 -142 162 -142s162 49 162 142c0 92 -75 144 -162 144zM600 1107c-75 0 -135 -44 -135 -125c0 -83 60 -129 135 -129c76 0 136 46 136 129c0 81 -60 125 -136 125z" />
    <glyph glyph-name="nine.tosf" unicode="&#xe00d;" 
d="M555 152c-331 3 -506 210 -506 466c0 288 241 497 558 497c316 0 557 -205 557 -484c0 -137 -53 -268 -145 -405l-361 -537h-434zM607 451c103 0 176 73 176 171c0 100 -73 173 -176 173s-178 -73 -178 -173c0 -98 75 -171 178 -171z" />
    </font>
</defs>
</svg>
