<?xml version="1.0" standalone="no"?>
<!DOCTYPE svg PUBLIC "-//W3C//DTD SVG 1.1//EN" "http://www.w3.org/Graphics/SVG/1.1/DTD/svg11.dtd" >
<svg>
<metadata>
Created by FontForge 20120731 at Mon Jan 21 06:06:32 2019
 By www-data
2013 published by FontShop International GmbH
</metadata>
<defs>
<font id="Mark-Bold" horiz-adv-x="1200" >
  <font-face 
    font-family="Mark"
    font-weight="700"
    font-stretch="normal"
    units-per-em="2000"
    panose-1="2 0 8 0 0 0 0 0 0 0"
    ascent="1580"
    descent="-420"
    x-height="969"
    cap-height="1400"
    bbox="-995 -473 2176 2001"
    underline-thickness="136"
    underline-position="-124"
    stemh="243"
    stemv="279"
    unicode-range="U+0020-FEFF"
  />
<missing-glyph horiz-adv-x="1182" 
d="M137 1400h908v-1400h-908v1400zM833 212v976h-484v-976h484z" />
    <glyph glyph-name="ellipsis" unicode="&#x2e;&#x2e;&#x2e;" horiz-adv-x="1661" 
d="M278 363c104 0 193 -89 193 -193c0 -105 -89 -195 -193 -195s-195 90 -195 195c0 104 91 193 195 193zM831 363c104 0 193 -89 193 -193c0 -105 -89 -195 -193 -195s-195 90 -195 195c0 104 91 193 195 193zM1385 363c104 0 193 -89 193 -193c0 -105 -89 -195 -193 -195
c-105 0 -195 90 -195 195c0 104 90 193 195 193z" />
    <glyph glyph-name=".notdef" horiz-adv-x="1182" 
d="M137 1400h908v-1400h-908v1400zM833 212v976h-484v-976h484z" />
    <glyph glyph-name=".null" unicode="&#xe000;" horiz-adv-x="0" 
 />
    <glyph glyph-name="CR" unicode="&#xe001;" horiz-adv-x="495" 
 />
    <glyph glyph-name="space" unicode=" " horiz-adv-x="495" 
 />
    <glyph glyph-name="exclam" unicode="!" horiz-adv-x="555" 
d="M397 481h-240l-36 919h312zM278 355c100 0 189 -87 189 -189s-89 -191 -189 -191c-102 0 -191 89 -191 191s89 189 191 189z" />
    <glyph glyph-name="quotedbl" unicode="&#x22;" horiz-adv-x="1123" 
d="M484 1440v-597h-261v597h261zM900 1440v-597h-261v597h261z" />
    <glyph glyph-name="numbersign" unicode="#" horiz-adv-x="1470" 
d="M453 1070l71 330h240l-71 -330h239l71 330h240l-71 -330h203l-48 -224h-202l-61 -285h202l-47 -224h-203l-71 -337h-240l71 337h-239l-71 -337h-240l71 337h-202l48 224h202l61 285h-203l48 224h202zM585 561h239l61 285h-239z" />
    <glyph glyph-name="dollar" unicode="$" horiz-adv-x="1400" 
d="M830 1564v-185c168 -16 295 -67 417 -141l-125 -214c-83 51 -180 92 -292 109v-319c245 -37 435 -147 430 -374c-5 -248 -195 -380 -429 -415v-198h-222v193c-178 16 -355 72 -477 168l137 212c80 -61 202 -117 339 -136v322l-11 2c-245 40 -422 145 -417 383
c3 227 183 371 428 406v187h222zM985 417c1 67 -54 104 -155 131v-277c92 23 152 70 155 146zM455 984c-1 -71 54 -107 153 -132v276c-93 -23 -150 -72 -153 -144z" />
    <glyph glyph-name="percent" unicode="%" horiz-adv-x="1979" 
d="M464 1425c224 0 391 -163 391 -381c0 -220 -167 -383 -391 -383c-223 0 -390 163 -390 383c0 218 167 381 390 381zM464 1216c-97 0 -168 -72 -168 -172c0 -101 71 -174 168 -174c99 0 169 73 169 174c0 100 -70 172 -169 172zM650 0h-262l939 1400h261zM1515 739
c224 0 391 -163 391 -382s-167 -382 -391 -382c-223 0 -390 163 -390 382c0 216 167 382 390 382zM1515 530c-97 0 -168 -73 -168 -173s71 -173 168 -173c99 0 169 73 169 173s-70 173 -169 173z" />
    <glyph glyph-name="ampersand" unicode="&#x26;" horiz-adv-x="1473" 
d="M1093 0l-151 144c-102 -96 -235 -169 -414 -169c-276 0 -440 143 -440 372c0 164 113 285 242 384c-117 120 -174 210 -174 343c0 203 164 351 411 351c243 0 408 -139 408 -346c0 -151 -127 -262 -263 -361l219 -212l201 282l197 -136l-224 -315l347 -337h-359zM549 212
c88 0 155 33 222 97l-269 258c-79 -64 -134 -126 -134 -201c0 -95 72 -154 181 -154zM424 1062c0 -53 26 -90 120 -182c94 67 165 125 165 191c0 73 -53 119 -142 119c-91 0 -143 -47 -143 -128z" />
    <glyph glyph-name="quotesingle" unicode="'" horiz-adv-x="707" 
d="M484 1440v-597h-261v597h261z" />
    <glyph glyph-name="parenleft" unicode="(" horiz-adv-x="844" 
d="M780 1216c-259 -123 -395 -368 -395 -648s136 -525 395 -648l-83 -233c-349 136 -587 469 -587 881s238 745 587 881z" />
    <glyph glyph-name="parenright" unicode=")" horiz-adv-x="844" 
d="M64 -79c259 123 395 368 395 648s-136 525 -395 648l83 233c349 -136 587 -469 587 -881s-238 -745 -587 -881z" />
    <glyph glyph-name="asterisk" unicode="*" horiz-adv-x="950" 
d="M379 1189l-4 251h201l-5 -251l237 82l62 -192l-239 -73l151 -199l-163 -119l-144 205l-143 -205l-163 119l150 199l-239 73l63 192z" />
    <glyph glyph-name="plus" unicode="+" 
d="M486 72v349h-346v223h346v349h228v-349h346v-223h-346v-349h-228z" />
    <glyph glyph-name="comma" unicode="," horiz-adv-x="534" 
d="M444 316l-140 -596h-220l67 596h293z" />
    <glyph glyph-name="hyphen" unicode="-" horiz-adv-x="813" 
d="M702 418h-591v228h591v-228z" />
    <glyph glyph-name="period" unicode="." horiz-adv-x="554" 
d="M278 363c104 0 193 -89 193 -193c0 -105 -89 -195 -193 -195s-195 90 -195 195c0 104 91 193 195 193z" />
    <glyph glyph-name="slash" unicode="/" horiz-adv-x="1036" 
d="M236 -200h-276l849 1740h276z" />
    <glyph glyph-name="zero.lf" unicode="&#xe022;" horiz-adv-x="1412" 
d="M706 1425c333 0 604 -272 604 -725s-271 -725 -604 -725c-335 0 -603 272 -603 725s268 725 603 725zM706 1166c-180 0 -322 -160 -322 -466s142 -466 322 -466s322 160 322 466s-142 466 -322 466z" />
    <glyph glyph-name="one.lf" unicode="&#xe00e;" horiz-adv-x="821" 
d="M657 0h-270v1042l-335 -136v272l605 244v-1422z" />
    <glyph glyph-name="two.lf" unicode="&#xe01a;" horiz-adv-x="1126" 
d="M67 1184c75 100 218 241 478 241c293 0 475 -184 475 -452c0 -172 -88 -289 -202 -409l-299 -311h535v-253h-925v211l495 507c75 76 115 152 115 240c0 122 -86 209 -214 209c-133 0 -212 -71 -284 -154z" />
    <glyph glyph-name="three.lf" unicode="&#xe017;" horiz-adv-x="1144" 
d="M530 1425c295 0 496 -160 496 -402c0 -149 -78 -257 -209 -318c148 -59 240 -169 240 -321c0 -276 -252 -409 -516 -409c-211 0 -382 74 -489 203l161 177c81 -85 197 -134 318 -134c136 0 245 58 245 182c0 120 -123 183 -274 183h-163v240h164c136 0 245 60 245 178
c0 113 -102 175 -232 175c-129 0 -226 -66 -283 -142l-170 171c91 124 243 217 467 217z" />
    <glyph glyph-name="four.lf" unicode="&#xe008;" horiz-adv-x="1168" 
d="M932 508h195v-252h-195v-256h-270v256h-621v196l491 947h300l-468 -891h298v373h270v-373z" />
    <glyph glyph-name="five.lf" unicode="&#xe005;" horiz-adv-x="1166" 
d="M996 1149h-567l-6 -280h161c326 0 490 -187 490 -421c0 -301 -228 -473 -511 -473c-211 0 -379 77 -496 209l152 189c75 -83 214 -148 342 -148c156 0 233 92 233 203c0 105 -65 197 -285 197h-333l15 775h805v-251z" />
    <glyph glyph-name="six.lf" unicode="&#xe014;" horiz-adv-x="1180" 
d="M564 913c19 3 41 4 65 4c284 0 485 -204 485 -465c0 -275 -226 -477 -527 -477c-299 0 -525 200 -525 472c0 129 48 243 133 372l388 581h326zM587 680c-139 0 -244 -95 -244 -230c0 -136 105 -230 244 -230c141 0 246 94 246 230c0 135 -105 230 -246 230z" />
    <glyph glyph-name="seven.lf" unicode="&#xe011;" horiz-adv-x="1100" 
d="M1049 1189l-580 -1189h-318l576 1148h-665v252h987v-211z" />
    <glyph glyph-name="eight.lf" unicode="&#xe002;" horiz-adv-x="1269" 
d="M635 1425c283 0 513 -150 513 -402c0 -161 -93 -261 -214 -317c138 -53 248 -154 248 -325c0 -255 -246 -406 -547 -406s-547 151 -547 406c0 171 108 272 247 325c-120 56 -213 156 -213 317c0 252 230 402 513 402zM635 596c-140 0 -256 -67 -256 -192
c0 -123 116 -188 256 -188c139 0 256 65 256 188c0 125 -117 192 -256 192zM635 1181c-125 0 -226 -63 -226 -179c0 -120 101 -184 226 -184s226 64 226 184c0 116 -101 179 -226 179z" />
    <glyph glyph-name="nine.lf" unicode="&#xe00b;" horiz-adv-x="1180" 
d="M614 487c-19 -3 -39 -4 -63 -4c-284 0 -485 204 -485 465c0 274 226 477 526 477s526 -200 526 -472c0 -129 -48 -244 -133 -372l-388 -581h-326zM592 720c140 0 245 95 245 230c0 136 -105 230 -245 230c-141 0 -245 -94 -245 -230c0 -135 104 -230 245 -230z" />
    <glyph glyph-name="colon" unicode=":" horiz-adv-x="554" 
d="M278 995c104 0 193 -89 193 -193c0 -105 -89 -195 -193 -195s-195 90 -195 195c0 104 91 193 195 193zM278 363c104 0 193 -89 193 -193c0 -105 -89 -195 -193 -195s-195 90 -195 195c0 104 91 193 195 193z" />
    <glyph glyph-name="semicolon" unicode=";" horiz-adv-x="534" 
d="M284 995c104 0 193 -89 193 -193c0 -105 -89 -195 -193 -195s-195 90 -195 195c0 104 91 193 195 193zM444 316l-140 -596h-220l67 596h293z" />
    <glyph glyph-name="less" unicode="&#x3c;" 
d="M1010 30l-819 381v243l819 381v-260l-571 -242l571 -243v-260z" />
    <glyph glyph-name="equal" unicode="=" 
d="M1060 209h-920v223h920v-223zM1060 633h-920v223h920v-223z" />
    <glyph glyph-name="greater" unicode="&#x3e;" 
d="M191 1035l819 -381v-243l-819 -381v260l571 242l-571 243v260z" />
    <glyph glyph-name="question" unicode="?" horiz-adv-x="891" 
d="M172 478v340h96c195 0 297 61 297 178c0 108 -102 166 -294 166c-55 0 -109 -4 -152 -8l-19 263c56 8 134 13 202 13c349 0 551 -161 551 -414c0 -232 -152 -379 -432 -423l-8 -115h-241zM293 356c100 0 189 -87 189 -189c0 -103 -89 -192 -189 -192
c-102 0 -191 89 -191 191c0 104 89 190 191 190z" />
    <glyph glyph-name="at" unicode="@" horiz-adv-x="1934" 
d="M1344 447c0 -113 23 -164 91 -164c85 0 147 74 147 260c0 335 -256 579 -613 579s-613 -254 -613 -622c0 -372 253 -625 606 -625c141 0 267 34 380 114l119 -161c-149 -108 -320 -154 -499 -154c-488 0 -833 351 -833 826c0 472 348 822 840 822s837 -342 837 -778
c0 -265 -144 -457 -382 -457c-137 0 -218 59 -258 133c-51 -69 -129 -119 -246 -119c-220 0 -368 172 -368 399s152 399 360 399c103 0 173 -40 222 -100v79h210v-431zM955 698c-111 0 -182 -87 -182 -198s71 -198 182 -198c108 0 183 84 183 198s-75 198 -183 198z" />
    <glyph glyph-name="A" unicode="A" horiz-adv-x="1472" 
d="M1451 0h-298l-122 326h-597l-122 -326h-291l545 1400h340zM530 583h405l-202 541z" />
    <glyph glyph-name="B" unicode="B" horiz-adv-x="1384" 
d="M731 1400c326 0 531 -121 531 -388c0 -141 -87 -255 -203 -297c128 -43 233 -163 233 -314c0 -268 -191 -401 -527 -401h-606v1400h572zM438 582v-336l313 -1c155 0 251 36 251 170c0 132 -96 167 -251 167h-313zM438 1154v-327h286c139 0 247 29 247 165
c0 131 -110 162 -248 162h-285z" />
    <glyph glyph-name="C" unicode="C" horiz-adv-x="1510" 
d="M827 1426c259 0 485 -119 600 -314l-240 -147c-80 121 -205 193 -362 193c-253 0 -442 -186 -442 -458c0 -281 195 -458 442 -458c156 0 281 69 365 192l228 -164c-126 -182 -334 -296 -591 -296c-432 0 -735 305 -735 726s303 726 735 726z" />
    <glyph glyph-name="D" unicode="D" horiz-adv-x="1555" 
d="M736 1400c437 0 727 -278 727 -700s-290 -700 -727 -700h-577v1400h577zM438 1139v-878h295c295 0 438 186 438 439c0 257 -143 439 -438 439h-295z" />
    <glyph glyph-name="E" unicode="E" horiz-adv-x="1332" 
d="M1205 0h-1046v1400h1038v-256h-759v-310h724v-256h-724v-322h767v-256z" />
    <glyph glyph-name="F" unicode="F" horiz-adv-x="1282" 
d="M1140 567h-702v-567h-279v1400h1028v-257h-749v-319h702v-257z" />
    <glyph glyph-name="G" unicode="G" horiz-adv-x="1600" 
d="M831 1426c224 0 406 -79 531 -215l-201 -197c-80 92 -194 147 -338 147c-256 0 -442 -188 -442 -461c0 -285 194 -465 437 -465c229 0 361 109 398 309h-356v233h644c3 -27 4 -52 4 -79c0 -424 -287 -723 -684 -723c-388 0 -732 273 -732 725c0 423 309 726 739 726z" />
    <glyph glyph-name="H" unicode="H" horiz-adv-x="1550" 
d="M438 836h674v564h279v-1400h-279v576h-674v-576h-279v1400h279v-564z" />
    <glyph glyph-name="I" unicode="I" horiz-adv-x="597" 
d="M438 0h-279v1400h279v-1400z" />
    <glyph glyph-name="J" unicode="J" horiz-adv-x="1129" 
d="M978 510c0 -352 -210 -535 -502 -535c-231 0 -372 101 -447 194l162 203c56 -69 144 -130 272 -130c148 0 236 91 236 294v864h279v-890z" />
    <glyph glyph-name="K" unicode="K" horiz-adv-x="1424" 
d="M567 576h-129v-576h-279v1400h279v-567h132l463 567h350l-587 -683l631 -717h-362z" />
    <glyph glyph-name="L" unicode="L" horiz-adv-x="1210" 
d="M1178 0h-1019v1400h279v-1139h740v-261z" />
    <glyph glyph-name="M" unicode="M" horiz-adv-x="1863" 
d="M1704 0h-279v1057l-346 -922h-295l-346 914v-1049h-279v1400h409l364 -945l363 945h409v-1400z" />
    <glyph glyph-name="N" unicode="N" horiz-adv-x="1570" 
d="M1411 0h-262l-710 935l-1 -935h-279v1400h261l711 -935v935h280v-1400z" />
    <glyph glyph-name="O" unicode="O" horiz-adv-x="1655" 
d="M827 1426c431 0 736 -307 736 -726s-305 -726 -736 -726c-432 0 -735 307 -735 726s303 726 735 726zM827 1158c-257 0 -444 -186 -444 -458s187 -458 444 -458c259 0 444 186 444 458s-185 458 -444 458z" />
    <glyph glyph-name="P" unicode="P" horiz-adv-x="1321" 
d="M438 512v-512h-279v1400h571c334 0 512 -174 512 -445c0 -269 -178 -443 -510 -443h-294zM438 1143v-376h287c153 0 231 61 231 188c0 125 -78 188 -231 188h-287z" />
    <glyph glyph-name="Q" unicode="Q" horiz-adv-x="1665" 
d="M827 1426c431 0 736 -307 736 -726c0 -171 -52 -315 -141 -434l197 -266h-328l-65 86c-113 -72 -246 -112 -399 -112c-432 0 -735 307 -735 726s303 726 735 726zM827 1158c-257 0 -444 -186 -444 -458s187 -458 444 -458c89 0 168 22 236 62l-255 340h334l96 -130
c21 56 33 118 33 186c0 272 -185 458 -444 458z" />
    <glyph glyph-name="R" unicode="R" horiz-adv-x="1360" 
d="M751 1400c334 0 513 -158 513 -426c0 -230 -160 -386 -429 -413l431 -561h-338l-408 557h-82v-557h-279v1400h592zM438 1143v-343h308c153 0 231 55 231 174c0 117 -82 169 -231 169h-308z" />
    <glyph glyph-name="S" unicode="S" horiz-adv-x="1353" 
d="M1109 1047c-111 68 -244 119 -397 119c-156 0 -268 -62 -268 -168c0 -102 121 -135 289 -162l79 -13c251 -40 446 -149 446 -392c0 -308 -272 -456 -573 -456c-213 0 -440 62 -590 183l145 225c102 -80 265 -151 446 -151c156 0 275 61 275 169c0 97 -102 132 -297 164
l-89 14c-247 40 -427 147 -427 401c0 292 260 444 558 444c197 0 358 -44 535 -149z" />
    <glyph glyph-name="T" unicode="T" horiz-adv-x="1211" 
d="M1179 1139h-434v-1139h-279v1139h-434v261h1147v-261z" />
    <glyph glyph-name="U" unicode="U" horiz-adv-x="1492" 
d="M1349 559c0 -387 -247 -584 -603 -584s-603 197 -603 584v841h280v-827c0 -229 131 -331 323 -331s323 102 323 331v827h280v-841z" />
    <glyph glyph-name="V" unicode="V" horiz-adv-x="1433" 
d="M886 0h-339l-526 1400h297l401 -1117l403 1117h290z" />
    <glyph glyph-name="W" unicode="W" horiz-adv-x="2180" 
d="M1728 0h-338l-300 1000l-300 -1000h-338l-418 1400h290l301 -1074l313 1074h309l313 -1074l301 1074h285z" />
    <glyph glyph-name="X" unicode="X" horiz-adv-x="1356" 
d="M846 711l479 -711h-327l-322 499l-323 -499h-322l478 711l-465 689h328l308 -480l310 480h322z" />
    <glyph glyph-name="Y" unicode="Y" horiz-adv-x="1362" 
d="M824 552v-552h-279v553l-539 847h328l352 -594l352 594h318z" />
    <glyph glyph-name="Z" unicode="Z" horiz-adv-x="1288" 
d="M1193 1182l-727 -925h727v-257h-1098v218l727 925h-725v257h1096v-218z" />
    <glyph glyph-name="bracketleft" unicode="[" horiz-adv-x="766" 
d="M702 -263h-543v1663h543v-236h-278v-1191h278v-236z" />
    <glyph glyph-name="backslash" unicode="\" horiz-adv-x="1036" 
d="M-49 1540h276l849 -1740h-276z" />
    <glyph glyph-name="bracketright" unicode="]" horiz-adv-x="766" 
d="M64 1400h543v-1663h-543v236h278v1191h-278v236z" />
    <glyph glyph-name="underscore" unicode="_" horiz-adv-x="940" 
d="M945 -315h-950v212h950v-212z" />
    <glyph glyph-name="a" unicode="a" horiz-adv-x="1228" 
d="M1091 0h-255v107c-64 -79 -157 -132 -290 -132c-268 0 -469 219 -469 510s201 510 469 510c133 0 226 -53 290 -133v107h255v-969zM594 752c-153 0 -250 -119 -250 -267s97 -267 250 -267c149 0 250 114 250 267s-101 267 -250 267z" />
    <glyph glyph-name="b" unicode="b" horiz-adv-x="1227" 
d="M681 995c267 0 470 -219 470 -510s-201 -510 -469 -510c-135 0 -226 53 -290 132v-107h-255v1440h260v-572c64 76 153 127 284 127zM633 752c-148 0 -249 -114 -249 -267s101 -267 249 -267c154 0 250 119 250 267s-96 267 -250 267z" />
    <glyph glyph-name="c" unicode="c" horiz-adv-x="1033" 
d="M593 995c163 0 299 -66 388 -183l-188 -157c-60 64 -122 97 -207 97c-135 0 -243 -106 -243 -267c0 -162 107 -267 242 -267c84 0 155 38 211 98l186 -159c-92 -117 -226 -182 -389 -182c-309 0 -516 217 -516 510s207 510 516 510z" />
    <glyph glyph-name="d" unicode="d" horiz-adv-x="1228" 
d="M546 995c131 0 221 -51 285 -127v572h260v-1440h-255v107c-64 -79 -157 -132 -290 -132c-268 0 -469 219 -469 510s201 510 469 510zM594 752c-153 0 -250 -119 -250 -267s97 -267 250 -267c149 0 250 114 250 267s-101 267 -250 267z" />
    <glyph glyph-name="e" unicode="e" horiz-adv-x="1114" 
d="M567 995c279 0 471 -207 471 -509c0 -31 -2 -65 -5 -88h-687c26 -140 126 -201 249 -201c84 0 174 33 245 93l153 -168c-111 -101 -249 -147 -413 -147c-296 0 -503 203 -503 507s200 513 490 513zM565 770c-124 0 -195 -73 -218 -194h429c-24 125 -98 194 -211 194z" />
    <glyph glyph-name="f" unicode="f" horiz-adv-x="849" 
d="M784 737h-301v-737h-261v737h-181v232h181v120c0 227 121 376 347 376c132 0 223 -38 298 -87l-104 -203c-48 27 -105 47 -166 47c-76 0 -114 -45 -114 -136v-117h301v-232z" />
    <glyph glyph-name="g" unicode="g" horiz-adv-x="1216" 
d="M523 995c136 0 233 -51 300 -134v108h256v-889c0 -312 -203 -499 -523 -499c-153 0 -314 40 -424 117l93 213c97 -64 203 -99 320 -99c162 0 276 89 276 257v68c-67 -81 -163 -131 -298 -131c-236 0 -446 197 -446 494c0 298 210 495 446 495zM589 755
c-149 0 -244 -114 -244 -255c0 -140 95 -254 244 -254c145 0 243 110 243 254c0 145 -98 255 -243 255z" />
    <glyph glyph-name="h" unicode="h" horiz-adv-x="1182" 
d="M398 865c69 96 171 130 278 130c220 0 377 -153 377 -378v-617h-261v533c0 141 -69 217 -189 217c-112 0 -205 -72 -205 -219v-531h-261v1441h261v-576z" />
    <glyph glyph-name="i" unicode="i" horiz-adv-x="535" 
d="M398 0h-261v969h261v-969zM266 1454c93 0 167 -74 167 -168s-74 -166 -167 -166c-94 0 -166 72 -166 166s72 168 166 168z" />
    <glyph glyph-name="j" unicode="j" horiz-adv-x="539" 
d="M402 -92c0 -212 -122 -329 -301 -329c-48 0 -109 10 -147 26l39 229c22 -8 45 -12 70 -12c44 0 78 26 78 101v1046h261v-1061zM269 1454c93 0 167 -74 167 -168s-74 -166 -167 -166c-94 0 -166 72 -166 166s72 168 166 168z" />
    <glyph glyph-name="k" unicode="k" horiz-adv-x="1095" 
d="M398 624h92l273 345h320l-382 -456l385 -513h-321l-279 392h-88v-392h-261v1440h261v-816z" />
    <glyph glyph-name="l" unicode="l" horiz-adv-x="535" 
d="M398 0h-261v1440h261v-1440z" />
    <glyph glyph-name="m" unicode="m" horiz-adv-x="1836" 
d="M1325 995c228 0 382 -153 382 -378v-617h-260v533c0 141 -70 217 -189 217c-112 0 -205 -72 -205 -219v-531h-261v533c0 141 -69 217 -189 217c-112 0 -205 -72 -205 -219v-531h-261v969h254v-114c69 103 174 140 285 140c141 0 255 -62 320 -166c75 124 202 166 329 166
z" />
    <glyph glyph-name="n" unicode="n" horiz-adv-x="1182" 
d="M676 995c220 0 377 -153 377 -378v-617h-261v533c0 141 -69 217 -189 217c-112 0 -205 -72 -205 -219v-531h-261v969h254v-114c69 103 174 140 285 140z" />
    <glyph glyph-name="o" unicode="o" horiz-adv-x="1201" 
d="M600 995c302 0 525 -218 525 -510s-223 -510 -525 -510c-301 0 -523 218 -523 510s222 510 523 510zM600 752c-147 0 -257 -110 -257 -267s110 -267 257 -267c148 0 258 110 258 267s-110 267 -258 267z" />
    <glyph glyph-name="p" unicode="p" horiz-adv-x="1227" 
d="M681 995c267 0 470 -219 470 -510s-201 -510 -469 -510c-131 0 -221 50 -285 126v-501h-260v1369h255v-107c64 80 156 133 289 133zM633 752c-148 0 -249 -114 -249 -267s101 -267 249 -267c154 0 250 119 250 267s-96 267 -250 267z" />
    <glyph glyph-name="q" unicode="q" horiz-adv-x="1228" 
d="M546 995c133 0 226 -53 290 -133v107h255v-1369h-260v501c-64 -76 -154 -126 -285 -126c-268 0 -469 219 -469 510s201 510 469 510zM594 752c-153 0 -250 -119 -250 -267s97 -267 250 -267c149 0 250 114 250 267s-101 267 -250 267z" />
    <glyph glyph-name="r" unicode="r" horiz-adv-x="840" 
d="M663 995c56 0 100 -8 136 -21l-39 -259c-43 19 -105 31 -158 31c-120 0 -204 -74 -204 -218v-528h-261v969h253v-106c61 92 153 132 273 132z" />
    <glyph glyph-name="s" unicode="s" horiz-adv-x="1014" 
d="M832 699c-77 37 -200 79 -309 79c-100 0 -149 -35 -149 -88c0 -57 70 -70 158 -83l86 -13c211 -32 327 -125 327 -290c0 -200 -164 -329 -445 -329c-132 0 -305 26 -431 114l103 198c82 -55 185 -95 330 -95c121 0 179 34 179 91c0 47 -48 73 -161 89l-79 11
c-223 31 -335 129 -335 294c0 199 154 317 409 317c154 0 278 -28 405 -92z" />
    <glyph glyph-name="t" unicode="t" horiz-adv-x="933" 
d="M840 737h-351v-354c0 -120 65 -165 145 -165c63 0 129 31 182 63l96 -204c-85 -59 -184 -102 -321 -102c-241 0 -363 135 -363 387v375h-187v232h187v288h261v-288h351v-232z" />
    <glyph glyph-name="u" unicode="u" horiz-adv-x="1175" 
d="M1046 413c0 -306 -215 -438 -458 -438s-459 132 -459 438v556h261v-533c0 -155 85 -218 198 -218c112 0 198 63 198 218v533h260v-556z" />
    <glyph glyph-name="v" unicode="v" horiz-adv-x="1099" 
d="M702 0h-301l-383 969h284l251 -694l253 694h275z" />
    <glyph glyph-name="w" unicode="w" horiz-adv-x="1732" 
d="M1224 289l208 680h273l-328 -969h-298l-215 655l-213 -655h-296l-328 969h278l207 -677l217 677h275z" />
    <glyph glyph-name="x" unicode="x" horiz-adv-x="1098" 
d="M718 493l353 -493h-310l-218 308l-214 -308h-302l356 492l-347 477h310l209 -301l208 301h302z" />
    <glyph glyph-name="y" unicode="y" horiz-adv-x="1128" 
d="M378 -404h-286l339 610l-418 763h296l266 -498l258 498h286z" />
    <glyph glyph-name="z" unicode="z" horiz-adv-x="1040" 
d="M933 778l-478 -545h489v-233h-848v188l489 549h-472v232h820v-191z" />
    <glyph glyph-name="braceleft" unicode="{" horiz-adv-x="881" 
d="M752 1168c-115 0 -187 -66 -182 -183l4 -94c7 -155 -51 -267 -210 -322c158 -55 218 -169 210 -322l-4 -94c-5 -118 67 -183 182 -183h65v-232h-86c-288 0 -438 168 -425 432l4 98c5 120 -76 186 -215 186v229c139 0 220 66 215 187l-4 98c-13 264 137 432 425 432h86
v-232h-65z" />
    <glyph glyph-name="bar" unicode="|" horiz-adv-x="707" 
d="M484 -265h-261v1665h261v-1665z" />
    <glyph glyph-name="braceright" unicode="}" horiz-adv-x="881" 
d="M129 -30c115 0 187 65 182 183l-4 94c-8 154 52 267 210 322c-158 55 -218 169 -210 322l4 94c5 117 -67 183 -182 183h-65v232h86c290 0 436 -168 425 -432l-4 -98c-5 -120 76 -186 215 -186v-229c-139 0 -220 -66 -215 -187l4 -98c11 -264 -135 -432 -425 -432h-86v232
h65z" />
    <glyph glyph-name="uni00A0" unicode="&#xa0;" horiz-adv-x="495" 
 />
    <glyph glyph-name="exclamdown" unicode="&#xa1;" horiz-adv-x="555" 
d="M158 489h240l36 -919h-312zM277 615c-100 0 -189 87 -189 189c0 101 89 191 189 191c101 0 191 -90 191 -191c0 -102 -90 -189 -191 -189z" />
    <glyph glyph-name="sterling" unicode="&#xa3;" horiz-adv-x="1400" 
d="M1223 0h-1064v253h160v338h-160v218h160v64c0 371 240 552 528 552c153 0 291 -48 388 -147l-180 -191c-53 53 -124 80 -208 80c-146 0 -259 -90 -259 -306v-52h483v-218h-483v-338h635v-253z" />
    <glyph glyph-name="yen" unicode="&#xa5;" horiz-adv-x="1400" 
d="M1206 269h-364v-269h-270v269h-365v185h365v135h-365v185h279l-424 626h315l330 -512l324 512h308l-416 -626h283v-185h-364v-135h364v-185z" />
    <glyph glyph-name="section" unicode="&#xa7;" horiz-adv-x="1303" 
d="M1044 1086c-95 55 -215 101 -355 101s-241 -49 -241 -133s112 -114 271 -135l69 -10c232 -35 401 -134 401 -329c0 -119 -56 -203 -141 -262c73 -56 117 -130 117 -233c0 -278 -251 -404 -522 -404c-191 0 -396 51 -529 152l131 211c94 -65 233 -126 401 -126
c138 0 245 45 245 136c0 80 -98 108 -269 132l-75 11c-225 32 -395 129 -395 340c0 105 52 191 140 251c-75 56 -117 133 -117 244c0 242 217 393 507 393c175 0 317 -35 480 -126zM568 688c-15 3 -28 4 -41 7c-64 -25 -102 -70 -102 -130c0 -89 111 -111 271 -135l68 -10
c19 -3 35 -6 54 -10c60 25 97 69 97 133c0 84 -98 111 -269 135z" />
    <glyph glyph-name="copyright" unicode="&#xa9;" horiz-adv-x="1865" 
d="M933 1519c455 0 822 -363 822 -808s-367 -810 -822 -810s-823 364 -823 810c0 445 368 808 823 808zM933 1298c-328 0 -593 -262 -593 -587c0 -326 265 -589 593 -589c327 0 592 263 592 589c0 325 -265 587 -592 587zM1121 821c-39 67 -99 102 -176 102
c-110 0 -192 -88 -192 -212c0 -144 93 -212 193 -212c76 0 136 35 180 102l176 -125c-76 -113 -195 -183 -354 -183c-246 0 -421 174 -421 418s175 418 421 418c156 0 293 -74 362 -202z" />
    <glyph glyph-name="guillemotleft" unicode="&#xab;" horiz-adv-x="1087" 
d="M993 142h-263l-193 390l193 390h263l-193 -390zM544 142h-263l-193 390l193 390h263l-193 -390z" />
    <glyph glyph-name="uni00AD" unicode="&#xad;" horiz-adv-x="813" 
d="M702 418h-591v228h591v-228z" />
    <glyph glyph-name="registered" unicode="&#xae;" horiz-adv-x="1008" 
d="M505 1443c259 0 466 -204 466 -454c0 -249 -207 -454 -466 -454c-264 0 -468 205 -468 454c0 250 204 454 468 454zM505 668c176 0 319 145 319 321s-143 321 -319 321c-180 0 -322 -145 -322 -321s142 -321 322 -321zM529 1192c113 0 171 -54 171 -137
c0 -64 -42 -110 -119 -125l124 -144h-138l-111 140h-10v-140h-117v406h200zM446 1091v-71h81c33 0 54 10 54 35c0 24 -21 36 -54 36h-81z" />
    <glyph glyph-name="degree" unicode="&#xb0;" horiz-adv-x="858" 
d="M429 652c-217 0 -392 172 -392 385c0 215 175 388 392 388c216 0 392 -173 392 -388c0 -213 -176 -385 -392 -385zM429 856c95 0 177 80 177 181c0 100 -82 180 -177 180c-97 0 -178 -80 -178 -180c0 -101 81 -181 178 -181z" />
    <glyph glyph-name="periodcentered" unicode="&#xb7;" horiz-adv-x="670" 
d="M336 726c104 0 193 -89 193 -193c0 -105 -89 -195 -193 -195s-195 90 -195 195c0 104 91 193 195 193z" />
    <glyph glyph-name="guillemotright" unicode="&#xbb;" horiz-adv-x="1087" 
d="M94 923h263l193 -390l-193 -390h-263l193 390zM543 923h263l193 -390l-193 -390h-263l193 390z" />
    <glyph glyph-name="questiondown" unicode="&#xbf;" horiz-adv-x="891" 
d="M719 492v-340h-96c-195 0 -297 -61 -297 -178c0 -108 102 -166 294 -166c55 0 109 4 152 8l19 -263c-56 -8 -134 -13 -202 -13c-349 0 -551 161 -551 414c0 232 151 378 432 423l8 115h241zM598 614c-100 0 -189 87 -189 189c0 103 89 192 189 192
c101 0 191 -90 191 -191c0 -104 -90 -190 -191 -190z" />
    <glyph glyph-name="Agrave" unicode="&#xc0;" horiz-adv-x="1472" 
d="M1451 0h-298l-122 326h-597l-122 -326h-291l545 1400h340zM530 583h405l-202 541zM392 1833h312l201 -315h-249z" />
    <glyph glyph-name="Aacute" unicode="&#xc1;" horiz-adv-x="1472" 
d="M1451 0h-298l-122 326h-597l-122 -326h-291l545 1400h340zM530 583h405l-202 541zM553 1518l201 315h312l-264 -315h-249z" />
    <glyph glyph-name="Acircumflex" unicode="&#xc2;" horiz-adv-x="1472" 
d="M1451 0h-298l-122 326h-597l-122 -326h-291l545 1400h340zM530 583h405l-202 541zM859 1508l-123 153l-122 -153h-253l218 315h315l218 -315h-253z" />
    <glyph glyph-name="Atilde" unicode="&#xc3;" horiz-adv-x="1472" 
d="M1451 0h-298l-122 326h-597l-122 -326h-291l545 1400h340zM530 583h405l-202 541zM344 1680c72 93 155 131 262 131c140 0 200 -70 260 -70c40 0 77 23 124 67l139 -149c-73 -95 -156 -132 -263 -132c-138 0 -196 70 -260 70c-39 0 -77 -23 -124 -66z" />
    <glyph glyph-name="Adieresis" unicode="&#xc4;" horiz-adv-x="1472" 
d="M1451 0h-298l-122 326h-597l-122 -326h-291l545 1400h340zM530 583h405l-202 541zM520 1834c94 0 168 -74 168 -168s-74 -166 -168 -166s-166 72 -166 166s72 168 166 168zM951 1834c94 0 168 -74 168 -168s-74 -166 -168 -166s-166 72 -166 166s72 168 166 168z" />
    <glyph glyph-name="Aring" unicode="&#xc5;" horiz-adv-x="1472" 
d="M1451 0h-298l-122 326h-597l-122 -326h-291l545 1400h340zM530 583h405l-202 541zM735 1486c-144 0 -261 114 -261 258c0 140 117 257 261 257c145 0 263 -117 263 -257c0 -144 -118 -258 -263 -258zM735 1635c59 0 107 48 107 109c0 60 -48 108 -107 108
c-56 0 -105 -48 -105 -108c0 -61 49 -109 105 -109z" />
    <glyph glyph-name="AE" unicode="&#xc6;" horiz-adv-x="2303" 
d="M2176 0h-1046v294h-571l-209 -294h-333l1013 1400h1138v-256h-759v-310h724v-256h-724v-322h767v-256zM1130 551v543l-388 -543h388z" />
    <glyph glyph-name="Ccedilla" unicode="&#xc7;" horiz-adv-x="1510" 
d="M855 -321h-267l112 328h258zM827 1426c259 0 485 -119 600 -314l-240 -147c-80 121 -205 193 -362 193c-253 0 -442 -186 -442 -458c0 -281 195 -458 442 -458c156 0 281 69 365 192l228 -164c-126 -182 -334 -296 -591 -296c-432 0 -735 305 -735 726s303 726 735 726z
" />
    <glyph glyph-name="Egrave" unicode="&#xc8;" horiz-adv-x="1332" 
d="M1205 0h-1046v1400h1038v-256h-759v-310h724v-256h-724v-322h767v-256zM332 1833h312l201 -315h-249z" />
    <glyph glyph-name="Eacute" unicode="&#xc9;" horiz-adv-x="1332" 
d="M1205 0h-1046v1400h1038v-256h-759v-310h724v-256h-724v-322h767v-256zM493 1518l201 315h312l-264 -315h-249z" />
    <glyph glyph-name="Ecircumflex" unicode="&#xca;" horiz-adv-x="1332" 
d="M1205 0h-1046v1400h1038v-256h-759v-310h724v-256h-724v-322h767v-256zM799 1508l-123 153l-122 -153h-253l218 315h315l218 -315h-253z" />
    <glyph glyph-name="Edieresis" unicode="&#xcb;" horiz-adv-x="1332" 
d="M1205 0h-1046v1400h1038v-256h-759v-310h724v-256h-724v-322h767v-256zM460 1834c94 0 168 -74 168 -168s-74 -166 -168 -166s-166 72 -166 166s72 168 166 168zM891 1834c94 0 168 -74 168 -168s-74 -166 -168 -166s-166 72 -166 166s72 168 166 168z" />
    <glyph glyph-name="Igrave" unicode="&#xcc;" horiz-adv-x="597" 
d="M438 0h-279v1400h279v-1400zM-45 1833h312l201 -315h-249z" />
    <glyph glyph-name="Iacute" unicode="&#xcd;" horiz-adv-x="597" 
d="M438 0h-279v1400h279v-1400zM116 1518l201 315h312l-264 -315h-249z" />
    <glyph glyph-name="Icircumflex" unicode="&#xce;" horiz-adv-x="597" 
d="M438 0h-279v1400h279v-1400zM422 1508l-123 153l-122 -153h-253l218 315h315l218 -315h-253z" />
    <glyph glyph-name="Idieresis" unicode="&#xcf;" horiz-adv-x="597" 
d="M438 0h-279v1400h279v-1400zM83 1834c94 0 168 -74 168 -168s-74 -166 -168 -166s-166 72 -166 166s72 168 166 168zM514 1834c94 0 168 -74 168 -168s-74 -166 -168 -166s-166 72 -166 166s72 168 166 168z" />
    <glyph glyph-name="Eth" unicode="&#xd0;" horiz-adv-x="1661" 
d="M842 1400c437 0 727 -278 727 -700s-290 -700 -727 -700h-577v581h-170v250h170v569h577zM892 581h-348v-320h295c295 0 438 186 438 439c0 257 -143 439 -438 439h-295v-308h348v-250z" />
    <glyph glyph-name="Ntilde" unicode="&#xd1;" horiz-adv-x="1570" 
d="M1411 0h-262l-710 935l-1 -935h-279v1400h261l711 -935v935h280v-1400zM398 1680c72 93 155 131 262 131c140 0 200 -70 260 -70c40 0 77 23 124 67l139 -149c-73 -95 -156 -132 -263 -132c-138 0 -196 70 -260 70c-39 0 -77 -23 -124 -66z" />
    <glyph glyph-name="Ograve" unicode="&#xd2;" horiz-adv-x="1655" 
d="M827 1426c431 0 736 -307 736 -726s-305 -726 -736 -726c-432 0 -735 307 -735 726s303 726 735 726zM827 1158c-257 0 -444 -186 -444 -458s187 -458 444 -458c259 0 444 186 444 458s-185 458 -444 458zM483 1833h312l201 -315h-249z" />
    <glyph glyph-name="Oacute" unicode="&#xd3;" horiz-adv-x="1655" 
d="M827 1426c431 0 736 -307 736 -726s-305 -726 -736 -726c-432 0 -735 307 -735 726s303 726 735 726zM827 1158c-257 0 -444 -186 -444 -458s187 -458 444 -458c259 0 444 186 444 458s-185 458 -444 458zM644 1518l201 315h312l-264 -315h-249z" />
    <glyph glyph-name="Ocircumflex" unicode="&#xd4;" horiz-adv-x="1655" 
d="M827 1426c431 0 736 -307 736 -726s-305 -726 -736 -726c-432 0 -735 307 -735 726s303 726 735 726zM827 1158c-257 0 -444 -186 -444 -458s187 -458 444 -458c259 0 444 186 444 458s-185 458 -444 458zM950 1508l-123 153l-122 -153h-253l218 315h315l218 -315h-253z
" />
    <glyph glyph-name="Otilde" unicode="&#xd5;" horiz-adv-x="1655" 
d="M827 1426c431 0 736 -307 736 -726s-305 -726 -736 -726c-432 0 -735 307 -735 726s303 726 735 726zM827 1158c-257 0 -444 -186 -444 -458s187 -458 444 -458c259 0 444 186 444 458s-185 458 -444 458zM435 1680c72 93 155 131 262 131c140 0 200 -70 260 -70
c40 0 77 23 124 67l139 -149c-73 -95 -156 -132 -263 -132c-138 0 -196 70 -260 70c-39 0 -77 -23 -124 -66z" />
    <glyph glyph-name="Odieresis" unicode="&#xd6;" horiz-adv-x="1655" 
d="M827 1426c431 0 736 -307 736 -726s-305 -726 -736 -726c-432 0 -735 307 -735 726s303 726 735 726zM827 1158c-257 0 -444 -186 -444 -458s187 -458 444 -458c259 0 444 186 444 458s-185 458 -444 458zM611 1834c94 0 168 -74 168 -168s-74 -166 -168 -166
s-166 72 -166 166s72 168 166 168zM1042 1834c94 0 168 -74 168 -168s-74 -166 -168 -166s-166 72 -166 166s72 168 166 168z" />
    <glyph glyph-name="multiply" unicode="&#xd7;" 
d="M162 253l277 277l-279 279l163 163l279 -279l277 277l159 -159l-277 -277l279 -279l-163 -163l-279 279l-277 -277z" />
    <glyph glyph-name="Oslash" unicode="&#xd8;" horiz-adv-x="1655" 
d="M827 1426c168 0 314 -47 434 -128l127 127l168 -168l-125 -125c84 -120 132 -265 132 -432c0 -419 -305 -726 -736 -726c-167 0 -311 45 -430 125l-124 -124l-168 167l121 121c-87 121 -134 268 -134 437c0 419 303 726 735 726zM827 1158c-257 0 -444 -186 -444 -458
c0 -86 17 -162 52 -228l625 625c-67 39 -145 61 -233 61zM1271 700c0 84 -18 158 -49 223l-624 -623c66 -39 142 -58 229 -58c259 0 444 186 444 458z" />
    <glyph glyph-name="Ugrave" unicode="&#xd9;" horiz-adv-x="1492" 
d="M1349 559c0 -387 -247 -584 -603 -584s-603 197 -603 584v841h280v-827c0 -229 131 -331 323 -331s323 102 323 331v827h280v-841zM402 1833h312l201 -315h-249z" />
    <glyph glyph-name="Uacute" unicode="&#xda;" horiz-adv-x="1492" 
d="M1349 559c0 -387 -247 -584 -603 -584s-603 197 -603 584v841h280v-827c0 -229 131 -331 323 -331s323 102 323 331v827h280v-841zM563 1518l201 315h312l-264 -315h-249z" />
    <glyph glyph-name="Ucircumflex" unicode="&#xdb;" horiz-adv-x="1492" 
d="M1349 559c0 -387 -247 -584 -603 -584s-603 197 -603 584v841h280v-827c0 -229 131 -331 323 -331s323 102 323 331v827h280v-841zM869 1508l-123 153l-122 -153h-253l218 315h315l218 -315h-253z" />
    <glyph glyph-name="Udieresis" unicode="&#xdc;" horiz-adv-x="1492" 
d="M1349 559c0 -387 -247 -584 -603 -584s-603 197 -603 584v841h280v-827c0 -229 131 -331 323 -331s323 102 323 331v827h280v-841zM530 1834c94 0 168 -74 168 -168s-74 -166 -168 -166s-166 72 -166 166s72 168 166 168zM961 1834c94 0 168 -74 168 -168
s-74 -166 -168 -166s-166 72 -166 166s72 168 166 168z" />
    <glyph glyph-name="Yacute" unicode="&#xdd;" horiz-adv-x="1362" 
d="M824 552v-552h-279v553l-539 847h328l352 -594l352 594h318zM502 1518l201 315h312l-264 -315h-249z" />
    <glyph glyph-name="Thorn" unicode="&#xde;" horiz-adv-x="1321" 
d="M438 1160h292c334 0 512 -175 512 -446c0 -269 -178 -442 -510 -442h-294v-272h-279v1400h279v-240zM438 902v-375h287c153 0 231 62 231 187c0 127 -78 188 -231 188h-287z" />
    <glyph glyph-name="germandbls" unicode="&#xdf;" horiz-adv-x="1233" 
d="M130 1005c0 232 132 460 497 460c294 0 489 -178 489 -407c0 -164 -90 -290 -212 -332c140 -38 253 -173 253 -330c0 -259 -188 -421 -455 -421c-88 0 -151 7 -208 26l36 225c42 -15 86 -23 132 -23c144 0 228 70 228 203c0 145 -107 198 -278 198h-37v225h10
c141 0 265 39 265 197c0 132 -101 199 -229 199c-151 0 -231 -96 -231 -232v-993h-260v1005z" />
    <glyph glyph-name="agrave" unicode="&#xe0;" horiz-adv-x="1228" 
d="M1091 0h-255v107c-64 -79 -157 -132 -290 -132c-268 0 -469 219 -469 510s201 510 469 510c133 0 226 -53 290 -133v107h255v-969zM594 752c-153 0 -250 -119 -250 -267s97 -267 250 -267c149 0 250 114 250 267s-101 267 -250 267zM274 1423h312l201 -315h-249z" />
    <glyph glyph-name="aacute" unicode="&#xe1;" horiz-adv-x="1228" 
d="M1091 0h-255v107c-64 -79 -157 -132 -290 -132c-268 0 -469 219 -469 510s201 510 469 510c133 0 226 -53 290 -133v107h255v-969zM594 752c-153 0 -250 -119 -250 -267s97 -267 250 -267c149 0 250 114 250 267s-101 267 -250 267zM443 1108l201 315h312l-264 -315h-249
z" />
    <glyph glyph-name="acircumflex" unicode="&#xe2;" horiz-adv-x="1228" 
d="M1091 0h-255v107c-64 -79 -157 -132 -290 -132c-268 0 -469 219 -469 510s201 510 469 510c133 0 226 -53 290 -133v107h255v-969zM594 752c-153 0 -250 -119 -250 -267s97 -267 250 -267c149 0 250 114 250 267s-101 267 -250 267zM740 1098l-123 153l-122 -153h-253
l218 315h315l218 -315h-253z" />
    <glyph glyph-name="atilde" unicode="&#xe3;" horiz-adv-x="1228" 
d="M1091 0h-255v107c-64 -79 -157 -132 -290 -132c-268 0 -469 219 -469 510s201 510 469 510c133 0 226 -53 290 -133v107h255v-969zM594 752c-153 0 -250 -119 -250 -267s97 -267 250 -267c149 0 250 114 250 267s-101 267 -250 267zM223 1270c72 93 155 131 262 131
c140 0 200 -70 260 -70c40 0 77 23 124 67l139 -149c-73 -95 -156 -132 -263 -132c-138 0 -196 70 -260 70c-39 0 -77 -23 -124 -66z" />
    <glyph glyph-name="adieresis" unicode="&#xe4;" horiz-adv-x="1228" 
d="M1091 0h-255v107c-64 -79 -157 -132 -290 -132c-268 0 -469 219 -469 510s201 510 469 510c133 0 226 -53 290 -133v107h255v-969zM594 752c-153 0 -250 -119 -250 -267s97 -267 250 -267c149 0 250 114 250 267s-101 267 -250 267zM399 1424c94 0 168 -74 168 -168
s-74 -166 -168 -166s-166 72 -166 166s72 168 166 168zM830 1424c94 0 168 -74 168 -168s-74 -166 -168 -166s-166 72 -166 166s72 168 166 168z" />
    <glyph glyph-name="aring" unicode="&#xe5;" horiz-adv-x="1228" 
d="M1091 0h-255v107c-64 -79 -157 -132 -290 -132c-268 0 -469 219 -469 510s201 510 469 510c133 0 226 -53 290 -133v107h255v-969zM594 752c-153 0 -250 -119 -250 -267s97 -267 250 -267c149 0 250 114 250 267s-101 267 -250 267zM616 1076c-144 0 -261 114 -261 258
c0 140 117 257 261 257c145 0 263 -117 263 -257c0 -144 -118 -258 -263 -258zM616 1225c59 0 107 48 107 109c0 60 -48 108 -107 108c-56 0 -105 -48 -105 -108c0 -61 49 -109 105 -109z" />
    <glyph glyph-name="ae" unicode="&#xe6;" horiz-adv-x="1747" 
d="M1207 995c277 0 464 -206 464 -509c0 -31 -2 -65 -5 -88h-687c26 -140 126 -201 248 -201c85 0 175 33 246 93l153 -168c-112 -101 -252 -147 -417 -147c-157 0 -286 52 -375 149c-80 -75 -186 -149 -375 -149c-245 0 -382 126 -382 309c0 184 154 294 405 294h229
c-9 121 -80 187 -217 187c-100 0 -200 -43 -267 -89l-95 204c104 72 249 115 397 115c165 0 272 -59 335 -143c80 95 202 143 343 143zM499 185c85 0 175 36 239 107c-11 35 -19 72 -23 110h-195c-126 0 -172 -52 -172 -108c0 -57 47 -109 151 -109zM1198 770
c-121 0 -196 -68 -219 -197h431c-24 128 -99 197 -212 197z" />
    <glyph glyph-name="ccedilla" unicode="&#xe7;" horiz-adv-x="1033" 
d="M593 995c163 0 299 -66 388 -183l-188 -157c-60 64 -122 97 -207 97c-135 0 -243 -106 -243 -267c0 -162 107 -267 242 -267c84 0 155 38 211 98l186 -159c-92 -117 -226 -182 -389 -182c-309 0 -516 217 -516 510s207 510 516 510zM600 -321h-252l111 328h244z" />
    <glyph glyph-name="egrave" unicode="&#xe8;" horiz-adv-x="1114" 
d="M567 995c279 0 471 -207 471 -509c0 -31 -2 -65 -5 -88h-687c26 -140 126 -201 249 -201c84 0 174 33 245 93l153 -168c-111 -101 -249 -147 -413 -147c-296 0 -503 203 -503 507s200 513 490 513zM565 770c-124 0 -195 -73 -218 -194h429c-24 125 -98 194 -211 194z
M221 1423h312l201 -315h-249z" />
    <glyph glyph-name="eacute" unicode="&#xe9;" horiz-adv-x="1114" 
d="M567 995c279 0 471 -207 471 -509c0 -31 -2 -65 -5 -88h-687c26 -140 126 -201 249 -201c84 0 174 33 245 93l153 -168c-111 -101 -249 -147 -413 -147c-296 0 -503 203 -503 507s200 513 490 513zM565 770c-124 0 -195 -73 -218 -194h429c-24 125 -98 194 -211 194z
M390 1108l201 315h312l-264 -315h-249z" />
    <glyph glyph-name="ecircumflex" unicode="&#xea;" horiz-adv-x="1114" 
d="M567 995c279 0 471 -207 471 -509c0 -31 -2 -65 -5 -88h-687c26 -140 126 -201 249 -201c84 0 174 33 245 93l153 -168c-111 -101 -249 -147 -413 -147c-296 0 -503 203 -503 507s200 513 490 513zM565 770c-124 0 -195 -73 -218 -194h429c-24 125 -98 194 -211 194z
M687 1098l-123 153l-122 -153h-253l218 315h315l218 -315h-253z" />
    <glyph glyph-name="edieresis" unicode="&#xeb;" horiz-adv-x="1114" 
d="M567 995c279 0 471 -207 471 -509c0 -31 -2 -65 -5 -88h-687c26 -140 126 -201 249 -201c84 0 174 33 245 93l153 -168c-111 -101 -249 -147 -413 -147c-296 0 -503 203 -503 507s200 513 490 513zM565 770c-124 0 -195 -73 -218 -194h429c-24 125 -98 194 -211 194z
M346 1424c94 0 168 -74 168 -168s-74 -166 -168 -166s-166 72 -166 166s72 168 166 168zM777 1424c94 0 168 -74 168 -168s-74 -166 -168 -166s-166 72 -166 166s72 168 166 168z" />
    <glyph glyph-name="igrave" unicode="&#xec;" horiz-adv-x="535" 
d="M398 0h-261v969h261v-969zM-76 1423h312l201 -315h-249z" />
    <glyph glyph-name="iacute" unicode="&#xed;" horiz-adv-x="535" 
d="M398 0h-261v969h261v-969zM93 1108l201 315h312l-264 -315h-249z" />
    <glyph glyph-name="icircumflex" unicode="&#xee;" horiz-adv-x="535" 
d="M398 0h-261v969h261v-969zM390 1098l-123 153l-122 -153h-253l218 315h315l218 -315h-253z" />
    <glyph glyph-name="idieresis" unicode="&#xef;" horiz-adv-x="535" 
d="M398 0h-261v969h261v-969zM49 1424c94 0 168 -74 168 -168s-74 -166 -168 -166s-166 72 -166 166s72 168 166 168zM480 1424c94 0 168 -74 168 -168s-74 -166 -168 -166s-166 72 -166 166s72 168 166 168z" />
    <glyph glyph-name="eth" unicode="&#xf0;" horiz-adv-x="1194" 
d="M936 1309l-144 -89c231 -210 326 -484 326 -731c0 -293 -218 -514 -521 -514c-298 0 -520 208 -520 484c0 279 204 484 467 484c96 0 180 -31 247 -87c-47 87 -114 165 -210 237l-225 -138l-87 139l158 98c-48 27 -102 53 -159 78l138 185c93 -37 175 -80 246 -127
l196 121zM600 713c-147 0 -257 -102 -257 -253c0 -148 110 -252 257 -252c148 0 258 104 258 252c0 151 -110 253 -258 253z" />
    <glyph glyph-name="ntilde" unicode="&#xf1;" horiz-adv-x="1182" 
d="M676 995c220 0 377 -153 377 -378v-617h-261v533c0 141 -69 217 -189 217c-112 0 -205 -72 -205 -219v-531h-261v969h254v-114c69 103 174 140 285 140zM212 1270c72 93 155 131 262 131c140 0 200 -70 260 -70c40 0 77 23 124 67l139 -149c-73 -95 -156 -132 -263 -132
c-138 0 -196 70 -260 70c-39 0 -77 -23 -124 -66z" />
    <glyph glyph-name="ograve" unicode="&#xf2;" horiz-adv-x="1201" 
d="M600 995c302 0 525 -218 525 -510s-223 -510 -525 -510c-301 0 -523 218 -523 510s222 510 523 510zM600 752c-147 0 -257 -110 -257 -267s110 -267 257 -267c148 0 258 110 258 267s-110 267 -258 267zM257 1423h312l201 -315h-249z" />
    <glyph glyph-name="oacute" unicode="&#xf3;" horiz-adv-x="1201" 
d="M600 995c302 0 525 -218 525 -510s-223 -510 -525 -510c-301 0 -523 218 -523 510s222 510 523 510zM600 752c-147 0 -257 -110 -257 -267s110 -267 257 -267c148 0 258 110 258 267s-110 267 -258 267zM426 1108l201 315h312l-264 -315h-249z" />
    <glyph glyph-name="ocircumflex" unicode="&#xf4;" horiz-adv-x="1201" 
d="M600 995c302 0 525 -218 525 -510s-223 -510 -525 -510c-301 0 -523 218 -523 510s222 510 523 510zM600 752c-147 0 -257 -110 -257 -267s110 -267 257 -267c148 0 258 110 258 267s-110 267 -258 267zM723 1098l-123 153l-122 -153h-253l218 315h315l218 -315h-253z
" />
    <glyph glyph-name="otilde" unicode="&#xf5;" horiz-adv-x="1201" 
d="M600 995c302 0 525 -218 525 -510s-223 -510 -525 -510c-301 0 -523 218 -523 510s222 510 523 510zM600 752c-147 0 -257 -110 -257 -267s110 -267 257 -267c148 0 258 110 258 267s-110 267 -258 267zM206 1270c72 93 155 131 262 131c140 0 200 -70 260 -70
c40 0 77 23 124 67l139 -149c-73 -95 -156 -132 -263 -132c-138 0 -196 70 -260 70c-39 0 -77 -23 -124 -66z" />
    <glyph glyph-name="odieresis" unicode="&#xf6;" horiz-adv-x="1201" 
d="M600 995c302 0 525 -218 525 -510s-223 -510 -525 -510c-301 0 -523 218 -523 510s222 510 523 510zM600 752c-147 0 -257 -110 -257 -267s110 -267 257 -267c148 0 258 110 258 267s-110 267 -258 267zM382 1424c94 0 168 -74 168 -168s-74 -166 -168 -166
s-166 72 -166 166s72 168 166 168zM813 1424c94 0 168 -74 168 -168s-74 -166 -168 -166s-166 72 -166 166s72 168 166 168z" />
    <glyph glyph-name="oslash" unicode="&#xf8;" horiz-adv-x="1201" 
d="M601 995c108 0 204 -28 285 -77l102 101l149 -148l-98 -98c56 -81 86 -179 86 -288c0 -292 -223 -510 -524 -510c-108 0 -203 27 -284 75l-101 -101l-150 148l97 98c-56 81 -86 179 -86 290c0 292 223 510 524 510zM601 758c-150 0 -263 -113 -263 -273
c0 -39 7 -76 19 -108l357 357c-35 15 -72 24 -113 24zM865 485c0 39 -7 74 -19 106l-357 -356c35 -15 72 -23 112 -23c150 0 264 113 264 273z" />
    <glyph glyph-name="ugrave" unicode="&#xf9;" horiz-adv-x="1175" 
d="M1046 413c0 -306 -215 -438 -458 -438s-459 132 -459 438v556h261v-533c0 -155 85 -218 198 -218c112 0 198 63 198 218v533h260v-556zM245 1423h312l201 -315h-249z" />
    <glyph glyph-name="uacute" unicode="&#xfa;" horiz-adv-x="1175" 
d="M1046 413c0 -306 -215 -438 -458 -438s-459 132 -459 438v556h261v-533c0 -155 85 -218 198 -218c112 0 198 63 198 218v533h260v-556zM414 1108l201 315h312l-264 -315h-249z" />
    <glyph glyph-name="ucircumflex" unicode="&#xfb;" horiz-adv-x="1175" 
d="M1046 413c0 -306 -215 -438 -458 -438s-459 132 -459 438v556h261v-533c0 -155 85 -218 198 -218c112 0 198 63 198 218v533h260v-556zM711 1098l-123 153l-122 -153h-253l218 315h315l218 -315h-253z" />
    <glyph glyph-name="udieresis" unicode="&#xfc;" horiz-adv-x="1175" 
d="M1046 413c0 -306 -215 -438 -458 -438s-459 132 -459 438v556h261v-533c0 -155 85 -218 198 -218c112 0 198 63 198 218v533h260v-556zM370 1424c94 0 168 -74 168 -168s-74 -166 -168 -166s-166 72 -166 166s72 168 166 168zM801 1424c94 0 168 -74 168 -168
s-74 -166 -168 -166s-166 72 -166 166s72 168 166 168z" />
    <glyph glyph-name="yacute" unicode="&#xfd;" horiz-adv-x="1128" 
d="M378 -404h-286l339 610l-418 763h296l266 -498l258 498h286zM397 1108l201 315h312l-264 -315h-249z" />
    <glyph glyph-name="thorn" unicode="&#xfe;" horiz-adv-x="1227" 
d="M681 995c267 0 470 -219 470 -510s-201 -510 -469 -510c-129 0 -220 49 -284 124v-499h-261v1840h261v-570c64 75 154 125 283 125zM633 752c-148 0 -249 -114 -249 -267s101 -267 249 -267c154 0 250 119 250 267s-96 267 -250 267z" />
    <glyph glyph-name="ydieresis" unicode="&#xff;" horiz-adv-x="1128" 
d="M378 -404h-286l339 610l-418 763h296l266 -498l258 498h286zM353 1424c94 0 168 -74 168 -168s-74 -166 -168 -166s-166 72 -166 166s72 168 166 168zM784 1424c94 0 168 -74 168 -168s-74 -166 -168 -166s-166 72 -166 166s72 168 166 168z" />
    <glyph glyph-name="Amacron" unicode="&#x100;" horiz-adv-x="1472" 
d="M1451 0h-298l-122 326h-597l-122 -326h-291l545 1400h340zM530 583h405l-202 541zM405 1770h661v-209h-661v209z" />
    <glyph glyph-name="amacron" unicode="&#x101;" horiz-adv-x="1228" 
d="M1091 0h-255v107c-64 -79 -157 -132 -290 -132c-268 0 -469 219 -469 510s201 510 469 510c133 0 226 -53 290 -133v107h255v-969zM594 752c-153 0 -250 -119 -250 -267s97 -267 250 -267c149 0 250 114 250 267s-101 267 -250 267zM286 1360h661v-209h-661v209z" />
    <glyph glyph-name="Abreve" unicode="&#x102;" horiz-adv-x="1472" 
d="M1451 0h-298l-122 326h-597l-122 -326h-291l545 1400h340zM530 583h405l-202 541zM552 1867c33 -109 95 -164 184 -164c88 0 149 55 184 164l199 -58c-56 -205 -191 -315 -383 -315s-327 110 -383 315z" />
    <glyph glyph-name="abreve" unicode="&#x103;" horiz-adv-x="1228" 
d="M1091 0h-255v107c-64 -79 -157 -132 -290 -132c-268 0 -469 219 -469 510s201 510 469 510c133 0 226 -53 290 -133v107h255v-969zM594 752c-153 0 -250 -119 -250 -267s97 -267 250 -267c149 0 250 114 250 267s-101 267 -250 267zM433 1457c33 -109 95 -164 184 -164
c88 0 149 55 184 164l199 -58c-56 -205 -191 -315 -383 -315s-327 110 -383 315z" />
    <glyph glyph-name="Aogonek" unicode="&#x104;" horiz-adv-x="1472" 
d="M1451 0h-298l-122 326h-597l-122 -326h-291l545 1400h340zM530 583h405l-202 541zM1452 -330c-60 -55 -140 -89 -240 -89c-140 0 -248 74 -248 200c0 139 147 220 324 298l72 -76c-132 -62 -170 -117 -170 -161c0 -35 23 -54 58 -54c27 0 51 12 76 35z" />
    <glyph glyph-name="aogonek" unicode="&#x105;" horiz-adv-x="1228" 
d="M1091 0h-255v107c-64 -79 -157 -132 -290 -132c-268 0 -469 219 -469 510s201 510 469 510c133 0 226 -53 290 -133v107h255v-969zM594 752c-153 0 -250 -119 -250 -267s97 -267 250 -267c149 0 250 114 250 267s-101 267 -250 267zM1158 -330c-60 -55 -140 -89 -240 -89
c-140 0 -248 74 -248 200c0 139 147 220 324 298l72 -76c-132 -62 -170 -117 -170 -161c0 -35 23 -54 58 -54c27 0 51 12 76 35z" />
    <glyph glyph-name="Cacute" unicode="&#x106;" horiz-adv-x="1510" 
d="M827 1426c259 0 485 -119 600 -314l-240 -147c-80 121 -205 193 -362 193c-253 0 -442 -186 -442 -458c0 -281 195 -458 442 -458c156 0 281 69 365 192l228 -164c-126 -182 -334 -296 -591 -296c-432 0 -735 305 -735 726s303 726 735 726zM637 1518l201 315h312
l-264 -315h-249z" />
    <glyph glyph-name="cacute" unicode="&#x107;" horiz-adv-x="1033" 
d="M593 995c163 0 299 -66 388 -183l-188 -157c-60 64 -122 97 -207 97c-135 0 -243 -106 -243 -267c0 -162 107 -267 242 -267c84 0 155 38 211 98l186 -159c-92 -117 -226 -182 -389 -182c-309 0 -516 217 -516 510s207 510 516 510zM408 1108l201 315h312l-264 -315h-249
z" />
    <glyph glyph-name="Ccircumflex" unicode="&#x108;" horiz-adv-x="1510" 
d="M827 1426c259 0 485 -119 600 -314l-240 -147c-80 121 -205 193 -362 193c-253 0 -442 -186 -442 -458c0 -281 195 -458 442 -458c156 0 281 69 365 192l228 -164c-126 -182 -334 -296 -591 -296c-432 0 -735 305 -735 726s303 726 735 726zM943 1508l-123 153l-122 -153
h-253l218 315h315l218 -315h-253z" />
    <glyph glyph-name="ccircumflex" unicode="&#x109;" horiz-adv-x="1033" 
d="M593 995c163 0 299 -66 388 -183l-188 -157c-60 64 -122 97 -207 97c-135 0 -243 -106 -243 -267c0 -162 107 -267 242 -267c84 0 155 38 211 98l186 -159c-92 -117 -226 -182 -389 -182c-309 0 -516 217 -516 510s207 510 516 510zM705 1098l-123 153l-122 -153h-253
l218 315h315l218 -315h-253z" />
    <glyph glyph-name="Cdotaccent" unicode="&#x10a;" horiz-adv-x="1510" 
d="M827 1426c259 0 485 -119 600 -314l-240 -147c-80 121 -205 193 -362 193c-253 0 -442 -186 -442 -458c0 -281 195 -458 442 -458c156 0 281 69 365 192l228 -164c-126 -182 -334 -296 -591 -296c-432 0 -735 305 -735 726s303 726 735 726zM797 1849
c98 0 175 -78 175 -177c0 -98 -77 -174 -175 -174c-99 0 -174 76 -174 174c0 99 75 177 174 177z" />
    <glyph glyph-name="cdotaccent" unicode="&#x10b;" horiz-adv-x="1033" 
d="M593 995c163 0 299 -66 388 -183l-188 -157c-60 64 -122 97 -207 97c-135 0 -243 -106 -243 -267c0 -162 107 -267 242 -267c84 0 155 38 211 98l186 -159c-92 -117 -226 -182 -389 -182c-309 0 -516 217 -516 510s207 510 516 510zM581 1454c93 0 167 -74 167 -168
s-74 -166 -167 -166c-94 0 -166 72 -166 166s72 168 166 168z" />
    <glyph glyph-name="Ccaron" unicode="&#x10c;" horiz-adv-x="1510" 
d="M827 1426c259 0 485 -119 600 -314l-240 -147c-80 121 -205 193 -362 193c-253 0 -442 -186 -442 -458c0 -281 195 -458 442 -458c156 0 281 69 365 192l228 -164c-126 -182 -334 -296 -591 -296c-432 0 -735 305 -735 726s303 726 735 726zM698 1823l122 -153l123 153
h253l-218 -315h-315l-218 315h253z" />
    <glyph glyph-name="ccaron" unicode="&#x10d;" horiz-adv-x="1033" 
d="M593 995c163 0 299 -66 388 -183l-188 -157c-60 64 -122 97 -207 97c-135 0 -243 -106 -243 -267c0 -162 107 -267 242 -267c84 0 155 38 211 98l186 -159c-92 -117 -226 -182 -389 -182c-309 0 -516 217 -516 510s207 510 516 510zM460 1413l122 -153l123 153h253
l-218 -315h-315l-218 315h253z" />
    <glyph glyph-name="Dcaron" unicode="&#x10e;" horiz-adv-x="1555" 
d="M736 1400c437 0 727 -278 727 -700s-290 -700 -727 -700h-577v1400h577zM438 1139v-878h295c295 0 438 186 438 439c0 257 -143 439 -438 439h-295zM602 1823l122 -153l123 153h253l-218 -315h-315l-218 315h253z" />
    <glyph glyph-name="dcaron" unicode="&#x10f;" horiz-adv-x="1343" 
d="M546 995c131 0 221 -51 285 -127v572h260v-1440h-255v107c-64 -79 -157 -132 -290 -132c-268 0 -469 219 -469 510s201 510 469 510zM594 752c-153 0 -250 -119 -250 -267s97 -267 250 -267c149 0 250 114 250 267s-101 267 -250 267zM1189 1012v428h257l-51 -428h-206z
" />
    <glyph glyph-name="Dcroat" unicode="&#x110;" horiz-adv-x="1661" 
d="M842 1400c437 0 727 -278 727 -700s-290 -700 -727 -700h-577v581h-170v250h170v569h577zM892 581h-348v-320h295c295 0 438 186 438 439c0 257 -143 439 -438 439h-295v-308h348v-250z" />
    <glyph glyph-name="dcroat" unicode="&#x111;" horiz-adv-x="1209" 
d="M1208 1088h-117v-1088h-255v107c-64 -79 -157 -132 -290 -132c-268 0 -469 219 -469 510s201 510 469 510c131 0 221 -51 285 -127v220h-363v218h363v134h260v-134h117v-218zM594 752c-153 0 -250 -119 -250 -267s97 -267 250 -267c149 0 250 114 250 267
s-101 267 -250 267z" />
    <glyph glyph-name="Emacron" unicode="&#x112;" horiz-adv-x="1332" 
d="M1205 0h-1046v1400h1038v-256h-759v-310h724v-256h-724v-322h767v-256zM345 1770h661v-209h-661v209z" />
    <glyph glyph-name="emacron" unicode="&#x113;" horiz-adv-x="1114" 
d="M567 995c279 0 471 -207 471 -509c0 -31 -2 -65 -5 -88h-687c26 -140 126 -201 249 -201c84 0 174 33 245 93l153 -168c-111 -101 -249 -147 -413 -147c-296 0 -503 203 -503 507s200 513 490 513zM565 770c-124 0 -195 -73 -218 -194h429c-24 125 -98 194 -211 194z
M233 1360h661v-209h-661v209z" />
    <glyph glyph-name="Ebreve" unicode="&#x114;" horiz-adv-x="1332" 
d="M1205 0h-1046v1400h1038v-256h-759v-310h724v-256h-724v-322h767v-256zM492 1867c33 -109 95 -164 184 -164c88 0 149 55 184 164l199 -58c-56 -205 -191 -315 -383 -315s-327 110 -383 315z" />
    <glyph glyph-name="ebreve" unicode="&#x115;" horiz-adv-x="1114" 
d="M567 995c279 0 471 -207 471 -509c0 -31 -2 -65 -5 -88h-687c26 -140 126 -201 249 -201c84 0 174 33 245 93l153 -168c-111 -101 -249 -147 -413 -147c-296 0 -503 203 -503 507s200 513 490 513zM565 770c-124 0 -195 -73 -218 -194h429c-24 125 -98 194 -211 194z
M380 1457c33 -109 95 -164 184 -164c88 0 149 55 184 164l199 -58c-56 -205 -191 -315 -383 -315s-327 110 -383 315z" />
    <glyph glyph-name="Edotaccent" unicode="&#x116;" horiz-adv-x="1332" 
d="M1205 0h-1046v1400h1038v-256h-759v-310h724v-256h-724v-322h767v-256zM653 1849c98 0 175 -78 175 -177c0 -98 -77 -174 -175 -174c-99 0 -174 76 -174 174c0 99 75 177 174 177z" />
    <glyph glyph-name="edotaccent" unicode="&#x117;" horiz-adv-x="1114" 
d="M567 995c279 0 471 -207 471 -509c0 -31 -2 -65 -5 -88h-687c26 -140 126 -201 249 -201c84 0 174 33 245 93l153 -168c-111 -101 -249 -147 -413 -147c-296 0 -503 203 -503 507s200 513 490 513zM565 770c-124 0 -195 -73 -218 -194h429c-24 125 -98 194 -211 194z
M563 1454c93 0 167 -74 167 -168s-74 -166 -167 -166c-94 0 -166 72 -166 166s72 168 166 168z" />
    <glyph glyph-name="Eogonek" unicode="&#x118;" horiz-adv-x="1332" 
d="M1205 0h-1046v1400h1038v-256h-759v-310h724v-256h-724v-322h767v-256zM1075 24c-138 -61 -173 -116 -173 -167c0 -40 31 -69 83 -69c43 0 78 17 111 45l136 -148c-72 -68 -166 -104 -275 -104c-174 0 -295 90 -295 219c0 148 130 229 334 295z" />
    <glyph glyph-name="eogonek" unicode="&#x119;" horiz-adv-x="1114" 
d="M567 995c279 0 471 -207 471 -509c0 -31 -2 -65 -5 -88h-687c26 -140 126 -201 249 -201c84 0 174 33 245 93l153 -168c-111 -101 -249 -147 -413 -147c-296 0 -503 203 -503 507s200 513 490 513zM565 770c-124 0 -195 -73 -218 -194h429c-24 125 -98 194 -211 194z
M995 -315c-72 -68 -166 -104 -275 -104c-174 0 -295 90 -295 219c0 148 130 229 334 295l79 -71c-138 -61 -173 -116 -173 -167c0 -40 31 -69 83 -69c43 0 78 17 111 45z" />
    <glyph glyph-name="Ecaron" unicode="&#x11a;" horiz-adv-x="1332" 
d="M1205 0h-1046v1400h1038v-256h-759v-310h724v-256h-724v-322h767v-256zM554 1823l122 -153l123 153h253l-218 -315h-315l-218 315h253z" />
    <glyph glyph-name="ecaron" unicode="&#x11b;" horiz-adv-x="1114" 
d="M567 995c279 0 471 -207 471 -509c0 -31 -2 -65 -5 -88h-687c26 -140 126 -201 249 -201c84 0 174 33 245 93l153 -168c-111 -101 -249 -147 -413 -147c-296 0 -503 203 -503 507s200 513 490 513zM565 770c-124 0 -195 -73 -218 -194h429c-24 125 -98 194 -211 194z
M442 1413l122 -153l123 153h253l-218 -315h-315l-218 315h253z" />
    <glyph glyph-name="Gcircumflex" unicode="&#x11c;" horiz-adv-x="1600" 
d="M831 1426c224 0 406 -79 531 -215l-201 -197c-80 92 -194 147 -338 147c-256 0 -442 -188 -442 -461c0 -285 194 -465 437 -465c229 0 361 109 398 309h-356v233h644c3 -27 4 -52 4 -79c0 -424 -287 -723 -684 -723c-388 0 -732 273 -732 725c0 423 309 726 739 726z
M927 1508l-123 153l-122 -153h-253l218 315h315l218 -315h-253z" />
    <glyph glyph-name="gcircumflex" unicode="&#x11d;" horiz-adv-x="1216" 
d="M523 995c136 0 233 -51 300 -134v108h256v-889c0 -312 -203 -499 -523 -499c-153 0 -314 40 -424 117l93 213c97 -64 203 -99 320 -99c162 0 276 89 276 257v68c-67 -81 -163 -131 -298 -131c-236 0 -446 197 -446 494c0 298 210 495 446 495zM589 755
c-149 0 -244 -114 -244 -255c0 -140 95 -254 244 -254c145 0 243 110 243 254c0 145 -98 255 -243 255zM715 1098l-123 153l-122 -153h-253l218 315h315l218 -315h-253z" />
    <glyph glyph-name="Gbreve" unicode="&#x11e;" horiz-adv-x="1600" 
d="M831 1426c224 0 406 -79 531 -215l-201 -197c-80 92 -194 147 -338 147c-256 0 -442 -188 -442 -461c0 -285 194 -465 437 -465c229 0 361 109 398 309h-356v233h644c3 -27 4 -52 4 -79c0 -424 -287 -723 -684 -723c-388 0 -732 273 -732 725c0 423 309 726 739 726z
M620 1867c33 -109 95 -164 184 -164c88 0 149 55 184 164l199 -58c-56 -205 -191 -315 -383 -315s-327 110 -383 315z" />
    <glyph glyph-name="gbreve" unicode="&#x11f;" horiz-adv-x="1216" 
d="M523 995c136 0 233 -51 300 -134v108h256v-889c0 -312 -203 -499 -523 -499c-153 0 -314 40 -424 117l93 213c97 -64 203 -99 320 -99c162 0 276 89 276 257v68c-67 -81 -163 -131 -298 -131c-236 0 -446 197 -446 494c0 298 210 495 446 495zM589 755
c-149 0 -244 -114 -244 -255c0 -140 95 -254 244 -254c145 0 243 110 243 254c0 145 -98 255 -243 255zM408 1457c33 -109 95 -164 184 -164c88 0 149 55 184 164l199 -58c-56 -205 -191 -315 -383 -315s-327 110 -383 315z" />
    <glyph glyph-name="Gdotaccent" unicode="&#x120;" horiz-adv-x="1600" 
d="M831 1426c224 0 406 -79 531 -215l-201 -197c-80 92 -194 147 -338 147c-256 0 -442 -188 -442 -461c0 -285 194 -465 437 -465c229 0 361 109 398 309h-356v233h644c3 -27 4 -52 4 -79c0 -424 -287 -723 -684 -723c-388 0 -732 273 -732 725c0 423 309 726 739 726z
M781 1849c98 0 175 -78 175 -177c0 -98 -77 -174 -175 -174c-99 0 -174 76 -174 174c0 99 75 177 174 177z" />
    <glyph glyph-name="gdotaccent" unicode="&#x121;" horiz-adv-x="1216" 
d="M523 995c136 0 233 -51 300 -134v108h256v-889c0 -312 -203 -499 -523 -499c-153 0 -314 40 -424 117l93 213c97 -64 203 -99 320 -99c162 0 276 89 276 257v68c-67 -81 -163 -131 -298 -131c-236 0 -446 197 -446 494c0 298 210 495 446 495zM589 755
c-149 0 -244 -114 -244 -255c0 -140 95 -254 244 -254c145 0 243 110 243 254c0 145 -98 255 -243 255zM591 1454c93 0 167 -74 167 -168s-74 -166 -167 -166c-94 0 -166 72 -166 166s72 168 166 168z" />
    <glyph glyph-name="Gcommaaccent" unicode="&#x122;" horiz-adv-x="1600" 
d="M831 1426c224 0 406 -79 531 -215l-201 -197c-80 92 -194 147 -338 147c-256 0 -442 -188 -442 -461c0 -285 194 -465 437 -465c229 0 361 109 398 309h-356v233h644c3 -27 4 -52 4 -79c0 -424 -287 -723 -684 -723c-388 0 -732 273 -732 725c0 423 309 726 739 726z
M950 -84l-92 -389h-216l43 389h265z" />
    <glyph glyph-name="gcommaaccent" unicode="&#x123;" horiz-adv-x="1216" 
d="M523 995c136 0 233 -51 300 -134v108h256v-889c0 -312 -203 -499 -523 -499c-153 0 -314 40 -424 117l93 213c97 -64 203 -99 320 -99c162 0 276 89 276 257v68c-67 -81 -163 -131 -298 -131c-236 0 -446 197 -446 494c0 298 210 495 446 495zM589 755
c-149 0 -244 -114 -244 -255c0 -140 95 -254 244 -254c145 0 243 110 243 254c0 145 -98 255 -243 255zM455 1108l92 389h216l-42 -389h-266z" />
    <glyph glyph-name="Hcircumflex" unicode="&#x124;" horiz-adv-x="1550" 
d="M438 836h674v564h279v-1400h-279v576h-674v-576h-279v1400h279v-564zM898 1508l-123 153l-122 -153h-253l218 315h315l218 -315h-253z" />
    <glyph glyph-name="hcircumflex" unicode="&#x125;" horiz-adv-x="1182" 
d="M398 865c69 96 171 130 278 130c220 0 377 -153 377 -378v-617h-261v533c0 141 -69 217 -189 217c-112 0 -205 -72 -205 -219v-531h-261v1441h261v-576zM712 1529l-123 153l-122 -153h-253l218 315h315l218 -315h-253z" />
    <glyph glyph-name="Itilde" unicode="&#x128;" horiz-adv-x="597" 
d="M438 0h-279v1400h279v-1400zM-93 1680c72 93 155 131 262 131c140 0 200 -70 260 -70c40 0 77 23 124 67l139 -149c-73 -95 -156 -132 -263 -132c-138 0 -196 70 -260 70c-39 0 -77 -23 -124 -66z" />
    <glyph glyph-name="itilde" unicode="&#x129;" horiz-adv-x="535" 
d="M398 0h-261v969h261v-969zM-127 1270c72 93 155 131 262 131c140 0 200 -70 260 -70c40 0 77 23 124 67l139 -149c-73 -95 -156 -132 -263 -132c-138 0 -196 70 -260 70c-39 0 -77 -23 -124 -66z" />
    <glyph glyph-name="Imacron" unicode="&#x12a;" horiz-adv-x="597" 
d="M438 0h-279v1400h279v-1400zM-32 1770h661v-209h-661v209z" />
    <glyph glyph-name="imacron" unicode="&#x12b;" horiz-adv-x="535" 
d="M398 0h-261v969h261v-969zM-64 1360h661v-209h-661v209z" />
    <glyph glyph-name="Ibreve" unicode="&#x12c;" horiz-adv-x="597" 
d="M438 0h-279v1400h279v-1400zM115 1867c33 -109 95 -164 184 -164c88 0 149 55 184 164l199 -58c-56 -205 -191 -315 -383 -315s-327 110 -383 315z" />
    <glyph glyph-name="ibreve" unicode="&#x12d;" horiz-adv-x="535" 
d="M398 0h-261v969h261v-969zM83 1457c33 -109 95 -164 184 -164c88 0 149 55 184 164l199 -58c-56 -205 -191 -315 -383 -315s-327 110 -383 315z" />
    <glyph glyph-name="Iogonek" unicode="&#x12e;" horiz-adv-x="597" 
d="M438 0h-279v1400h279v-1400zM552 -330c-60 -55 -140 -89 -240 -89c-140 0 -248 73 -248 196c0 141 126 225 278 302l72 -76c-99 -61 -124 -117 -124 -161c0 -35 23 -54 58 -54c27 0 51 12 76 35z" />
    <glyph glyph-name="iogonek" unicode="&#x12f;" horiz-adv-x="535" 
d="M515 -330c-60 -55 -140 -89 -240 -89c-140 0 -248 73 -248 196c0 141 126 225 278 302l72 -76c-99 -61 -124 -117 -124 -161c0 -35 23 -54 58 -54c27 0 51 12 76 35zM398 0h-261v969h261v-969zM266 1454c93 0 167 -74 167 -168s-74 -166 -167 -166
c-94 0 -166 72 -166 166s72 168 166 168z" />
    <glyph glyph-name="Idotaccent" unicode="&#x130;" horiz-adv-x="597" 
d="M438 0h-279v1400h279v-1400zM276 1849c98 0 175 -78 175 -177c0 -98 -77 -174 -175 -174c-99 0 -174 76 -174 174c0 99 75 177 174 177z" />
    <glyph glyph-name="dotlessi" unicode="&#x131;" horiz-adv-x="535" 
d="M398 0h-261v969h261v-969z" />
    <glyph glyph-name="Kcommaaccent" unicode="&#x136;" horiz-adv-x="1424" 
d="M567 576h-129v-576h-279v1400h279v-567h132l463 567h350l-587 -683l631 -717h-362zM862 -84l-92 -389h-216l43 389h265z" />
    <glyph glyph-name="kcommaaccent" unicode="&#x137;" horiz-adv-x="1095" 
d="M398 624h92l273 345h320l-382 -456l385 -513h-321l-279 392h-88v-392h-261v1440h261v-816zM716 -84l-92 -389h-216l43 389h265z" />
    <glyph glyph-name="Lacute" unicode="&#x139;" horiz-adv-x="1210" 
d="M1178 0h-1019v1400h279v-1139h740v-261zM116 1518l201 315h312l-264 -315h-249z" />
    <glyph glyph-name="lacute" unicode="&#x13a;" horiz-adv-x="535" 
d="M398 0h-261v1440h261v-1440zM70 1538l201 315h312l-264 -315h-249z" />
    <glyph glyph-name="Lcommaaccent" unicode="&#x13b;" horiz-adv-x="1210" 
d="M1178 0h-1019v1400h279v-1139h740v-261zM816 -84l-92 -389h-216l43 389h265z" />
    <glyph glyph-name="lcommaaccent" unicode="&#x13c;" horiz-adv-x="535" 
d="M398 0h-261v1440h261v-1440zM414 -84l-92 -389h-216l43 389h265z" />
    <glyph glyph-name="Lcaron" unicode="&#x13d;" horiz-adv-x="1210" 
d="M1178 0h-1019v1400h279v-1139h740v-261zM607 973v428h257l-51 -428h-206z" />
    <glyph glyph-name="lcaron" unicode="&#x13e;" horiz-adv-x="639" 
d="M398 0h-261v1440h261v-1440zM485 1012v428h257l-51 -428h-206z" />
    <glyph glyph-name="Ldot" unicode="&#x13f;" horiz-adv-x="1210" 
d="M1178 0h-1019v1400h279v-1139h740v-261zM864 891c98 0 175 -78 175 -177c0 -98 -77 -174 -175 -174c-99 0 -174 76 -174 174c0 99 75 177 174 177z" />
    <glyph glyph-name="ldot" unicode="&#x140;" horiz-adv-x="737" 
d="M398 0h-261v1440h261v-1440zM652 893c90 0 161 -72 161 -162c0 -91 -71 -161 -161 -161c-91 0 -160 70 -160 161c0 90 69 162 160 162z" />
    <glyph glyph-name="Lslash" unicode="&#x141;" horiz-adv-x="1316" 
d="M1284 0h-1019v425l-170 -94v281l170 94v694h279v-538l449 250v-281l-449 -250v-320h740v-261z" />
    <glyph glyph-name="lslash" unicode="&#x142;" horiz-adv-x="717" 
d="M489 954l187 118v-261l-187 -118v-693h-261v529l-187 -118v261l187 118v650h261v-486z" />
    <glyph glyph-name="Nacute" unicode="&#x143;" horiz-adv-x="1570" 
d="M1411 0h-262l-710 935l-1 -935h-279v1400h261l711 -935v935h280v-1400zM607 1518l201 315h312l-264 -315h-249z" />
    <glyph glyph-name="nacute" unicode="&#x144;" horiz-adv-x="1182" 
d="M676 995c220 0 377 -153 377 -378v-617h-261v533c0 141 -69 217 -189 217c-112 0 -205 -72 -205 -219v-531h-261v969h254v-114c69 103 174 140 285 140zM432 1108l201 315h312l-264 -315h-249z" />
    <glyph glyph-name="Ncommaaccent" unicode="&#x145;" horiz-adv-x="1570" 
d="M1411 0h-262l-710 935l-1 -935h-279v1400h261l711 -935v935h280v-1400zM935 -84l-92 -389h-216l43 389h265z" />
    <glyph glyph-name="ncommaaccent" unicode="&#x146;" horiz-adv-x="1182" 
d="M676 995c220 0 377 -153 377 -378v-617h-261v533c0 141 -69 217 -189 217c-112 0 -205 -72 -205 -219v-531h-261v969h254v-114c69 103 174 140 285 140zM741 -84l-92 -389h-216l43 389h265z" />
    <glyph glyph-name="Ncaron" unicode="&#x147;" horiz-adv-x="1570" 
d="M1411 0h-262l-710 935l-1 -935h-279v1400h261l711 -935v935h280v-1400zM668 1823l122 -153l123 153h253l-218 -315h-315l-218 315h253z" />
    <glyph glyph-name="ncaron" unicode="&#x148;" horiz-adv-x="1182" 
d="M676 995c220 0 377 -153 377 -378v-617h-261v533c0 141 -69 217 -189 217c-112 0 -205 -72 -205 -219v-531h-261v969h254v-114c69 103 174 140 285 140zM484 1413l122 -153l123 153h253l-218 -315h-315l-218 315h253z" />
    <glyph glyph-name="napostrophe" unicode="&#x149;" horiz-adv-x="1489" 
d="M444 1440l-140 -596h-220l67 596h293zM983 995c220 0 377 -153 377 -378v-617h-261v533c0 141 -69 217 -189 217c-112 0 -205 -72 -205 -219v-531h-261v969h254v-114c69 103 174 140 285 140z" />
    <glyph glyph-name="Omacron" unicode="&#x14c;" horiz-adv-x="1655" 
d="M827 1426c431 0 736 -307 736 -726s-305 -726 -736 -726c-432 0 -735 307 -735 726s303 726 735 726zM827 1158c-257 0 -444 -186 -444 -458s187 -458 444 -458c259 0 444 186 444 458s-185 458 -444 458zM496 1770h661v-209h-661v209z" />
    <glyph glyph-name="omacron" unicode="&#x14d;" horiz-adv-x="1201" 
d="M600 995c302 0 525 -218 525 -510s-223 -510 -525 -510c-301 0 -523 218 -523 510s222 510 523 510zM600 752c-147 0 -257 -110 -257 -267s110 -267 257 -267c148 0 258 110 258 267s-110 267 -258 267zM269 1360h661v-209h-661v209z" />
    <glyph glyph-name="Obreve" unicode="&#x14e;" horiz-adv-x="1655" 
d="M827 1426c431 0 736 -307 736 -726s-305 -726 -736 -726c-432 0 -735 307 -735 726s303 726 735 726zM827 1158c-257 0 -444 -186 -444 -458s187 -458 444 -458c259 0 444 186 444 458s-185 458 -444 458zM643 1867c33 -109 95 -164 184 -164c88 0 149 55 184 164
l199 -58c-56 -205 -191 -315 -383 -315s-327 110 -383 315z" />
    <glyph glyph-name="obreve" unicode="&#x14f;" horiz-adv-x="1201" 
d="M600 995c302 0 525 -218 525 -510s-223 -510 -525 -510c-301 0 -523 218 -523 510s222 510 523 510zM600 752c-147 0 -257 -110 -257 -267s110 -267 257 -267c148 0 258 110 258 267s-110 267 -258 267zM416 1457c33 -109 95 -164 184 -164c88 0 149 55 184 164l199 -58
c-56 -205 -191 -315 -383 -315s-327 110 -383 315z" />
    <glyph glyph-name="Ohungarumlaut" unicode="&#x150;" horiz-adv-x="1655" 
d="M827 1426c431 0 736 -307 736 -726s-305 -726 -736 -726c-432 0 -735 307 -735 726s303 726 735 726zM827 1158c-257 0 -444 -186 -444 -458s187 -458 444 -458c259 0 444 186 444 458s-185 458 -444 458zM872 1518l217 315h284l-247 -315h-254zM497 1518l193 315h277
l-218 -315h-252z" />
    <glyph glyph-name="ohungarumlaut" unicode="&#x151;" horiz-adv-x="1201" 
d="M600 995c302 0 525 -218 525 -510s-223 -510 -525 -510c-301 0 -523 218 -523 510s222 510 523 510zM600 752c-147 0 -257 -110 -257 -267s110 -267 257 -267c148 0 258 110 258 267s-110 267 -258 267zM654 1108l217 315h284l-247 -315h-254zM279 1108l193 315h277
l-218 -315h-252z" />
    <glyph glyph-name="OE" unicode="&#x152;" horiz-adv-x="2219" 
d="M2092 0h-1273c-438 0 -727 278 -727 700s289 700 727 700h1265v-256h-759v-310h724v-256h-724v-322h767v-256zM383 700c0 -257 144 -439 439 -439h224v878h-224c-295 0 -439 -186 -439 -439z" />
    <glyph glyph-name="oe" unicode="&#x153;" horiz-adv-x="1895" 
d="M1348 995c279 0 471 -206 471 -509c0 -31 -2 -65 -5 -88h-687c26 -140 126 -201 248 -201c85 0 175 33 246 93l153 -168c-112 -101 -252 -147 -417 -147c-161 0 -292 63 -376 172c-91 -108 -224 -172 -381 -172c-301 0 -523 218 -523 510s222 510 523 510
c157 0 290 -65 381 -173c84 109 211 173 367 173zM600 752c-147 0 -257 -110 -257 -267s110 -267 257 -267c148 0 258 110 258 267s-110 267 -258 267zM1346 770c-124 0 -195 -73 -218 -194h429c-25 125 -98 194 -211 194z" />
    <glyph glyph-name="Racute" unicode="&#x154;" horiz-adv-x="1360" 
d="M751 1400c334 0 513 -158 513 -426c0 -230 -160 -386 -429 -413l431 -561h-338l-408 557h-82v-557h-279v1400h592zM438 1143v-343h308c153 0 231 55 231 174c0 117 -82 169 -231 169h-308zM477 1518l201 315h312l-264 -315h-249z" />
    <glyph glyph-name="racute" unicode="&#x155;" horiz-adv-x="840" 
d="M663 995c56 0 100 -8 136 -21l-39 -259c-43 19 -105 31 -158 31c-120 0 -204 -74 -204 -218v-528h-261v969h253v-106c61 92 153 132 273 132zM295 1108l201 315h312l-264 -315h-249z" />
    <glyph glyph-name="Rcommaaccent" unicode="&#x156;" horiz-adv-x="1360" 
d="M751 1400c334 0 513 -158 513 -426c0 -230 -160 -386 -429 -413l431 -561h-338l-408 557h-82v-557h-279v1400h592zM438 1143v-343h308c153 0 231 55 231 174c0 117 -82 169 -231 169h-308zM817 -84l-92 -389h-216l43 389h265z" />
    <glyph glyph-name="rcommaaccent" unicode="&#x157;" horiz-adv-x="840" 
d="M663 995c56 0 100 -8 136 -21l-39 -259c-43 19 -105 31 -158 31c-120 0 -204 -74 -204 -218v-528h-261v969h253v-106c61 92 153 132 273 132zM414 -84l-92 -389h-216l43 389h265z" />
    <glyph glyph-name="Rcaron" unicode="&#x158;" horiz-adv-x="1360" 
d="M751 1400c334 0 513 -158 513 -426c0 -230 -160 -386 -429 -413l431 -561h-338l-408 557h-82v-557h-279v1400h592zM438 1143v-343h308c153 0 231 55 231 174c0 117 -82 169 -231 169h-308zM538 1823l122 -153l123 153h253l-218 -315h-315l-218 315h253z" />
    <glyph glyph-name="rcaron" unicode="&#x159;" horiz-adv-x="840" 
d="M663 995c56 0 100 -8 136 -21l-39 -259c-43 19 -105 31 -158 31c-120 0 -204 -74 -204 -218v-528h-261v969h253v-106c61 92 153 132 273 132zM347 1413l122 -153l123 153h253l-218 -315h-315l-218 315h253z" />
    <glyph glyph-name="Sacute" unicode="&#x15a;" horiz-adv-x="1353" 
d="M1109 1047c-111 68 -244 119 -397 119c-156 0 -268 -62 -268 -168c0 -102 121 -135 289 -162l79 -13c251 -40 446 -149 446 -392c0 -308 -272 -456 -573 -456c-213 0 -440 62 -590 183l145 225c102 -80 265 -151 446 -151c156 0 275 61 275 169c0 97 -102 132 -297 164
l-89 14c-247 40 -427 147 -427 401c0 292 260 444 558 444c197 0 358 -44 535 -149zM540 1518l201 315h312l-264 -315h-249z" />
    <glyph glyph-name="sacute" unicode="&#x15b;" horiz-adv-x="1014" 
d="M832 699c-77 37 -200 79 -309 79c-100 0 -149 -35 -149 -88c0 -57 70 -70 158 -83l86 -13c211 -32 327 -125 327 -290c0 -200 -164 -329 -445 -329c-132 0 -305 26 -431 114l103 198c82 -55 185 -95 330 -95c121 0 179 34 179 91c0 47 -48 73 -161 89l-79 11
c-223 31 -335 129 -335 294c0 199 154 317 409 317c154 0 278 -28 405 -92zM357 1108l201 315h312l-264 -315h-249z" />
    <glyph glyph-name="Scircumflex" unicode="&#x15c;" horiz-adv-x="1353" 
d="M1109 1047c-111 68 -244 119 -397 119c-156 0 -268 -62 -268 -168c0 -102 121 -135 289 -162l79 -13c251 -40 446 -149 446 -392c0 -308 -272 -456 -573 -456c-213 0 -440 62 -590 183l145 225c102 -80 265 -151 446 -151c156 0 275 61 275 169c0 97 -102 132 -297 164
l-89 14c-247 40 -427 147 -427 401c0 292 260 444 558 444c197 0 358 -44 535 -149zM846 1508l-123 153l-122 -153h-253l218 315h315l218 -315h-253z" />
    <glyph glyph-name="scircumflex" unicode="&#x15d;" horiz-adv-x="1014" 
d="M832 699c-77 37 -200 79 -309 79c-100 0 -149 -35 -149 -88c0 -57 70 -70 158 -83l86 -13c211 -32 327 -125 327 -290c0 -200 -164 -329 -445 -329c-132 0 -305 26 -431 114l103 198c82 -55 185 -95 330 -95c121 0 179 34 179 91c0 47 -48 73 -161 89l-79 11
c-223 31 -335 129 -335 294c0 199 154 317 409 317c154 0 278 -28 405 -92zM654 1098l-123 153l-122 -153h-253l218 315h315l218 -315h-253z" />
    <glyph glyph-name="Scedilla" unicode="&#x15e;" horiz-adv-x="1353" 
d="M729 -321h-267l112 328h258zM1109 1047c-111 68 -244 119 -397 119c-156 0 -268 -62 -268 -168c0 -102 121 -135 289 -162l79 -13c251 -40 446 -149 446 -392c0 -308 -272 -456 -573 -456c-213 0 -440 62 -590 183l145 225c102 -80 265 -151 446 -151
c156 0 275 61 275 169c0 97 -102 132 -297 164l-89 14c-247 40 -427 147 -427 401c0 292 260 444 558 444c197 0 358 -44 535 -149z" />
    <glyph glyph-name="scedilla" unicode="&#x15f;" horiz-adv-x="1014" 
d="M832 699c-77 37 -200 79 -309 79c-100 0 -149 -35 -149 -88c0 -57 70 -70 158 -83l86 -13c211 -32 327 -125 327 -290c0 -200 -164 -329 -445 -329c-132 0 -305 26 -431 114l103 198c82 -55 185 -95 330 -95c121 0 179 34 179 91c0 47 -48 73 -161 89l-79 11
c-223 31 -335 129 -335 294c0 199 154 317 409 317c154 0 278 -28 405 -92zM550 -321h-252l111 328h244z" />
    <glyph glyph-name="Scaron" unicode="&#x160;" horiz-adv-x="1353" 
d="M1109 1047c-111 68 -244 119 -397 119c-156 0 -268 -62 -268 -168c0 -102 121 -135 289 -162l79 -13c251 -40 446 -149 446 -392c0 -308 -272 -456 -573 -456c-213 0 -440 62 -590 183l145 225c102 -80 265 -151 446 -151c156 0 275 61 275 169c0 97 -102 132 -297 164
l-89 14c-247 40 -427 147 -427 401c0 292 260 444 558 444c197 0 358 -44 535 -149zM601 1823l122 -153l123 153h253l-218 -315h-315l-218 315h253z" />
    <glyph glyph-name="scaron" unicode="&#x161;" horiz-adv-x="1014" 
d="M832 699c-77 37 -200 79 -309 79c-100 0 -149 -35 -149 -88c0 -57 70 -70 158 -83l86 -13c211 -32 327 -125 327 -290c0 -200 -164 -329 -445 -329c-132 0 -305 26 -431 114l103 198c82 -55 185 -95 330 -95c121 0 179 34 179 91c0 47 -48 73 -161 89l-79 11
c-223 31 -335 129 -335 294c0 199 154 317 409 317c154 0 278 -28 405 -92zM409 1413l122 -153l123 153h253l-218 -315h-315l-218 315h253z" />
    <glyph glyph-name="Tcommaaccent" unicode="&#x162;" horiz-adv-x="1211" 
d="M635 -321h-267l112 328h258zM1179 1139h-434v-1139h-279v1139h-434v261h1147v-261z" />
    <glyph glyph-name="tcommaaccent" unicode="&#x163;" horiz-adv-x="933" 
d="M840 737h-351v-354c0 -120 65 -165 145 -165c63 0 129 31 182 63l96 -204c-85 -59 -184 -102 -321 -102c-241 0 -363 135 -363 387v375h-187v232h187v288h261v-288h351v-232zM579 -321h-252l111 328h244z" />
    <glyph glyph-name="Tcaron" unicode="&#x164;" horiz-adv-x="1211" 
d="M1179 1139h-434v-1139h-279v1139h-434v261h1147v-261zM489 1823l122 -153l123 153h253l-218 -315h-315l-218 315h253z" />
    <glyph glyph-name="tcaron" unicode="&#x165;" horiz-adv-x="933" 
d="M840 737h-351v-354c0 -120 65 -165 145 -165c63 0 129 31 182 63l96 -204c-85 -59 -184 -102 -321 -102c-241 0 -363 135 -363 387v375h-187v232h187v288h261v-288h351v-232zM566 1047v428h257l-51 -428h-206z" />
    <glyph glyph-name="Utilde" unicode="&#x168;" horiz-adv-x="1492" 
d="M1349 559c0 -387 -247 -584 -603 -584s-603 197 -603 584v841h280v-827c0 -229 131 -331 323 -331s323 102 323 331v827h280v-841zM354 1680c72 93 155 131 262 131c140 0 200 -70 260 -70c40 0 77 23 124 67l139 -149c-73 -95 -156 -132 -263 -132
c-138 0 -196 70 -260 70c-39 0 -77 -23 -124 -66z" />
    <glyph glyph-name="utilde" unicode="&#x169;" horiz-adv-x="1175" 
d="M1046 413c0 -306 -215 -438 -458 -438s-459 132 -459 438v556h261v-533c0 -155 85 -218 198 -218c112 0 198 63 198 218v533h260v-556zM194 1270c72 93 155 131 262 131c140 0 200 -70 260 -70c40 0 77 23 124 67l139 -149c-73 -95 -156 -132 -263 -132
c-138 0 -196 70 -260 70c-39 0 -77 -23 -124 -66z" />
    <glyph glyph-name="Umacron" unicode="&#x16a;" horiz-adv-x="1492" 
d="M1349 559c0 -387 -247 -584 -603 -584s-603 197 -603 584v841h280v-827c0 -229 131 -331 323 -331s323 102 323 331v827h280v-841zM415 1770h661v-209h-661v209z" />
    <glyph glyph-name="umacron" unicode="&#x16b;" horiz-adv-x="1175" 
d="M1046 413c0 -306 -215 -438 -458 -438s-459 132 -459 438v556h261v-533c0 -155 85 -218 198 -218c112 0 198 63 198 218v533h260v-556zM257 1360h661v-209h-661v209z" />
    <glyph glyph-name="Ubreve" unicode="&#x16c;" horiz-adv-x="1492" 
d="M1349 559c0 -387 -247 -584 -603 -584s-603 197 -603 584v841h280v-827c0 -229 131 -331 323 -331s323 102 323 331v827h280v-841zM562 1867c33 -109 95 -164 184 -164c88 0 149 55 184 164l199 -58c-56 -205 -191 -315 -383 -315s-327 110 -383 315z" />
    <glyph glyph-name="ubreve" unicode="&#x16d;" horiz-adv-x="1175" 
d="M1046 413c0 -306 -215 -438 -458 -438s-459 132 -459 438v556h261v-533c0 -155 85 -218 198 -218c112 0 198 63 198 218v533h260v-556zM404 1457c33 -109 95 -164 184 -164c88 0 149 55 184 164l199 -58c-56 -205 -191 -315 -383 -315s-327 110 -383 315z" />
    <glyph glyph-name="Uring" unicode="&#x16e;" horiz-adv-x="1492" 
d="M1349 559c0 -387 -247 -584 -603 -584s-603 197 -603 584v841h280v-827c0 -229 131 -331 323 -331s323 102 323 331v827h280v-841zM745 1486c-144 0 -261 114 -261 258c0 140 117 257 261 257c145 0 263 -117 263 -257c0 -144 -118 -258 -263 -258zM745 1635
c59 0 107 48 107 109c0 60 -48 108 -107 108c-56 0 -105 -48 -105 -108c0 -61 49 -109 105 -109z" />
    <glyph glyph-name="uring" unicode="&#x16f;" horiz-adv-x="1175" 
d="M1046 413c0 -306 -215 -438 -458 -438s-459 132 -459 438v556h261v-533c0 -155 85 -218 198 -218c112 0 198 63 198 218v533h260v-556zM587 1076c-144 0 -261 114 -261 258c0 140 117 257 261 257c145 0 263 -117 263 -257c0 -144 -118 -258 -263 -258zM587 1225
c59 0 107 48 107 109c0 60 -48 108 -107 108c-56 0 -105 -48 -105 -108c0 -61 49 -109 105 -109z" />
    <glyph glyph-name="Uhungarumlaut" unicode="&#x170;" horiz-adv-x="1492" 
d="M1349 559c0 -387 -247 -584 -603 -584s-603 197 -603 584v841h280v-827c0 -229 131 -331 323 -331s323 102 323 331v827h280v-841zM791 1518l217 315h284l-247 -315h-254zM416 1518l193 315h277l-218 -315h-252z" />
    <glyph glyph-name="uhungarumlaut" unicode="&#x171;" horiz-adv-x="1175" 
d="M1046 413c0 -306 -215 -438 -458 -438s-459 132 -459 438v556h261v-533c0 -155 85 -218 198 -218c112 0 198 63 198 218v533h260v-556zM642 1108l217 315h284l-247 -315h-254zM267 1108l193 315h277l-218 -315h-252z" />
    <glyph glyph-name="Uogonek" unicode="&#x172;" horiz-adv-x="1492" 
d="M1349 559c0 -387 -247 -584 -603 -584s-603 197 -603 584v841h280v-827c0 -229 131 -331 323 -331s323 102 323 331v827h280v-841zM1230 -315c-72 -68 -166 -104 -275 -104c-174 0 -295 90 -295 219c0 148 130 229 334 295l65 -55c-127 -66 -159 -127 -159 -183
c0 -40 31 -69 83 -69c43 0 78 17 111 45z" />
    <glyph glyph-name="uogonek" unicode="&#x173;" horiz-adv-x="1175" 
d="M1046 413c0 -306 -215 -438 -458 -438s-459 132 -459 438v556h261v-533c0 -155 85 -218 198 -218c112 0 198 63 198 218v533h260v-556zM1022 -315c-72 -68 -166 -104 -275 -104c-174 0 -295 90 -295 219c0 148 130 229 334 295l65 -55c-127 -66 -159 -127 -159 -183
c0 -40 31 -69 83 -69c43 0 78 17 111 45z" />
    <glyph glyph-name="Ydieresis" unicode="&#x178;" horiz-adv-x="1362" 
d="M824 552v-552h-279v553l-539 847h328l352 -594l352 594h318zM469 1834c94 0 168 -74 168 -168s-74 -166 -168 -166s-166 72 -166 166s72 168 166 168zM900 1834c94 0 168 -74 168 -168s-74 -166 -168 -166s-166 72 -166 166s72 168 166 168z" />
    <glyph glyph-name="Zacute" unicode="&#x179;" horiz-adv-x="1288" 
d="M1193 1182l-727 -925h727v-257h-1098v218l727 925h-725v257h1096v-218zM462 1518l201 315h312l-264 -315h-249z" />
    <glyph glyph-name="zacute" unicode="&#x17a;" horiz-adv-x="1040" 
d="M933 778l-478 -545h489v-233h-848v188l489 549h-472v232h820v-191zM349 1108l201 315h312l-264 -315h-249z" />
    <glyph glyph-name="Zdotaccent" unicode="&#x17b;" horiz-adv-x="1288" 
d="M1193 1182l-727 -925h727v-257h-1098v218l727 925h-725v257h1096v-218zM622 1849c98 0 175 -78 175 -177c0 -98 -77 -174 -175 -174c-99 0 -174 76 -174 174c0 99 75 177 174 177z" />
    <glyph glyph-name="zdotaccent" unicode="&#x17c;" horiz-adv-x="1040" 
d="M933 778l-478 -545h489v-233h-848v188l489 549h-472v232h820v-191zM522 1454c93 0 167 -74 167 -168s-74 -166 -167 -166c-94 0 -166 72 -166 166s72 168 166 168z" />
    <glyph glyph-name="Zcaron" unicode="&#x17d;" horiz-adv-x="1288" 
d="M1193 1182l-727 -925h727v-257h-1098v218l727 925h-725v257h1096v-218zM523 1823l122 -153l123 153h253l-218 -315h-315l-218 315h253z" />
    <glyph glyph-name="zcaron" unicode="&#x17e;" horiz-adv-x="1040" 
d="M933 778l-478 -545h489v-233h-848v188l489 549h-472v232h820v-191zM401 1413l122 -153l123 153h253l-218 -315h-315l-218 315h253z" />
    <glyph glyph-name="longs" unicode="&#x17f;" horiz-adv-x="656" 
d="M476 1465c132 0 224 -38 299 -87l-105 -203c-47 27 -103 47 -166 47c-76 0 -114 -45 -114 -136v-1086h-260v1089c0 227 120 376 346 376z" />
    <glyph glyph-name="Scommaaccent" unicode="&#x218;" horiz-adv-x="1353" 
d="M1109 1047c-111 68 -244 119 -397 119c-156 0 -268 -62 -268 -168c0 -102 121 -135 289 -162l79 -13c251 -40 446 -149 446 -392c0 -308 -272 -456 -573 -456c-213 0 -440 62 -590 183l145 225c102 -80 265 -151 446 -151c156 0 275 61 275 169c0 97 -102 132 -297 164
l-89 14c-247 40 -427 147 -427 401c0 292 260 444 558 444c197 0 358 -44 535 -149zM849 -84l-92 -389h-216l43 389h265z" />
    <glyph glyph-name="scommaaccent" unicode="&#x219;" horiz-adv-x="1014" 
d="M832 699c-77 37 -200 79 -309 79c-100 0 -149 -35 -149 -88c0 -57 70 -70 158 -83l86 -13c211 -32 327 -125 327 -290c0 -200 -164 -329 -445 -329c-132 0 -305 26 -431 114l103 198c82 -55 185 -95 330 -95c121 0 179 34 179 91c0 47 -48 73 -161 89l-79 11
c-223 31 -335 129 -335 294c0 199 154 317 409 317c154 0 278 -28 405 -92zM666 -84l-92 -389h-216l43 389h265z" />
    <glyph glyph-name="uni021A" unicode="&#x21a;" horiz-adv-x="1211" 
d="M1179 1139h-434v-1139h-279v1139h-434v261h1147v-261zM755 -84l-92 -389h-216l43 389h265z" />
    <glyph glyph-name="uni021B" unicode="&#x21b;" horiz-adv-x="933" 
d="M840 737h-351v-354c0 -120 65 -165 145 -165c63 0 129 31 182 63l96 -204c-85 -59 -184 -102 -321 -102c-241 0 -363 135 -363 387v375h-187v232h187v288h261v-288h351v-232zM695 -84l-92 -389h-216l43 389h265z" />
    <glyph glyph-name="gravecomb" unicode="&#x300;" horiz-adv-x="1" 
d="M-944 1423h312l201 -315h-249z" />
    <glyph glyph-name="acutecomb" unicode="&#x301;" horiz-adv-x="1" 
d="M-775 1108l201 315h312l-264 -315h-249z" />
    <glyph glyph-name="uni0302" unicode="&#x302;" horiz-adv-x="1" 
d="M-478 1098l-123 153l-122 -153h-253l218 315h315l218 -315h-253z" />
    <glyph glyph-name="tildecomb" unicode="&#x303;" horiz-adv-x="1" 
d="M-995 1270c72 93 155 131 262 131c140 0 200 -70 260 -70c40 0 77 23 124 67l139 -149c-73 -95 -156 -132 -263 -132c-138 0 -196 70 -260 70c-39 0 -77 -23 -124 -66z" />
    <glyph glyph-name="uni0304" unicode="&#x304;" horiz-adv-x="1" 
d="M-932 1360h661v-209h-661v209z" />
    <glyph glyph-name="uni0306" unicode="&#x306;" horiz-adv-x="1" 
d="M-785 1457c33 -109 95 -164 184 -164c88 0 149 55 184 164l199 -58c-56 -205 -191 -315 -383 -315s-327 110 -383 315z" />
    <glyph glyph-name="uni0307" unicode="&#x307;" horiz-adv-x="1" 
d="M-602 1454c93 0 167 -74 167 -168s-74 -166 -167 -166c-94 0 -166 72 -166 166s72 168 166 168z" />
    <glyph glyph-name="uni0308" unicode="&#x308;" horiz-adv-x="1" 
d="M-819 1424c94 0 168 -74 168 -168s-74 -166 -168 -166s-166 72 -166 166s72 168 166 168zM-388 1424c94 0 168 -74 168 -168s-74 -166 -168 -166s-166 72 -166 166s72 168 166 168z" />
    <glyph glyph-name="uni030A" unicode="&#x30a;" horiz-adv-x="1" 
d="M-602 1076c-144 0 -261 114 -261 258c0 140 117 257 261 257c145 0 263 -117 263 -257c0 -144 -118 -258 -263 -258zM-602 1225c59 0 107 48 107 109c0 60 -48 108 -107 108c-56 0 -105 -48 -105 -108c0 -61 49 -109 105 -109z" />
    <glyph glyph-name="uni030B" unicode="&#x30b;" horiz-adv-x="1" 
d="M-547 1108l217 315h284l-247 -315h-254zM-922 1108l193 315h277l-218 -315h-252z" />
    <glyph glyph-name="uni030C" unicode="&#x30c;" horiz-adv-x="1" 
d="M-723 1413l122 -153l123 153h253l-218 -315h-315l-218 315h253z" />
    <glyph glyph-name="uni0312" unicode="&#x312;" horiz-adv-x="1" 
d="M-738 1108l92 389h216l-42 -389h-266z" />
    <glyph glyph-name="uni0326" unicode="&#x326;" horiz-adv-x="1" 
d="M-454 -84l-92 -389h-216l43 389h265z" />
    <glyph glyph-name="uni0327" unicode="&#x327;" horiz-adv-x="1" 
d="M-525 -321h-252l111 328h244z" />
    <glyph glyph-name="uni0328" unicode="&#x328;" horiz-adv-x="1" 
d="M-315 -315c-72 -68 -166 -104 -275 -104c-174 0 -295 90 -295 219c0 148 130 229 334 295l65 -55c-127 -66 -159 -127 -159 -183c0 -40 31 -69 83 -69c43 0 78 17 111 45z" />
    <glyph glyph-name="uni1E9E" unicode="&#x1e9e;" horiz-adv-x="1447" 
d="M662 770l280 339c-53 40 -126 57 -218 57c-196 0 -301 -111 -301 -271v-895h-280v906c0 263 164 519 586 519c283 0 453 -105 576 -260l-315 -374c217 -48 365 -186 365 -390c0 -263 -231 -426 -539 -426c-112 0 -186 8 -258 25l50 254c52 -14 107 -21 165 -21
c191 0 290 57 290 168c0 113 -105 171 -297 171h-104v198z" />
    <glyph glyph-name="uni2008" unicode="&#x2008;" horiz-adv-x="554" 
 />
    <glyph glyph-name="uni2009" unicode="&#x2009;" horiz-adv-x="165" 
 />
    <glyph glyph-name="uni200B" unicode="&#x200b;" horiz-adv-x="0" 
 />
    <glyph glyph-name="uniFEFF" unicode="&#xfeff;" horiz-adv-x="0" 
 />
    <glyph glyph-name="endash" unicode="&#x2013;" horiz-adv-x="1158" 
d="M1063 421h-968v223h968v-223z" />
    <glyph glyph-name="emdash" unicode="&#x2014;" horiz-adv-x="1596" 
d="M1548 421h-1500v223h1500v-223z" />
    <glyph glyph-name="quoteleft" unicode="&#x2018;" horiz-adv-x="534" 
d="M90 844l140 596h220l-67 -596h-293z" />
    <glyph glyph-name="quoteright" unicode="&#x2019;" horiz-adv-x="534" 
d="M444 1440l-140 -596h-220l67 596h293z" />
    <glyph glyph-name="quotesinglbase" unicode="&#x201a;" horiz-adv-x="534" 
d="M444 316l-140 -596h-220l67 596h293z" />
    <glyph glyph-name="quotedblleft" unicode="&#x201c;" horiz-adv-x="968" 
d="M90 844l140 596h220l-67 -596h-293zM524 844l140 596h220l-67 -596h-293z" />
    <glyph glyph-name="quotedblright" unicode="&#x201d;" horiz-adv-x="967" 
d="M877 1440l-140 -596h-220l67 596h293zM444 1440l-140 -596h-220l67 596h293z" />
    <glyph glyph-name="quotedblbase" unicode="&#x201e;" horiz-adv-x="967" 
d="M877 316l-140 -596h-220l67 596h293zM444 316l-140 -596h-220l67 596h293z" />
    <glyph glyph-name="bullet" unicode="&#x2022;" horiz-adv-x="883" 
d="M442 849c174 0 317 -141 317 -317s-143 -317 -317 -317c-176 0 -317 141 -317 317s141 317 317 317z" />
    <glyph glyph-name="guilsinglleft" unicode="&#x2039;" horiz-adv-x="638" 
d="M544 142h-263l-193 390l193 390h263l-193 -390z" />
    <glyph glyph-name="guilsinglright" unicode="&#x203a;" horiz-adv-x="638" 
d="M94 923h263l193 -390l-193 -390h-263l193 390z" />
    <glyph glyph-name="Euro" unicode="&#x20ac;" horiz-adv-x="1400" 
d="M1043 448h-507c64 -145 183 -228 335 -228c132 0 229 59 304 142l148 -194c-115 -121 -259 -193 -450 -193c-312 0 -541 179 -624 473h-174v185h144c-1 11 -2 22 -2 33v67c0 11 1 23 2 34h-144v185h174c83 294 312 473 624 473c187 0 337 -69 454 -190l-154 -198
c-75 84 -171 143 -303 143c-155 0 -272 -85 -335 -228h508v-185h-552c-2 -22 -3 -44 -3 -67c0 -24 1 -46 3 -67h552v-185z" />
    <glyph glyph-name="trademark" unicode="&#x2122;" horiz-adv-x="1620" 
d="M1378 753v419l-131 -359h-178l-134 360v-420h-176v647h249l150 -388l149 388h249v-647h-178zM268 753v485h-204v162h585v-162h-204v-485h-177z" />
    <glyph glyph-name="uniFB00" unicode="&#xfb00;" horiz-adv-x="1675" 
d="M784 737h-301v-737h-261v737h-181v232h181v120c0 227 121 376 347 376c132 0 223 -38 298 -87l-104 -203c-48 27 -105 47 -166 47c-76 0 -114 -45 -114 -136v-117h301v-232zM1610 737h-301v-737h-261v737h-181v232h181v120c0 227 121 376 347 376c132 0 223 -38 298 -87
l-104 -203c-48 27 -105 47 -166 47c-76 0 -114 -45 -114 -136v-117h301v-232z" />
    <glyph glyph-name="fi" unicode="&#xfb01;" horiz-adv-x="1384" 
d="M784 737h-301v-737h-261v737h-181v232h181v120c0 227 121 376 347 376c132 0 223 -38 298 -87l-104 -203c-48 27 -105 47 -166 47c-76 0 -114 -45 -114 -136v-117h301v-232zM1247 0h-261v969h261v-969zM1115 1454c93 0 167 -74 167 -168s-74 -166 -167 -166
c-94 0 -166 72 -166 166s72 168 166 168z" />
    <glyph glyph-name="fl" unicode="&#xfb02;" horiz-adv-x="1384" 
d="M784 737h-301v-737h-261v737h-181v232h181v120c0 227 121 376 347 376c132 0 223 -38 298 -87l-104 -203c-48 27 -105 47 -166 47c-76 0 -114 -45 -114 -136v-117h301v-232zM1247 0h-261v1440h261v-1440z" />
    <glyph glyph-name="uniFB03" unicode="&#xfb03;" horiz-adv-x="2210" 
d="M784 737h-301v-737h-261v737h-181v232h181v120c0 227 121 376 347 376c132 0 223 -38 298 -87l-104 -203c-48 27 -105 47 -166 47c-76 0 -114 -45 -114 -136v-117h301v-232zM1610 737h-301v-737h-261v737h-181v232h181v120c0 227 121 376 347 376c132 0 223 -38 298 -87
l-104 -203c-48 27 -105 47 -166 47c-76 0 -114 -45 -114 -136v-117h301v-232zM2073 0h-261v969h261v-969zM1941 1454c93 0 167 -74 167 -168s-74 -166 -167 -166c-94 0 -166 72 -166 166s72 168 166 168z" />
    <glyph glyph-name="uniFB04" unicode="&#xfb04;" horiz-adv-x="2210" 
d="M784 737h-301v-737h-261v737h-181v232h181v120c0 227 121 376 347 376c132 0 223 -38 298 -87l-104 -203c-48 27 -105 47 -166 47c-76 0 -114 -45 -114 -136v-117h301v-232zM1610 737h-301v-737h-261v737h-181v232h181v120c0 227 121 376 347 376c132 0 223 -38 298 -87
l-104 -203c-48 27 -105 47 -166 47c-76 0 -114 -45 -114 -136v-117h301v-232zM2073 0h-261v1440h261v-1440z" />
    <glyph glyph-name="uniFB05" unicode="&#xfb05;" horiz-adv-x="1451" 
d="M1359 737h-352v-354c0 -120 64 -165 146 -165c61 0 129 31 182 63l95 -204c-84 -59 -182 -102 -321 -102c-240 0 -362 135 -362 387v375h-162v232h162v54c0 146 -77 205 -178 205s-178 -59 -178 -205v-1023h-261v1034c0 301 207 431 439 431c233 0 438 -129 438 -432v-64
h352v-232z" />
    <glyph glyph-name="uniFB06" unicode="&#xfb06;" horiz-adv-x="1940" 
d="M832 699c-77 37 -200 79 -309 79c-100 0 -149 -35 -149 -88c0 -57 70 -70 158 -83l86 -13c211 -32 327 -125 327 -290c0 -200 -164 -329 -445 -329c-132 0 -305 26 -431 114l103 198c82 -55 185 -95 330 -95c121 0 179 34 179 91c0 47 -48 73 -161 89l-79 11
c-223 31 -335 129 -335 294c0 199 154 317 409 317c154 0 278 -28 405 -92zM1847 737h-351v-354c0 -120 65 -165 145 -165c63 0 129 31 182 63l96 -204c-85 -59 -184 -102 -321 -102c-241 0 -363 135 -363 387v375h-187v232h187v288h261v-288h351v-232z" />
    <glyph glyph-name="uni030C.alt001" unicode="&#xe01d;" horiz-adv-x="1" 
d="M-729 1012v428h257l-51 -428h-206z" />
    <glyph glyph-name="uni0328.alt001" unicode="&#xe01e;" horiz-adv-x="1" 
d="M-356 -330c-60 -55 -140 -89 -240 -89c-140 0 -248 73 -248 196c0 141 126 225 278 302l72 -76c-99 -61 -124 -117 -124 -161c0 -35 23 -54 58 -54c27 0 51 12 76 35z" />
    <glyph glyph-name="uni0328.alt002" unicode="&#xe01f;" horiz-adv-x="1" 
d="M-472 24c-138 -61 -173 -116 -173 -167c0 -40 31 -69 83 -69c43 0 78 17 111 45l136 -148c-72 -68 -166 -104 -275 -104c-174 0 -295 90 -295 219c0 148 130 229 334 295z" />
    <glyph glyph-name="uni0328.alt003" unicode="&#xe020;" horiz-adv-x="1" 
d="M-356 -330c-60 -55 -140 -89 -240 -89c-140 0 -248 74 -248 200c0 139 147 220 324 298l72 -76c-132 -62 -170 -117 -170 -161c0 -35 23 -54 58 -54c27 0 51 12 76 35z" />
    <glyph glyph-name="uni0328.alt004" unicode="&#xe021;" horiz-adv-x="1" 
d="M-315 -315c-72 -68 -166 -104 -275 -104c-174 0 -295 90 -295 219c0 148 130 229 334 295l79 -71c-138 -61 -173 -116 -173 -167c0 -40 31 -69 83 -69c43 0 78 17 111 45z" />
    <glyph glyph-name="zero.osf" unicode="&#xe023;" horiz-adv-x="1344" 
d="M672 1095c320 0 576 -219 576 -561c0 -340 -256 -559 -576 -559s-575 219 -575 559c0 342 255 561 575 561zM672 850c-173 0 -310 -122 -310 -315c0 -194 137 -315 310 -315c175 0 311 121 311 315c0 193 -136 315 -311 315z" />
    <glyph glyph-name="one.osf" unicode="&#xe00f;" horiz-adv-x="775" 
d="M621 0h-264v746l-304 -94v257l568 189v-1098z" />
    <glyph glyph-name="two.osf" unicode="&#xe01b;" horiz-adv-x="1109" 
d="M63 870c75 94 226 225 472 225c263 0 453 -151 453 -372c0 -190 -139 -313 -307 -409l-121 -70h482v-244h-925v210l397 248c151 93 199 166 199 235c0 90 -79 157 -200 157c-130 0 -216 -69 -285 -148z" />
    <glyph glyph-name="three.osf" unicode="&#xe018;" horiz-adv-x="1123" 
d="M524 1095c288 0 486 -161 486 -404c0 -147 -77 -255 -204 -316c144 -59 235 -172 235 -321c0 -277 -247 -410 -507 -410c-209 0 -380 74 -485 203l160 173c80 -87 196 -136 316 -136c135 0 239 59 239 184c0 124 -122 189 -269 189h-160v237h160c133 0 241 59 241 180
c0 116 -102 179 -227 179c-126 0 -222 -69 -277 -143l-170 166c88 125 240 219 462 219z" />
    <glyph glyph-name="four.osf" unicode="&#xe009;" horiz-adv-x="1159" 
d="M903 248h217v-248h-217v-332h-264v332h-600v196l442 872h283l-415 -820h290v316h264v-316z" />
    <glyph glyph-name="five.osf" unicode="&#xe006;" horiz-adv-x="1154" 
d="M988 821h-568l-5 -286h165c325 0 487 -191 487 -420c0 -304 -231 -473 -508 -473c-211 0 -379 76 -496 213l155 183c74 -85 212 -149 339 -149c159 0 233 97 233 205c0 105 -61 200 -285 200h-333l13 774h803v-247z" />
    <glyph glyph-name="six.osf" unicode="&#xe015;" horiz-adv-x="1170" 
d="M555 910c20 3 41 5 68 5c282 0 484 -201 484 -465c0 -272 -224 -475 -525 -475c-298 0 -524 200 -524 471c0 128 48 242 133 370l388 584h322zM582 681c-141 0 -248 -95 -248 -232c0 -139 107 -234 248 -234c143 0 249 95 249 234c0 137 -106 232 -249 232z" />
    <glyph glyph-name="seven.osf" unicode="&#xe012;" horiz-adv-x="1100" 
d="M1042 861l-583 -1193h-313l580 1152h-668v248h984v-207z" />
    <glyph glyph-name="eight.osf" unicode="&#xe003;" horiz-adv-x="1219" 
d="M610 1425c272 0 494 -158 494 -404c0 -156 -92 -259 -209 -315c133 -56 242 -156 242 -325c0 -248 -236 -406 -527 -406s-528 158 -528 406c0 169 109 269 242 325c-117 56 -208 159 -208 315c0 246 222 404 494 404zM610 595c-134 0 -243 -75 -243 -192
s109 -190 243 -190c133 0 242 73 242 190s-109 192 -242 192zM610 1184c-118 0 -213 -72 -213 -181c0 -115 95 -186 213 -186c117 0 212 71 212 186c0 109 -95 181 -212 181z" />
    <glyph glyph-name="nine.osf" unicode="&#xe00c;" horiz-adv-x="1170" 
d="M614 158c-20 -3 -43 -4 -68 -4c-281 0 -483 201 -483 465c0 273 224 476 524 476c299 0 525 -200 525 -472c0 -128 -48 -242 -133 -370l-388 -584h-322zM587 388c141 0 248 95 248 232c0 139 -107 234 -248 234s-248 -95 -248 -234c0 -137 107 -232 248 -232z" />
    <glyph glyph-name="zero" unicode="0" 
d="M604 1425c296 0 542 -225 542 -725c0 -519 -246 -725 -542 -725c-300 0 -551 206 -551 725c0 520 251 725 551 725zM604 1166c-145 0 -272 -114 -272 -466s127 -466 272 -466c140 0 264 114 264 466c0 332 -124 466 -264 466z" />
    <glyph glyph-name="one" unicode="1" 
d="M529 256v803l-348 -124v269l617 218v-1166h317v-256h-918v256h332z" />
    <glyph glyph-name="two" unicode="2" 
d="M96 1184c75 100 218 241 478 241c293 0 475 -184 475 -452c0 -172 -88 -289 -202 -409l-299 -311h535v-253h-925v211l495 507c75 76 115 152 115 240c0 122 -86 209 -214 209c-133 0 -212 -71 -284 -154z" />
    <glyph glyph-name="three" unicode="3" 
d="M558 1425c295 0 496 -160 496 -402c0 -149 -78 -257 -209 -318c148 -59 240 -169 240 -321c0 -276 -252 -409 -516 -409c-211 0 -382 74 -489 203l161 177c81 -85 197 -134 318 -134c136 0 245 58 245 182c0 120 -123 183 -274 183h-163v240h164c136 0 245 60 245 178
c0 113 -102 175 -232 175c-129 0 -226 -66 -283 -142l-170 171c91 124 243 217 467 217z" />
    <glyph glyph-name="four" unicode="4" 
d="M948 508h195v-252h-195v-256h-270v256h-621v196l491 947h300l-468 -891h298v373h270v-373z" />
    <glyph glyph-name="five" unicode="5" 
d="M1011 1149h-567l-6 -280h161c326 0 490 -187 490 -421c0 -301 -228 -473 -511 -473c-211 0 -379 77 -496 209l152 189c75 -83 214 -148 342 -148c156 0 233 92 233 203c0 105 -65 197 -285 197h-333l15 775h805v-251z" />
    <glyph glyph-name="six" unicode="6" 
d="M573 913c19 3 41 4 65 4c284 0 485 -204 485 -465c0 -275 -226 -477 -527 -477c-299 0 -525 200 -525 472c0 129 48 243 133 372l388 581h326zM596 680c-139 0 -244 -95 -244 -230c0 -136 105 -230 244 -230c141 0 246 94 246 230c0 135 -105 230 -246 230z" />
    <glyph glyph-name="seven" unicode="7" 
d="M1097 1189l-580 -1189h-318l576 1148h-665v252h987v-211z" />
    <glyph glyph-name="eight" unicode="8" 
d="M602 1425c283 0 513 -150 513 -402c0 -161 -93 -261 -214 -317c138 -53 248 -154 248 -325c0 -255 -246 -406 -547 -406s-547 151 -547 406c0 171 108 272 247 325c-120 56 -213 156 -213 317c0 252 230 402 513 402zM602 596c-140 0 -256 -67 -256 -192
c0 -123 116 -188 256 -188c139 0 256 65 256 188c0 125 -117 192 -256 192zM602 1181c-125 0 -226 -63 -226 -179c0 -120 101 -184 226 -184s226 64 226 184c0 116 -101 179 -226 179z" />
    <glyph glyph-name="nine" unicode="9" 
d="M625 487c-19 -3 -39 -4 -63 -4c-284 0 -485 204 -485 465c0 274 226 477 526 477s526 -200 526 -472c0 -129 -48 -244 -133 -372l-388 -581h-326zM603 720c140 0 245 95 245 230c0 136 -105 230 -245 230c-141 0 -245 -94 -245 -230c0 -135 104 -230 245 -230z" />
    <glyph glyph-name="uni2007" unicode="&#x2007;" 
 />
    <glyph glyph-name="zero.tosf" unicode="&#xe024;" 
d="M599 1095c300 0 542 -217 542 -561c0 -345 -242 -561 -542 -561s-541 216 -541 561c0 344 241 561 541 561zM599 856c-152 0 -277 -119 -277 -322s125 -321 277 -321c155 0 277 118 277 321s-122 322 -277 322z" />
    <glyph glyph-name="one.tosf" unicode="&#xe010;" 
d="M515 248v515l-337 -98v261l601 172v-850l312 1v-249h-898v248h322z" />
    <glyph glyph-name="two.tosf" unicode="&#xe01c;" 
d="M113 870c75 94 226 225 472 225c263 0 453 -151 453 -372c0 -190 -139 -313 -307 -409l-121 -70h482v-244h-925v210l397 248c151 93 199 166 199 235c0 90 -79 157 -200 157c-130 0 -216 -69 -285 -148z" />
    <glyph glyph-name="three.tosf" unicode="&#xe019;" 
d="M564 1095c288 0 486 -161 486 -404c0 -147 -77 -255 -204 -316c144 -59 235 -172 235 -321c0 -277 -247 -410 -507 -410c-209 0 -380 74 -485 203l160 173c80 -87 196 -136 316 -136c135 0 239 59 239 184c0 124 -122 189 -269 189h-160v237h160c133 0 241 59 241 180
c0 116 -102 179 -227 179c-126 0 -222 -69 -277 -143l-170 166c88 125 240 219 462 219z" />
    <glyph glyph-name="four.tosf" unicode="&#xe00a;" 
d="M937 248h217v-248h-217v-332h-264v332h-600v196l442 872h283l-415 -820h290v316h264v-316z" />
    <glyph glyph-name="five.tosf" unicode="&#xe007;" 
d="M1010 821h-568l-5 -286h165c325 0 487 -191 487 -420c0 -304 -231 -473 -508 -473c-211 0 -379 76 -496 213l155 183c74 -85 212 -149 339 -149c159 0 233 97 233 205c0 105 -61 200 -285 200h-333l13 774h803v-247z" />
    <glyph glyph-name="six.tosf" unicode="&#xe016;" 
d="M575 910c20 3 41 5 68 5c282 0 484 -201 484 -465c0 -272 -224 -475 -525 -475c-298 0 -524 200 -524 471c0 128 48 242 133 370l388 584h322zM602 681c-141 0 -248 -95 -248 -232c0 -139 107 -234 248 -234c143 0 249 95 249 234c0 137 -106 232 -249 232z" />
    <glyph glyph-name="seven.tosf" unicode="&#xe013;" 
d="M1106 861l-583 -1193h-313l580 1152h-668v248h984v-207z" />
    <glyph glyph-name="eight.tosf" unicode="&#xe004;" 
d="M610 1425c272 0 494 -158 494 -404c0 -156 -92 -259 -209 -315c133 -56 242 -156 242 -325c0 -248 -236 -406 -527 -406s-528 158 -528 406c0 169 109 269 242 325c-117 56 -208 159 -208 315c0 246 222 404 494 404zM610 595c-134 0 -243 -75 -243 -192
s109 -190 243 -190c133 0 242 73 242 190s-109 192 -242 192zM610 1184c-118 0 -213 -72 -213 -181c0 -115 95 -186 213 -186c117 0 212 71 212 186c0 109 -95 181 -212 181z" />
    <glyph glyph-name="nine.tosf" unicode="&#xe00d;" 
d="M624 158c-20 -3 -43 -4 -68 -4c-281 0 -483 201 -483 465c0 273 224 476 524 476c299 0 525 -200 525 -472c0 -128 -48 -242 -133 -370l-388 -584h-322zM597 388c141 0 248 95 248 232c0 139 -107 234 -248 234s-248 -95 -248 -234c0 -137 107 -232 248 -232z" />
    </font>
</defs>
</svg>
