<?xml version="1.0" standalone="no"?>
<!DOCTYPE svg PUBLIC "-//W3C//DTD SVG 1.1//EN" "http://www.w3.org/Graphics/SVG/1.1/DTD/svg11.dtd" >
<svg>
<metadata>
Created by FontForge 20120731 at Mon Jan 21 06:27:13 2019
 By www-data
2013 published by FontShop International GmbH
</metadata>
<defs>
<font id="Mark-Regular" horiz-adv-x="1200" >
  <font-face 
    font-family="Mark"
    font-weight="400"
    font-stretch="normal"
    units-per-em="2000"
    panose-1="2 0 5 0 0 0 0 0 0 0"
    ascent="1580"
    descent="-420"
    x-height="947"
    cap-height="1400"
    bbox="-946 -477 2139 1936"
    underline-thickness="136"
    underline-position="-124"
    stemh="140"
    stemv="161"
    unicode-range="U+0020-FEFF"
  />
<missing-glyph horiz-adv-x="1201" 
d="M175 1400h851v-1400h-851v1400zM890 136v1128h-579v-1128h579z" />
    <glyph glyph-name="ellipsis" unicode="&#x2e;&#x2e;&#x2e;" horiz-adv-x="1490" 
d="M263 233c67 0 124 -58 124 -125s-57 -126 -124 -126s-126 59 -126 126s59 125 126 125zM746 233c67 0 125 -58 125 -125s-58 -126 -125 -126s-125 59 -125 126s58 125 125 125zM1229 233c67 0 125 -58 125 -125s-58 -126 -125 -126s-125 59 -125 126s58 125 125 125z" />
    <glyph glyph-name=".notdef" horiz-adv-x="1201" 
d="M175 1400h851v-1400h-851v1400zM890 136v1128h-579v-1128h579z" />
    <glyph glyph-name=".null" unicode="&#xe000;" horiz-adv-x="0" 
 />
    <glyph glyph-name="CR" unicode="&#xe001;" horiz-adv-x="534" 
 />
    <glyph glyph-name="space" unicode=" " horiz-adv-x="534" 
 />
    <glyph glyph-name="exclam" unicode="!" horiz-adv-x="524" 
d="M329 445h-135l-24 955h183zM262 233c67 0 125 -58 125 -125s-58 -126 -125 -126s-125 59 -125 126s58 125 125 125z" />
    <glyph glyph-name="quotedbl" unicode="&#x22;" horiz-adv-x="1049" 
d="M432 1440v-507h-149v507h149zM766 1440v-507h-149v507h149z" />
    <glyph glyph-name="numbersign" unicode="#" horiz-adv-x="1465" 
d="M492 1032l78 368h139l-78 -368h346l78 368h139l-78 -368h228l-29 -133h-228l-83 -391h227l-28 -133h-227l-80 -375h-139l80 375h-346l-80 -375h-139l80 375h-231l29 133h230l83 391h-230l28 133h231zM519 508h346l83 391h-346z" />
    <glyph glyph-name="dollar" unicode="$" horiz-adv-x="1400" 
d="M782 1580v-190c179 -12 320 -70 435 -147l-79 -125c-95 64 -217 113 -356 125v-474l32 -4c238 -29 423 -135 420 -358c-3 -241 -201 -372 -452 -396v-198h-138v196c-176 11 -364 78 -478 168l83 123c85 -69 240 -132 395 -145v479l-37 5c-237 32 -405 141 -402 360
c3 230 192 366 439 390v191h138zM1079 400c1 117 -105 187 -297 218v-461c171 19 294 99 297 243zM362 1003c-1 -115 86 -189 282 -218v457c-166 -18 -282 -106 -282 -239z" />
    <glyph glyph-name="percent" unicode="%" horiz-adv-x="1938" 
d="M463 1419c212 0 370 -156 370 -362c0 -208 -158 -364 -370 -364c-208 0 -366 156 -366 364c0 206 158 362 366 362zM463 1287c-128 0 -226 -96 -226 -230c0 -136 98 -232 226 -232c132 0 229 96 229 232c0 134 -97 230 -229 230zM605 0h-156l883 1400h156zM1471 707
c212 0 370 -158 370 -363c0 -208 -158 -363 -370 -363c-208 0 -366 155 -366 363c0 205 158 363 366 363zM1471 575c-128 0 -226 -96 -226 -231s98 -231 226 -231c132 0 230 96 230 231s-98 231 -230 231z" />
    <glyph glyph-name="ampersand" unicode="&#x26;" horiz-adv-x="1406" 
d="M1154 0l-213 207c-104 -126 -231 -226 -431 -226c-244 0 -399 133 -399 350c0 182 133 305 275 412c-138 136 -205 225 -205 361c0 175 145 315 353 315c206 0 350 -129 350 -307c0 -160 -131 -271 -272 -375l314 -305l217 324l120 -76l-232 -350l339 -330h-216zM519 122
c138 0 227 68 318 185l-350 338c-118 -89 -216 -183 -216 -309c0 -127 101 -214 248 -214zM342 1095c0 -84 42 -136 169 -261c118 85 214 168 214 271c0 102 -75 173 -191 173c-117 0 -192 -76 -192 -183z" />
    <glyph glyph-name="quotesingle" unicode="'" horiz-adv-x="715" 
d="M432 1440v-507h-149v507h149z" />
    <glyph glyph-name="parenleft" unicode="(" horiz-adv-x="817" 
d="M736 1293c-264 -109 -431 -399 -431 -725c0 -325 167 -617 431 -724l-52 -138c-321 123 -539 461 -539 862c0 402 218 739 539 862z" />
    <glyph glyph-name="parenright" unicode=")" horiz-adv-x="817" 
d="M81 -155c264 107 431 400 431 725c0 327 -167 615 -431 724l52 138c321 -123 539 -461 539 -862c0 -402 -218 -739 -539 -862z" />
    <glyph glyph-name="asterisk" unicode="*" horiz-adv-x="897" 
d="M392 1171v269h114v-269l255 84l35 -110l-255 -83l158 -217l-93 -67l-158 217l-157 -217l-93 67l158 217l-255 83l35 110z" />
    <glyph glyph-name="plus" unicode="+" 
d="M529 96v365h-364v136h364v368h139v-368h367v-136h-367v-365h-139z" />
    <glyph glyph-name="comma" unicode="," horiz-adv-x="494" 
d="M361 248l-105 -507h-129l60 507h174z" />
    <glyph glyph-name="hyphen" unicode="-" horiz-adv-x="838" 
d="M697 461h-556v136h556v-136z" />
    <glyph glyph-name="period" unicode="." horiz-adv-x="523" 
d="M262 232c67 0 125 -58 125 -125s-58 -126 -125 -126s-125 59 -125 126s58 125 125 125z" />
    <glyph glyph-name="slash" unicode="/" horiz-adv-x="992" 
d="M156 -200h-165l849 1740h165z" />
    <glyph glyph-name="zero.lf" unicode="&#xe022;" horiz-adv-x="1419" 
d="M709 1418c319 0 579 -269 579 -718c0 -448 -260 -718 -579 -718c-318 0 -578 270 -578 718c0 449 260 718 578 718zM709 1270c-228 0 -416 -203 -416 -570s188 -570 416 -570c231 0 418 203 418 570s-187 570 -418 570z" />
    <glyph glyph-name="one.lf" unicode="&#xe00e;" horiz-adv-x="844" 
d="M634 0h-154v1193l-414 -179v161l568 242v-1417z" />
    <glyph glyph-name="two.lf" unicode="&#xe01a;" horiz-adv-x="1099" 
d="M85 1186c66 98 189 232 429 232c284 0 447 -186 447 -433c0 -173 -97 -300 -188 -396l-418 -442h652v-147h-881v121l529 558c85 89 144 186 144 306c0 161 -103 286 -290 286c-159 0 -245 -83 -312 -175z" />
    <glyph glyph-name="three.lf" unicode="&#xe017;" horiz-adv-x="1113" 
d="M507 1418c276 0 463 -156 463 -383c0 -165 -87 -272 -219 -328c147 -53 250 -167 250 -332c0 -267 -234 -393 -481 -393c-196 0 -351 68 -454 184l99 103c88 -91 213 -143 352 -143c173 0 323 82 323 256c0 162 -151 254 -338 254h-184v141h183c172 0 308 84 308 250
c0 151 -135 247 -311 247c-140 0 -248 -73 -309 -159l-111 95c80 119 228 208 429 208z" />
    <glyph glyph-name="four.lf" unicode="&#xe008;" horiz-adv-x="1152" 
d="M860 440h239v-146h-239v-294h-154v294h-654v119l523 986h175l-513 -959h469v390h154v-390z" />
    <glyph glyph-name="five.lf" unicode="&#xe005;" horiz-adv-x="1156" 
d="M974 1254h-618l-13 -414h206c330 0 489 -188 489 -412c0 -286 -214 -447 -479 -447c-197 0 -355 73 -474 218l103 100c92 -109 228 -171 371 -171c205 0 319 129 319 287c0 153 -101 279 -376 279h-305l18 706h759v-146z" />
    <glyph glyph-name="six.lf" unicode="&#xe014;" horiz-adv-x="1157" 
d="M425 853c44 23 101 40 177 40c261 0 470 -195 470 -456c0 -260 -211 -455 -496 -455s-497 195 -497 455c0 109 36 205 104 310l417 653h188zM576 750c-193 0 -338 -129 -338 -313c0 -182 143 -312 338 -312c194 0 337 130 337 312c0 184 -143 313 -337 313z" />
    <glyph glyph-name="seven.lf" unicode="&#xe011;" horiz-adv-x="1095" 
d="M1029 1279l-633 -1279h-180l627 1254h-764v146h950v-121z" />
    <glyph glyph-name="eight.lf" unicode="&#xe002;" horiz-adv-x="1261" 
d="M630 1418c267 0 486 -139 486 -383c0 -172 -108 -277 -244 -328c152 -51 277 -155 277 -334c0 -251 -234 -392 -519 -392s-519 141 -519 392c0 179 125 283 277 334c-136 51 -244 156 -244 328c0 244 219 383 486 383zM630 638c-196 0 -356 -89 -356 -256
c0 -169 160 -257 356 -257c195 0 355 88 355 257c0 167 -160 256 -355 256zM630 1274c-177 0 -323 -86 -323 -247c0 -168 146 -254 323 -254s323 86 323 254c0 161 -146 247 -323 247z" />
    <glyph glyph-name="nine.lf" unicode="&#xe00b;" horiz-adv-x="1157" 
d="M711 529c-45 -15 -93 -22 -144 -22c-276 0 -482 195 -482 456c0 260 211 455 496 455s497 -195 497 -455c0 -109 -36 -205 -104 -310l-417 -653h-188zM581 650c194 0 337 129 337 313c0 182 -143 312 -337 312s-337 -132 -337 -312c0 -181 143 -313 337 -313z" />
    <glyph glyph-name="colon" unicode=":" horiz-adv-x="523" 
d="M262 966c67 0 125 -57 125 -125c0 -67 -58 -126 -125 -126s-125 59 -125 126c0 68 58 125 125 125zM262 233c67 0 125 -58 125 -125s-58 -126 -125 -126s-125 59 -125 126s58 125 125 125z" />
    <glyph glyph-name="semicolon" unicode=";" horiz-adv-x="494" 
d="M257 966c67 0 125 -57 125 -125c0 -67 -58 -126 -125 -126s-125 59 -125 126c0 68 58 125 125 125zM361 248l-105 -507h-129l60 507h174z" />
    <glyph glyph-name="less" unicode="&#x3c;" 
d="M994 84l-787 372v147l787 372v-159l-636 -286l636 -287v-159z" />
    <glyph glyph-name="equal" unicode="=" 
d="M1035 276h-870v136h870v-136zM1035 646h-870v136h870v-136z" />
    <glyph glyph-name="greater" unicode="&#x3e;" 
d="M207 975l787 -372v-147l-787 -372v159l636 286l-636 287v159z" />
    <glyph glyph-name="question" unicode="?" horiz-adv-x="864" 
d="M210 445v314h64c228 0 364 97 364 261c0 154 -138 247 -358 247c-49 0 -98 -4 -137 -7l-13 153c44 7 107 11 158 11c317 0 516 -157 516 -397c0 -231 -164 -378 -451 -407l-8 -175h-135zM278 232c67 0 124 -58 124 -125s-57 -126 -124 -126s-126 59 -126 126
s59 125 126 125z" />
    <glyph glyph-name="at" unicode="@" horiz-adv-x="1976" 
d="M1365 422c0 -145 39 -207 119 -207c107 0 186 106 186 319c0 387 -294 652 -683 652c-388 0 -682 -290 -682 -686c0 -403 294 -693 682 -693c161 0 307 49 432 136l70 -96c-145 -107 -315 -160 -502 -160c-471 0 -818 351 -818 813c0 457 347 806 818 806
c472 0 819 -328 819 -772c0 -248 -122 -437 -329 -437c-125 0 -197 62 -225 149c-61 -87 -158 -145 -295 -145c-216 0 -384 169 -384 399c0 229 168 399 384 399c129 0 221 -54 281 -134v119h127v-462zM974 778c-160 0 -269 -122 -269 -278s109 -278 269 -278
c157 0 270 119 270 278s-113 278 -270 278z" />
    <glyph glyph-name="A" unicode="A" horiz-adv-x="1421" 
d="M1385 0h-172l-159 390h-693l-158 -390h-167l575 1400h199zM423 542h570l-285 699z" />
    <glyph glyph-name="B" unicode="B" horiz-adv-x="1402" 
d="M744 1400c294 0 506 -103 506 -369c0 -158 -85 -267 -211 -310c140 -46 241 -159 241 -332c0 -272 -200 -389 -510 -389h-568v1400h542zM363 635v-484h400c210 0 348 55 348 243c0 186 -138 241 -348 241h-400zM363 1249v-464h376c192 0 342 46 342 234
c0 184 -150 230 -343 230h-375z" />
    <glyph glyph-name="C" unicode="C" horiz-adv-x="1530" 
d="M844 1420c244 0 461 -111 571 -290l-134 -90c-93 138 -252 225 -437 225c-314 0 -554 -228 -554 -565s240 -565 554 -565c187 0 342 83 437 224l130 -96c-117 -175 -325 -283 -567 -283c-416 0 -723 300 -723 720s307 720 723 720z" />
    <glyph glyph-name="D" unicode="D" horiz-adv-x="1598" 
d="M729 1400c457 0 747 -273 747 -700s-290 -700 -747 -700h-527v1400h527zM363 1248v-1096h366c379 0 578 220 578 548c0 331 -199 548 -578 548h-366z" />
    <glyph glyph-name="E" unicode="E" horiz-adv-x="1348" 
d="M1187 0h-985v1400h976v-151h-815v-469h790v-150h-790v-479h824v-151z" />
    <glyph glyph-name="F" unicode="F" horiz-adv-x="1292" 
d="M1133 629h-770v-629h-161v1400h969v-152h-808v-467h770v-152z" />
    <glyph glyph-name="G" unicode="G" horiz-adv-x="1639" 
d="M844 1420c224 0 414 -87 543 -235l-119 -114c-100 121 -249 194 -424 194c-314 0 -554 -228 -554 -565s240 -565 547 -565c295 0 480 176 504 463h-436v150h610c1 -15 2 -28 2 -41c0 -408 -259 -726 -680 -726c-368 0 -716 266 -716 719c0 421 310 720 723 720z" />
    <glyph glyph-name="H" unicode="H" horiz-adv-x="1573" 
d="M363 781h847v619h161v-1400h-161v629h-847v-629h-161v1400h161v-619z" />
    <glyph glyph-name="I" unicode="I" horiz-adv-x="565" 
d="M363 0h-161v1400h161v-1400z" />
    <glyph glyph-name="J" unicode="J" horiz-adv-x="1150" 
d="M958 499c0 -333 -209 -518 -486 -518c-224 0 -355 104 -432 197l108 110c67 -83 170 -153 323 -153c196 0 327 129 327 380v885h160v-901z" />
    <glyph glyph-name="K" unicode="K" horiz-adv-x="1388" 
d="M529 628h-166v-628h-161v1400h161v-620h169l581 620h208l-658 -687l701 -713h-219z" />
    <glyph glyph-name="L" unicode="L" horiz-adv-x="1213" 
d="M1173 0h-971v1400h161v-1248h810v-152z" />
    <glyph glyph-name="M" unicode="M" horiz-adv-x="1870" 
d="M1668 0h-161v1220l-488 -1065h-169l-487 1057v-1212h-161v1400h244l489 -1058l488 1058h245v-1400z" />
    <glyph glyph-name="N" unicode="N" horiz-adv-x="1577" 
d="M1375 0h-145l-867 1124v-1124h-161v1400h145l867 -1124v1124h161v-1400z" />
    <glyph glyph-name="O" unicode="O" horiz-adv-x="1689" 
d="M844 1420c416 0 723 -300 723 -720s-307 -720 -723 -720s-723 300 -723 720s307 720 723 720zM844 1265c-314 0 -554 -228 -554 -565s240 -565 554 -565c315 0 555 228 555 565s-240 565 -555 565z" />
    <glyph glyph-name="P" unicode="P" horiz-adv-x="1328" 
d="M363 563v-563h-161v1400h529c315 0 495 -157 495 -419c0 -261 -180 -418 -495 -418h-368zM363 1248v-534h363c217 0 333 88 333 267s-116 267 -333 267h-363z" />
    <glyph glyph-name="Q" unicode="Q" horiz-adv-x="1689" 
d="M844 1420c416 0 723 -300 723 -720c0 -183 -57 -340 -156 -461l185 -239h-189l-105 131c-123 -96 -279 -151 -458 -151c-416 0 -723 300 -723 720s307 720 723 720zM844 1265c-314 0 -554 -228 -554 -565s240 -565 554 -565c140 0 263 43 359 123l-324 415h192l235 -300
c60 89 93 199 93 327c0 337 -240 565 -555 565z" />
    <glyph glyph-name="R" unicode="R" horiz-adv-x="1353" 
d="M751 1400c315 0 489 -142 489 -395c0 -242 -188 -396 -487 -396h-23l503 -609h-200l-493 609h-177v-609h-161v1400h549zM363 1249v-494h386c215 0 324 86 324 250c0 163 -113 244 -324 244h-386z" />
    <glyph glyph-name="S" unicode="S" horiz-adv-x="1346" 
d="M1116 1135c-113 77 -253 131 -422 131c-211 0 -362 -96 -362 -253c0 -131 104 -202 323 -227l133 -16c231 -29 437 -124 437 -368c0 -276 -252 -421 -554 -421c-202 0 -420 71 -550 180l88 128c95 -82 280 -156 461 -156c217 0 388 88 388 255c0 136 -118 204 -339 229
l-141 16c-239 27 -413 138 -413 370c0 266 237 415 530 415c212 0 375 -62 503 -153z" />
    <glyph glyph-name="T" unicode="T" horiz-adv-x="1212" 
d="M1172 1248h-486v-1248h-160v1248h-486v152h1132v-152z" />
    <glyph glyph-name="U" unicode="U" horiz-adv-x="1517" 
d="M1335 548c0 -380 -257 -567 -577 -567s-576 187 -576 567v852h160v-840c0 -293 177 -425 416 -425s416 132 416 425v840h161v-852z" />
    <glyph glyph-name="V" unicode="V" horiz-adv-x="1394" 
d="M797 0h-199l-562 1400h171l492 -1240l493 1240h166z" />
    <glyph glyph-name="W" unicode="W" horiz-adv-x="2197" 
d="M1684 0h-198l-388 1186l-388 -1186h-197l-455 1400h168l387 -1218l396 1218h182l395 -1219l388 1219h165z" />
    <glyph glyph-name="X" unicode="X" horiz-adv-x="1367" 
d="M782 716l525 -716h-194l-431 593l-432 -593h-190l525 716l-501 684h194l407 -561l408 561h191z" />
    <glyph glyph-name="Y" unicode="Y" horiz-adv-x="1287" 
d="M725 587v-587h-160v589l-554 811h192l443 -664l443 664h187z" />
    <glyph glyph-name="Z" unicode="Z" horiz-adv-x="1314" 
d="M1190 1276l-855 -1124h858v-152h-1072v124l856 1124h-846v152h1059v-124z" />
    <glyph glyph-name="bracketleft" unicode="[" horiz-adv-x="752" 
d="M671 -263h-469v1663h469v-138h-315v-1387h315v-138z" />
    <glyph glyph-name="backslash" unicode="\" horiz-adv-x="992" 
d="M-13 1540h165l849 -1740h-165z" />
    <glyph glyph-name="bracketright" unicode="]" horiz-adv-x="752" 
d="M81 1400h469v-1663h-469v138h315v1387h-315v138z" />
    <glyph glyph-name="underscore" unicode="_" horiz-adv-x="937" 
d="M942 -272h-947v136h947v-136z" />
    <glyph glyph-name="a" unicode="a" horiz-adv-x="1246" 
d="M1071 0h-149v141c-76 -97 -189 -160 -346 -160c-267 0 -473 208 -473 493c0 284 206 492 473 492c157 0 270 -64 346 -160v141h149v-947zM594 826c-203 0 -339 -157 -339 -352c0 -196 138 -353 339 -353c197 0 337 152 337 353c0 200 -140 352 -337 352z" />
    <glyph glyph-name="b" unicode="b" horiz-adv-x="1246" 
d="M670 966c266 0 473 -208 473 -492c0 -285 -207 -493 -473 -493c-157 0 -269 63 -345 159v-140h-150v1440h150v-633c76 96 188 159 345 159zM652 826c-197 0 -337 -152 -337 -352c0 -201 140 -353 337 -353c203 0 338 157 338 353c0 195 -137 352 -338 352z" />
    <glyph glyph-name="c" unicode="c" horiz-adv-x="1024" 
d="M593 966c141 0 266 -52 351 -149l-96 -101c-72 69 -155 110 -259 110c-189 0 -334 -148 -334 -352s145 -353 334 -353c104 0 194 46 262 111l93 -102c-87 -97 -210 -149 -351 -149c-292 0 -490 212 -490 493c0 280 198 492 490 492z" />
    <glyph glyph-name="d" unicode="d" horiz-adv-x="1246" 
d="M576 966c157 0 270 -64 346 -160v634h149v-1440h-149v141c-76 -97 -189 -160 -346 -160c-267 0 -473 208 -473 493c0 284 206 492 473 492zM594 826c-203 0 -339 -157 -339 -352c0 -196 138 -353 339 -353c197 0 337 152 337 353c0 200 -140 352 -337 352z" />
    <glyph glyph-name="e" unicode="e" horiz-adv-x="1121" 
d="M573 966c257 0 442 -201 445 -489c0 -21 -1 -39 -3 -56h-759c21 -204 164 -309 335 -309c117 0 219 44 300 119l80 -102c-118 -113 -249 -148 -389 -148c-280 0 -479 199 -479 492c0 290 201 493 470 493zM570 833c-175 0 -288 -120 -312 -291h608
c-19 177 -135 291 -296 291z" />
    <glyph glyph-name="f" unicode="f" horiz-adv-x="863" 
d="M796 812h-377v-812h-150v812h-216v135h216v162c0 202 91 350 315 350c108 0 191 -30 259 -71l-54 -125c-51 31 -123 56 -195 56c-123 0 -175 -77 -175 -210v-162h377v-135z" />
    <glyph glyph-name="g" unicode="g" horiz-adv-x="1235" 
d="M572 966c153 0 266 -62 338 -161v142h150v-882c0 -309 -208 -480 -501 -480c-151 0 -303 47 -399 127l66 120c91 -68 204 -111 333 -111c205 0 351 117 351 338v97c-72 -100 -185 -161 -338 -161c-266 0 -469 199 -469 486c0 286 203 485 469 485zM589 826
c-201 0 -334 -154 -334 -345c0 -192 133 -346 334 -346c195 0 334 150 334 346c0 195 -139 345 -334 345z" />
    <glyph glyph-name="h" unicode="h" horiz-adv-x="1201" 
d="M325 815c78 110 202 151 317 151c234 0 395 -150 395 -379v-587h-149v538c0 181 -98 286 -273 286c-159 0 -290 -110 -290 -290v-534h-150v1440h150v-625z" />
    <glyph glyph-name="i" unicode="i" horiz-adv-x="500" 
d="M325 0h-150v947h150v-947zM250 1389c59 0 106 -46 106 -106s-47 -105 -106 -105c-60 0 -105 45 -105 105s45 106 105 106z" />
    <glyph glyph-name="j" unicode="j" horiz-adv-x="504" 
d="M329 -156c0 -168 -93 -259 -236 -259c-49 0 -101 13 -136 32l36 129c24 -12 55 -20 87 -20c61 0 99 37 99 125v1096h150v-1103zM253 1389c59 0 106 -46 106 -106s-47 -105 -106 -105c-60 0 -105 45 -105 105s45 106 105 106z" />
    <glyph glyph-name="k" unicode="k" horiz-adv-x="1058" 
d="M325 563h137l365 384h187l-430 -446l437 -501h-189l-371 427h-136v-427h-150v1440h150v-877z" />
    <glyph glyph-name="l" unicode="l" horiz-adv-x="500" 
d="M325 0h-150v1440h150v-1440z" />
    <glyph glyph-name="m" unicode="m" horiz-adv-x="1914" 
d="M1354 966c235 0 396 -150 396 -379v-587h-149v538c0 181 -99 286 -274 286c-159 0 -290 -110 -290 -290v-534h-149v538c0 181 -98 286 -273 286c-159 0 -290 -110 -290 -290v-534h-150v947h148v-135c78 113 202 154 319 154c167 0 294 -74 355 -199
c75 147 224 199 357 199z" />
    <glyph glyph-name="n" unicode="n" horiz-adv-x="1201" 
d="M642 966c234 0 395 -150 395 -379v-587h-149v538c0 181 -98 286 -273 286c-159 0 -290 -110 -290 -290v-534h-150v947h148v-135c78 113 202 154 319 154z" />
    <glyph glyph-name="o" unicode="o" horiz-adv-x="1203" 
d="M601 966c285 0 499 -212 499 -492c0 -281 -214 -493 -499 -493s-498 212 -498 493c0 280 213 492 498 492zM601 826c-196 0 -346 -148 -346 -352s150 -353 346 -353s346 149 346 353s-150 352 -346 352z" />
    <glyph glyph-name="p" unicode="p" horiz-adv-x="1246" 
d="M670 966c266 0 473 -208 473 -492c0 -285 -207 -493 -473 -493c-157 0 -269 63 -345 159v-540h-150v1347h150v-140c76 96 188 159 345 159zM652 826c-197 0 -337 -152 -337 -352c0 -201 140 -353 337 -353c203 0 338 157 338 353c0 195 -137 352 -338 352z" />
    <glyph glyph-name="q" unicode="q" horiz-adv-x="1246" 
d="M576 966c157 0 270 -64 346 -160v141h149v-1347h-149v541c-76 -97 -189 -160 -346 -160c-267 0 -473 208 -473 493c0 284 206 492 473 492zM594 826c-203 0 -339 -157 -339 -352c0 -196 138 -353 339 -353c197 0 337 152 337 353c0 200 -140 352 -337 352z" />
    <glyph glyph-name="r" unicode="r" horiz-adv-x="830" 
d="M604 966c68 0 123 -9 174 -32l-36 -147c-47 25 -108 38 -164 38c-148 0 -254 -116 -254 -295v-530h-149v947h148v-133c65 97 164 152 281 152z" />
    <glyph glyph-name="s" unicode="s" horiz-adv-x="987" 
d="M811 746c-60 42 -182 89 -310 89c-135 0 -224 -57 -224 -149c0 -80 68 -118 193 -133l112 -14c201 -27 318 -109 318 -264c0 -180 -162 -293 -417 -293c-122 0 -275 31 -395 121l69 112c72 -56 168 -103 328 -103s261 53 261 153c0 76 -63 122 -198 138l-113 13
c-215 27 -313 121 -313 262c0 180 150 287 378 287c149 0 284 -42 376 -103z" />
    <glyph glyph-name="t" unicode="t" horiz-adv-x="906" 
d="M818 812h-409v-478c0 -148 79 -213 188 -213c73 0 143 27 199 67l70 -113c-72 -55 -164 -94 -281 -94c-204 0 -325 112 -325 350v481h-207v135h207v301h149v-301h409v-135z" />
    <glyph glyph-name="u" unicode="u" horiz-adv-x="1188" 
d="M1024 395c0 -281 -202 -414 -430 -414c-229 0 -430 133 -430 414v552h149v-538c0 -196 118 -288 281 -288c162 0 280 92 280 288v538h150v-552z" />
    <glyph glyph-name="v" unicode="v" horiz-adv-x="1042" 
d="M609 -2h-175l-404 949h162l331 -797l331 797h158z" />
    <glyph glyph-name="w" unicode="w" horiz-adv-x="1706" 
d="M1221 155l285 792h155l-350 -947h-177l-283 787l-282 -787h-174l-350 947h159l283 -791l282 791h168z" />
    <glyph glyph-name="x" unicode="x" horiz-adv-x="1023" 
d="M607 485l381 -485h-183l-299 374l-296 -374h-175l380 484l-370 463h183l286 -359l287 359h176z" />
    <glyph glyph-name="y" unicode="y" horiz-adv-x="1054" 
d="M268 -404h-165l353 609l-435 742h167l353 -594l334 594h164z" />
    <glyph glyph-name="z" unicode="z" horiz-adv-x="1055" 
d="M924 838l-604 -703h613v-135h-811v108l610 704h-592v135h784v-109z" />
    <glyph glyph-name="braceleft" unicode="{" horiz-adv-x="854" 
d="M714 1262c-136 0 -227 -77 -219 -237l8 -134c9 -169 -65 -277 -204 -322c139 -45 213 -153 204 -322l-8 -134c-8 -160 83 -237 219 -237h59v-138h-59c-245 0 -385 142 -372 391l7 134c8 160 -84 237 -228 237v138c144 0 236 77 228 237l-7 134c-13 249 127 391 372 391
h59v-138h-59z" />
    <glyph glyph-name="bar" unicode="|" horiz-adv-x="715" 
d="M432 -265h-149v1665h149v-1665z" />
    <glyph glyph-name="braceright" unicode="}" horiz-adv-x="854" 
d="M140 -124c136 0 227 77 219 237l-8 134c-9 169 65 277 204 322c-139 45 -213 153 -204 322l8 134c8 160 -83 237 -219 237h-59v138h59c245 0 385 -142 372 -391l-7 -134c-8 -160 84 -237 228 -237v-138c-144 0 -236 -77 -228 -237l7 -134c13 -249 -127 -391 -372 -391
h-59v138h59z" />
    <glyph glyph-name="uni00A0" unicode="&#xa0;" horiz-adv-x="534" 
 />
    <glyph glyph-name="exclamdown" unicode="&#xa1;" horiz-adv-x="524" 
d="M195 502h135l24 -955h-183zM262 714c-67 0 -125 58 -125 125s58 126 125 126s125 -59 125 -126s-58 -125 -125 -125z" />
    <glyph glyph-name="sterling" unicode="&#xa3;" horiz-adv-x="1400" 
d="M1216 0h-1032v147h179v485h-179v136h179v137c0 342 214 513 470 513c149 0 278 -54 367 -162l-113 -100c-61 77 -149 115 -254 115c-180 0 -316 -117 -316 -377v-126h528v-136h-528v-485h699v-147z" />
    <glyph glyph-name="yen" unicode="&#xa5;" horiz-adv-x="1400" 
d="M1179 317h-397v-317h-154v317h-397v123h397v197h-397v123h330l-454 640h184l414 -593l408 593h181l-448 -640h333v-123h-397v-197h397v-123z" />
    <glyph glyph-name="section" unicode="&#xa7;" horiz-adv-x="1309" 
d="M1057 1160c-99 67 -229 119 -378 119c-190 0 -328 -78 -328 -206c0 -111 107 -166 302 -187l116 -13c211 -24 395 -113 395 -312c0 -115 -62 -200 -159 -257c84 -51 138 -126 138 -234c0 -242 -230 -361 -500 -361c-192 0 -379 65 -498 157l80 121
c90 -71 244 -138 418 -138c195 0 348 69 348 209c0 113 -126 165 -310 186l-126 14c-212 24 -377 118 -377 314c0 111 58 196 154 253c-83 51 -134 127 -134 238c0 224 213 355 480 355c187 0 338 -59 452 -136zM577 749c-37 4 -72 11 -107 19c-88 -35 -140 -99 -140 -186
c0 -111 109 -166 302 -187l118 -13c41 -5 80 -11 119 -22c88 35 143 97 143 189c0 111 -126 165 -310 186z" />
    <glyph glyph-name="copyright" unicode="&#xa9;" horiz-adv-x="1903" 
d="M951 1508c444 0 806 -359 806 -800s-362 -802 -806 -802c-447 0 -806 360 -806 802c0 441 359 800 806 800zM951 1376c-371 0 -670 -298 -670 -668c0 -371 299 -670 670 -670c370 0 670 299 670 670c0 370 -300 668 -670 668zM1203 884c-51 76 -133 122 -232 122
c-160 0 -284 -123 -284 -298c0 -187 129 -299 284 -299c99 0 182 46 234 122l105 -82c-73 -105 -193 -170 -338 -170c-243 0 -426 177 -426 429s183 429 426 429c145 0 270 -66 342 -178z" />
    <glyph glyph-name="guillemotleft" unicode="&#xab;" horiz-adv-x="1021" 
d="M874 159h-160l-192 370l192 370h160l-191 -370zM478 159h-160l-192 370l192 370h160l-191 -370z" />
    <glyph glyph-name="uni00AD" unicode="&#xad;" horiz-adv-x="838" 
d="M697 461h-556v136h556v-136z" />
    <glyph glyph-name="registered" unicode="&#xae;" horiz-adv-x="930" 
d="M466 1435c229 0 415 -183 415 -408c0 -223 -186 -408 -415 -408c-235 0 -418 185 -418 408c0 225 183 408 418 408zM466 709c175 0 315 142 315 318c0 177 -140 317 -315 317c-180 0 -319 -140 -319 -317c0 -176 139 -318 319 -318zM490 1218c97 0 152 -46 152 -121
c0 -63 -44 -106 -121 -115l124 -143h-97l-115 142h-37v-142h-81v379h175zM396 1147v-101h93c43 0 70 16 70 51c0 33 -27 50 -70 50h-93z" />
    <glyph glyph-name="degree" unicode="&#xb0;" horiz-adv-x="795" 
d="M397 728c-193 0 -349 154 -349 346c0 191 156 345 349 345c192 0 349 -154 349 -345c0 -192 -157 -346 -349 -346zM397 850c120 0 220 99 220 224c0 124 -100 223 -220 223c-121 0 -221 -99 -221 -223c0 -125 100 -224 221 -224z" />
    <glyph glyph-name="periodcentered" unicode="&#xb7;" horiz-adv-x="715" 
d="M359 654c67 0 124 -57 124 -124c0 -68 -57 -126 -124 -126s-126 58 -126 126c0 67 59 124 126 124z" />
    <glyph glyph-name="guillemotright" unicode="&#xbb;" horiz-adv-x="1021" 
d="M147 899h160l192 -370l-192 -370h-160l191 370zM543 899h160l192 -370l-192 -370h-160l191 370z" />
    <glyph glyph-name="questiondown" unicode="&#xbf;" horiz-adv-x="864" 
d="M654 502v-314h-64c-228 0 -364 -97 -364 -261c0 -154 138 -247 358 -247c49 0 98 4 137 7l13 -153c-44 -7 -107 -11 -158 -11c-317 0 -516 157 -516 397c0 231 163 377 450 406l9 176h135zM586 715c-67 0 -124 58 -124 125s57 126 124 126s126 -59 126 -126
s-59 -125 -126 -125z" />
    <glyph glyph-name="Agrave" unicode="&#xc0;" horiz-adv-x="1421" 
d="M1385 0h-172l-159 390h-693l-158 -390h-167l575 1400h199zM423 542h570l-285 699zM443 1807h189l210 -300h-148z" />
    <glyph glyph-name="Aacute" unicode="&#xc1;" horiz-adv-x="1421" 
d="M1385 0h-172l-159 390h-693l-158 -390h-167l575 1400h199zM423 542h570l-285 699zM570 1507l209 300h190l-251 -300h-148z" />
    <glyph glyph-name="Acircumflex" unicode="&#xc2;" horiz-adv-x="1421" 
d="M1385 0h-172l-159 390h-693l-158 -390h-167l575 1400h199zM423 542h570l-285 699zM885 1508l-174 189l-175 -189h-160l235 288h200l234 -288h-160z" />
    <glyph glyph-name="Atilde" unicode="&#xc3;" horiz-adv-x="1421" 
d="M1385 0h-172l-159 390h-693l-158 -390h-167l575 1400h199zM423 542h570l-285 699zM359 1649c60 75 123 111 219 111c135 0 181 -79 266 -79c51 0 87 22 130 67l89 -85c-60 -75 -124 -111 -219 -111c-134 0 -180 80 -266 80c-51 0 -88 -23 -131 -68z" />
    <glyph glyph-name="Adieresis" unicode="&#xc4;" horiz-adv-x="1421" 
d="M1385 0h-172l-159 390h-693l-158 -390h-167l575 1400h199zM423 542h570l-285 699zM508 1758c59 0 106 -47 106 -107s-47 -105 -106 -105c-60 0 -106 45 -106 105s46 107 106 107zM914 1758c59 0 106 -47 106 -107s-47 -105 -106 -105c-60 0 -105 45 -105 105
s45 107 105 107z" />
    <glyph glyph-name="Aring" unicode="&#xc5;" horiz-adv-x="1421" 
d="M1385 0h-172l-159 390h-693l-158 -390h-167l575 1400h199zM423 542h570l-285 699zM711 1487c-124 0 -227 101 -227 225s103 224 227 224c125 0 228 -100 228 -224s-103 -225 -228 -225zM711 1582c70 0 128 57 128 130c0 72 -58 129 -128 129s-127 -57 -127 -129
c0 -73 57 -130 127 -130z" />
    <glyph glyph-name="AE" unicode="&#xc6;" horiz-adv-x="2283" 
d="M2122 0h-985v365h-638l-276 -365h-194l1064 1400h1020v-151h-815v-469h790v-150h-790v-479h824v-151zM1137 517v690l-523 -690h523z" />
    <glyph glyph-name="Ccedilla" unicode="&#xc7;" horiz-adv-x="1530" 
d="M829 -323h-163l111 329l155 -1zM844 1420c244 0 461 -111 571 -290l-134 -90c-93 138 -252 225 -437 225c-314 0 -554 -228 -554 -565s240 -565 554 -565c187 0 342 83 437 224l130 -96c-117 -175 -325 -283 -567 -283c-416 0 -723 300 -723 720s307 720 723 720z" />
    <glyph glyph-name="Egrave" unicode="&#xc8;" horiz-adv-x="1348" 
d="M1187 0h-985v1400h976v-151h-815v-469h790v-150h-790v-479h824v-151zM417 1807h189l210 -300h-148z" />
    <glyph glyph-name="Eacute" unicode="&#xc9;" horiz-adv-x="1348" 
d="M1187 0h-985v1400h976v-151h-815v-469h790v-150h-790v-479h824v-151zM544 1507l209 300h190l-251 -300h-148z" />
    <glyph glyph-name="Ecircumflex" unicode="&#xca;" horiz-adv-x="1348" 
d="M1187 0h-985v1400h976v-151h-815v-469h790v-150h-790v-479h824v-151zM859 1508l-174 189l-175 -189h-160l235 288h200l234 -288h-160z" />
    <glyph glyph-name="Edieresis" unicode="&#xcb;" horiz-adv-x="1348" 
d="M1187 0h-985v1400h976v-151h-815v-469h790v-150h-790v-479h824v-151zM482 1758c59 0 106 -47 106 -107s-47 -105 -106 -105c-60 0 -106 45 -106 105s46 107 106 107zM888 1758c59 0 106 -47 106 -107s-47 -105 -106 -105c-60 0 -105 45 -105 105s45 107 105 107z" />
    <glyph glyph-name="Igrave" unicode="&#xcc;" horiz-adv-x="565" 
d="M363 0h-161v1400h161v-1400zM14 1807h189l210 -300h-148z" />
    <glyph glyph-name="Iacute" unicode="&#xcd;" horiz-adv-x="565" 
d="M363 0h-161v1400h161v-1400zM141 1507l209 300h190l-251 -300h-148z" />
    <glyph glyph-name="Icircumflex" unicode="&#xce;" horiz-adv-x="565" 
d="M363 0h-161v1400h161v-1400zM456 1508l-174 189l-175 -189h-160l235 288h200l234 -288h-160z" />
    <glyph glyph-name="Idieresis" unicode="&#xcf;" horiz-adv-x="565" 
d="M363 0h-161v1400h161v-1400zM79 1758c59 0 106 -47 106 -107s-47 -105 -106 -105c-60 0 -106 45 -106 105s46 107 106 107zM485 1758c59 0 106 -47 106 -107s-47 -105 -106 -105c-60 0 -105 45 -105 105s45 107 105 107z" />
    <glyph glyph-name="Eth" unicode="&#xd0;" horiz-adv-x="1749" 
d="M880 1400c457 0 747 -273 747 -700s-290 -700 -747 -700h-527v629h-232v152h232v619h527zM917 629h-403v-477h366c379 0 578 220 578 548c0 331 -199 548 -578 548h-366v-467h403v-152z" />
    <glyph glyph-name="Ntilde" unicode="&#xd1;" horiz-adv-x="1577" 
d="M1375 0h-145l-867 1124v-1124h-161v1400h145l867 -1124v1124h161v-1400zM436 1649c60 75 123 111 219 111c135 0 181 -79 266 -79c51 0 87 22 130 67l89 -85c-60 -75 -124 -111 -219 -111c-134 0 -180 80 -266 80c-51 0 -88 -23 -131 -68z" />
    <glyph glyph-name="Ograve" unicode="&#xd2;" horiz-adv-x="1689" 
d="M844 1420c416 0 723 -300 723 -720s-307 -720 -723 -720s-723 300 -723 720s307 720 723 720zM844 1265c-314 0 -554 -228 -554 -565s240 -565 554 -565c315 0 555 228 555 565s-240 565 -555 565zM576 1807h189l210 -300h-148z" />
    <glyph glyph-name="Oacute" unicode="&#xd3;" horiz-adv-x="1689" 
d="M844 1420c416 0 723 -300 723 -720s-307 -720 -723 -720s-723 300 -723 720s307 720 723 720zM844 1265c-314 0 -554 -228 -554 -565s240 -565 554 -565c315 0 555 228 555 565s-240 565 -555 565zM703 1507l209 300h190l-251 -300h-148z" />
    <glyph glyph-name="Ocircumflex" unicode="&#xd4;" horiz-adv-x="1689" 
d="M844 1420c416 0 723 -300 723 -720s-307 -720 -723 -720s-723 300 -723 720s307 720 723 720zM844 1265c-314 0 -554 -228 -554 -565s240 -565 554 -565c315 0 555 228 555 565s-240 565 -555 565zM1018 1508l-174 189l-175 -189h-160l235 288h200l234 -288h-160z" />
    <glyph glyph-name="Otilde" unicode="&#xd5;" horiz-adv-x="1689" 
d="M844 1420c416 0 723 -300 723 -720s-307 -720 -723 -720s-723 300 -723 720s307 720 723 720zM844 1265c-314 0 -554 -228 -554 -565s240 -565 554 -565c315 0 555 228 555 565s-240 565 -555 565zM492 1649c60 75 123 111 219 111c135 0 181 -79 266 -79
c51 0 87 22 130 67l89 -85c-60 -75 -124 -111 -219 -111c-134 0 -180 80 -266 80c-51 0 -88 -23 -131 -68z" />
    <glyph glyph-name="Odieresis" unicode="&#xd6;" horiz-adv-x="1689" 
d="M844 1420c416 0 723 -300 723 -720s-307 -720 -723 -720s-723 300 -723 720s307 720 723 720zM844 1265c-314 0 -554 -228 -554 -565s240 -565 554 -565c315 0 555 228 555 565s-240 565 -555 565zM641 1758c59 0 106 -47 106 -107s-47 -105 -106 -105
c-60 0 -106 45 -106 105s46 107 106 107zM1047 1758c59 0 106 -47 106 -107s-47 -105 -106 -105c-60 0 -105 45 -105 105s45 107 105 107z" />
    <glyph glyph-name="multiply" unicode="&#xd7;" 
d="M209 235l292 292l-293 294l99 99l293 -294l295 295l96 -96l-295 -295l296 -295l-99 -99l-296 295l-291 -292z" />
    <glyph glyph-name="Oslash" unicode="&#xd8;" horiz-adv-x="1689" 
d="M844 1420c180 0 337 -56 461 -153l152 152l106 -106l-152 -152c99 -123 156 -278 156 -461c0 -420 -307 -720 -723 -720c-181 0 -337 56 -461 153l-151 -151l-107 105l151 151c-99 123 -155 279 -155 462c0 420 307 720 723 720zM1399 700c0 136 -38 252 -105 344
l-796 -796c93 -73 213 -113 346 -113c315 0 555 228 555 565zM844 1265c-314 0 -554 -228 -554 -565c0 -136 37 -252 104 -344l796 796c-95 72 -213 113 -346 113z" />
    <glyph glyph-name="Ugrave" unicode="&#xd9;" horiz-adv-x="1517" 
d="M1335 548c0 -380 -257 -567 -577 -567s-576 187 -576 567v852h160v-840c0 -293 177 -425 416 -425s416 132 416 425v840h161v-852zM490 1807h189l210 -300h-148z" />
    <glyph glyph-name="Uacute" unicode="&#xda;" horiz-adv-x="1517" 
d="M1335 548c0 -380 -257 -567 -577 -567s-576 187 -576 567v852h160v-840c0 -293 177 -425 416 -425s416 132 416 425v840h161v-852zM617 1507l209 300h190l-251 -300h-148z" />
    <glyph glyph-name="Ucircumflex" unicode="&#xdb;" horiz-adv-x="1517" 
d="M1335 548c0 -380 -257 -567 -577 -567s-576 187 -576 567v852h160v-840c0 -293 177 -425 416 -425s416 132 416 425v840h161v-852zM932 1508l-174 189l-175 -189h-160l235 288h200l234 -288h-160z" />
    <glyph glyph-name="Udieresis" unicode="&#xdc;" horiz-adv-x="1517" 
d="M1335 548c0 -380 -257 -567 -577 -567s-576 187 -576 567v852h160v-840c0 -293 177 -425 416 -425s416 132 416 425v840h161v-852zM555 1758c59 0 106 -47 106 -107s-47 -105 -106 -105c-60 0 -106 45 -106 105s46 107 106 107zM961 1758c59 0 106 -47 106 -107
s-47 -105 -106 -105c-60 0 -105 45 -105 105s45 107 105 107z" />
    <glyph glyph-name="Yacute" unicode="&#xdd;" horiz-adv-x="1287" 
d="M725 587v-587h-160v589l-554 811h192l443 -664l443 664h187zM505 1507l209 300h190l-251 -300h-148z" />
    <glyph glyph-name="Thorn" unicode="&#xde;" horiz-adv-x="1328" 
d="M363 1134h368c315 0 495 -157 495 -419s-180 -419 -495 -419h-368v-296h-161v1400h161v-266zM363 982v-534h363c217 0 333 88 333 267s-116 267 -333 267h-363z" />
    <glyph glyph-name="germandbls" unicode="&#xdf;" horiz-adv-x="1225" 
d="M166 1021c0 243 152 438 460 438c252 0 455 -153 455 -384c0 -173 -96 -291 -215 -339c140 -46 256 -171 256 -347c0 -255 -190 -408 -422 -408c-104 0 -173 15 -236 42l36 135c51 -23 108 -38 177 -38c175 0 292 94 292 274c0 181 -137 265 -341 265h-56v136h31
c169 0 325 59 325 258c0 177 -137 266 -305 266c-189 0 -308 -119 -308 -307v-1012h-149v1021z" />
    <glyph glyph-name="agrave" unicode="&#xe0;" horiz-adv-x="1246" 
d="M1071 0h-149v141c-76 -97 -189 -160 -346 -160c-267 0 -473 208 -473 493c0 284 206 492 473 492c157 0 270 -64 346 -160v141h149v-947zM594 826c-203 0 -339 -157 -339 -352c0 -196 138 -353 339 -353c197 0 337 152 337 353c0 200 -140 352 -337 352zM330 1392h189
l210 -300h-148z" />
    <glyph glyph-name="aacute" unicode="&#xe1;" horiz-adv-x="1246" 
d="M1071 0h-149v141c-76 -97 -189 -160 -346 -160c-267 0 -473 208 -473 493c0 284 206 492 473 492c157 0 270 -64 346 -160v141h149v-947zM594 826c-203 0 -339 -157 -339 -352c0 -196 138 -353 339 -353c197 0 337 152 337 353c0 200 -140 352 -337 352zM481 1092
l209 300h190l-251 -300h-148z" />
    <glyph glyph-name="acircumflex" unicode="&#xe2;" horiz-adv-x="1246" 
d="M1071 0h-149v141c-76 -97 -189 -160 -346 -160c-267 0 -473 208 -473 493c0 284 206 492 473 492c157 0 270 -64 346 -160v141h149v-947zM594 826c-203 0 -339 -157 -339 -352c0 -196 138 -353 339 -353c197 0 337 152 337 353c0 200 -140 352 -337 352zM785 1093
l-174 189l-175 -189h-160l235 288h200l234 -288h-160z" />
    <glyph glyph-name="atilde" unicode="&#xe3;" horiz-adv-x="1246" 
d="M1071 0h-149v141c-76 -97 -189 -160 -346 -160c-267 0 -473 208 -473 493c0 284 206 492 473 492c157 0 270 -64 346 -160v141h149v-947zM594 826c-203 0 -339 -157 -339 -352c0 -196 138 -353 339 -353c197 0 337 152 337 353c0 200 -140 352 -337 352zM267 1234
c60 75 123 111 219 111c135 0 181 -79 266 -79c51 0 87 22 130 67l89 -85c-60 -75 -124 -111 -219 -111c-134 0 -180 80 -266 80c-51 0 -88 -23 -131 -68z" />
    <glyph glyph-name="adieresis" unicode="&#xe4;" horiz-adv-x="1246" 
d="M1071 0h-149v141c-76 -97 -189 -160 -346 -160c-267 0 -473 208 -473 493c0 284 206 492 473 492c157 0 270 -64 346 -160v141h149v-947zM594 826c-203 0 -339 -157 -339 -352c0 -196 138 -353 339 -353c197 0 337 152 337 353c0 200 -140 352 -337 352zM408 1343
c59 0 106 -47 106 -107s-47 -105 -106 -105c-60 0 -106 45 -106 105s46 107 106 107zM814 1343c59 0 106 -47 106 -107s-47 -105 -106 -105c-60 0 -105 45 -105 105s45 107 105 107z" />
    <glyph glyph-name="aring" unicode="&#xe5;" horiz-adv-x="1246" 
d="M1071 0h-149v141c-76 -97 -189 -160 -346 -160c-267 0 -473 208 -473 493c0 284 206 492 473 492c157 0 270 -64 346 -160v141h149v-947zM594 826c-203 0 -339 -157 -339 -352c0 -196 138 -353 339 -353c197 0 337 152 337 353c0 200 -140 352 -337 352zM610 1072
c-124 0 -227 101 -227 225s103 224 227 224c125 0 228 -100 228 -224s-103 -225 -228 -225zM610 1167c70 0 128 57 128 130c0 72 -58 129 -128 129s-127 -57 -127 -129c0 -73 57 -130 127 -130z" />
    <glyph glyph-name="ae" unicode="&#xe6;" horiz-adv-x="1800" 
d="M1252 965c257 0 442 -201 445 -488c0 -20 -2 -39 -3 -56h-759c21 -204 163 -309 335 -309c117 0 220 46 300 119l79 -102c-118 -112 -249 -148 -388 -148c-167 0 -303 69 -388 186c-86 -104 -220 -186 -403 -186c-230 0 -367 119 -367 285c0 164 138 279 390 279h290v7
c0 191 -101 279 -282 279c-113 0 -208 -45 -274 -95l-70 111c107 80 228 119 363 119c171 0 300 -58 360 -199c75 121 216 198 372 198zM493 113c119 0 242 61 322 163c-17 45 -27 93 -32 145h-274c-181 0 -247 -71 -247 -155s79 -153 231 -153zM1249 833
c-175 0 -288 -120 -312 -291h607c-19 176 -135 291 -295 291z" />
    <glyph glyph-name="ccedilla" unicode="&#xe7;" horiz-adv-x="1024" 
d="M593 966c141 0 266 -52 351 -149l-96 -101c-72 69 -155 110 -259 110c-189 0 -334 -148 -334 -352s145 -353 334 -353c104 0 194 46 262 111l93 -102c-87 -97 -210 -149 -351 -149c-292 0 -490 212 -490 493c0 280 198 492 490 492zM558 -323h-156l109 329l150 -1z" />
    <glyph glyph-name="egrave" unicode="&#xe8;" horiz-adv-x="1121" 
d="M573 966c257 0 442 -201 445 -489c0 -21 -1 -39 -3 -56h-759c21 -204 164 -309 335 -309c117 0 219 44 300 119l80 -102c-118 -113 -249 -148 -389 -148c-280 0 -479 199 -479 492c0 290 201 493 470 493zM570 833c-175 0 -288 -120 -312 -291h608
c-19 177 -135 291 -296 291zM288 1392h189l210 -300h-148z" />
    <glyph glyph-name="eacute" unicode="&#xe9;" horiz-adv-x="1121" 
d="M573 966c257 0 442 -201 445 -489c0 -21 -1 -39 -3 -56h-759c21 -204 164 -309 335 -309c117 0 219 44 300 119l80 -102c-118 -113 -249 -148 -389 -148c-280 0 -479 199 -479 492c0 290 201 493 470 493zM570 833c-175 0 -288 -120 -312 -291h608
c-19 177 -135 291 -296 291zM439 1092l209 300h190l-251 -300h-148z" />
    <glyph glyph-name="ecircumflex" unicode="&#xea;" horiz-adv-x="1121" 
d="M573 966c257 0 442 -201 445 -489c0 -21 -1 -39 -3 -56h-759c21 -204 164 -309 335 -309c117 0 219 44 300 119l80 -102c-118 -113 -249 -148 -389 -148c-280 0 -479 199 -479 492c0 290 201 493 470 493zM570 833c-175 0 -288 -120 -312 -291h608
c-19 177 -135 291 -296 291zM743 1093l-174 189l-175 -189h-160l235 288h200l234 -288h-160z" />
    <glyph glyph-name="edieresis" unicode="&#xeb;" horiz-adv-x="1121" 
d="M573 966c257 0 442 -201 445 -489c0 -21 -1 -39 -3 -56h-759c21 -204 164 -309 335 -309c117 0 219 44 300 119l80 -102c-118 -113 -249 -148 -389 -148c-280 0 -479 199 -479 492c0 290 201 493 470 493zM570 833c-175 0 -288 -120 -312 -291h608
c-19 177 -135 291 -296 291zM366 1343c59 0 106 -47 106 -107s-47 -105 -106 -105c-60 0 -106 45 -106 105s46 107 106 107zM772 1343c59 0 106 -47 106 -107s-47 -105 -106 -105c-60 0 -105 45 -105 105s45 107 105 107z" />
    <glyph glyph-name="igrave" unicode="&#xec;" horiz-adv-x="500" 
d="M325 0h-150v947h150v-947zM-31 1392h189l210 -300h-148z" />
    <glyph glyph-name="iacute" unicode="&#xed;" horiz-adv-x="500" 
d="M325 0h-150v947h150v-947zM120 1092l209 300h190l-251 -300h-148z" />
    <glyph glyph-name="icircumflex" unicode="&#xee;" horiz-adv-x="500" 
d="M325 0h-150v947h150v-947zM424 1093l-174 189l-175 -189h-160l235 288h200l234 -288h-160z" />
    <glyph glyph-name="idieresis" unicode="&#xef;" horiz-adv-x="500" 
d="M325 0h-150v947h150v-947zM47 1343c59 0 106 -47 106 -107s-47 -105 -106 -105c-60 0 -106 45 -106 105s46 107 106 107zM453 1343c59 0 106 -47 106 -107s-47 -105 -106 -105c-60 0 -105 45 -105 105s45 107 105 107z" />
    <glyph glyph-name="eth" unicode="&#xf0;" horiz-adv-x="1199" 
d="M928 1343l-197 -117c210 -181 365 -451 365 -743c0 -286 -215 -502 -495 -502c-285 0 -498 208 -498 482c0 277 205 486 470 486c124 0 230 -45 306 -125c-56 115 -145 227 -274 327l-251 -149l-56 91l211 125c-64 40 -134 77 -214 112l67 120c105 -43 198 -94 279 -153
l231 137zM601 808c-196 0 -346 -142 -346 -344c0 -200 150 -343 346 -343s346 143 346 343c0 202 -150 344 -346 344z" />
    <glyph glyph-name="ntilde" unicode="&#xf1;" horiz-adv-x="1201" 
d="M642 966c234 0 395 -150 395 -379v-587h-149v538c0 181 -98 286 -273 286c-159 0 -290 -110 -290 -290v-534h-150v947h148v-135c78 113 202 154 319 154zM273 1234c60 75 123 111 219 111c135 0 181 -79 266 -79c51 0 87 22 130 67l89 -85c-60 -75 -124 -111 -219 -111
c-134 0 -180 80 -266 80c-51 0 -88 -23 -131 -68z" />
    <glyph glyph-name="ograve" unicode="&#xf2;" horiz-adv-x="1203" 
d="M601 966c285 0 499 -212 499 -492c0 -281 -214 -493 -499 -493s-498 212 -498 493c0 280 213 492 498 492zM601 826c-196 0 -346 -148 -346 -352s150 -353 346 -353s346 149 346 353s-150 352 -346 352zM320 1392h189l210 -300h-148z" />
    <glyph glyph-name="oacute" unicode="&#xf3;" horiz-adv-x="1203" 
d="M601 966c285 0 499 -212 499 -492c0 -281 -214 -493 -499 -493s-498 212 -498 493c0 280 213 492 498 492zM601 826c-196 0 -346 -148 -346 -352s150 -353 346 -353s346 149 346 353s-150 352 -346 352zM471 1092l209 300h190l-251 -300h-148z" />
    <glyph glyph-name="ocircumflex" unicode="&#xf4;" horiz-adv-x="1203" 
d="M601 966c285 0 499 -212 499 -492c0 -281 -214 -493 -499 -493s-498 212 -498 493c0 280 213 492 498 492zM601 826c-196 0 -346 -148 -346 -352s150 -353 346 -353s346 149 346 353s-150 352 -346 352zM775 1093l-174 189l-175 -189h-160l235 288h200l234 -288h-160z
" />
    <glyph glyph-name="otilde" unicode="&#xf5;" horiz-adv-x="1203" 
d="M601 966c285 0 499 -212 499 -492c0 -281 -214 -493 -499 -493s-498 212 -498 493c0 280 213 492 498 492zM601 826c-196 0 -346 -148 -346 -352s150 -353 346 -353s346 149 346 353s-150 352 -346 352zM257 1234c60 75 123 111 219 111c135 0 181 -79 266 -79
c51 0 87 22 130 67l89 -85c-60 -75 -124 -111 -219 -111c-134 0 -180 80 -266 80c-51 0 -88 -23 -131 -68z" />
    <glyph glyph-name="odieresis" unicode="&#xf6;" horiz-adv-x="1203" 
d="M601 966c285 0 499 -212 499 -492c0 -281 -214 -493 -499 -493s-498 212 -498 493c0 280 213 492 498 492zM601 826c-196 0 -346 -148 -346 -352s150 -353 346 -353s346 149 346 353s-150 352 -346 352zM398 1343c59 0 106 -47 106 -107s-47 -105 -106 -105
c-60 0 -106 45 -106 105s46 107 106 107zM804 1343c59 0 106 -47 106 -107s-47 -105 -106 -105c-60 0 -105 45 -105 105s45 107 105 107z" />
    <glyph glyph-name="oslash" unicode="&#xf8;" horiz-adv-x="1203" 
d="M601 966c117 0 222 -35 306 -98l111 111l90 -90l-110 -110c64 -84 102 -188 102 -305c0 -281 -214 -493 -499 -493c-117 0 -220 34 -304 97l-111 -111l-91 89l110 110c-65 84 -102 189 -102 308c0 280 213 492 498 492zM601 826c-196 0 -346 -148 -346 -352
c0 -77 21 -145 57 -201l491 491c-57 39 -126 62 -202 62zM947 474c0 76 -21 142 -56 198l-491 -491c56 -39 125 -60 201 -60c196 0 346 149 346 353z" />
    <glyph glyph-name="ugrave" unicode="&#xf9;" horiz-adv-x="1188" 
d="M1024 395c0 -281 -202 -414 -430 -414c-229 0 -430 133 -430 414v552h149v-538c0 -196 118 -288 281 -288c162 0 280 92 280 288v538h150v-552zM313 1392h189l210 -300h-148z" />
    <glyph glyph-name="uacute" unicode="&#xfa;" horiz-adv-x="1188" 
d="M1024 395c0 -281 -202 -414 -430 -414c-229 0 -430 133 -430 414v552h149v-538c0 -196 118 -288 281 -288c162 0 280 92 280 288v538h150v-552zM464 1092l209 300h190l-251 -300h-148z" />
    <glyph glyph-name="ucircumflex" unicode="&#xfb;" horiz-adv-x="1188" 
d="M1024 395c0 -281 -202 -414 -430 -414c-229 0 -430 133 -430 414v552h149v-538c0 -196 118 -288 281 -288c162 0 280 92 280 288v538h150v-552zM768 1093l-174 189l-175 -189h-160l235 288h200l234 -288h-160z" />
    <glyph glyph-name="udieresis" unicode="&#xfc;" horiz-adv-x="1188" 
d="M1024 395c0 -281 -202 -414 -430 -414c-229 0 -430 133 -430 414v552h149v-538c0 -196 118 -288 281 -288c162 0 280 92 280 288v538h150v-552zM391 1343c59 0 106 -47 106 -107s-47 -105 -106 -105c-60 0 -106 45 -106 105s46 107 106 107zM797 1343
c59 0 106 -47 106 -107s-47 -105 -106 -105c-60 0 -105 45 -105 105s45 107 105 107z" />
    <glyph glyph-name="yacute" unicode="&#xfd;" horiz-adv-x="1054" 
d="M268 -404h-165l353 609l-435 742h167l353 -594l334 594h164zM402 1092l209 300h190l-251 -300h-148z" />
    <glyph glyph-name="thorn" unicode="&#xfe;" horiz-adv-x="1246" 
d="M670 966c266 0 473 -208 473 -492c0 -285 -207 -493 -473 -493c-157 0 -269 63 -345 159v-540h-150v1840h150v-633c76 96 188 159 345 159zM652 826c-197 0 -337 -152 -337 -352c0 -201 140 -353 337 -353c203 0 338 157 338 353c0 195 -138 352 -338 352z" />
    <glyph glyph-name="ydieresis" unicode="&#xff;" horiz-adv-x="1054" 
d="M268 -404h-165l353 609l-435 742h167l353 -594l334 594h164zM329 1343c59 0 106 -47 106 -107s-47 -105 -106 -105c-60 0 -106 45 -106 105s46 107 106 107zM735 1343c59 0 106 -47 106 -107s-47 -105 -106 -105c-60 0 -105 45 -105 105s45 107 105 107z" />
    <glyph glyph-name="Amacron" unicode="&#x100;" horiz-adv-x="1421" 
d="M1385 0h-172l-159 390h-693l-158 -390h-167l575 1400h199zM423 542h570l-285 699zM412 1711h598v-121h-598v121z" />
    <glyph glyph-name="amacron" unicode="&#x101;" horiz-adv-x="1246" 
d="M1071 0h-149v141c-76 -97 -189 -160 -346 -160c-267 0 -473 208 -473 493c0 284 206 492 473 492c157 0 270 -64 346 -160v141h149v-947zM594 826c-203 0 -339 -157 -339 -352c0 -196 138 -353 339 -353c197 0 337 152 337 353c0 200 -140 352 -337 352zM312 1296h598
v-121h-598v121z" />
    <glyph glyph-name="Abreve" unicode="&#x102;" horiz-adv-x="1421" 
d="M1385 0h-172l-159 390h-693l-158 -390h-167l575 1400h199zM423 542h570l-285 699zM490 1818c39 -129 113 -191 221 -191s183 62 222 191l120 -37c-51 -185 -174 -280 -342 -280c-167 0 -290 95 -341 280z" />
    <glyph glyph-name="abreve" unicode="&#x103;" horiz-adv-x="1246" 
d="M1071 0h-149v141c-76 -97 -189 -160 -346 -160c-267 0 -473 208 -473 493c0 284 206 492 473 492c157 0 270 -64 346 -160v141h149v-947zM594 826c-203 0 -339 -157 -339 -352c0 -196 138 -353 339 -353c197 0 337 152 337 353c0 200 -140 352 -337 352zM390 1403
c39 -129 113 -191 221 -191s183 62 222 191l120 -37c-51 -185 -174 -280 -342 -280c-167 0 -290 95 -341 280z" />
    <glyph glyph-name="Aogonek" unicode="&#x104;" horiz-adv-x="1421" 
d="M1385 0h-172l-159 390h-693l-158 -390h-167l575 1400h199zM423 542h570l-285 699zM1388 -332c-57 -57 -121 -83 -194 -83c-124 0 -213 68 -213 176c0 126 117 206 325 297l35 -58c-151 -73 -219 -137 -219 -209c0 -47 34 -77 85 -77c39 0 71 18 102 50z" />
    <glyph glyph-name="aogonek" unicode="&#x105;" horiz-adv-x="1246" 
d="M1071 0h-149v141c-76 -97 -189 -160 -346 -160c-267 0 -473 208 -473 493c0 284 206 492 473 492c157 0 270 -64 346 -160v141h149v-947zM594 826c-203 0 -339 -157 -339 -352c0 -196 138 -353 339 -353c197 0 337 152 337 353c0 200 -140 352 -337 352zM1118 -332
c-57 -57 -121 -83 -194 -83c-124 0 -213 68 -213 176c0 126 117 206 325 297l35 -58c-151 -73 -219 -137 -219 -209c0 -47 34 -77 85 -77c39 0 71 18 102 50z" />
    <glyph glyph-name="Cacute" unicode="&#x106;" horiz-adv-x="1530" 
d="M844 1420c244 0 461 -111 571 -290l-134 -90c-93 138 -252 225 -437 225c-314 0 -554 -228 -554 -565s240 -565 554 -565c187 0 342 83 437 224l130 -96c-117 -175 -325 -283 -567 -283c-416 0 -723 300 -723 720s307 720 723 720zM697 1507l209 300h190l-251 -300h-148z
" />
    <glyph glyph-name="cacute" unicode="&#x107;" horiz-adv-x="1024" 
d="M593 966c141 0 266 -52 351 -149l-96 -101c-72 69 -155 110 -259 110c-189 0 -334 -148 -334 -352s145 -353 334 -353c104 0 194 46 262 111l93 -102c-87 -97 -210 -149 -351 -149c-292 0 -490 212 -490 493c0 280 198 492 490 492zM453 1092l209 300h190l-251 -300h-148
z" />
    <glyph glyph-name="Ccircumflex" unicode="&#x108;" horiz-adv-x="1530" 
d="M844 1420c244 0 461 -111 571 -290l-134 -90c-93 138 -252 225 -437 225c-314 0 -554 -228 -554 -565s240 -565 554 -565c187 0 342 83 437 224l130 -96c-117 -175 -325 -283 -567 -283c-416 0 -723 300 -723 720s307 720 723 720zM1012 1508l-174 189l-175 -189h-160
l235 288h200l234 -288h-160z" />
    <glyph glyph-name="ccircumflex" unicode="&#x109;" horiz-adv-x="1024" 
d="M593 966c141 0 266 -52 351 -149l-96 -101c-72 69 -155 110 -259 110c-189 0 -334 -148 -334 -352s145 -353 334 -353c104 0 194 46 262 111l93 -102c-87 -97 -210 -149 -351 -149c-292 0 -490 212 -490 493c0 280 198 492 490 492zM757 1093l-174 189l-175 -189h-160
l235 288h200l234 -288h-160z" />
    <glyph glyph-name="Cdotaccent" unicode="&#x10a;" horiz-adv-x="1530" 
d="M844 1420c244 0 461 -111 571 -290l-134 -90c-93 138 -252 225 -437 225c-314 0 -554 -228 -554 -565s240 -565 554 -565c187 0 342 83 437 224l130 -96c-117 -175 -325 -283 -567 -283c-416 0 -723 300 -723 720s307 720 723 720zM824 1764c61 0 110 -47 110 -109
s-49 -109 -110 -109c-62 0 -109 47 -109 109s47 109 109 109z" />
    <glyph glyph-name="cdotaccent" unicode="&#x10b;" horiz-adv-x="1024" 
d="M593 966c141 0 266 -52 351 -149l-96 -101c-72 69 -155 110 -259 110c-189 0 -334 -148 -334 -352s145 -353 334 -353c104 0 194 46 262 111l93 -102c-87 -97 -210 -149 -351 -149c-292 0 -490 212 -490 493c0 280 198 492 490 492zM583 1389c59 0 106 -46 106 -106
s-47 -105 -106 -105c-60 0 -105 45 -105 105s45 106 105 106z" />
    <glyph glyph-name="Ccaron" unicode="&#x10c;" horiz-adv-x="1530" 
d="M844 1420c244 0 461 -111 571 -290l-134 -90c-93 138 -252 225 -437 225c-314 0 -554 -228 -554 -565s240 -565 554 -565c187 0 342 83 437 224l130 -96c-117 -175 -325 -283 -567 -283c-416 0 -723 300 -723 720s307 720 723 720zM663 1794l175 -189l174 189h160
l-234 -288h-200l-235 288h160z" />
    <glyph glyph-name="ccaron" unicode="&#x10d;" horiz-adv-x="1024" 
d="M593 966c141 0 266 -52 351 -149l-96 -101c-72 69 -155 110 -259 110c-189 0 -334 -148 -334 -352s145 -353 334 -353c104 0 194 46 262 111l93 -102c-87 -97 -210 -149 -351 -149c-292 0 -490 212 -490 493c0 280 198 492 490 492zM408 1379l175 -189l174 189h160
l-234 -288h-200l-235 288h160z" />
    <glyph glyph-name="Dcaron" unicode="&#x10e;" horiz-adv-x="1598" 
d="M729 1400c457 0 747 -273 747 -700s-290 -700 -747 -700h-527v1400h527zM363 1248v-1096h366c379 0 578 220 578 548c0 331 -199 548 -578 548h-366zM563 1794l175 -189l174 189h160l-234 -288h-200l-235 288h160z" />
    <glyph glyph-name="dcaron" unicode="&#x10f;" horiz-adv-x="1296" 
d="M576 966c157 0 270 -64 346 -160v634h149v-1440h-149v141c-76 -97 -189 -160 -346 -160c-267 0 -473 208 -473 493c0 284 206 492 473 492zM594 826c-203 0 -339 -157 -339 -352c0 -196 138 -353 339 -353c197 0 337 152 337 353c0 200 -140 352 -337 352zM1189 1051
l7 389h153l-34 -389h-126z" />
    <glyph glyph-name="Dcroat" unicode="&#x110;" horiz-adv-x="1749" 
d="M880 1400c457 0 747 -273 747 -700s-290 -700 -747 -700h-527v629h-232v152h232v619h527zM917 629h-403v-477h366c379 0 578 220 578 548c0 331 -199 548 -578 548h-366v-467h403v-152z" />
    <glyph glyph-name="dcroat" unicode="&#x111;" horiz-adv-x="1246" 
d="M1221 1115h-150v-1115h-149v141c-76 -97 -189 -160 -346 -160c-267 0 -473 208 -473 493c0 284 206 492 473 492c157 0 270 -64 346 -160v309h-419v136h419v189h149v-189h150v-136zM594 826c-203 0 -339 -157 -339 -352c0 -196 138 -353 339 -353c197 0 337 152 337 353
c0 200 -140 352 -337 352z" />
    <glyph glyph-name="Emacron" unicode="&#x112;" horiz-adv-x="1348" 
d="M1187 0h-985v1400h976v-151h-815v-469h790v-150h-790v-479h824v-151zM386 1711h598v-121h-598v121z" />
    <glyph glyph-name="emacron" unicode="&#x113;" horiz-adv-x="1121" 
d="M573 966c257 0 442 -201 445 -489c0 -21 -1 -39 -3 -56h-759c21 -204 164 -309 335 -309c117 0 219 44 300 119l80 -102c-118 -113 -249 -148 -389 -148c-280 0 -479 199 -479 492c0 290 201 493 470 493zM570 833c-175 0 -288 -120 -312 -291h608
c-19 177 -135 291 -296 291zM270 1296h598v-121h-598v121z" />
    <glyph glyph-name="Ebreve" unicode="&#x114;" horiz-adv-x="1348" 
d="M1187 0h-985v1400h976v-151h-815v-469h790v-150h-790v-479h824v-151zM464 1818c39 -129 113 -191 221 -191s183 62 222 191l120 -37c-51 -185 -174 -280 -342 -280c-167 0 -290 95 -341 280z" />
    <glyph glyph-name="ebreve" unicode="&#x115;" horiz-adv-x="1121" 
d="M573 966c257 0 442 -201 445 -489c0 -21 -1 -39 -3 -56h-759c21 -204 164 -309 335 -309c117 0 219 44 300 119l80 -102c-118 -113 -249 -148 -389 -148c-280 0 -479 199 -479 492c0 290 201 493 470 493zM570 833c-175 0 -288 -120 -312 -291h608
c-19 177 -135 291 -296 291zM348 1403c39 -129 113 -191 221 -191s183 62 222 191l120 -37c-51 -185 -174 -280 -342 -280c-167 0 -290 95 -341 280z" />
    <glyph glyph-name="Edotaccent" unicode="&#x116;" horiz-adv-x="1348" 
d="M1187 0h-985v1400h976v-151h-815v-469h790v-150h-790v-479h824v-151zM671 1764c61 0 110 -47 110 -109s-49 -109 -110 -109c-62 0 -109 47 -109 109s47 109 109 109z" />
    <glyph glyph-name="edotaccent" unicode="&#x117;" horiz-adv-x="1121" 
d="M573 966c257 0 442 -201 445 -489c0 -21 -1 -39 -3 -56h-759c21 -204 164 -309 335 -309c117 0 219 44 300 119l80 -102c-118 -113 -249 -148 -389 -148c-280 0 -479 199 -479 492c0 290 201 493 470 493zM570 833c-175 0 -288 -120 -312 -291h608
c-19 177 -135 291 -296 291zM569 1389c59 0 106 -46 106 -106s-47 -105 -106 -105c-60 0 -105 45 -105 105s45 106 105 106z" />
    <glyph glyph-name="Eogonek" unicode="&#x118;" horiz-adv-x="1348" 
d="M1187 0h-985v1400h976v-151h-815v-469h790v-150h-790v-479h824v-151zM1035 16c-125 -61 -180 -121 -180 -198c0 -61 48 -104 124 -104c53 0 101 19 143 58l80 -97c-63 -60 -144 -90 -232 -90c-157 0 -261 88 -261 206c0 133 106 212 303 281z" />
    <glyph glyph-name="eogonek" unicode="&#x119;" horiz-adv-x="1121" 
d="M573 966c257 0 442 -201 445 -489c0 -21 -1 -39 -3 -56h-759c21 -204 164 -309 335 -309c117 0 219 44 300 119l80 -102c-118 -113 -249 -148 -389 -148c-280 0 -479 199 -479 492c0 290 201 493 470 493zM570 833c-175 0 -288 -120 -312 -291h608
c-19 177 -135 291 -296 291zM967 -325c-63 -60 -144 -90 -232 -90c-157 0 -261 88 -261 206c0 145 125 223 335 300l18 -59c-137 -68 -207 -129 -207 -214c0 -61 48 -104 124 -104c53 0 101 19 143 58z" />
    <glyph glyph-name="Ecaron" unicode="&#x11a;" horiz-adv-x="1348" 
d="M1187 0h-985v1400h976v-151h-815v-469h790v-150h-790v-479h824v-151zM510 1794l175 -189l174 189h160l-234 -288h-200l-235 288h160z" />
    <glyph glyph-name="ecaron" unicode="&#x11b;" horiz-adv-x="1121" 
d="M573 966c257 0 442 -201 445 -489c0 -21 -1 -39 -3 -56h-759c21 -204 164 -309 335 -309c117 0 219 44 300 119l80 -102c-118 -113 -249 -148 -389 -148c-280 0 -479 199 -479 492c0 290 201 493 470 493zM570 833c-175 0 -288 -120 -312 -291h608
c-19 177 -135 291 -296 291zM394 1379l175 -189l174 189h160l-234 -288h-200l-235 288h160z" />
    <glyph glyph-name="Gcircumflex" unicode="&#x11c;" horiz-adv-x="1639" 
d="M844 1420c224 0 414 -87 543 -235l-119 -114c-100 121 -249 194 -424 194c-314 0 -554 -228 -554 -565s240 -565 547 -565c295 0 480 176 504 463h-436v150h610c1 -15 2 -28 2 -41c0 -408 -259 -726 -680 -726c-368 0 -716 266 -716 719c0 421 310 720 723 720zM996 1508
l-174 189l-175 -189h-160l235 288h200l234 -288h-160z" />
    <glyph glyph-name="gcircumflex" unicode="&#x11d;" horiz-adv-x="1235" 
d="M572 966c153 0 266 -62 338 -161v142h150v-882c0 -309 -208 -480 -501 -480c-151 0 -303 47 -399 127l66 120c91 -68 204 -111 333 -111c205 0 351 117 351 338v97c-72 -100 -185 -161 -338 -161c-266 0 -469 199 -469 486c0 286 203 485 469 485zM589 826
c-201 0 -334 -154 -334 -345c0 -192 133 -346 334 -346c195 0 334 150 334 346c0 195 -139 345 -334 345zM778 1093l-174 189l-175 -189h-160l235 288h200l234 -288h-160z" />
    <glyph glyph-name="Gbreve" unicode="&#x11e;" horiz-adv-x="1639" 
d="M844 1420c224 0 414 -87 543 -235l-119 -114c-100 121 -249 194 -424 194c-314 0 -554 -228 -554 -565s240 -565 547 -565c295 0 480 176 504 463h-436v150h610c1 -15 2 -28 2 -41c0 -408 -259 -726 -680 -726c-368 0 -716 266 -716 719c0 421 310 720 723 720zM601 1818
c39 -129 113 -191 221 -191s183 62 222 191l120 -37c-51 -185 -174 -280 -342 -280c-167 0 -290 95 -341 280z" />
    <glyph glyph-name="gbreve" unicode="&#x11f;" horiz-adv-x="1235" 
d="M572 966c153 0 266 -62 338 -161v142h150v-882c0 -309 -208 -480 -501 -480c-151 0 -303 47 -399 127l66 120c91 -68 204 -111 333 -111c205 0 351 117 351 338v97c-72 -100 -185 -161 -338 -161c-266 0 -469 199 -469 486c0 286 203 485 469 485zM589 826
c-201 0 -334 -154 -334 -345c0 -192 133 -346 334 -346c195 0 334 150 334 346c0 195 -139 345 -334 345zM383 1403c39 -129 113 -191 221 -191s183 62 222 191l120 -37c-51 -185 -174 -280 -342 -280c-167 0 -290 95 -341 280z" />
    <glyph glyph-name="Gdotaccent" unicode="&#x120;" horiz-adv-x="1639" 
d="M844 1420c224 0 414 -87 543 -235l-119 -114c-100 121 -249 194 -424 194c-314 0 -554 -228 -554 -565s240 -565 547 -565c295 0 480 176 504 463h-436v150h610c1 -15 2 -28 2 -41c0 -408 -259 -726 -680 -726c-368 0 -716 266 -716 719c0 421 310 720 723 720zM808 1764
c61 0 110 -47 110 -109s-49 -109 -110 -109c-62 0 -109 47 -109 109s47 109 109 109z" />
    <glyph glyph-name="gdotaccent" unicode="&#x121;" horiz-adv-x="1235" 
d="M572 966c153 0 266 -62 338 -161v142h150v-882c0 -309 -208 -480 -501 -480c-151 0 -303 47 -399 127l66 120c91 -68 204 -111 333 -111c205 0 351 117 351 338v97c-72 -100 -185 -161 -338 -161c-266 0 -469 199 -469 486c0 286 203 485 469 485zM589 826
c-201 0 -334 -154 -334 -345c0 -192 133 -346 334 -346c195 0 334 150 334 346c0 195 -139 345 -334 345zM604 1389c59 0 106 -46 106 -106s-47 -105 -106 -105c-60 0 -105 45 -105 105s45 106 105 106z" />
    <glyph glyph-name="Gcommaaccent" unicode="&#x122;" horiz-adv-x="1639" 
d="M844 1420c224 0 414 -87 543 -235l-119 -114c-100 121 -249 194 -424 194c-314 0 -554 -228 -554 -565s240 -565 547 -565c295 0 480 176 504 463h-436v150h610c1 -15 2 -28 2 -41c0 -408 -259 -726 -680 -726c-368 0 -716 266 -716 719c0 421 310 720 723 720zM922 -88
l-74 -350h-132l42 350h164z" />
    <glyph glyph-name="gcommaaccent" unicode="&#x123;" horiz-adv-x="1235" 
d="M572 966c153 0 266 -62 338 -161v142h150v-882c0 -309 -208 -480 -501 -480c-151 0 -303 47 -399 127l66 120c91 -68 204 -111 333 -111c205 0 351 117 351 338v97c-72 -100 -185 -161 -338 -161c-266 0 -469 199 -469 486c0 286 203 485 469 485zM589 826
c-201 0 -334 -154 -334 -345c0 -192 133 -346 334 -346c195 0 334 150 334 346c0 195 -139 345 -334 345zM513 1092l74 351h132l-42 -351h-164z" />
    <glyph glyph-name="Hcircumflex" unicode="&#x124;" horiz-adv-x="1573" 
d="M363 781h847v619h161v-1400h-161v629h-847v-629h-161v1400h161v-619zM960 1508l-174 189l-175 -189h-160l235 288h200l234 -288h-160z" />
    <glyph glyph-name="hcircumflex" unicode="&#x125;" horiz-adv-x="1201" 
d="M325 815c78 110 202 151 317 151c234 0 395 -150 395 -379v-587h-149v538c0 181 -98 286 -273 286c-159 0 -290 -110 -290 -290v-534h-150v1440h150v-625zM783 1546l-174 189l-175 -189h-160l235 288h200l234 -288h-160z" />
    <glyph glyph-name="Itilde" unicode="&#x128;" horiz-adv-x="565" 
d="M363 0h-161v1400h161v-1400zM-70 1649c60 75 123 111 219 111c135 0 181 -79 266 -79c51 0 87 22 130 67l89 -85c-60 -75 -124 -111 -219 -111c-134 0 -180 80 -266 80c-51 0 -88 -23 -131 -68z" />
    <glyph glyph-name="itilde" unicode="&#x129;" horiz-adv-x="500" 
d="M325 0h-150v947h150v-947zM-94 1234c60 75 123 111 219 111c135 0 181 -79 266 -79c51 0 87 22 130 67l89 -85c-60 -75 -124 -111 -219 -111c-134 0 -180 80 -266 80c-51 0 -88 -23 -131 -68z" />
    <glyph glyph-name="Imacron" unicode="&#x12a;" horiz-adv-x="565" 
d="M363 0h-161v1400h161v-1400zM-17 1711h598v-121h-598v121z" />
    <glyph glyph-name="imacron" unicode="&#x12b;" horiz-adv-x="500" 
d="M325 0h-150v947h150v-947zM-49 1296h598v-121h-598v121z" />
    <glyph glyph-name="Ibreve" unicode="&#x12c;" horiz-adv-x="565" 
d="M363 0h-161v1400h161v-1400zM61 1818c39 -129 113 -191 221 -191s183 62 222 191l120 -37c-51 -185 -174 -280 -342 -280c-167 0 -290 95 -341 280z" />
    <glyph glyph-name="ibreve" unicode="&#x12d;" horiz-adv-x="500" 
d="M325 0h-150v947h150v-947zM29 1403c39 -129 113 -191 221 -191s183 62 222 191l120 -37c-51 -185 -174 -280 -342 -280c-167 0 -290 95 -341 280z" />
    <glyph glyph-name="Iogonek" unicode="&#x12e;" horiz-adv-x="565" 
d="M363 0h-161v1400h161v-1400zM489 -332c-57 -57 -122 -83 -195 -83c-124 0 -213 68 -213 176c0 116 93 204 245 297l37 -58c-94 -77 -141 -146 -141 -209c0 -47 34 -77 85 -77c40 0 73 18 102 50z" />
    <glyph glyph-name="iogonek" unicode="&#x12f;" horiz-adv-x="500" 
d="M451 -332c-57 -57 -122 -83 -195 -83c-124 0 -213 68 -213 176c0 116 93 204 245 297l37 -58c-94 -77 -141 -146 -141 -209c0 -47 34 -77 85 -77c40 0 73 18 102 50zM325 0h-150v947h150v-947zM250 1389c59 0 106 -46 106 -106s-47 -105 -106 -105
c-60 0 -105 45 -105 105s45 106 105 106z" />
    <glyph glyph-name="Idotaccent" unicode="&#x130;" horiz-adv-x="565" 
d="M363 0h-161v1400h161v-1400zM268 1764c61 0 110 -47 110 -109s-49 -109 -110 -109c-62 0 -109 47 -109 109s47 109 109 109z" />
    <glyph glyph-name="dotlessi" unicode="&#x131;" horiz-adv-x="500" 
d="M325 0h-150v947h150v-947z" />
    <glyph glyph-name="Kcommaaccent" unicode="&#x136;" horiz-adv-x="1388" 
d="M529 628h-166v-628h-161v1400h161v-620h169l581 620h208l-658 -687l701 -713h-219zM797 -88l-74 -350h-132l42 350h164z" />
    <glyph glyph-name="kcommaaccent" unicode="&#x137;" horiz-adv-x="1058" 
d="M325 563h137l365 384h187l-430 -446l437 -501h-189l-371 427h-136v-427h-150v1440h150v-877zM654 -88l-74 -350h-132l42 350h164z" />
    <glyph glyph-name="Lacute" unicode="&#x139;" horiz-adv-x="1213" 
d="M1173 0h-971v1400h161v-1248h810v-152zM141 1507l209 300h190l-251 -300h-148z" />
    <glyph glyph-name="lacute" unicode="&#x13a;" horiz-adv-x="500" 
d="M325 0h-150v1440h150v-1440zM84 1545l209 300h190l-251 -300h-148z" />
    <glyph glyph-name="Lcommaaccent" unicode="&#x13b;" horiz-adv-x="1213" 
d="M1173 0h-971v1400h161v-1248h810v-152zM781 -88l-74 -350h-132l42 350h164z" />
    <glyph glyph-name="lcommaaccent" unicode="&#x13c;" horiz-adv-x="500" 
d="M325 0h-150v1440h150v-1440zM345 -88l-74 -350h-132l42 350h164z" />
    <glyph glyph-name="Lcaron" unicode="&#x13d;" horiz-adv-x="1213" 
d="M1173 0h-971v1400h161v-1248h810v-152zM601 1012l7 389h153l-34 -389h-126z" />
    <glyph glyph-name="lcaron" unicode="&#x13e;" horiz-adv-x="543" 
d="M325 0h-150v1440h150v-1440zM432 1051l7 389h153l-34 -389h-126z" />
    <glyph glyph-name="Ldot" unicode="&#x13f;" horiz-adv-x="1213" 
d="M1173 0h-971v1400h161v-1248h810v-152zM857 815c61 0 110 -47 110 -109s-49 -109 -110 -109c-62 0 -109 47 -109 109s47 109 109 109z" />
    <glyph glyph-name="ldot" unicode="&#x140;" horiz-adv-x="613" 
d="M325 0h-150v1440h150v-1440zM552 837c59 0 106 -46 106 -106s-47 -105 -106 -105c-60 0 -105 45 -105 105s45 106 105 106z" />
    <glyph glyph-name="Lslash" unicode="&#x141;" horiz-adv-x="1346" 
d="M1306 0h-971v503l-214 -120v172l214 120v725h161v-635l517 290v-172l-517 -290v-441h810v-152z" />
    <glyph glyph-name="lslash" unicode="&#x142;" horiz-adv-x="670" 
d="M409 877l208 148v-155l-208 -148v-722h-150v616l-206 -146v155l206 146v669h150v-563z" />
    <glyph glyph-name="Nacute" unicode="&#x143;" horiz-adv-x="1577" 
d="M1375 0h-145l-867 1124v-1124h-161v1400h145l867 -1124v1124h161v-1400zM647 1507l209 300h190l-251 -300h-148z" />
    <glyph glyph-name="nacute" unicode="&#x144;" horiz-adv-x="1201" 
d="M642 966c234 0 395 -150 395 -379v-587h-149v538c0 181 -98 286 -273 286c-159 0 -290 -110 -290 -290v-534h-150v947h148v-135c78 113 202 154 319 154zM487 1092l209 300h190l-251 -300h-148z" />
    <glyph glyph-name="Ncommaaccent" unicode="&#x145;" horiz-adv-x="1577" 
d="M1375 0h-145l-867 1124v-1124h-161v1400h145l867 -1124v1124h161v-1400zM886 -88l-74 -350h-132l42 350h164z" />
    <glyph glyph-name="ncommaaccent" unicode="&#x146;" horiz-adv-x="1201" 
d="M642 966c234 0 395 -150 395 -379v-587h-149v538c0 181 -98 286 -273 286c-159 0 -290 -110 -290 -290v-534h-150v947h148v-135c78 113 202 154 319 154zM700 -88l-74 -350h-132l42 350h164z" />
    <glyph glyph-name="Ncaron" unicode="&#x147;" horiz-adv-x="1577" 
d="M1375 0h-145l-867 1124v-1124h-161v1400h145l867 -1124v1124h161v-1400zM613 1794l175 -189l174 189h160l-234 -288h-200l-235 288h160z" />
    <glyph glyph-name="ncaron" unicode="&#x148;" horiz-adv-x="1201" 
d="M642 966c234 0 395 -150 395 -379v-587h-149v538c0 181 -98 286 -273 286c-159 0 -290 -110 -290 -290v-534h-150v947h148v-135c78 113 202 154 319 154zM442 1379l175 -189l174 189h160l-234 -288h-200l-235 288h160z" />
    <glyph glyph-name="napostrophe" unicode="&#x149;" horiz-adv-x="1476" 
d="M361 1440l-105 -507h-129l60 507h174zM917 966c234 0 395 -150 395 -379v-587h-149v538c0 181 -98 286 -273 286c-159 0 -290 -110 -290 -290v-534h-150v947h148v-135c78 113 202 154 319 154z" />
    <glyph glyph-name="Omacron" unicode="&#x14c;" horiz-adv-x="1689" 
d="M844 1420c416 0 723 -300 723 -720s-307 -720 -723 -720s-723 300 -723 720s307 720 723 720zM844 1265c-314 0 -554 -228 -554 -565s240 -565 554 -565c315 0 555 228 555 565s-240 565 -555 565zM545 1711h598v-121h-598v121z" />
    <glyph glyph-name="omacron" unicode="&#x14d;" horiz-adv-x="1203" 
d="M601 966c285 0 499 -212 499 -492c0 -281 -214 -493 -499 -493s-498 212 -498 493c0 280 213 492 498 492zM601 826c-196 0 -346 -148 -346 -352s150 -353 346 -353s346 149 346 353s-150 352 -346 352zM302 1296h598v-121h-598v121z" />
    <glyph glyph-name="Obreve" unicode="&#x14e;" horiz-adv-x="1689" 
d="M844 1420c416 0 723 -300 723 -720s-307 -720 -723 -720s-723 300 -723 720s307 720 723 720zM844 1265c-314 0 -554 -228 -554 -565s240 -565 554 -565c315 0 555 228 555 565s-240 565 -555 565zM623 1818c39 -129 113 -191 221 -191s183 62 222 191l120 -37
c-51 -185 -174 -280 -342 -280c-167 0 -290 95 -341 280z" />
    <glyph glyph-name="obreve" unicode="&#x14f;" horiz-adv-x="1203" 
d="M601 966c285 0 499 -212 499 -492c0 -281 -214 -493 -499 -493s-498 212 -498 493c0 280 213 492 498 492zM601 826c-196 0 -346 -148 -346 -352s150 -353 346 -353s346 149 346 353s-150 352 -346 352zM380 1403c39 -129 113 -191 221 -191s183 62 222 191l120 -37
c-51 -185 -174 -280 -342 -280c-167 0 -290 95 -341 280z" />
    <glyph glyph-name="Ohungarumlaut" unicode="&#x150;" horiz-adv-x="1689" 
d="M844 1420c416 0 723 -300 723 -720s-307 -720 -723 -720s-723 300 -723 720s307 720 723 720zM844 1265c-314 0 -554 -228 -554 -565s240 -565 554 -565c315 0 555 228 555 565s-240 565 -555 565zM912 1507l215 300h175l-240 -300h-150zM568 1507l200 300h169l-216 -300
h-153z" />
    <glyph glyph-name="ohungarumlaut" unicode="&#x151;" horiz-adv-x="1203" 
d="M601 966c285 0 499 -212 499 -492c0 -281 -214 -493 -499 -493s-498 212 -498 493c0 280 213 492 498 492zM601 826c-196 0 -346 -148 -346 -352s150 -353 346 -353s346 149 346 353s-150 352 -346 352zM684 1092l215 300h175l-240 -300h-150zM340 1092l200 300h169
l-216 -300h-153z" />
    <glyph glyph-name="OE" unicode="&#x152;" horiz-adv-x="2257" 
d="M2096 0h-1228c-457 0 -747 273 -747 700s290 700 747 700h1219v-151h-815v-469h790v-150h-790v-479h824v-151zM290 700c0 -331 199 -548 578 -548h243v1096h-243c-379 0 -578 -220 -578 -548z" />
    <glyph glyph-name="oe" unicode="&#x153;" horiz-adv-x="1965" 
d="M1417 966c257 0 442 -201 445 -489c0 -20 -2 -39 -3 -56h-759c21 -204 164 -309 335 -309c117 0 220 46 300 119l80 -102c-118 -113 -249 -148 -389 -148c-187 0 -334 86 -411 233c-83 -141 -235 -233 -414 -233c-285 0 -498 212 -498 493c0 280 213 492 498 492
c181 0 333 -93 415 -236c79 147 222 236 401 236zM601 826c-196 0 -346 -148 -346 -352s150 -353 346 -353s346 149 346 353s-150 352 -346 352zM1414 833c-175 0 -288 -120 -312 -291h608c-19 176 -135 291 -296 291z" />
    <glyph glyph-name="Racute" unicode="&#x154;" horiz-adv-x="1353" 
d="M751 1400c315 0 489 -142 489 -395c0 -242 -188 -396 -487 -396h-23l503 -609h-200l-493 609h-177v-609h-161v1400h549zM363 1249v-494h386c215 0 324 86 324 250c0 163 -113 244 -324 244h-386zM522 1507l209 300h190l-251 -300h-148z" />
    <glyph glyph-name="racute" unicode="&#x155;" horiz-adv-x="830" 
d="M604 966c68 0 123 -9 174 -32l-36 -147c-47 25 -108 38 -164 38c-148 0 -254 -116 -254 -295v-530h-149v947h148v-133c65 97 164 152 281 152zM345 1092l209 300h190l-251 -300h-148z" />
    <glyph glyph-name="Rcommaaccent" unicode="&#x156;" horiz-adv-x="1353" 
d="M751 1400c315 0 489 -142 489 -395c0 -242 -188 -396 -487 -396h-23l503 -609h-200l-493 609h-177v-609h-161v1400h549zM363 1249v-494h386c215 0 324 86 324 250c0 163 -113 244 -324 244h-386zM769 -88l-74 -350h-132l42 350h164z" />
    <glyph glyph-name="rcommaaccent" unicode="&#x157;" horiz-adv-x="830" 
d="M604 966c68 0 123 -9 174 -32l-36 -147c-47 25 -108 38 -164 38c-148 0 -254 -116 -254 -295v-530h-149v947h148v-133c65 97 164 152 281 152zM346 -88l-74 -350h-132l42 350h164z" />
    <glyph glyph-name="Rcaron" unicode="&#x158;" horiz-adv-x="1353" 
d="M751 1400c315 0 489 -142 489 -395c0 -242 -188 -396 -487 -396h-23l503 -609h-200l-493 609h-177v-609h-161v1400h549zM363 1249v-494h386c215 0 324 86 324 250c0 163 -113 244 -324 244h-386zM488 1794l175 -189l174 189h160l-234 -288h-200l-235 288h160z" />
    <glyph glyph-name="rcaron" unicode="&#x159;" horiz-adv-x="830" 
d="M604 966c68 0 123 -9 174 -32l-36 -147c-47 25 -108 38 -164 38c-148 0 -254 -116 -254 -295v-530h-149v947h148v-133c65 97 164 152 281 152zM300 1379l175 -189l174 189h160l-234 -288h-200l-235 288h160z" />
    <glyph glyph-name="Sacute" unicode="&#x15a;" horiz-adv-x="1346" 
d="M1116 1135c-113 77 -253 131 -422 131c-211 0 -362 -96 -362 -253c0 -131 104 -202 323 -227l133 -16c231 -29 437 -124 437 -368c0 -276 -252 -421 -554 -421c-202 0 -420 71 -550 180l88 128c95 -82 280 -156 461 -156c217 0 388 88 388 255c0 136 -118 204 -339 229
l-141 16c-239 27 -413 138 -413 370c0 266 237 415 530 415c212 0 375 -62 503 -153zM572 1507l209 300h190l-251 -300h-148z" />
    <glyph glyph-name="sacute" unicode="&#x15b;" horiz-adv-x="987" 
d="M811 746c-60 42 -182 89 -310 89c-135 0 -224 -57 -224 -149c0 -80 68 -118 193 -133l112 -14c201 -27 318 -109 318 -264c0 -180 -162 -293 -417 -293c-122 0 -275 31 -395 121l69 112c72 -56 168 -103 328 -103s261 53 261 153c0 76 -63 122 -198 138l-113 13
c-215 27 -313 121 -313 262c0 180 150 287 378 287c149 0 284 -42 376 -103zM384 1092l209 300h190l-251 -300h-148z" />
    <glyph glyph-name="Scircumflex" unicode="&#x15c;" horiz-adv-x="1346" 
d="M1116 1135c-113 77 -253 131 -422 131c-211 0 -362 -96 -362 -253c0 -131 104 -202 323 -227l133 -16c231 -29 437 -124 437 -368c0 -276 -252 -421 -554 -421c-202 0 -420 71 -550 180l88 128c95 -82 280 -156 461 -156c217 0 388 88 388 255c0 136 -118 204 -339 229
l-141 16c-239 27 -413 138 -413 370c0 266 237 415 530 415c212 0 375 -62 503 -153zM887 1508l-174 189l-175 -189h-160l235 288h200l234 -288h-160z" />
    <glyph glyph-name="scircumflex" unicode="&#x15d;" horiz-adv-x="987" 
d="M811 746c-60 42 -182 89 -310 89c-135 0 -224 -57 -224 -149c0 -80 68 -118 193 -133l112 -14c201 -27 318 -109 318 -264c0 -180 -162 -293 -417 -293c-122 0 -275 31 -395 121l69 112c72 -56 168 -103 328 -103s261 53 261 153c0 76 -63 122 -198 138l-113 13
c-215 27 -313 121 -313 262c0 180 150 287 378 287c149 0 284 -42 376 -103zM688 1093l-174 189l-175 -189h-160l235 288h200l234 -288h-160z" />
    <glyph glyph-name="Scedilla" unicode="&#x15e;" horiz-adv-x="1346" 
d="M673 -323h-163l111 329l155 -1zM1116 1135c-113 77 -253 131 -422 131c-211 0 -362 -96 -362 -253c0 -131 104 -202 323 -227l133 -16c231 -29 437 -124 437 -368c0 -276 -252 -421 -554 -421c-202 0 -420 71 -550 180l88 128c95 -82 280 -156 461 -156
c217 0 388 88 388 255c0 136 -118 204 -339 229l-141 16c-239 27 -413 138 -413 370c0 266 237 415 530 415c212 0 375 -62 503 -153z" />
    <glyph glyph-name="scedilla" unicode="&#x15f;" horiz-adv-x="987" 
d="M811 746c-60 42 -182 89 -310 89c-135 0 -224 -57 -224 -149c0 -80 68 -118 193 -133l112 -14c201 -27 318 -109 318 -264c0 -180 -162 -293 -417 -293c-122 0 -275 31 -395 121l69 112c72 -56 168 -103 328 -103s261 53 261 153c0 76 -63 122 -198 138l-113 13
c-215 27 -313 121 -313 262c0 180 150 287 378 287c149 0 284 -42 376 -103zM493 -323h-156l109 329l150 -1z" />
    <glyph glyph-name="Scaron" unicode="&#x160;" horiz-adv-x="1346" 
d="M1116 1135c-113 77 -253 131 -422 131c-211 0 -362 -96 -362 -253c0 -131 104 -202 323 -227l133 -16c231 -29 437 -124 437 -368c0 -276 -252 -421 -554 -421c-202 0 -420 71 -550 180l88 128c95 -82 280 -156 461 -156c217 0 388 88 388 255c0 136 -118 204 -339 229
l-141 16c-239 27 -413 138 -413 370c0 266 237 415 530 415c212 0 375 -62 503 -153zM538 1794l175 -189l174 189h160l-234 -288h-200l-235 288h160z" />
    <glyph glyph-name="scaron" unicode="&#x161;" horiz-adv-x="987" 
d="M811 746c-60 42 -182 89 -310 89c-135 0 -224 -57 -224 -149c0 -80 68 -118 193 -133l112 -14c201 -27 318 -109 318 -264c0 -180 -162 -293 -417 -293c-122 0 -275 31 -395 121l69 112c72 -56 168 -103 328 -103s261 53 261 153c0 76 -63 122 -198 138l-113 13
c-215 27 -313 121 -313 262c0 180 150 287 378 287c149 0 284 -42 376 -103zM339 1379l175 -189l174 189h160l-234 -288h-200l-235 288h160z" />
    <glyph glyph-name="Tcommaaccent" unicode="&#x162;" horiz-adv-x="1212" 
d="M582 -323h-163l111 329l155 -1zM1172 1248h-486v-1248h-160v1248h-486v152h1132v-152z" />
    <glyph glyph-name="tcommaaccent" unicode="&#x163;" horiz-adv-x="906" 
d="M818 812h-409v-478c0 -148 79 -213 188 -213c73 0 143 27 199 67l70 -113c-72 -55 -164 -94 -281 -94c-204 0 -325 112 -325 350v481h-207v135h207v301h149v-301h409v-135zM537 -323h-156l109 329l150 -1z" />
    <glyph glyph-name="Tcaron" unicode="&#x164;" horiz-adv-x="1212" 
d="M1172 1248h-486v-1248h-160v1248h-486v152h1132v-152zM431 1794l175 -189l174 189h160l-234 -288h-200l-235 288h160z" />
    <glyph glyph-name="tcaron" unicode="&#x165;" horiz-adv-x="906" 
d="M818 812h-409v-478c0 -148 79 -213 188 -213c73 0 143 27 199 67l70 -113c-72 -55 -164 -94 -281 -94c-204 0 -325 112 -325 350v481h-207v135h207v301h149v-301h409v-135zM535 1051l7 389h153l-34 -389h-126z" />
    <glyph glyph-name="Utilde" unicode="&#x168;" horiz-adv-x="1517" 
d="M1335 548c0 -380 -257 -567 -577 -567s-576 187 -576 567v852h160v-840c0 -293 177 -425 416 -425s416 132 416 425v840h161v-852zM406 1649c60 75 123 111 219 111c135 0 181 -79 266 -79c51 0 87 22 130 67l89 -85c-60 -75 -124 -111 -219 -111c-134 0 -180 80 -266 80
c-51 0 -88 -23 -131 -68z" />
    <glyph glyph-name="utilde" unicode="&#x169;" horiz-adv-x="1188" 
d="M1024 395c0 -281 -202 -414 -430 -414c-229 0 -430 133 -430 414v552h149v-538c0 -196 118 -288 281 -288c162 0 280 92 280 288v538h150v-552zM250 1234c60 75 123 111 219 111c135 0 181 -79 266 -79c51 0 87 22 130 67l89 -85c-60 -75 -124 -111 -219 -111
c-134 0 -180 80 -266 80c-51 0 -88 -23 -131 -68z" />
    <glyph glyph-name="Umacron" unicode="&#x16a;" horiz-adv-x="1517" 
d="M1335 548c0 -380 -257 -567 -577 -567s-576 187 -576 567v852h160v-840c0 -293 177 -425 416 -425s416 132 416 425v840h161v-852zM459 1711h598v-121h-598v121z" />
    <glyph glyph-name="umacron" unicode="&#x16b;" horiz-adv-x="1188" 
d="M1024 395c0 -281 -202 -414 -430 -414c-229 0 -430 133 -430 414v552h149v-538c0 -196 118 -288 281 -288c162 0 280 92 280 288v538h150v-552zM295 1296h598v-121h-598v121z" />
    <glyph glyph-name="Ubreve" unicode="&#x16c;" horiz-adv-x="1517" 
d="M1335 548c0 -380 -257 -567 -577 -567s-576 187 -576 567v852h160v-840c0 -293 177 -425 416 -425s416 132 416 425v840h161v-852zM537 1818c39 -129 113 -191 221 -191s183 62 222 191l120 -37c-51 -185 -174 -280 -342 -280c-167 0 -290 95 -341 280z" />
    <glyph glyph-name="ubreve" unicode="&#x16d;" horiz-adv-x="1188" 
d="M1024 395c0 -281 -202 -414 -430 -414c-229 0 -430 133 -430 414v552h149v-538c0 -196 118 -288 281 -288c162 0 280 92 280 288v538h150v-552zM373 1403c39 -129 113 -191 221 -191s183 62 222 191l120 -37c-51 -185 -174 -280 -342 -280c-167 0 -290 95 -341 280z" />
    <glyph glyph-name="Uring" unicode="&#x16e;" horiz-adv-x="1517" 
d="M1335 548c0 -380 -257 -567 -577 -567s-576 187 -576 567v852h160v-840c0 -293 177 -425 416 -425s416 132 416 425v840h161v-852zM758 1487c-124 0 -227 101 -227 225s103 224 227 224c125 0 228 -100 228 -224s-103 -225 -228 -225zM758 1582c70 0 128 57 128 130
c0 72 -58 129 -128 129s-127 -57 -127 -129c0 -73 57 -130 127 -130z" />
    <glyph glyph-name="uring" unicode="&#x16f;" horiz-adv-x="1188" 
d="M1024 395c0 -281 -202 -414 -430 -414c-229 0 -430 133 -430 414v552h149v-538c0 -196 118 -288 281 -288c162 0 280 92 280 288v538h150v-552zM593 1072c-124 0 -227 101 -227 225s103 224 227 224c125 0 228 -100 228 -224s-103 -225 -228 -225zM593 1167
c70 0 128 57 128 130c0 72 -58 129 -128 129s-127 -57 -127 -129c0 -73 57 -130 127 -130z" />
    <glyph glyph-name="Uhungarumlaut" unicode="&#x170;" horiz-adv-x="1517" 
d="M1335 548c0 -380 -257 -567 -577 -567s-576 187 -576 567v852h160v-840c0 -293 177 -425 416 -425s416 132 416 425v840h161v-852zM826 1507l215 300h175l-240 -300h-150zM482 1507l200 300h169l-216 -300h-153z" />
    <glyph glyph-name="uhungarumlaut" unicode="&#x171;" horiz-adv-x="1188" 
d="M1024 395c0 -281 -202 -414 -430 -414c-229 0 -430 133 -430 414v552h149v-538c0 -196 118 -288 281 -288c162 0 280 92 280 288v538h150v-552zM677 1092l215 300h175l-240 -300h-150zM333 1092l200 300h169l-216 -300h-153z" />
    <glyph glyph-name="Uogonek" unicode="&#x172;" horiz-adv-x="1517" 
d="M1335 548c0 -380 -257 -567 -577 -567s-576 187 -576 567v852h160v-840c0 -293 177 -425 416 -425s416 132 416 425v840h161v-852zM1199 -325c-63 -60 -144 -90 -232 -90c-157 0 -261 88 -261 206c0 145 125 223 335 300l14 -45c-135 -73 -203 -137 -203 -228
c0 -61 48 -104 124 -104c53 0 101 19 143 58z" />
    <glyph glyph-name="uogonek" unicode="&#x173;" horiz-adv-x="1188" 
d="M1024 395c0 -281 -202 -414 -430 -414c-229 0 -430 133 -430 414v552h149v-538c0 -196 118 -288 281 -288c162 0 280 92 280 288v538h150v-552zM987 -325c-63 -60 -144 -90 -232 -90c-157 0 -261 88 -261 206c0 145 125 223 335 300l14 -45c-135 -73 -203 -137 -203 -228
c0 -61 48 -104 124 -104c53 0 101 19 143 58z" />
    <glyph glyph-name="Ydieresis" unicode="&#x178;" horiz-adv-x="1287" 
d="M725 587v-587h-160v589l-554 811h192l443 -664l443 664h187zM443 1758c59 0 106 -47 106 -107s-47 -105 -106 -105c-60 0 -106 45 -106 105s46 107 106 107zM849 1758c59 0 106 -47 106 -107s-47 -105 -106 -105c-60 0 -105 45 -105 105s45 107 105 107z" />
    <glyph glyph-name="Zacute" unicode="&#x179;" horiz-adv-x="1314" 
d="M1190 1276l-855 -1124h858v-152h-1072v124l856 1124h-846v152h1059v-124zM520 1507l209 300h190l-251 -300h-148z" />
    <glyph glyph-name="zacute" unicode="&#x17a;" horiz-adv-x="1055" 
d="M924 838l-604 -703h613v-135h-811v108l610 704h-592v135h784v-109zM402 1092l209 300h190l-251 -300h-148z" />
    <glyph glyph-name="Zdotaccent" unicode="&#x17b;" horiz-adv-x="1314" 
d="M1190 1276l-855 -1124h858v-152h-1072v124l856 1124h-846v152h1059v-124zM647 1764c61 0 110 -47 110 -109s-49 -109 -110 -109c-62 0 -109 47 -109 109s47 109 109 109z" />
    <glyph glyph-name="zdotaccent" unicode="&#x17c;" horiz-adv-x="1055" 
d="M924 838l-604 -703h613v-135h-811v108l610 704h-592v135h784v-109zM532 1389c59 0 106 -46 106 -106s-47 -105 -106 -105c-60 0 -105 45 -105 105s45 106 105 106z" />
    <glyph glyph-name="Zcaron" unicode="&#x17d;" horiz-adv-x="1314" 
d="M1190 1276l-855 -1124h858v-152h-1072v124l856 1124h-846v152h1059v-124zM486 1794l175 -189l174 189h160l-234 -288h-200l-235 288h160z" />
    <glyph glyph-name="zcaron" unicode="&#x17e;" horiz-adv-x="1055" 
d="M924 838l-604 -703h613v-135h-811v108l610 704h-592v135h784v-109zM357 1379l175 -189l174 189h160l-234 -288h-200l-235 288h160z" />
    <glyph glyph-name="longs" unicode="&#x17f;" horiz-adv-x="645" 
d="M481 1459c108 0 191 -30 259 -71l-53 -125c-52 31 -124 56 -196 56c-123 0 -175 -77 -175 -210v-1109h-150v1109c0 202 91 350 315 350z" />
    <glyph glyph-name="Scommaaccent" unicode="&#x218;" horiz-adv-x="1346" 
d="M1116 1135c-113 77 -253 131 -422 131c-211 0 -362 -96 -362 -253c0 -131 104 -202 323 -227l133 -16c231 -29 437 -124 437 -368c0 -276 -252 -421 -554 -421c-202 0 -420 71 -550 180l88 128c95 -82 280 -156 461 -156c217 0 388 88 388 255c0 136 -118 204 -339 229
l-141 16c-239 27 -413 138 -413 370c0 266 237 415 530 415c212 0 375 -62 503 -153zM800 -88l-74 -350h-132l42 350h164z" />
    <glyph glyph-name="scommaaccent" unicode="&#x219;" horiz-adv-x="987" 
d="M811 746c-60 42 -182 89 -310 89c-135 0 -224 -57 -224 -149c0 -80 68 -118 193 -133l112 -14c201 -27 318 -109 318 -264c0 -180 -162 -293 -417 -293c-122 0 -275 31 -395 121l69 112c72 -56 168 -103 328 -103s261 53 261 153c0 76 -63 122 -198 138l-113 13
c-215 27 -313 121 -313 262c0 180 150 287 378 287c149 0 284 -42 376 -103zM602 -88l-74 -350h-132l42 350h164z" />
    <glyph glyph-name="uni021A" unicode="&#x21a;" horiz-adv-x="1212" 
d="M1172 1248h-486v-1248h-160v1248h-486v152h1132v-152zM709 -88l-74 -350h-132l42 350h164z" />
    <glyph glyph-name="uni021B" unicode="&#x21b;" horiz-adv-x="906" 
d="M818 812h-409v-478c0 -148 79 -213 188 -213c73 0 143 27 199 67l70 -113c-72 -55 -164 -94 -281 -94c-204 0 -325 112 -325 350v481h-207v135h207v301h149v-301h409v-135zM646 -88l-74 -350h-132l42 350h164z" />
    <glyph glyph-name="gravecomb" unicode="&#x300;" horiz-adv-x="1" 
d="M-883 1392h189l210 -300h-148z" />
    <glyph glyph-name="acutecomb" unicode="&#x301;" horiz-adv-x="1" 
d="M-732 1092l209 300h190l-251 -300h-148z" />
    <glyph glyph-name="uni0302" unicode="&#x302;" horiz-adv-x="1" 
d="M-428 1093l-174 189l-175 -189h-160l235 288h200l234 -288h-160z" />
    <glyph glyph-name="tildecomb" unicode="&#x303;" horiz-adv-x="1" 
d="M-946 1234c60 75 123 111 219 111c135 0 181 -79 266 -79c51 0 87 22 130 67l89 -85c-60 -75 -124 -111 -219 -111c-134 0 -180 80 -266 80c-51 0 -88 -23 -131 -68z" />
    <glyph glyph-name="uni0304" unicode="&#x304;" horiz-adv-x="1" 
d="M-901 1296h598v-121h-598v121z" />
    <glyph glyph-name="uni0306" unicode="&#x306;" horiz-adv-x="1" 
d="M-823 1403c39 -129 113 -191 221 -191s183 62 222 191l120 -37c-51 -185 -174 -280 -342 -280c-167 0 -290 95 -341 280z" />
    <glyph glyph-name="uni0307" unicode="&#x307;" horiz-adv-x="1" 
d="M-602 1389c59 0 106 -46 106 -106s-47 -105 -106 -105c-60 0 -105 45 -105 105s45 106 105 106z" />
    <glyph glyph-name="uni0308" unicode="&#x308;" horiz-adv-x="1" 
d="M-805 1343c59 0 106 -47 106 -107s-47 -105 -106 -105c-60 0 -106 45 -106 105s46 107 106 107zM-399 1343c59 0 106 -47 106 -107s-47 -105 -106 -105c-60 0 -105 45 -105 105s45 107 105 107z" />
    <glyph glyph-name="uni030A" unicode="&#x30a;" horiz-adv-x="1" 
d="M-603 1072c-124 0 -227 101 -227 225s103 224 227 224c125 0 228 -100 228 -224s-103 -225 -228 -225zM-603 1167c70 0 128 57 128 130c0 72 -58 129 -128 129s-127 -57 -127 -129c0 -73 57 -130 127 -130z" />
    <glyph glyph-name="uni030B" unicode="&#x30b;" horiz-adv-x="1" 
d="M-519 1092l215 300h175l-240 -300h-150zM-863 1092l200 300h169l-216 -300h-153z" />
    <glyph glyph-name="uni030C" unicode="&#x30c;" horiz-adv-x="1" 
d="M-777 1379l175 -189l174 189h160l-234 -288h-200l-235 288h160z" />
    <glyph glyph-name="uni0312" unicode="&#x312;" horiz-adv-x="1" 
d="M-693 1092l74 351h132l-42 -351h-164z" />
    <glyph glyph-name="uni0326" unicode="&#x326;" horiz-adv-x="1" 
d="M-506 -88l-74 -350h-132l42 350h164z" />
    <glyph glyph-name="uni0327" unicode="&#x327;" horiz-adv-x="1" 
d="M-574 -323h-156l109 329l150 -1z" />
    <glyph glyph-name="uni0328" unicode="&#x328;" horiz-adv-x="1" 
d="M-354 -325c-63 -60 -144 -90 -232 -90c-157 0 -261 88 -261 206c0 145 125 223 335 300l14 -45c-135 -73 -203 -137 -203 -228c0 -61 48 -104 124 -104c53 0 101 19 143 58z" />
    <glyph glyph-name="uni1E9E" unicode="&#x1e9e;" horiz-adv-x="1464" 
d="M705 750l363 400c-67 69 -168 115 -331 115c-243 0 -394 -136 -394 -350v-915h-161v924c0 277 190 495 558 495c275 0 433 -97 548 -246l-373 -405c243 -29 427 -168 427 -389c0 -245 -232 -397 -509 -397c-135 0 -219 17 -295 42l39 152c63 -23 136 -40 232 -40
c221 0 363 89 363 243c0 157 -144 251 -376 251h-91v120z" />
    <glyph glyph-name="uni2008" unicode="&#x2008;" horiz-adv-x="523" 
 />
    <glyph glyph-name="uni2009" unicode="&#x2009;" horiz-adv-x="178" 
 />
    <glyph glyph-name="uni200B" unicode="&#x200b;" horiz-adv-x="0" 
 />
    <glyph glyph-name="uniFEFF" unicode="&#xfeff;" horiz-adv-x="0" 
 />
    <glyph glyph-name="endash" unicode="&#x2013;" horiz-adv-x="1192" 
d="M1071 461h-950v136h950v-136z" />
    <glyph glyph-name="emdash" unicode="&#x2014;" horiz-adv-x="1622" 
d="M1561 461h-1500v136h1500v-136z" />
    <glyph glyph-name="quoteleft" unicode="&#x2018;" horiz-adv-x="494" 
d="M133 933l105 507h129l-60 -507h-174z" />
    <glyph glyph-name="quoteright" unicode="&#x2019;" horiz-adv-x="494" 
d="M361 1440l-105 -507h-129l60 507h174z" />
    <glyph glyph-name="quotesinglbase" unicode="&#x201a;" horiz-adv-x="494" 
d="M361 248l-105 -507h-129l60 507h174z" />
    <glyph glyph-name="quotedblleft" unicode="&#x201c;" horiz-adv-x="849" 
d="M133 933l105 507h129l-60 -507h-174zM488 933l105 507h129l-60 -507h-174z" />
    <glyph glyph-name="quotedblright" unicode="&#x201d;" horiz-adv-x="848" 
d="M715 1440l-105 -507h-129l60 507h174zM361 1440l-105 -507h-129l60 507h174z" />
    <glyph glyph-name="quotedblbase" unicode="&#x201e;" horiz-adv-x="848" 
d="M715 248l-105 -507h-129l60 507h174zM361 248l-105 -507h-129l60 507h174z" />
    <glyph glyph-name="bullet" unicode="&#x2022;" horiz-adv-x="864" 
d="M433 756c124 0 227 -102 227 -227s-103 -227 -227 -227c-127 0 -227 102 -227 227s100 227 227 227z" />
    <glyph glyph-name="guilsinglleft" unicode="&#x2039;" horiz-adv-x="625" 
d="M478 159h-160l-192 370l192 370h160l-191 -370z" />
    <glyph glyph-name="guilsinglright" unicode="&#x203a;" horiz-adv-x="625" 
d="M147 899h160l192 -370l-192 -370h-160l191 370z" />
    <glyph glyph-name="Euro" unicode="&#x20ac;" horiz-adv-x="1400" 
d="M1044 478h-630c58 -220 212 -353 432 -353c171 0 296 82 376 202l99 -103c-107 -151 -262 -242 -475 -242c-311 0 -524 191 -594 496h-175v124h156c-3 31 -4 63 -4 98c0 33 1 66 4 98h-156v124h175c69 303 284 496 594 496c212 0 373 -90 478 -237l-104 -108
c-80 120 -203 202 -374 202c-222 0 -373 -134 -432 -353h630v-124h-652c-3 -32 -5 -63 -5 -98s2 -67 5 -98h652v-124z" />
    <glyph glyph-name="trademark" unicode="&#x2122;" horiz-adv-x="1434" 
d="M1245 815v443l-165 -382h-112l-165 381v-442h-108v586h153l176 -403l176 403h153v-586h-108zM277 815v486h-196v99h499v-99h-196v-486h-107z" />
    <glyph glyph-name="uniFB00" unicode="&#xfb00;" horiz-adv-x="1700" 
d="M796 812h-377v-812h-150v812h-216v135h216v162c0 202 91 350 315 350c108 0 191 -30 259 -71l-54 -125c-51 31 -123 56 -195 56c-123 0 -175 -77 -175 -210v-162h377v-135zM1633 812h-377v-812h-150v812h-216v135h216v162c0 202 91 350 315 350c108 0 191 -30 259 -71
l-54 -125c-51 31 -123 56 -195 56c-123 0 -175 -77 -175 -210v-162h377v-135z" />
    <glyph glyph-name="fi" unicode="&#xfb01;" horiz-adv-x="1363" 
d="M796 812h-377v-812h-150v812h-216v135h216v162c0 202 91 350 315 350c108 0 191 -30 259 -71l-54 -125c-51 31 -123 56 -195 56c-123 0 -175 -77 -175 -210v-162h377v-135zM1188 0h-150v947h150v-947zM1113 1389c59 0 106 -46 106 -106s-47 -105 -106 -105
c-60 0 -105 45 -105 105s45 106 105 106z" />
    <glyph glyph-name="fl" unicode="&#xfb02;" horiz-adv-x="1363" 
d="M796 812h-377v-812h-150v812h-216v135h216v162c0 202 91 350 315 350c108 0 191 -30 259 -71l-54 -125c-51 31 -123 56 -195 56c-123 0 -175 -77 -175 -210v-162h377v-135zM1188 0h-150v1440h150v-1440z" />
    <glyph glyph-name="uniFB03" unicode="&#xfb03;" horiz-adv-x="2200" 
d="M796 812h-377v-812h-150v812h-216v135h216v162c0 202 91 350 315 350c108 0 191 -30 259 -71l-54 -125c-51 31 -123 56 -195 56c-123 0 -175 -77 -175 -210v-162h377v-135zM1633 812h-377v-812h-150v812h-216v135h216v162c0 202 91 350 315 350c108 0 191 -30 259 -71
l-54 -125c-51 31 -123 56 -195 56c-123 0 -175 -77 -175 -210v-162h377v-135zM2025 0h-150v947h150v-947zM1950 1389c59 0 106 -46 106 -106s-47 -105 -106 -105c-60 0 -105 45 -105 105s45 106 105 106z" />
    <glyph glyph-name="uniFB04" unicode="&#xfb04;" horiz-adv-x="2200" 
d="M796 812h-377v-812h-150v812h-216v135h216v162c0 202 91 350 315 350c108 0 191 -30 259 -71l-54 -125c-51 31 -123 56 -195 56c-123 0 -175 -77 -175 -210v-162h377v-135zM1633 812h-377v-812h-150v812h-216v135h216v162c0 202 91 350 315 350c108 0 191 -30 259 -71
l-54 -125c-51 31 -123 56 -195 56c-123 0 -175 -77 -175 -210v-162h377v-135zM2025 0h-150v1440h150v-1440z" />
    <glyph glyph-name="uniFB05" unicode="&#xfb05;" horiz-adv-x="1464" 
d="M1377 812h-409v-478c0 -148 79 -213 188 -213c73 0 143 27 198 66l70 -112c-72 -55 -164 -94 -281 -94c-203 0 -324 112 -324 350v481h-205v135h205v91c0 191 -107 281 -252 281c-144 0 -251 -90 -251 -281v-1038h-150v1048c0 280 190 411 401 411
c212 0 401 -131 401 -411v-101h409v-135z" />
    <glyph glyph-name="uniFB06" unicode="&#xfb06;" horiz-adv-x="1893" 
d="M811 746c-60 42 -182 89 -310 89c-135 0 -224 -57 -224 -149c0 -80 68 -118 193 -133l112 -14c201 -27 318 -109 318 -264c0 -180 -162 -293 -417 -293c-122 0 -275 31 -395 121l69 112c72 -56 168 -103 328 -103s261 53 261 153c0 76 -63 122 -198 138l-113 13
c-215 27 -313 121 -313 262c0 180 150 287 378 287c149 0 284 -42 376 -103zM1805 812h-409v-478c0 -148 79 -213 188 -213c73 0 143 27 199 67l70 -113c-72 -55 -164 -94 -281 -94c-204 0 -325 112 -325 350v481h-207v135h207v301h149v-301h409v-135z" />
    <glyph glyph-name="uni030C.alt001" unicode="&#xe01d;" horiz-adv-x="1" 
d="M-682 1051l7 389h153l-34 -389h-126z" />
    <glyph glyph-name="uni0328.alt001" unicode="&#xe01e;" horiz-adv-x="1" 
d="M-397 -332c-57 -57 -122 -83 -195 -83c-124 0 -213 68 -213 176c0 116 93 204 245 297l37 -58c-94 -77 -141 -146 -141 -209c0 -47 34 -77 85 -77c40 0 73 18 102 50z" />
    <glyph glyph-name="uni0328.alt002" unicode="&#xe01f;" horiz-adv-x="1" 
d="M-521 16c-125 -61 -180 -121 -180 -198c0 -61 48 -104 124 -104c53 0 101 19 143 58l80 -97c-63 -60 -144 -90 -232 -90c-157 0 -261 88 -261 206c0 133 106 212 303 281z" />
    <glyph glyph-name="uni0328.alt003" unicode="&#xe020;" horiz-adv-x="1" 
d="M-397 -332c-57 -57 -121 -83 -194 -83c-124 0 -213 68 -213 176c0 126 117 206 325 297l35 -58c-151 -73 -219 -137 -219 -209c0 -47 34 -77 85 -77c39 0 71 18 102 50z" />
    <glyph glyph-name="uni0328.alt004" unicode="&#xe021;" horiz-adv-x="1" 
d="M-354 -325c-63 -60 -144 -90 -232 -90c-157 0 -261 88 -261 206c0 145 125 223 335 300l18 -59c-137 -68 -207 -129 -207 -214c0 -61 48 -104 124 -104c53 0 101 19 143 58z" />
    <glyph glyph-name="zero.osf" unicode="&#xe023;" horiz-adv-x="1349" 
d="M675 1061c303 0 550 -211 550 -539s-247 -541 -550 -541c-304 0 -550 215 -550 541c0 328 246 539 550 539zM675 920c-221 0 -398 -153 -398 -398s177 -400 398 -400s397 152 397 400c0 245 -176 398 -397 398z" />
    <glyph glyph-name="one.osf" unicode="&#xe00f;" horiz-adv-x="767" 
d="M568 0h-151v857l-348 -117v150l499 173v-1063z" />
    <glyph glyph-name="two.osf" unicode="&#xe01b;" horiz-adv-x="1075" 
d="M81 847c66 87 200 213 428 213c249 0 419 -158 419 -362c0 -186 -138 -313 -304 -412l-234 -141h598v-145h-871v124l423 267c170 106 229 204 229 300c0 119 -94 223 -266 223c-158 0 -248 -81 -314 -160z" />
    <glyph glyph-name="three.osf" unicode="&#xe018;" horiz-adv-x="1097" 
d="M503 1060c272 0 457 -157 457 -385c0 -164 -87 -270 -216 -326c146 -56 247 -168 247 -332c0 -268 -232 -395 -475 -395c-195 0 -352 69 -453 186l100 102c87 -91 213 -144 350 -144c176 0 319 82 319 257c0 163 -152 255 -336 255h-181v140h181c170 0 305 83 305 251
c0 153 -134 249 -308 249c-139 0 -243 -75 -304 -160l-112 91c78 121 223 211 426 211z" />
    <glyph glyph-name="four.osf" unicode="&#xe009;" horiz-adv-x="1143" 
d="M834 144h259v-144h-259v-360h-151v360h-633v119l486 921h164l-470 -896h453v346h151v-346z" />
    <glyph glyph-name="five.osf" unicode="&#xe006;" horiz-adv-x="1144" 
d="M966 896h-617l-12 -417h202c335 0 493 -189 493 -418c0 -284 -218 -441 -477 -441c-198 0 -356 74 -474 222l106 96c92 -113 226 -172 367 -172c208 0 319 129 319 281c0 164 -99 288 -381 288h-299l16 705h757v-144z" />
    <glyph glyph-name="six.osf" unicode="&#xe015;" horiz-adv-x="1147" 
d="M417 850c43 24 101 42 180 42c260 0 469 -195 469 -456c0 -260 -211 -455 -495 -455c-285 0 -496 195 -496 456c0 108 36 203 104 308l416 655h187zM571 750c-195 0 -339 -129 -339 -313s144 -314 339 -314s338 130 338 314s-143 313 -338 313z" />
    <glyph glyph-name="seven.osf" unicode="&#xe012;" horiz-adv-x="1098" 
d="M1023 922l-636 -1282h-176l630 1256h-766v144h948v-118z" />
    <glyph glyph-name="eight.osf" unicode="&#xe003;" horiz-adv-x="1207" 
d="M604 1419c256 0 465 -152 465 -386c0 -167 -107 -272 -238 -326c148 -54 270 -158 270 -333c0 -240 -225 -393 -497 -393c-274 0 -498 153 -498 393c0 174 121 280 269 333c-132 53 -236 160 -236 326c0 234 209 386 465 386zM604 637c-187 0 -338 -100 -338 -257
s151 -257 338 -257c186 0 337 100 337 257s-151 257 -337 257zM604 1276c-168 0 -306 -97 -306 -248c0 -159 138 -255 306 -255s305 96 305 255c0 151 -137 248 -305 248z" />
    <glyph glyph-name="nine.osf" unicode="&#xe00c;" horiz-adv-x="1148" 
d="M730 191c-44 -24 -101 -42 -180 -42c-260 0 -469 195 -469 456c0 260 211 455 496 455c284 0 496 -195 496 -456c0 -108 -36 -204 -104 -308l-417 -655h-186zM577 291c195 0 339 129 339 313c0 185 -144 314 -339 314c-196 0 -339 -130 -339 -314s143 -313 339 -313z" />
    <glyph glyph-name="zero" unicode="0" 
d="M603 1418c285 0 520 -229 520 -718c0 -509 -235 -718 -520 -718c-288 0 -527 209 -527 718s239 718 527 718zM603 1270c-201 0 -367 -157 -367 -570s166 -570 367 -570c197 0 360 157 360 570c0 395 -163 570 -360 570z" />
    <glyph glyph-name="one" unicode="1" 
d="M587 147v1059l-407 -146v157l561 200v-1270h367v-147h-913v147h392z" />
    <glyph glyph-name="two" unicode="2" 
d="M136 1186c66 98 189 232 429 232c284 0 447 -186 447 -433c0 -173 -97 -300 -188 -396l-418 -442h652v-147h-881v121l529 558c85 89 144 186 144 306c0 161 -103 286 -290 286c-159 0 -245 -83 -312 -175z" />
    <glyph glyph-name="three" unicode="3" 
d="M557 1418c276 0 463 -156 463 -383c0 -165 -87 -272 -219 -328c147 -53 250 -167 250 -332c0 -267 -234 -393 -481 -393c-196 0 -351 68 -454 184l99 103c88 -91 213 -143 352 -143c173 0 323 82 323 256c0 162 -151 254 -338 254h-184v141h183c172 0 308 84 308 250
c0 151 -135 247 -311 247c-140 0 -248 -73 -309 -159l-111 95c80 119 228 208 429 208z" />
    <glyph glyph-name="four" unicode="4" 
d="M890 440h239v-146h-239v-294h-154v294h-654v119l523 986h175l-513 -959h469v390h154v-390z" />
    <glyph glyph-name="five" unicode="5" 
d="M996 1254h-618l-13 -414h206c330 0 489 -188 489 -412c0 -286 -214 -447 -479 -447c-197 0 -355 73 -474 218l103 100c92 -109 228 -171 371 -171c205 0 319 129 319 287c0 153 -101 279 -376 279h-305l18 706h759v-146z" />
    <glyph glyph-name="six" unicode="6" 
d="M448 853c44 23 101 40 177 40c261 0 470 -195 470 -456c0 -260 -211 -455 -496 -455s-497 195 -497 455c0 109 36 205 104 310l417 653h188zM599 750c-193 0 -338 -129 -338 -313c0 -182 143 -312 338 -312c194 0 337 130 337 312c0 184 -143 313 -337 313z" />
    <glyph glyph-name="seven" unicode="7" 
d="M1080 1279l-633 -1279h-180l627 1254h-764v146h950v-121z" />
    <glyph glyph-name="eight" unicode="8" 
d="M600 1418c267 0 486 -139 486 -383c0 -172 -108 -277 -244 -328c152 -51 277 -155 277 -334c0 -251 -234 -392 -519 -392s-519 141 -519 392c0 179 125 283 277 334c-136 51 -244 156 -244 328c0 244 219 383 486 383zM600 638c-196 0 -356 -89 -356 -256
c0 -169 160 -257 356 -257c195 0 355 88 355 257c0 167 -160 256 -355 256zM600 1274c-177 0 -323 -86 -323 -247c0 -168 146 -254 323 -254s323 86 323 254c0 161 -146 247 -323 247z" />
    <glyph glyph-name="nine" unicode="9" 
d="M731 529c-45 -15 -93 -22 -144 -22c-276 0 -482 195 -482 456c0 260 211 455 496 455s497 -195 497 -455c0 -109 -36 -205 -104 -310l-417 -653h-188zM601 650c194 0 337 129 337 313c0 182 -143 312 -337 312s-337 -132 -337 -312c0 -181 143 -313 337 -313z" />
    <glyph glyph-name="uni2007" unicode="&#x2007;" 
 />
    <glyph glyph-name="zero.tosf" unicode="&#xe024;" 
d="M599 1060c288 0 523 -209 523 -539c0 -333 -235 -541 -523 -541s-522 213 -522 541c0 330 234 539 522 539zM599 923c-204 0 -370 -151 -370 -402c0 -252 166 -403 370 -403c205 0 371 149 371 403c0 251 -166 402 -371 402z" />
    <glyph glyph-name="one.tosf" unicode="&#xe010;" 
d="M582 146v723l-389 -113v152l540 155v-917l355 1v-147h-880v145z" />
    <glyph glyph-name="two.tosf" unicode="&#xe01c;" 
d="M161 847c66 87 200 213 428 213c249 0 419 -158 419 -362c0 -186 -138 -313 -304 -412l-234 -141h598v-145h-871v124l423 267c170 106 229 204 229 300c0 119 -94 223 -266 223c-158 0 -248 -81 -314 -160z" />
    <glyph glyph-name="three.tosf" unicode="&#xe019;" 
d="M569 1060c272 0 457 -157 457 -385c0 -164 -87 -270 -216 -326c146 -56 247 -168 247 -332c0 -268 -232 -395 -475 -395c-195 0 -352 69 -453 186l100 102c87 -91 213 -144 350 -144c176 0 319 82 319 257c0 163 -152 255 -336 255h-181v140h181c170 0 305 83 305 251
c0 153 -134 249 -308 249c-139 0 -243 -75 -304 -160l-112 91c78 121 223 211 426 211z" />
    <glyph glyph-name="four.tosf" unicode="&#xe00a;" 
d="M881 144h259v-144h-259v-360h-151v360h-633v119l486 921h164l-470 -896h453v346h151v-346z" />
    <glyph glyph-name="five.tosf" unicode="&#xe007;" 
d="M996 896h-617l-12 -417h202c335 0 493 -189 493 -418c0 -284 -218 -441 -477 -441c-198 0 -356 74 -474 222l106 96c92 -113 226 -172 367 -172c208 0 319 129 319 281c0 164 -99 288 -381 288h-299l16 705h757v-144z" />
    <glyph glyph-name="six.tosf" unicode="&#xe016;" 
d="M453 850c43 24 101 42 180 42c260 0 469 -195 469 -456c0 -260 -211 -455 -495 -455c-285 0 -496 195 -496 456c0 108 36 203 104 308l416 655h187zM607 750c-195 0 -339 -129 -339 -313s144 -314 339 -314s338 130 338 314s-143 313 -338 313z" />
    <glyph glyph-name="seven.tosf" unicode="&#xe013;" 
d="M1095 922l-636 -1282h-176l630 1256h-766v144h948v-118z" />
    <glyph glyph-name="eight.tosf" unicode="&#xe004;" 
d="M613 1419c256 0 465 -152 465 -386c0 -167 -107 -272 -238 -326c148 -54 270 -158 270 -333c0 -240 -225 -393 -497 -393c-274 0 -498 153 -498 393c0 174 121 280 269 333c-132 53 -236 160 -236 326c0 234 209 386 465 386zM613 637c-187 0 -338 -100 -338 -257
s151 -257 338 -257c186 0 337 100 337 257s-151 257 -337 257zM613 1276c-168 0 -306 -97 -306 -248c0 -159 138 -255 306 -255s305 96 305 255c0 151 -137 248 -305 248z" />
    <glyph glyph-name="nine.tosf" unicode="&#xe00d;" 
d="M747 191c-44 -24 -101 -42 -180 -42c-260 0 -469 195 -469 456c0 260 211 455 496 455c284 0 496 -195 496 -456c0 -108 -36 -204 -104 -308l-417 -655h-186zM594 291c195 0 339 129 339 313c0 185 -144 314 -339 314c-196 0 -339 -130 -339 -314s143 -313 339 -313z" />
    </font>
</defs>
</svg>
