<?xml version="1.0" encoding="UTF-8"?> <svg xmlns="http://www.w3.org/2000/svg" xmlns:xlink="http://www.w3.org/1999/xlink" height="64" viewBox="0 0 69 64" width="69"><mask id="a" fill="#fff"><path d="m0 0h68.2666667v10.6666667h-68.2666667z" fill="#fff" fill-rule="evenodd"></path></mask><mask id="b" fill="#fff"><path d="m0 64h68.2666667v-64h-68.2666667z" fill="#fff" fill-rule="evenodd"></path></mask><g fill="#9d7cff" fill-rule="evenodd"><path d="m30.02144 40.02016-18.1333333-29.8666667 1.824-1.10719997 18.1333333 29.86666667z"></path><path d="m.15936 10.16032 22.4 36.2666667 1.8154667-1.1210667-22.4010667-36.26666667z"></path><path d="m38.24544 40.02016-1.824-1.1072 18.1333333-29.86666667 1.824 1.10719997z"></path><path d="m45.7074133 46.4272-1.8144-1.1210667 22.4-36.26666663 1.8144 1.12106663z"></path><path d="m3.20010667 8.53333333h61.86666663l-4.8-6.4h-52.26666663zm64.00000003 2.13333337h-66.13333337c-.40426666 0-.77333333-.2282667-.95466666-.5898667-.18026667-.3616-.1408-.7936.10133333-1.1168l6.4-8.53333333c.2016-.2688.51733333-.42666667.85333333-.42666667h53.33333337c.336 0 .6517333.15786667.8533333.42666667l6.4 8.53333333c.2421333.3232.2816.7552.1013333 1.1168-.1813333.3616-.5504.5898667-.9546666.5898667z" mask="url(#a)"></path><path d="m34.13344 40.5333333c-5.8816 0-10.6666667 4.7850667-10.6666667 10.6666667s4.7850667 10.6666667 10.6666667 10.6666667 10.6666667-4.7850667 10.6666667-10.6666667-4.7850667-10.6666667-10.6666667-10.6666667m0 23.4666667c-7.0581333 0-12.8-5.7418667-12.8-12.8s5.7418667-12.8 12.8-12.8 12.8 5.7418667 12.8 12.8-5.7418667 12.8-12.8 12.8"></path><path d="m35.2001067 55.4666667h-2.1333334v-6.4h-1.0666666v-2.1333334h3.2z"></path><path d="m33.0666667 19.2h2.1333333v-2.1333333h-2.1333333z" mask="url(#b)"></path><path d="m37.3333333 19.2h2.1333334v-2.1333333h-2.1333334z" mask="url(#b)"></path><path d="m28.8 19.2h2.1333333v-2.1333333h-2.1333333z" mask="url(#b)"></path><path d="m34.13344 44.8c-3.5296 0-6.4 2.8714667-6.4 6.4s2.8704 6.4 6.4 6.4 6.4-2.8714667 6.4-6.4-2.8704-6.4-6.4-6.4m0 14.9333333c-4.7050667 0-8.5333333-3.8282666-8.5333333-8.5333333s3.8282666-8.5333333 8.5333333-8.5333333 8.5333333 3.8282666 8.5333333 8.5333333-3.8282666 8.5333333-8.5333333 8.5333333" mask="url(#b)"></path><path d="m62.93344 6.4h-57.6c-.5888 0-1.06666667-.47786667-1.06666667-1.06666667s.47786667-1.06666666 1.06666667-1.06666666h57.6c.5888 0 1.0666667.47786666 1.0666667 1.06666666s-.4778667 1.06666667-1.0666667 1.06666667" mask="url(#b)"></path><path d="m41.59904 42.6667733c-.192 0-.3861333-.0522666-.5610667-.1610666-.5013333-.3104-.6549333-.9674667-.3445333-1.4677334l19.2-30.9333333c.3104-.50133333.9696-.65493333 1.4688-.34453333.5013333.31146663.6549333.96853333.3445333 1.46880003l-19.2 30.9333333c-.2026666.3253333-.5514666.5045333-.9077333.5045333" mask="url(#b)"></path><path d="m26.66784 42.6667733c-.3562667 0-.7050667-.1792-.9077333-.5045333l-19.20000003-30.9333333c-.3104-.5002667-.1568-1.1573334.34453333-1.46880003.4992-.3104 1.15733333-.1568 1.4688.34453333l19.2 30.9333333c.3104.5002667.1568 1.1573334-.3445333 1.4677334-.1749334.1088-.3690667.1610666-.5610667.1610666" mask="url(#b)"></path></g></svg> 