<?xml version="1.0" standalone="no"?>
<!DOCTYPE svg PUBLIC "-//W3C//DTD SVG 1.1//EN" "http://www.w3.org/Graphics/SVG/1.1/DTD/svg11.dtd" >
<svg>
<metadata>
Created by FontForge 20120731 at Mon Jan 21 06:17:53 2019
 By www-data
Copyright (c) 2009 by The Entente (AS &#38; EH). All rights reserved.
</metadata>
<defs>
<font id="Reader-Bold" horiz-adv-x="590" >
  <font-face 
    font-family="Reader"
    font-weight="700"
    font-stretch="normal"
    units-per-em="1000"
    panose-1="2 0 0 0 0 0 0 0 0 0"
    ascent="800"
    descent="-200"
    x-height="529"
    cap-height="710"
    bbox="-63 -237 1091 939"
    underline-thickness="50"
    underline-position="-50"
    unicode-range="U+000D-FB02"
  />
<missing-glyph horiz-adv-x="500" 
d="M80 196h340v340h-340v-340zM50 566h400v-400h-400v400z" />
    <glyph glyph-name="fi" unicode="fi" horiz-adv-x="601" 
d="M279 719q34 0 72 -9v-116q-36 9 -67 9q-46 0 -46 -74h93v-115h-94v-414h-138v414h-89v115h89q1 106 47.5 148t132.5 42zM533 0h-139v529h139v-529zM536 579h-145v131h145v-131z" />
    <glyph glyph-name="fl" unicode="fl" horiz-adv-x="598" 
d="M279 719q34 0 72 -9v-116q-36 9 -67 9q-46 0 -46 -74h93v-115h-94v-414h-138v414h-89v115h89q1 106 47.5 148t132.5 42zM533 0h-139v710h139v-710z" />
    <glyph glyph-name=".notdef" horiz-adv-x="500" 
d="M80 196h340v340h-340v-340zM50 566h400v-400h-400v400z" />
    <glyph glyph-name=".null" horiz-adv-x="0" 
 />
    <glyph glyph-name=".null" horiz-adv-x="0" 
 />
    <glyph glyph-name="nonmarkingreturn" unicode="&#xd;" horiz-adv-x="333" 
 />
    <glyph glyph-name="space" unicode=" " horiz-adv-x="307" 
 />
    <glyph glyph-name="exclam" unicode="!" horiz-adv-x="281" 
d="M69 0v138h147v-138h-147zM89 220l-18 314v176h143v-176l-19 -314h-106z" />
    <glyph glyph-name="quotedbl" unicode="&#x22;" horiz-adv-x="412" 
d="M162 611l-14 -137h-90l-13 137v99h117v-99zM367 611l-14 -137h-90l-13 137v99h117v-99z" />
    <glyph glyph-name="numbersign" unicode="#" horiz-adv-x="681" 
d="M457 710h138l-33 -160h104v-134h-132l-23 -109h110v-134h-137l-36 -173h-138l36 173h-114l-36 -173h-138l36 173h-89v134h116l23 109h-94v134h122l33 160h139l-34 -160h114zM282 416l-22 -109h113l23 109h-114z" />
    <glyph glyph-name="dollar" unicode="$" 
d="M230 794h128v-80q43 -6 79 -19.5t58 -28.5t37.5 -29t21.5 -23l6 -10l-121 -69q-7 11 -28.5 26t-52.5 23v-162q50 -8 89.5 -21.5t77 -37t58 -62t20.5 -90.5q0 -32 -11 -64t-36.5 -66.5t-76.5 -58.5t-121 -29v-75h-128v79q-177 22 -244 138l116 68q12 -23 45.5 -44
t82.5 -31v173q-46 6 -83.5 19t-71 36.5t-52 62.5t-18.5 90q0 86 57.5 140t167.5 66v79zM459 211q0 36 -25.5 52.5t-75.5 24.5v-167q35 4 56.5 12.5t30.5 23t11.5 25.5t2.5 29zM147 509q0 -35 20.5 -50t62.5 -23v152q-83 -16 -83 -79z" />
    <glyph glyph-name="percent" unicode="%" horiz-adv-x="678" 
d="M52 0l464 710h115l-465 -710h-114zM323 549q0 -175 -151 -175q-152 0 -152 175q0 73 35 121.5t117 48.5q83 0 117 -48.5t34 -121.5zM231 549q0 48 -11 72.5t-48 24.5t-48.5 -24.5t-11.5 -72.5q0 -49 11.5 -75t48.5 -26t48 26t11 75zM660 166q0 -175 -151 -175
q-152 0 -152 175q0 73 35 121.5t117 48.5q83 0 117 -48.5t34 -121.5zM568 166q0 48 -11 72.5t-48 24.5t-48.5 -24.5t-11.5 -72.5q0 -49 11.5 -75t48.5 -26t48 26t11 75z" />
    <glyph glyph-name="ampersand" unicode="&#x26;" horiz-adv-x="680" 
d="M633 238q-26 -49 -68 -96l134 -142h-159l-52 61q-30 -30 -90 -50t-116 -20q-44 0 -85 9.5t-82 31.5t-65.5 66t-24.5 106q0 122 151 195q-74 85 -74 164q0 74 55 115t143 41q86 0 140.5 -46.5t54.5 -127.5q0 -59 -35 -108.5t-89 -80.5l107 -118q27 33 64 99zM299 598
q-28 0 -45.5 -13.5t-17.5 -39.5q0 -52 55 -105q36 18 53 40.5t17 64.5q0 53 -62 53zM163 203q0 -44 37 -68t83 -24q80 0 122 40l-145 161q-41 -14 -69 -42.5t-28 -66.5z" />
    <glyph glyph-name="quotesingle" unicode="'" horiz-adv-x="207" 
d="M162 611l-14 -137h-90l-13 137v99h117v-99z" />
    <glyph glyph-name="parenleft" unicode="(" horiz-adv-x="396" 
d="M80 267q0 297 194 503l94 -83q-163 -169 -163 -420q0 -252 163 -421l-94 -83q-194 206 -194 504z" />
    <glyph glyph-name="parenright" unicode=")" horiz-adv-x="396" 
d="M316 267q0 -298 -194 -504l-94 83q163 169 163 421q0 251 -163 420l94 83q194 -206 194 -503z" />
    <glyph glyph-name="asterisk" unicode="*" horiz-adv-x="496" 
d="M345 472l83 -109l-102 -75l-78 111l-78 -111l-102 75l83 109l-130 36l39 121l129 -45l-6 135h130l-6 -135l129 45l39 -121z" />
    <glyph glyph-name="plus" unicode="+" horiz-adv-x="600" 
d="M237 566h127v-218h206v-110h-206v-225h-127v225h-207v110h207v218z" />
    <glyph glyph-name="comma" unicode="," horiz-adv-x="282" 
d="M216 141v-141q0 -52 -13.5 -72t-75.5 -68l-47 58q34 21 45 37.5t11 37.5v7h-70v141h150z" />
    <glyph glyph-name="hyphen" unicode="-" horiz-adv-x="422" 
d="M40 236v115h342v-115h-342z" />
    <glyph glyph-name="period" unicode="." horiz-adv-x="282" 
d="M216 0h-150v141h150v-141z" />
    <glyph glyph-name="slash" unicode="/" horiz-adv-x="528" 
d="M128 0h-148l389 719h149z" />
    <glyph glyph-name="zero" unicode="0" 
d="M558 359q0 -80 -10 -139.5t-37 -114.5t-81.5 -84.5t-135.5 -29.5q-65 0 -113.5 20.5t-77 53.5t-45.5 83t-22.5 99.5t-5.5 112.5q0 58 5.5 105t22.5 96t45.5 82.5t77 54.5t113.5 21t113.5 -21t77 -54.5t45.5 -82.5t22.5 -96.5t5.5 -105.5zM416 368q0 40 -1.5 66t-8 59
t-19 52t-36 32.5t-57.5 13.5t-57.5 -13.5t-36 -32.5t-19 -52t-8 -59t-1.5 -66v-19q0 -41 1.5 -68t8 -60.5t19 -53.5t36.5 -34t57 -14t57 14t36.5 34t19 53.5t8 60.5t1.5 68v19z" />
    <glyph glyph-name="one" unicode="1" 
d="M270 710h138v-710h-142v461h-171v128q9 0 21.5 0.5t42 7t52 18t41 36.5t18.5 59z" />
    <glyph glyph-name="two" unicode="2" 
d="M185 128h341v-128h-484v104q0 70 35 122t85.5 82t101 56t85.5 59.5t35 76.5q0 45 -30.5 68t-79.5 23q-48 0 -78 -15.5t-62 -48.5l-91 95q97 97 231 97q125 0 188.5 -57t63.5 -162q0 -49 -25.5 -90.5t-63 -69t-82 -54.5t-82 -48.5t-63 -50t-25.5 -59.5z" />
    <glyph glyph-name="three" unicode="3" 
d="M420 388q63 -20 95 -68t32 -103q0 -110 -78.5 -168t-197.5 -58q-73 0 -144.5 29.5t-100.5 86.5l94 82q29 -38 63 -54t88 -16q64 0 99 25.5t35 72.5q0 29 -10.5 49t-25.5 30.5t-39.5 16.5t-42.5 7t-46 1v128q32 0 54 2.5t46 9.5t36 23.5t12 41.5q0 32 -31 49.5t-80 17.5
q-45 0 -79.5 -14.5t-67.5 -52.5l-91 85q39 54 101 81t130 27q114 0 185 -47.5t71 -145.5q0 -49 -29.5 -88.5t-77.5 -49.5z" />
    <glyph glyph-name="four" unicode="4" 
d="M581 253v-128h-119v-125h-142v125h-310v128l265 457h158l-265 -457h152v193h142v-193h119z" />
    <glyph glyph-name="five" unicode="5" 
d="M318 498q104 0 171 -65t67 -182q0 -111 -76 -185.5t-193 -74.5q-163 0 -253 103l107 88q47 -63 146 -63q58 0 92.5 36.5t34.5 95.5q0 58 -32.5 88.5t-82.5 30.5q-84 0 -127 -65h-122l31 405h432v-128h-313l-10 -128q41 44 128 44z" />
    <glyph glyph-name="six" unicode="6" 
d="M305 -9q-131 0 -202.5 74t-71.5 246q0 200 80 304t216 104q145 0 218 -70l-75 -104q-51 46 -143 46q-58 0 -104.5 -41t-47.5 -121q47 60 144 60q109 0 180 -67.5t71 -172.5q0 -119 -72.5 -188.5t-192.5 -69.5zM305 361q-55 0 -92 -29t-37 -91q0 -122 129 -122
q53 0 86.5 34t33.5 88q0 53 -33.5 86.5t-86.5 33.5z" />
    <glyph glyph-name="seven" unicode="7" 
d="M49 710h501v-128q-109 -124 -157 -262t-59 -320h-142q0 143 55 295t155 287h-353v128z" />
    <glyph glyph-name="eight" unicode="8" 
d="M162 376q-46 19 -70 57.5t-24 84.5q0 95 64 148t163 53t163 -53t64 -148q0 -46 -24 -84.5t-70 -57.5q48 -13 79.5 -62t31.5 -106q0 -102 -68.5 -159.5t-175.5 -57.5t-175.5 57.5t-68.5 159.5q0 57 31.5 106t79.5 62zM206 515q0 -80 89 -80t89 80q0 35 -22.5 60.5
t-66.5 25.5t-66.5 -25.5t-22.5 -60.5zM397 208q0 46 -26.5 72.5t-75.5 26.5t-75.5 -26.5t-26.5 -72.5q0 -42 26 -65.5t76 -23.5t76 23.5t26 65.5z" />
    <glyph glyph-name="nine" unicode="9" 
d="M285 719q131 0 202.5 -74t71.5 -246q0 -200 -80 -304t-216 -104q-145 0 -218 70l75 104q51 -46 143 -46q58 0 104.5 41t47.5 121q-47 -60 -144 -60q-109 0 -180 67.5t-71 172.5q0 119 72.5 188.5t192.5 69.5zM285 349q55 0 92 29t37 91q0 122 -129 122q-53 0 -86.5 -34
t-33.5 -88q0 -53 33.5 -86.5t86.5 -33.5z" />
    <glyph glyph-name="colon" unicode=":" horiz-adv-x="282" 
d="M216 0h-150v141h150v-141zM216 394h-150v141h150v-141z" />
    <glyph glyph-name="semicolon" unicode=";" horiz-adv-x="282" 
d="M216 141v-141q0 -52 -13.5 -72t-75.5 -68l-47 58q34 21 45 37.5t11 37.5v7h-70v141h150zM216 394h-150v141h150v-141z" />
    <glyph glyph-name="less" unicode="&#x3c;" horiz-adv-x="600" 
d="M412 0l-332 288v58l332 288l82 -95l-257 -222l257 -222z" />
    <glyph glyph-name="equal" unicode="=" horiz-adv-x="600" 
d="M529 215v-140h-458v140h458zM529 452v-140h-458v140h458z" />
    <glyph glyph-name="greater" unicode="&#x3e;" horiz-adv-x="600" 
d="M520 288l-332 -288l-82 95l257 222l-257 222l82 95l332 -288v-58z" />
    <glyph glyph-name="question" unicode="?" horiz-adv-x="527" 
d="M271 719q94 0 165.5 -49t71.5 -140q0 -38 -14 -69t-34.5 -50t-44.5 -41t-44.5 -42t-34.5 -53.5t-14 -75.5h-137q0 66 19 113.5t46 72.5t53.5 45t45.5 44t19 56q0 31 -26 49.5t-71 18.5q-98 0 -160 -91l-93 83q41 56 111 92.5t142 36.5zM180 0v138h147v-138h-147z" />
    <glyph glyph-name="at" unicode="@" horiz-adv-x="771" 
d="M381 152q57 0 73 18.5t16 62.5v32q-19 -21 -74 -21q-42 0 -59.5 -12t-17.5 -38q0 -42 62 -42zM723 295q0 -110 -41 -167.5t-114 -57.5q-30 0 -50 7t-25 13t-5 9q-39 -36 -119 -36q-58 0 -104.5 33.5t-46.5 94.5q0 30 6 52t21.5 36t29.5 22.5t42 14t45.5 7t54.5 4.5
q46 3 46 27q0 38 -61 38q-60 0 -97 -46l-64 63q26 33 70 52t91 19q157 0 157 -152v-131q0 -11 1 -17t6 -11.5t14 -5.5q15 0 21 27t6 105q0 117 -49 173t-165 56q-103 0 -166.5 -71.5t-63.5 -183.5q0 -128 52.5 -194.5t177.5 -66.5q105 0 183 35l56 -81q-52 -34 -102 -45.5
t-139 -11.5q-163 0 -254 95.5t-91 268.5q0 152 96 258t251 106q159 0 244.5 -86t85.5 -252z" />
    <glyph glyph-name="A" unicode="A" horiz-adv-x="711" 
d="M555 0l-59 156h-281l-59 -156h-157l279 710h155l279 -710h-157zM264 284h183l-91 240z" />
    <glyph glyph-name="B" unicode="B" horiz-adv-x="680" 
d="M540 389q107 -56 107 -175q0 -116 -60.5 -165t-176.5 -49h-340v710h340q99 0 154 -49t55 -146q0 -39 -16.5 -68t-62.5 -58zM214 582v-150h187q32 0 53 18t21 57t-21 57t-53 18h-187zM412 128q91 0 91 88t-91 88h-198v-176h198z" />
    <glyph glyph-name="C" unicode="C" horiz-adv-x="671" 
d="M375 119q106 0 160 100l118 -69q-45 -74 -117 -116.5t-161 -42.5q-145 0 -240.5 105.5t-95.5 258.5t95.5 258.5t240.5 105.5q89 0 161 -42.5t117 -116.5l-118 -68q-56 99 -160 99q-86 0 -139 -68t-53 -168t53 -168t139 -68z" />
    <glyph glyph-name="D" unicode="D" horiz-adv-x="699" 
d="M315 710q151 0 247 -101.5t96 -253.5t-96 -253.5t-247 -101.5h-245v710h245zM310 128q92 0 148.5 64.5t56.5 162.5t-56.5 162.5t-148.5 64.5h-96v-454h96z" />
    <glyph glyph-name="E" unicode="E" horiz-adv-x="593" 
d="M214 128h353v-128h-497v710h492v-128h-348v-148h281v-128h-281v-178z" />
    <glyph glyph-name="F" unicode="F" horiz-adv-x="555" 
d="M539 582h-325v-148h259v-128h-259v-306h-144v710h469v-128z" />
    <glyph glyph-name="G" unicode="G" horiz-adv-x="742" 
d="M677 401v-401h-143l-18 35q-55 -44 -128 -44q-161 0 -255 104t-94 260q0 153 99 258.5t250 105.5q92 0 167 -42t122 -114l-126 -73q-54 101 -170 101q-94 0 -146 -67t-52 -169t52 -169t146 -67q67 0 109.5 35.5t42.5 118.5h-146v128h290z" />
    <glyph glyph-name="H" unicode="H" horiz-adv-x="687" 
d="M473 710h144v-710h-144v302h-259v-302h-144v710h144v-280h259v280z" />
    <glyph glyph-name="I" unicode="I" horiz-adv-x="284" 
d="M214 0h-144v710h144v-710z" />
    <glyph glyph-name="J" unicode="J" horiz-adv-x="540" 
d="M475 710v-513q0 -114 -58 -160t-174 -46q-115 0 -174 61t-59 148h145q0 -82 88 -82t88 79v513h144z" />
    <glyph glyph-name="K" unicode="K" horiz-adv-x="663" 
d="M476 710h186l-268 -300l274 -410h-170l-196 308l-88 -99v-209h-144v710h144v-302z" />
    <glyph glyph-name="L" unicode="L" horiz-adv-x="566" 
d="M214 128h331v-128h-475v710h144v-582z" />
    <glyph glyph-name="M" unicode="M" horiz-adv-x="946" 
d="M634 710h242v-710h-144v541l-182 -541h-154l-182 542v-542h-144v710h242l160 -524z" />
    <glyph glyph-name="N" unicode="N" horiz-adv-x="698" 
d="M484 710h144v-710h-144l-270 458v-458h-144v710h144l270 -458v458z" />
    <glyph glyph-name="O" unicode="O" horiz-adv-x="776" 
d="M638 613q99 -105 99 -258t-99 -258.5t-250 -105.5t-250 105.5t-99 258.5t99 258.5t250 105.5t250 -106zM536 187q57 68 57 168t-57 168t-148 68t-148 -68t-57 -168t57 -168t148 -68t148 68z" />
    <glyph glyph-name="P" unicode="P" horiz-adv-x="671" 
d="M214 250v-250h-144v710h326q58 0 101.5 -9.5t83 -33.5t60.5 -71t21 -116t-21 -116t-60.5 -71t-83 -33.5t-101.5 -9.5h-182zM214 378h186q58 0 88 22t30 80t-30 80t-88 22h-186v-204z" />
    <glyph glyph-name="Q" unicode="Q" horiz-adv-x="771" 
d="M686 161q28 -25 91 -26v-144q-112 0 -188 63q-88 -63 -201 -63q-151 0 -250 105.5t-99 258.5t99 258.5t250 105.5t250 -105.5t99 -258.5q0 -107 -51 -194zM388 119q67 0 120 40q-37 45 -124 47v144q120 0 201 -67q8 35 8 72q0 100 -57 168t-148 68t-148 -68t-57 -168
t57 -168t148 -68z" />
    <glyph glyph-name="R" unicode="R" horiz-adv-x="712" 
d="M662 480q0 -178 -152 -218l191 -262h-177l-183 250h-127v-250h-144v710h326q58 0 101.5 -9.5t83 -33.5t60.5 -71t21 -116zM214 378h186q58 0 88 22t30 80t-30 80t-88 22h-186v-204z" />
    <glyph glyph-name="S" unicode="S" horiz-adv-x="643" 
d="M7 135l116 68q19 -32 74.5 -58t139.5 -26q44 0 73.5 9.5t41 25.5t15 28.5t3.5 28.5q0 34 -24 52t-62 24t-84 9.5t-92.5 12.5t-84.5 28.5t-62 62.5t-24 109q0 98 73.5 154t212.5 56q58 0 107 -12t77.5 -28.5t49 -33.5t27.5 -29l8 -12l-121 -69q-10 18 -50.5 37t-97.5 19
q-142 0 -142 -82q0 -34 24 -52t62 -24t84.5 -9.5t92.5 -13t84 -28.5t62 -62.5t24 -108.5q0 -27 -6 -53.5t-24.5 -57.5t-47.5 -54.5t-80 -39t-117 -15.5q-246 0 -332 144z" />
    <glyph glyph-name="T" unicode="T" horiz-adv-x="596" 
d="M590 710v-128h-220v-582h-144v582h-220v128h584z" />
    <glyph glyph-name="U" unicode="U" horiz-adv-x="701" 
d="M646 710v-366q0 -70 -7 -121.5t-27 -97t-53 -74t-86.5 -44.5t-127.5 -16q-86 0 -144 23.5t-89.5 71.5t-44 109t-12.5 149v366h144v-366q0 -49 2 -79t10.5 -61t24 -47.5t42.5 -27t67 -10.5q44 0 74 11.5t46.5 28t24.5 49.5t10 60.5t2 75.5v366h144z" />
    <glyph glyph-name="V" unicode="V" horiz-adv-x="640" 
d="M398 0h-155l-246 710h157l166 -524l166 524h157z" />
    <glyph glyph-name="W" unicode="W" horiz-adv-x="1048" 
d="M892 710h157l-213 -710h-155l-157 485l-157 -485h-155l-213 710h157l134 -524l155 524h158l155 -524z" />
    <glyph glyph-name="X" unicode="X" horiz-adv-x="687" 
d="M344 254l-171 -254h-172l262 374l-236 336h173l144 -215l143 215h172l-235 -336l262 -374h-173z" />
    <glyph glyph-name="Y" unicode="Y" horiz-adv-x="616" 
d="M308 410l149 300h164l-241 -442v-268h-144v268l-241 442h164z" />
    <glyph glyph-name="Z" unicode="Z" 
d="M212 128h347v-128h-526v128l337 454h-323v128h502v-128z" />
    <glyph glyph-name="bracketleft" unicode="[" horiz-adv-x="320" 
d="M60 -159v933h247v-125h-117v-683h117v-125h-247z" />
    <glyph glyph-name="backslash" unicode="\" horiz-adv-x="548" 
d="M543 0h-148l-390 719h149z" />
    <glyph glyph-name="bracketright" unicode="]" horiz-adv-x="320" 
d="M260 774v-933h-247v125h117v683h-117v125h247z" />
    <glyph glyph-name="asciicircum" unicode="^" horiz-adv-x="733" 
d="M120 474l151 236h191l151 -236h-166l-81 104l-80 -104h-166z" />
    <glyph glyph-name="underscore" unicode="_" horiz-adv-x="494" 
d="M499 0v-132h-504v132h504z" />
    <glyph glyph-name="grave" unicode="`" horiz-adv-x="410" 
d="M228 719l82 -149h-106l-104 149h128z" />
    <glyph glyph-name="a" unicode="a" horiz-adv-x="562" 
d="M510 0h-120q-25 9 -26 48q-17 -25 -49.5 -39t-50.5 -16t-31 -2q-205 0 -205 159q0 49 18 84t42.5 53t62.5 28t64.5 12t61.5 2q86 0 86 37q0 22 -19 40t-68 18q-68 0 -124 -50l-88 71q34 46 92 69.5t120 23.5q105 0 161.5 -50.5t56.5 -126.5v-316q0 -12 4 -23.5t8 -16.5z
M363 246q-37 -20 -103 -22q-94 -3 -94 -67q0 -30 21.5 -48t59.5 -18q47 0 81.5 23.5t34.5 69.5v62z" />
    <glyph glyph-name="b" unicode="b" horiz-adv-x="653" 
d="M357 538q120 0 192.5 -74t72.5 -200q0 -123 -69 -198t-196 -75q-79 0 -134 45l-14 -36h-139v710h139v-237q57 65 148 65zM347 106q66 0 101 45.5t35 112.5t-33.5 112.5t-102.5 45.5q-67 0 -108 -46t-41 -112t39.5 -112t109.5 -46z" />
    <glyph glyph-name="c" unicode="c" horiz-adv-x="547" 
d="M308 107q75 0 114 64l118 -60q-44 -63 -99 -91.5t-133 -28.5q-120 0 -198.5 79.5t-78.5 194.5q0 112 73.5 192.5t203.5 80.5q82 0 137 -29.5t95 -94.5l-121 -57q-38 65 -111 65q-63 0 -100.5 -45.5t-37.5 -111.5q0 -67 36.5 -112.5t101.5 -45.5z" />
    <glyph glyph-name="d" unicode="d" horiz-adv-x="653" 
d="M296 538q91 0 148 -65v237h139v-710h-139l-14 36q-55 -45 -134 -45q-127 0 -196 75t-69 198q0 126 72.5 200t192.5 74zM306 106q70 0 109.5 46t39.5 112t-41 112t-108 46q-69 0 -102.5 -45.5t-33.5 -112.5t35 -112.5t101 -45.5z" />
    <glyph glyph-name="e" unicode="e" horiz-adv-x="594" 
d="M298 107q89 0 125 61l106 -55q-36 -56 -96 -89t-135 -33q-127 0 -197 77.5t-70 195.5q0 54 15.5 102t46.5 87t84 62t121 23q125 0 196 -81t71 -193v-53h-399q21 -104 132 -104zM298 422q-96 0 -128 -95h256q-31 95 -128 95z" />
    <glyph glyph-name="f" unicode="f" horiz-adv-x="354" 
d="M279 719q34 0 72 -9v-116q-36 9 -67 9q-46 0 -46 -74h93v-115h-94v-414h-138v414h-89v115h89q1 106 47.5 148t132.5 42z" />
    <glyph glyph-name="g" unicode="g" horiz-adv-x="633" 
d="M571 31q0 -100 -76.5 -160t-195.5 -60q-50 0 -95 8.5t-74 20.5t-53 26t-33.5 22t-13.5 13l84 78q52 -52 185 -52q79 0 106 26t27 68v25q-51 -56 -128 -56q-116 0 -195 80t-79 195q0 110 77 191.5t197 81.5q60 0 113 -41l15 32h139v-498zM304 106q62 0 99 46.5t37 112.5
q0 65 -35.5 111t-100.5 46q-63 0 -99 -45t-36 -112t35 -113t100 -46z" />
    <glyph glyph-name="h" unicode="h" horiz-adv-x="627" 
d="M566 327v-327h-139v326q0 44 -18 70t-72 26q-60 0 -96.5 -44.5t-36.5 -114.5v-263h-139v710h139v-251q18 27 57 53t95 26q104 0 157 -46t53 -165z" />
    <glyph glyph-name="i" unicode="i" horiz-adv-x="275" 
d="M207 0h-139v529h139v-529zM210 579h-145v131h145v-131z" />
    <glyph glyph-name="j" unicode="j" horiz-adv-x="293" 
d="M86 526h139v-531q0 -27 -1 -44t-4.5 -41.5t-12 -39.5t-22.5 -30t-36.5 -22t-52.5 -7q-83 0 -111 9v112q24 -7 65 -7q36 0 36 70v531zM228 579h-145v131h145v-131z" />
    <glyph glyph-name="k" unicode="k" horiz-adv-x="596" 
d="M367 331l231 -331h-163l-154 238l-77 -83v-155h-139v710h139v-373l166 192h180z" />
    <glyph glyph-name="l" unicode="l" horiz-adv-x="269" 
d="M204 0h-139v710h139v-710z" />
    <glyph glyph-name="m" unicode="m" horiz-adv-x="893" 
d="M832 326v-326h-139v326q0 21 -2 35t-9 30.5t-24.5 25t-44.5 8.5q-84 0 -84 -142v-283h-139v326q0 99 -90 99q-53 0 -74.5 -39.5t-21.5 -110.5v-275h-139v529h139l17 -37q38 46 116 46q116 0 162 -80q56 80 147 80q46 0 76.5 -8t57 -29.5t39.5 -65t13 -109.5z" />
    <glyph glyph-name="n" unicode="n" horiz-adv-x="625" 
d="M564 326v-326h-139v326q0 99 -89 99q-62 0 -97 -42t-35 -122v-261h-139v529h139l21 -46q55 55 129 55q46 0 80.5 -8.5t65.5 -30.5t47.5 -65.5t16.5 -107.5z" />
    <glyph glyph-name="o" unicode="o" horiz-adv-x="618" 
d="M587 264q0 -113 -78.5 -193t-199.5 -80t-199.5 80t-78.5 193q0 114 78.5 194t199.5 80t199.5 -80t78.5 -194zM170 264q0 -67 36.5 -112t102.5 -45t102.5 45t36.5 112q0 66 -36.5 112t-102.5 46t-102.5 -46t-36.5 -112z" />
    <glyph glyph-name="p" unicode="p" horiz-adv-x="653" 
d="M357 -9q-91 0 -148 65v-236h-139v709h139l14 -36q55 45 134 45q127 0 196 -75t69 -198q0 -127 -72.5 -200.5t-192.5 -73.5zM347 423q-70 0 -109.5 -46t-39.5 -112t41 -112t108 -46q69 0 102.5 45.5t33.5 112.5t-35 112.5t-101 45.5z" />
    <glyph glyph-name="q" unicode="q" horiz-adv-x="648" 
d="M296 -9q-120 0 -192.5 73.5t-72.5 200.5q0 123 69 198t196 75q79 0 134 -45l14 36h139v-709h-139v236q-57 -65 -148 -65zM306 423q-66 0 -101 -45.5t-35 -112.5t33.5 -112.5t102.5 -45.5q67 0 108 46t41 112t-39.5 112t-109.5 46z" />
    <glyph glyph-name="r" unicode="r" horiz-adv-x="413" 
d="M356 538q27 0 51 -9v-119q-28 15 -70 15q-63 0 -98 -49t-35 -130v-246h-139v529h138l22 -48q55 57 131 57z" />
    <glyph glyph-name="s" unicode="s" horiz-adv-x="518" 
d="M13 108l113 45q3 -5 11.5 -12.5t44.5 -20.5t86 -13q52 0 67 11t15 34q0 20 -23.5 32.5t-59 18t-76.5 17t-76.5 26.5t-59 49t-23.5 83q0 17 5 36t20 42t38.5 40.5t63.5 29.5t92 12q55 0 107 -19t76 -38l24 -19l-86 -78q-4 4 -12.5 10.5t-40 17t-68.5 10.5q-80 0 -80 -44
q0 -26 23.5 -41.5t59 -21t76.5 -15t76.5 -22.5t59 -45t23.5 -81q0 -72 -49.5 -116.5t-163.5 -44.5q-61 0 -110.5 12t-76.5 29.5t-45.5 34.5t-24.5 29z" />
    <glyph glyph-name="t" unicode="t" horiz-adv-x="380" 
d="M355 414h-127v-238q0 -14 1.5 -22.5t7 -21t20 -19t38.5 -6.5l60 9v-116q-59 -9 -119 -9q-86 0 -115.5 46.5t-29.5 141.5v235h-94v115h94v181h137v-181h127v-115z" />
    <glyph glyph-name="u" unicode="u" horiz-adv-x="623" 
d="M59 203v326h139v-326q0 -99 89 -99q62 0 97 42t35 122v261h139v-529h-139l-21 46q-55 -55 -129 -55q-46 0 -80.5 8.5t-65.5 30.5t-47.5 65.5t-16.5 107.5z" />
    <glyph glyph-name="v" unicode="v" horiz-adv-x="586" 
d="M215 0l-217 529h141l154 -385l154 385h141l-217 -529h-156z" />
    <glyph glyph-name="w" unicode="w" horiz-adv-x="814" 
d="M407 365l-98 -365h-154l-157 529h146l90 -361l93 361h160l93 -361l90 361h146l-157 -529h-154z" />
    <glyph glyph-name="x" unicode="x" horiz-adv-x="502" 
d="M345 529h160l-179 -260l181 -269h-159l-96 155l-96 -155h-159l181 269l-179 260h160l93 -148z" />
    <glyph glyph-name="y" unicode="y" horiz-adv-x="578" 
d="M285 136l150 393h145l-223 -571q-56 -147 -162 -147h-109v116h71q18 0 32.5 14.5t14.5 38.5q0 14 -6 32l-200 517h144z" />
    <glyph glyph-name="z" unicode="z" horiz-adv-x="490" 
d="M205 116h255v-116h-428v116l243 297h-228v116h401v-116z" />
    <glyph glyph-name="braceleft" unicode="{" horiz-adv-x="412" 
d="M309 565v-100q0 -125 -121 -158q121 -33 121 -155v-102q0 -59 11 -77.5t49 -18.5h27v-113h-64q-85 0 -119 45.5t-34 126.5v130q0 49 -24.5 78.5t-94.5 30.5v111q37 1 61.5 10t36.5 25t16.5 33t4.5 40v131q0 81 34 126.5t119 45.5h64v-113h-27q-38 0 -49 -18.5t-11 -77.5z
" />
    <glyph glyph-name="bar" unicode="|" horiz-adv-x="248" 
d="M60 -180v899h128v-899h-128z" />
    <glyph glyph-name="braceright" unicode="}" horiz-adv-x="412" 
d="M103 465v100q0 59 -11 77.5t-49 18.5h-27v113h64q85 0 119 -45.5t34 -126.5v-131q0 -23 4.5 -40t16.5 -33t36.5 -25t61.5 -10v-111q-70 -1 -94.5 -30.5t-24.5 -78.5v-130q0 -81 -34 -126.5t-119 -45.5h-64v113h27q38 0 49 18.5t11 77.5v102q0 122 121 155
q-121 33 -121 158z" />
    <glyph glyph-name="asciitilde" unicode="~" horiz-adv-x="731" 
d="M148 205l-93 75q3 5 8.5 14.5t24 32.5t39 41t52.5 32.5t66 14.5q38 0 73.5 -16.5t57.5 -35.5t48.5 -35.5t48.5 -16.5q23 0 47.5 19.5t37.5 39.5l14 19l92 -77q-3 -5 -8.5 -14.5t-24 -32.5t-39 -40.5t-52.5 -32t-65 -14.5q-40 0 -76.5 16t-59 36t-48.5 36t-46 16
q-22 0 -46.5 -19t-37.5 -39z" />
    <glyph glyph-name="exclamdown" unicode="&#xa1;" horiz-adv-x="281" 
d="M65 392v138h147v-138h-147zM67 -4l18 314h106l19 -314v-176h-143v176z" />
    <glyph glyph-name="cent" unicode="&#xa2;" 
d="M271 -9v95q-98 19 -159 94t-61 175q0 98 57.5 174t162.5 94v96h103v-94q119 -14 186 -121l-121 -57q-27 43 -65 57v-300q43 15 68 57l118 -60q-73 -104 -186 -118v-92h-103zM190 355q0 -50 21 -89.5t60 -57.5v292q-38 -18 -59.5 -57.5t-21.5 -87.5z" />
    <glyph glyph-name="sterling" unicode="&#xa3;" 
d="M458 186l96 -86q-42 -54 -91 -78q-44 -22 -116 -22h-314v132q74 30 74 103v81h-61v128h60q0 54 13.5 101.5t41 87t75 63t109.5 23.5q109 0 181 -97l-104 -83q-33 52 -77 52q-29 0 -48.5 -12t-29 -35t-13.5 -45.5t-5 -54.5h199v-128h-198v-87q0 -29 -1 -42.5t-8.5 -30
t-23.5 -28.5h130q38 0 62.5 13t48.5 45z" />
    <glyph glyph-name="currency" unicode="&#xa4;" horiz-adv-x="655" 
d="M54 448l90 90l60 -69q58 34 123 34q64 0 122 -34l62 69l90 -90l-69 -61q34 -58 34 -122q0 -65 -34 -123l69 -60l-90 -91l-61 69q-56 -34 -123 -34q-68 0 -122 34l-61 -69l-90 91l68 60q-33 57 -33 123t34 122zM327 154q47 0 79 32t32 79q0 46 -32.5 78.5t-78.5 32.5
t-78.5 -32.5t-32.5 -78.5t32.5 -78.5t78.5 -32.5z" />
    <glyph glyph-name="yen" unicode="&#xa5;" 
d="M527 369v-110h-160v-50h160v-110h-160v-99h-144v99h-160v110h160v50h-160v110h106l-167 341h164l129 -320l129 320h164l-167 -341h106z" />
    <glyph glyph-name="brokenbar" unicode="&#xa6;" horiz-adv-x="245" 
d="M60 424v295h125v-295h-125zM60 0v295h125v-295h-125z" />
    <glyph glyph-name="section" unicode="&#xa7;" 
d="M75 585q0 89 71 134.5t164 45.5q117 0 200 -83l-88 -89q-36 44 -112 44q-37 0 -64.5 -13.5t-27.5 -38.5q0 -18 21.5 -28.5t54 -14.5t70.5 -15t70.5 -27t54 -53.5t21.5 -91.5q0 -55 -41 -108q41 -41 41 -108q0 -89 -71 -134.5t-164 -45.5q-117 0 -200 83l88 89
q36 -44 112 -44q37 0 64.5 13.5t27.5 38.5q0 18 -21.5 28.5t-54 14.5t-70.5 15t-70.5 27t-54 53.5t-21.5 91.5q0 55 41 108q-41 39 -41 108zM382 355q0 8 -3.5 14.5t-11.5 12t-15.5 9t-22 7.5t-24.5 6.5t-29 6.5t-29 6q-44 -22 -44 -48q0 -8 3.5 -15t11.5 -12t16 -9t22 -7.5
t24.5 -6t28.5 -6.5t29 -6q44 23 44 48z" />
    <glyph glyph-name="dieresis" unicode="&#xa8;" horiz-adv-x="499" 
d="M217 719v-120h-117v120h117zM399 719v-120h-117v120h117z" />
    <glyph glyph-name="copyright" unicode="&#xa9;" horiz-adv-x="788" 
d="M136 97q-106 107 -106 258t106.5 257.5t257.5 106.5t257.5 -106.5t106.5 -257.5t-106.5 -257.5t-257.5 -106.5t-258 106zM394 239q55 0 84 47l88 -44q-63 -90 -172 -90q-90 0 -148.5 59.5t-58.5 144.5q0 83 55 143t152 60q61 0 101.5 -22.5t70.5 -70.5l-90 -42
q-29 49 -82 49q-48 0 -75.5 -34t-27.5 -83q0 -50 27 -83.5t76 -33.5zM211 539q-76 -77 -76 -184t76 -184.5t183 -77.5t183 77.5t76 184.5t-76 184.5t-183 77.5t-183 -78z" />
    <glyph glyph-name="ordfeminine" unicode="&#xaa;" horiz-adv-x="456" 
d="M397 337h-85q-18 6 -19 34q-27 -40 -93 -40q-145 0 -145 112q0 35 13 60t30 37.5t44 19.5t46 8.5t44 1.5q61 0 61 27q0 15 -13.5 28t-48.5 13q-49 0 -88 -36l-63 51q24 32 65.5 49t85.5 17q74 0 114.5 -36t40.5 -90v-224q0 -8 3 -16t5 -12zM293 511q-27 -14 -74 -15
q-66 -3 -66 -48q0 -21 15 -33.5t42 -12.5q34 0 58.5 16.5t24.5 49.5v43z" />
    <glyph glyph-name="guillemotleft" unicode="&#xab;" horiz-adv-x="614" 
d="M463 48l-183 217v47l182 217l93 -78l-135 -162l136 -163zM233 48l-183 217v47l182 217l93 -78l-135 -162l136 -163z" />
    <glyph glyph-name="logicalnot" unicode="&#xac;" horiz-adv-x="600" 
d="M542 92h-144v132h-353v128h497v-260z" />
    <glyph glyph-name="registered" unicode="&#xae;" horiz-adv-x="788" 
d="M136 97q-106 107 -106 258t106.5 257.5t257.5 106.5t257.5 -106.5t106.5 -257.5t-106.5 -257.5t-257.5 -106.5t-258 106zM552 425q0 -51 -25 -82t-56 -40l79 -146h-100l-75 139h-36v-139h-92v396h151q154 0 154 -128zM339 368h57q32 0 48 12.5t16 44.5t-16 44.5t-48 12.5
h-57v-114zM211 539q-76 -77 -76 -184t76 -184.5t183 -77.5t183 77.5t76 184.5t-76 184.5t-183 77.5t-183 -78z" />
    <glyph glyph-name="degree" unicode="&#xb0;" horiz-adv-x="381" 
d="M191 729q63 0 108.5 -45t45.5 -107q0 -63 -45.5 -107t-108.5 -44q-65 0 -110 44t-45 107q0 62 45.5 107t109.5 45zM161 548q13 -12 30 -12t29.5 12t12.5 29t-12.5 29t-29.5 12t-29.5 -12t-12.5 -29t12 -29z" />
    <glyph glyph-name="plusminus" unicode="&#xb1;" horiz-adv-x="600" 
d="M241 559h121v-157h174v-105h-174v-157h-121v157h-176v105h176v157zM536 104v-104h-471v104h471z" />
    <glyph glyph-name="twosuperior" unicode="&#xb2;" horiz-adv-x="395" 
d="M131 349h212v-80h-303v65q0 44 21.5 76.5t52 51.5t61.5 35t52.5 37t21.5 48q0 28 -18.5 42.5t-48.5 14.5q-29 0 -46.5 -9.5t-37.5 -30.5l-57 59q59 61 141 61q73 0 114.5 -37.5t41.5 -99.5q0 -46 -32.5 -81.5t-71 -54.5t-71 -44.5t-32.5 -52.5z" />
    <glyph glyph-name="threesuperior" unicode="&#xb3;" horiz-adv-x="395" 
d="M287 508q61 -21 61 -103q0 -71 -44 -106t-118 -35q-44 0 -87.5 18t-66.5 51l59 53q34 -47 95 -47q75 0 75 66q0 38 -25.5 50t-68.5 12v76q23 0 35 1t28 5.5t23.5 15.5t7.5 30q0 21 -17.5 36t-57.5 15q-54 0 -96 -49l-47 54q49 68 143 68q70 0 113 -31t43 -93
q0 -31 -15.5 -56.5t-39.5 -30.5z" />
    <glyph glyph-name="acute" unicode="&#xb4;" horiz-adv-x="410" 
d="M100 570l82 149h128l-104 -149h-106z" />
    <glyph glyph-name="mu" unicode="&#xb5;" horiz-adv-x="629" 
d="M65 -180v709h139v-326q0 -99 89 -99q62 0 97 42t35 122v261h139v-529h-139l-21 46q-55 -55 -129 -55q-38 0 -71 6v-177h-139z" />
    <glyph glyph-name="paragraph" unicode="&#xb6;" horiz-adv-x="662" 
d="M232 -122v406q-89 0 -151 62t-62 150q0 89 62 151.5t151 62.5h380v-117h-88v-715h-100v715h-91v-715h-101z" />
    <glyph glyph-name="periodcentered" unicode="&#xb7;" horiz-adv-x="282" 
d="M216 252h-150v141h150v-141z" />
    <glyph glyph-name="cedilla" unicode="&#xb8;" horiz-adv-x="445" 
d="M147 49l86 -23l-19 -71q15 9 51 9q40 0 60 -23t20 -58q0 -42 -32.5 -67.5t-80.5 -25.5v68q11 2 19 10.5t8 16.5q0 14 -17 14q-22 0 -40 -12t-25 -24l-7 -12l-70 35z" />
    <glyph glyph-name="onesuperior" unicode="&#xb9;" horiz-adv-x="395" 
d="M186 719h86v-440h-88v286h-106v79q6 0 13.5 0.5t26 4.5t32 11t25 22.5t11.5 36.5z" />
    <glyph glyph-name="ordmasculine" unicode="&#xba;" horiz-adv-x="456" 
d="M432 524q0 -80 -56 -136.5t-141 -56.5t-141 56.5t-56 136.5q0 81 56 138t141 57t141 -57t56 -138zM333 524q0 47 -26 79.5t-72 32.5q-47 0 -73 -32.5t-26 -79.5t26 -79t73 -32t72.5 31.5t25.5 79.5z" />
    <glyph glyph-name="guillemotright" unicode="&#xbb;" horiz-adv-x="614" 
d="M334 265l-183 -217l-93 78l136 163l-135 162l93 78l182 -217v-47zM564 265l-183 -217l-93 78l136 163l-135 162l93 78l182 -217v-47z" />
    <glyph glyph-name="onequarter" unicode="&#xbc;" horiz-adv-x="850" 
d="M107 0l464 710h115l-465 -710h-114zM230 719v-440h-88v286h-106v79q6 0 13.5 0.5t26 4.5t32 11t25 22.5t11.5 36.5h86zM773 156v-79h-74v-77h-87v77h-192v79l164 283h98l-164 -283h94v120h87v-120h74z" />
    <glyph glyph-name="onehalf" unicode="&#xbd;" horiz-adv-x="850" 
d="M89 0l464 710h115l-465 -710h-114zM820 80v-80h-303v65q0 44 21.5 76.5t52.5 51.5t61.5 35t52 37t21.5 48q0 28 -18.5 42.5t-48.5 14.5q-29 0 -46.5 -9.5t-37.5 -30.5l-57 59q59 61 141 61q73 0 114.5 -37.5t41.5 -99.5q0 -46 -32.5 -81.5t-71 -54.5t-71 -44.5
t-32.5 -52.5h212zM212 719v-440h-88v286h-106v79q6 0 13.5 0.5t26 4.5t32 11t25 22.5t11.5 36.5h86z" />
    <glyph glyph-name="threequarters" unicode="&#xbe;" horiz-adv-x="850" 
d="M160 0l464 710h115l-465 -710h-114zM811 156v-79h-74v-77h-87v77h-192v79l164 283h98l-164 -283h94v120h87v-120h74zM277 508q61 -21 61 -103q0 -71 -44 -106t-118 -35q-44 0 -87.5 18t-66.5 51l59 53q34 -47 95 -47q75 0 75 66q0 38 -25.5 50t-68.5 12v76q23 0 35 1
t28 5.5t23.5 15.5t7.5 30q0 21 -17.5 36t-57.5 15q-54 0 -96 -49l-47 54q49 68 143 68q70 0 113 -31t43 -93q0 -31 -15.5 -56.5t-39.5 -30.5z" />
    <glyph glyph-name="questiondown" unicode="&#xbf;" horiz-adv-x="527" 
d="M256 -189q-94 0 -165.5 49t-71.5 140q0 38 14 69t34.5 50t44.5 41t44.5 42t34.5 53.5t14 75.5h137q0 -66 -19 -113.5t-45.5 -72.5t-53.5 -45t-46 -44t-19 -56q0 -31 26 -49.5t71 -18.5q98 0 160 91l93 -83q-41 -56 -111 -92.5t-142 -36.5zM347 530v-138h-147v138h147z
" />
    <glyph glyph-name="Agrave" unicode="&#xc0;" horiz-adv-x="711" 
d="M555 0l-59 156h-281l-59 -156h-157l279 710h155l279 -710h-157zM264 284h183l-91 240zM328 939l82 -149h-106l-104 149h128z" />
    <glyph glyph-name="Aacute" unicode="&#xc1;" horiz-adv-x="711" 
d="M555 0l-59 156h-281l-59 -156h-157l279 710h155l279 -710h-157zM264 284h183l-91 240zM300 790l82 149h128l-104 -149h-106z" />
    <glyph glyph-name="Acircumflex" unicode="&#xc2;" horiz-adv-x="711" 
d="M555 0l-59 156h-281l-59 -156h-157l279 710h155l279 -710h-157zM264 284h183l-91 240zM312 790h-114l94 149h126l95 -149h-114l-44 59z" />
    <glyph glyph-name="Atilde" unicode="&#xc3;" horiz-adv-x="711" 
d="M555 0l-59 156h-281l-59 -156h-157l279 710h155l279 -710h-157zM264 284h183l-91 240zM227 800l-57 58q6 8 16 20.5t40.5 33t61.5 20.5q34 0 74 -28t57 -28q12 0 28 11t26 21l10 11l57 -58q-6 -8 -16 -20.5t-41.5 -33t-61.5 -20.5q-33 0 -73.5 28t-56.5 28
q-12 0 -28 -10.5t-26 -21.5z" />
    <glyph glyph-name="Adieresis" unicode="&#xc4;" horiz-adv-x="711" 
d="M555 0l-59 156h-281l-59 -156h-157l279 710h155l279 -710h-157zM264 284h183l-91 240zM323 910v-120h-117v120h117zM505 910v-120h-117v120h117z" />
    <glyph glyph-name="Aring" unicode="&#xc5;" horiz-adv-x="711" 
d="M486 749q0 -50 -34 -87l260 -662h-157l-59 156h-281l-59 -156h-157l260 662q-34 37 -34 87q0 53 38.5 91.5t91.5 38.5t92 -38.5t39 -91.5zM264 284h183l-91 240zM355 710q17 0 28.5 11.5t11.5 27.5t-12 27.5t-28 11.5t-27.5 -11.5t-11.5 -27.5t10 -27t25 -12h4z" />
    <glyph glyph-name="AE" unicode="&#xc6;" horiz-adv-x="955" 
d="M576 128h353v-128h-497v156h-199l-72 -156h-162l340 710h585v-128h-348v-148h281v-128h-281v-178zM293 284h139v298z" />
    <glyph glyph-name="Ccedilla" unicode="&#xc7;" horiz-adv-x="671" 
d="M375 119q106 0 160 100l118 -69q-45 -74 -117 -116.5t-161 -42.5q-5 0 -14.5 0.5t-13.5 0.5l-10 -37q15 9 51 9q40 0 60 -23t20 -58q0 -42 -32.5 -67.5t-80.5 -25.5v68q11 2 19 10.5t8 16.5q0 14 -17 14q-22 0 -40 -12t-25 -24l-7 -12l-70 35l36 126q-100 38 -160 131
t-60 212q0 153 95.5 258.5t240.5 105.5q89 0 161 -42.5t117 -116.5l-118 -68q-56 99 -160 99q-86 0 -139 -68t-53 -168t53 -168t139 -68z" />
    <glyph glyph-name="Egrave" unicode="&#xc8;" horiz-adv-x="593" 
d="M214 128h353v-128h-497v710h492v-128h-348v-148h281v-128h-281v-178zM341 939l82 -149h-106l-104 149h128z" />
    <glyph glyph-name="Eacute" unicode="&#xc9;" horiz-adv-x="593" 
d="M214 128h353v-128h-497v710h492v-128h-348v-148h281v-128h-281v-178zM213 790l82 149h128l-104 -149h-106z" />
    <glyph glyph-name="Ecircumflex" unicode="&#xca;" horiz-adv-x="593" 
d="M214 128h353v-128h-497v710h492v-128h-348v-148h281v-128h-281v-178zM275 790h-114l94 149h126l95 -149h-114l-44 59z" />
    <glyph glyph-name="Edieresis" unicode="&#xcb;" horiz-adv-x="593" 
d="M214 128h353v-128h-497v710h492v-128h-348v-148h281v-128h-281v-178zM286 910v-120h-117v120h117zM468 910v-120h-117v120h117z" />
    <glyph glyph-name="Igrave" unicode="&#xcc;" horiz-adv-x="284" 
d="M214 0h-144v710h144v-710zM165 939l82 -149h-106l-104 149h128z" />
    <glyph glyph-name="Iacute" unicode="&#xcd;" horiz-adv-x="284" 
d="M214 0h-144v710h144v-710zM37 790l82 149h128l-104 -149h-106z" />
    <glyph glyph-name="Icircumflex" unicode="&#xce;" horiz-adv-x="284" 
d="M214 0h-144v710h144v-710zM98 790h-114l94 149h126l95 -149h-114l-44 59z" />
    <glyph glyph-name="Idieresis" unicode="&#xcf;" horiz-adv-x="284" 
d="M214 0h-144v710h144v-710zM109 910v-120h-117v120h117zM291 910v-120h-117v120h117z" />
    <glyph glyph-name="Eth" unicode="&#xd0;" horiz-adv-x="723" 
d="M3 307v96h91v307h245q151 0 247 -101.5t96 -253.5t-96 -253.5t-247 -101.5h-245v307h-91zM334 128q92 0 148.5 64.5t56.5 162.5t-56.5 162.5t-148.5 64.5h-96v-179h107v-96h-107v-179h96z" />
    <glyph glyph-name="Ntilde" unicode="&#xd1;" horiz-adv-x="698" 
d="M484 710h144v-710h-144l-270 458v-458h-144v710h144l270 -458v458zM221 800l-57 58q6 8 16 20.5t40.5 33t61.5 20.5q34 0 74 -28t57 -28q12 0 28 11t26 21l10 11l57 -58q-6 -8 -16 -20.5t-41.5 -33t-61.5 -20.5q-33 0 -73.5 28t-56.5 28q-12 0 -28 -10.5t-26 -21.5z" />
    <glyph glyph-name="Ograve" unicode="&#xd2;" horiz-adv-x="776" 
d="M638 613q99 -105 99 -258t-99 -258.5t-250 -105.5t-250 105.5t-99 258.5t99 258.5t250 105.5t250 -106zM536 187q57 68 57 168t-57 168t-148 68t-148 -68t-57 -168t57 -168t148 -68t148 68zM359 939l82 -149h-106l-104 149h128z" />
    <glyph glyph-name="Oacute" unicode="&#xd3;" horiz-adv-x="776" 
d="M638 613q99 -105 99 -258t-99 -258.5t-250 -105.5t-250 105.5t-99 258.5t99 258.5t250 105.5t250 -106zM536 187q57 68 57 168t-57 168t-148 68t-148 -68t-57 -168t57 -168t148 -68t148 68zM335 790l82 149h128l-104 -149h-106z" />
    <glyph glyph-name="Ocircumflex" unicode="&#xd4;" horiz-adv-x="776" 
d="M638 613q99 -105 99 -258t-99 -258.5t-250 -105.5t-250 105.5t-99 258.5t99 258.5t250 105.5t250 -106zM536 187q57 68 57 168t-57 168t-148 68t-148 -68t-57 -168t57 -168t148 -68t148 68zM345 790h-114l94 149h126l95 -149h-114l-44 59z" />
    <glyph glyph-name="Otilde" unicode="&#xd5;" horiz-adv-x="776" 
d="M638 613q99 -105 99 -258t-99 -258.5t-250 -105.5t-250 105.5t-99 258.5t99 258.5t250 105.5t250 -106zM536 187q57 68 57 168t-57 168t-148 68t-148 -68t-57 -168t57 -168t148 -68t148 68zM260 800l-57 58q6 8 16 20.5t40.5 33t61.5 20.5q34 0 74 -28t57 -28q12 0 28 11
t26 21l10 11l57 -58q-6 -8 -16 -20.5t-41.5 -33t-61.5 -20.5q-33 0 -73.5 28t-56.5 28q-12 0 -28 -10.5t-26 -21.5z" />
    <glyph glyph-name="Odieresis" unicode="&#xd6;" horiz-adv-x="776" 
d="M638 613q99 -105 99 -258t-99 -258.5t-250 -105.5t-250 105.5t-99 258.5t99 258.5t250 105.5t250 -106zM536 187q57 68 57 168t-57 168t-148 68t-148 -68t-57 -168t57 -168t148 -68t148 68zM355 910v-120h-117v120h117zM537 910v-120h-117v120h117z" />
    <glyph glyph-name="multiply" unicode="&#xd7;" horiz-adv-x="600" 
d="M65 448l72 69l161 -162l162 162l72 -69l-163 -163l163 -163l-72 -69l-162 161l-161 -161l-72 69l163 163z" />
    <glyph glyph-name="Oslash" unicode="&#xd8;" horiz-adv-x="776" 
d="M739 355q0 -153 -99 -258.5t-250 -105.5q-91 0 -167 41l-84 -112l-103 78l87 117q-82 101 -82 240q0 153 99 258.5t250 105.5q86 0 157 -37l79 106l105 -77l-81 -109q89 -103 89 -247zM595 355q0 74 -32 132l-261 -348q40 -20 88 -20q91 0 148 68t57 168zM390 591
q-91 0 -148 -68t-57 -168q0 -68 27 -122l255 342q-37 16 -77 16z" />
    <glyph glyph-name="Ugrave" unicode="&#xd9;" horiz-adv-x="701" 
d="M646 710v-366q0 -70 -7 -121.5t-27 -97t-53 -74t-86.5 -44.5t-127.5 -16q-86 0 -144 23.5t-89.5 71.5t-44 109t-12.5 149v366h144v-366q0 -49 2 -79t10.5 -61t24 -47.5t42.5 -27t67 -10.5q44 0 74 11.5t46.5 28t24.5 49.5t10 60.5t2 75.5v366h144zM373 939l82 -149h-106
l-104 149h128z" />
    <glyph glyph-name="Uacute" unicode="&#xda;" horiz-adv-x="701" 
d="M646 710v-366q0 -70 -7 -121.5t-27 -97t-53 -74t-86.5 -44.5t-127.5 -16q-86 0 -144 23.5t-89.5 71.5t-44 109t-12.5 149v366h144v-366q0 -49 2 -79t10.5 -61t24 -47.5t42.5 -27t67 -10.5q44 0 74 11.5t46.5 28t24.5 49.5t10 60.5t2 75.5v366h144zM245 790l82 149h128
l-104 -149h-106z" />
    <glyph glyph-name="Ucircumflex" unicode="&#xdb;" horiz-adv-x="701" 
d="M646 710v-366q0 -70 -7 -121.5t-27 -97t-53 -74t-86.5 -44.5t-127.5 -16q-86 0 -144 23.5t-89.5 71.5t-44 109t-12.5 149v366h144v-366q0 -49 2 -79t10.5 -61t24 -47.5t42.5 -27t67 -10.5q44 0 74 11.5t46.5 28t24.5 49.5t10 60.5t2 75.5v366h144zM307 790h-114l94 149
h126l95 -149h-114l-44 59z" />
    <glyph glyph-name="Udieresis" unicode="&#xdc;" horiz-adv-x="701" 
d="M646 710v-366q0 -70 -7 -121.5t-27 -97t-53 -74t-86.5 -44.5t-127.5 -16q-86 0 -144 23.5t-89.5 71.5t-44 109t-12.5 149v366h144v-366q0 -49 2 -79t10.5 -61t24 -47.5t42.5 -27t67 -10.5q44 0 74 11.5t46.5 28t24.5 49.5t10 60.5t2 75.5v366h144zM318 910v-120h-117v120
h117zM500 910v-120h-117v120h117z" />
    <glyph glyph-name="Yacute" unicode="&#xdd;" horiz-adv-x="616" 
d="M308 410l149 300h164l-241 -442v-268h-144v268l-241 442h164zM203 790l82 149h128l-104 -149h-106z" />
    <glyph glyph-name="Thorn" unicode="&#xde;" horiz-adv-x="628" 
d="M214 125v-125h-144v710h144v-125h139q58 0 101.5 -9.5t83 -33.5t60.5 -71t21 -116t-21 -116t-60.5 -71t-83 -33.5t-101.5 -9.5h-139zM214 253h143q58 0 88 22t30 80t-30 80t-88 22h-143v-204z" />
    <glyph glyph-name="germandbls" unicode="&#xdf;" horiz-adv-x="581" 
d="M255 -9v128h54q88 0 88 83t-88 83h-39v128q49 0 69.5 21t20.5 67q0 90 -75 90q-76 0 -76 -90v-501h-144v494q0 103 59 164t161 61q105 0 162.5 -61t57.5 -154q0 -41 -18 -79.5t-56 -58.5q61 -22 86 -63.5t25 -108.5q0 -92 -59 -147.5t-147 -55.5h-81z" />
    <glyph glyph-name="agrave" unicode="&#xe0;" horiz-adv-x="562" 
d="M257 758l82 -149h-106l-104 149h128zM510 0h-120q-25 9 -26 48q-17 -25 -49.5 -39t-50.5 -16t-31 -2q-205 0 -205 159q0 49 18 84t42.5 53t62.5 28t64.5 12t61.5 2q86 0 86 37q0 22 -19 40t-68 18q-68 0 -124 -50l-88 71q34 46 92 69.5t120 23.5q105 0 161.5 -50.5
t56.5 -126.5v-316q0 -12 4 -23.5t8 -16.5zM363 246q-37 -20 -103 -22q-94 -3 -94 -67q0 -30 21.5 -48t59.5 -18q47 0 81.5 23.5t34.5 69.5v62z" />
    <glyph glyph-name="aacute" unicode="&#xe1;" horiz-adv-x="562" 
d="M223 609l82 149h128l-104 -149h-106zM510 0h-120q-25 9 -26 48q-17 -25 -49.5 -39t-50.5 -16t-31 -2q-205 0 -205 159q0 49 18 84t42.5 53t62.5 28t64.5 12t61.5 2q86 0 86 37q0 22 -19 40t-68 18q-68 0 -124 -50l-88 71q34 46 92 69.5t120 23.5q105 0 161.5 -50.5
t56.5 -126.5v-316q0 -12 4 -23.5t8 -16.5zM363 246q-37 -20 -103 -22q-94 -3 -94 -67q0 -30 21.5 -48t59.5 -18q47 0 81.5 23.5t34.5 69.5v62z" />
    <glyph glyph-name="acircumflex" unicode="&#xe2;" horiz-adv-x="562" 
d="M233 609h-114l94 149h126l95 -149h-114l-44 59zM510 0h-120q-25 9 -26 48q-17 -25 -49.5 -39t-50.5 -16t-31 -2q-205 0 -205 159q0 49 18 84t42.5 53t62.5 28t64.5 12t61.5 2q86 0 86 37q0 22 -19 40t-68 18q-68 0 -124 -50l-88 71q34 46 92 69.5t120 23.5
q105 0 161.5 -50.5t56.5 -126.5v-316q0 -12 4 -23.5t8 -16.5zM363 246q-37 -20 -103 -22q-94 -3 -94 -67q0 -30 21.5 -48t59.5 -18q47 0 81.5 23.5t34.5 69.5v62z" />
    <glyph glyph-name="atilde" unicode="&#xe3;" horiz-adv-x="562" 
d="M141 619l-57 58q6 8 16 20.5t40.5 33t61.5 20.5q34 0 74 -28t57 -28q12 0 28 10.5t26 21.5l10 11l57 -58q-6 -8 -16 -20.5t-41.5 -33t-61.5 -20.5q-33 0 -73.5 28t-56.5 28q-12 0 -28 -11t-26 -21zM510 0h-120q-25 9 -26 48q-17 -25 -49.5 -39t-50.5 -16t-31 -2
q-205 0 -205 159q0 49 18 84t42.5 53t62.5 28t64.5 12t61.5 2q86 0 86 37q0 22 -19 40t-68 18q-68 0 -124 -50l-88 71q34 46 92 69.5t120 23.5q105 0 161.5 -50.5t56.5 -126.5v-316q0 -12 4 -23.5t8 -16.5zM363 246q-37 -20 -103 -22q-94 -3 -94 -67q0 -30 21.5 -48
t59.5 -18q47 0 81.5 23.5t34.5 69.5v62z" />
    <glyph glyph-name="adieresis" unicode="&#xe4;" horiz-adv-x="562" 
d="M247 729v-120h-117v120h117zM429 729v-120h-117v120h117zM510 0h-120q-25 9 -26 48q-17 -25 -49.5 -39t-50.5 -16t-31 -2q-205 0 -205 159q0 49 18 84t42.5 53t62.5 28t64.5 12t61.5 2q86 0 86 37q0 22 -19 40t-68 18q-68 0 -124 -50l-88 71q34 46 92 69.5t120 23.5
q105 0 161.5 -50.5t56.5 -126.5v-316q0 -12 4 -23.5t8 -16.5zM363 246q-37 -20 -103 -22q-94 -3 -94 -67q0 -30 21.5 -48t59.5 -18q47 0 81.5 23.5t34.5 69.5v62z" />
    <glyph glyph-name="aring" unicode="&#xe5;" horiz-adv-x="562" 
d="M276 675q17 0 28.5 11.5t11.5 27.5t-12 27.5t-28 11.5t-27.5 -11.5t-11.5 -27.5t11.5 -27.5t27.5 -11.5zM184 805q39 39 92 39t92 -38.5t39 -91.5t-39 -91.5t-92 -38.5t-91.5 38.5t-38.5 91.5t38 91zM510 0h-120q-25 9 -26 48q-17 -25 -49.5 -39t-50.5 -16t-31 -2
q-205 0 -205 159q0 49 18 84t42.5 53t62.5 28t64.5 12t61.5 2q86 0 86 37q0 22 -19 40t-68 18q-68 0 -124 -50l-88 71q34 46 92 69.5t120 23.5q105 0 161.5 -50.5t56.5 -126.5v-316q0 -12 4 -23.5t8 -16.5zM363 246q-37 -20 -103 -22q-94 -3 -94 -67q0 -30 21.5 -48
t59.5 -18q47 0 81.5 23.5t34.5 69.5v62z" />
    <glyph glyph-name="ae" unicode="&#xe6;" horiz-adv-x="927" 
d="M631 107q89 0 125 61l106 -55q-36 -56 -96 -89t-135 -33q-127 0 -200 80q-32 -39 -85 -59.5t-113 -20.5q-205 0 -205 159q0 49 18 84t42.5 53t62.5 28t64.5 12t61.5 2q86 0 86 37q0 22 -19 40t-68 18q-68 0 -124 -50l-88 71q34 46 92 69.5t120 23.5q113 0 173 -62
q69 62 182 62q125 0 196 -81t71 -193v-53h-399q21 -104 132 -104zM363 246q-37 -20 -103 -22q-45 -1 -69.5 -19.5t-24.5 -47.5q0 -30 21.5 -48t59.5 -18q42 0 79 26.5t37 66.5v62zM631 422q-96 0 -128 -95h256q-31 95 -128 95z" />
    <glyph glyph-name="ccedilla" unicode="&#xe7;" horiz-adv-x="547" 
d="M308 107q75 0 114 64l118 -60q-44 -63 -99 -91.5t-133 -28.5q-4 0 -11 0.5t-10 0.5l-10 -37q15 9 51 9q40 0 60 -23t20 -58q0 -42 -32.5 -67.5t-80.5 -25.5v68q11 2 19 10.5t8 16.5q0 14 -17 14q-22 0 -40 -12t-25 -24l-7 -12l-70 35l36 125q-77 31 -122.5 99.5
t-45.5 154.5q0 112 73.5 192.5t203.5 80.5q82 0 137 -29.5t95 -94.5l-121 -57q-38 65 -111 65q-63 0 -100.5 -45.5t-37.5 -111.5q0 -67 36.5 -112.5t101.5 -45.5z" />
    <glyph glyph-name="egrave" unicode="&#xe8;" horiz-adv-x="594" 
d="M298 107q89 0 125 61l106 -55q-36 -56 -96 -89t-135 -33q-127 0 -197 77.5t-70 195.5q0 54 15.5 102t46.5 87t84 62t121 23q125 0 196 -81t71 -193v-53h-399q21 -104 132 -104zM298 422q-96 0 -128 -95h256q-31 95 -128 95zM269 758l82 -149h-106l-104 149h128z" />
    <glyph glyph-name="eacute" unicode="&#xe9;" horiz-adv-x="594" 
d="M298 107q89 0 125 61l106 -55q-36 -56 -96 -89t-135 -33q-127 0 -197 77.5t-70 195.5q0 54 15.5 102t46.5 87t84 62t121 23q125 0 196 -81t71 -193v-53h-399q21 -104 132 -104zM298 422q-96 0 -128 -95h256q-31 95 -128 95zM245 609l82 149h128l-104 -149h-106z" />
    <glyph glyph-name="ecircumflex" unicode="&#xea;" horiz-adv-x="594" 
d="M298 107q89 0 125 61l106 -55q-36 -56 -96 -89t-135 -33q-127 0 -197 77.5t-70 195.5q0 54 15.5 102t46.5 87t84 62t121 23q125 0 196 -81t71 -193v-53h-399q21 -104 132 -104zM298 422q-96 0 -128 -95h256q-31 95 -128 95zM255 609h-114l94 149h126l95 -149h-114l-44 59
z" />
    <glyph glyph-name="edieresis" unicode="&#xeb;" horiz-adv-x="594" 
d="M298 107q89 0 125 61l106 -55q-36 -56 -96 -89t-135 -33q-127 0 -197 77.5t-70 195.5q0 54 15.5 102t46.5 87t84 62t121 23q125 0 196 -81t71 -193v-53h-399q21 -104 132 -104zM298 422q-96 0 -128 -95h256q-31 95 -128 95zM265 729v-120h-117v120h117zM447 729v-120
h-117v120h117z" />
    <glyph glyph-name="igrave" unicode="&#xec;" horiz-adv-x="275" 
d="M207 0h-139v529h139v-529zM161 758l82 -149h-106l-104 149h128z" />
    <glyph glyph-name="iacute" unicode="&#xed;" horiz-adv-x="275" 
d="M207 0h-139v529h139v-529zM33 609l82 149h128l-104 -149h-106z" />
    <glyph glyph-name="icircumflex" unicode="&#xee;" horiz-adv-x="275" 
d="M92 609h-114l94 149h126l95 -149h-114l-44 59zM207 0h-139v529h139v-529z" />
    <glyph glyph-name="idieresis" unicode="&#xef;" horiz-adv-x="275" 
d="M207 0h-139v529h139v-529zM106 729v-120h-117v120h117zM288 729v-120h-117v120h117z" />
    <glyph glyph-name="eth" unicode="&#xf0;" horiz-adv-x="564" 
d="M145 588v117h123l87 57q4 -5 39 -57h80v-117h-21q79 -192 79 -316q0 -134 -62 -207.5t-186 -73.5q-116 0 -184 76t-68 191q0 132 68 213.5t172 81.5q48 0 70 -19q-1 4 -9 24q-8 21 -13 30h-175zM192 388q-28 -47 -28 -116t28 -116.5t90 -47.5t90 47.5t28 116.5t-28 116.5
t-90 47.5t-90 -48z" />
    <glyph glyph-name="ntilde" unicode="&#xf1;" horiz-adv-x="625" 
d="M564 0h-139v326q0 99 -89 99q-62 0 -97 -42t-35 -122v-261h-139v529h139l21 -46q55 55 129 55q46 0 80.5 -8.5t65.5 -30.5t47.5 -65.5t16.5 -107.5v-326zM186 619l-57 58q6 8 16 20.5t40.5 33t61.5 20.5q34 0 74 -28t57 -28q12 0 28 10.5t26 21.5l10 11l57 -58
q-6 -8 -16 -20.5t-41.5 -33t-61.5 -20.5q-33 0 -73.5 28t-56.5 28q-12 0 -28 -11t-26 -21z" />
    <glyph glyph-name="ograve" unicode="&#xf2;" horiz-adv-x="618" 
d="M587 264q0 -113 -78.5 -193t-199.5 -80t-199.5 80t-78.5 193q0 114 78.5 194t199.5 80t199.5 -80t78.5 -194zM170 264q0 -67 36.5 -112t102.5 -45t102.5 45t36.5 112q0 66 -36.5 112t-102.5 46t-102.5 -46t-36.5 -112zM278 758l82 -149h-106l-104 149h128z" />
    <glyph glyph-name="oacute" unicode="&#xf3;" horiz-adv-x="618" 
d="M587 264q0 -113 -78.5 -193t-199.5 -80t-199.5 80t-78.5 193q0 114 78.5 194t199.5 80t199.5 -80t78.5 -194zM170 264q0 -67 36.5 -112t102.5 -45t102.5 45t36.5 112q0 66 -36.5 112t-102.5 46t-102.5 -46t-36.5 -112zM254 609l82 149h128l-104 -149h-106z" />
    <glyph glyph-name="ocircumflex" unicode="&#xf4;" horiz-adv-x="618" 
d="M587 264q0 -113 -78.5 -193t-199.5 -80t-199.5 80t-78.5 193q0 114 78.5 194t199.5 80t199.5 -80t78.5 -194zM170 264q0 -67 36.5 -112t102.5 -45t102.5 45t36.5 112q0 66 -36.5 112t-102.5 46t-102.5 -46t-36.5 -112zM266 609h-114l94 149h126l95 -149h-114l-44 59z" />
    <glyph glyph-name="otilde" unicode="&#xf5;" horiz-adv-x="618" 
d="M587 264q0 -113 -78.5 -193t-199.5 -80t-199.5 80t-78.5 193q0 114 78.5 194t199.5 80t199.5 -80t78.5 -194zM170 264q0 -67 36.5 -112t102.5 -45t102.5 45t36.5 112q0 66 -36.5 112t-102.5 46t-102.5 -46t-36.5 -112zM181 619l-57 58q6 8 16 20.5t40.5 33t61.5 20.5
q34 0 74 -28t57 -28q12 0 28 10.5t26 21.5l10 11l57 -58q-6 -8 -16 -20.5t-41.5 -33t-61.5 -20.5q-33 0 -73.5 28t-56.5 28q-12 0 -28 -11t-26 -21z" />
    <glyph glyph-name="odieresis" unicode="&#xf6;" horiz-adv-x="618" 
d="M587 264q0 -113 -78.5 -193t-199.5 -80t-199.5 80t-78.5 193q0 114 78.5 194t199.5 80t199.5 -80t78.5 -194zM170 264q0 -67 36.5 -112t102.5 -45t102.5 45t36.5 112q0 66 -36.5 112t-102.5 46t-102.5 -46t-36.5 -112zM276 729v-120h-117v120h117zM458 729v-120h-117v120
h117z" />
    <glyph glyph-name="divide" unicode="&#xf7;" horiz-adv-x="600" 
d="M370 0h-150v141h150v-141zM370 394h-150v141h150v-141zM545 338v-138h-499v138h499z" />
    <glyph glyph-name="oslash" unicode="&#xf8;" horiz-adv-x="618" 
d="M188 -97l-114 61l50 93q-93 80 -93 207q0 114 78.5 194t199.5 80q34 0 69 -8l48 90l119 -61l-49 -90q91 -80 91 -205q0 -113 -78.5 -193t-199.5 -80q-34 0 -69 8zM170 264q0 -49 19 -86l130 243q-1 0 -5 0.5t-5 0.5q-66 0 -102.5 -46t-36.5 -112zM299 107h10
q66 0 102.5 45t36.5 112q0 47 -18 83z" />
    <glyph glyph-name="ugrave" unicode="&#xf9;" horiz-adv-x="623" 
d="M59 529h139v-326q0 -99 89 -99q62 0 97 42t35 122v261h139v-529h-139l-21 46q-55 -55 -129 -55q-46 0 -80.5 8.5t-65.5 30.5t-47.5 65.5t-16.5 107.5v326zM331 758l82 -149h-106l-104 149h128z" />
    <glyph glyph-name="uacute" unicode="&#xfa;" horiz-adv-x="623" 
d="M59 529h139v-326q0 -99 89 -99q62 0 97 42t35 122v261h139v-529h-139l-21 46q-55 -55 -129 -55q-46 0 -80.5 8.5t-65.5 30.5t-47.5 65.5t-16.5 107.5v326zM203 609l82 149h128l-104 -149h-106z" />
    <glyph glyph-name="ucircumflex" unicode="&#xfb;" horiz-adv-x="623" 
d="M59 529h139v-326q0 -99 89 -99q62 0 97 42t35 122v261h139v-529h-139l-21 46q-55 -55 -129 -55q-46 0 -80.5 8.5t-65.5 30.5t-47.5 65.5t-16.5 107.5v326zM265 609h-114l94 149h126l95 -149h-114l-44 59z" />
    <glyph glyph-name="udieresis" unicode="&#xfc;" horiz-adv-x="623" 
d="M59 529h139v-326q0 -99 89 -99q62 0 97 42t35 122v261h139v-529h-139l-21 46q-55 -55 -129 -55q-46 0 -80.5 8.5t-65.5 30.5t-47.5 65.5t-16.5 107.5v326zM276 729v-120h-117v120h117zM458 729v-120h-117v120h117z" />
    <glyph glyph-name="yacute" unicode="&#xfd;" horiz-adv-x="578" 
d="M285 136l150 393h145l-223 -571q-56 -147 -162 -147h-109v116h71q18 0 32.5 14.5t14.5 38.5q0 14 -6 32l-200 517h144zM184 609l82 149h128l-104 -149h-106z" />
    <glyph glyph-name="thorn" unicode="&#xfe;" horiz-adv-x="653" 
d="M357 538q120 0 192.5 -74t72.5 -200q0 -123 -69 -198t-196 -75q-90 0 -148 66v-237h-139v890h139v-237q57 65 148 65zM347 106q66 0 101 45.5t35 112.5t-33.5 112.5t-102.5 45.5q-67 0 -108 -46t-41 -112t39.5 -112t109.5 -46z" />
    <glyph glyph-name="ydieresis" unicode="&#xff;" horiz-adv-x="578" 
d="M285 136l150 393h145l-223 -571q-56 -147 -162 -147h-109v116h71q18 0 32.5 14.5t14.5 38.5q0 14 -6 32l-200 517h144zM256 729v-120h-117v120h117zM438 729v-120h-117v120h117z" />
    <glyph glyph-name="dotlessi" unicode="&#x131;" horiz-adv-x="275" 
d="M207 0h-139v529h139v-529z" />
    <glyph glyph-name="Lslash" unicode="&#x141;" horiz-adv-x="588" 
d="M236 128h331v-128h-475v207l-25 -24l-72 77l97 93v357h144v-220l60 58l71 -74l-131 -127v-219z" />
    <glyph glyph-name="lslash" unicode="&#x142;" horiz-adv-x="381" 
d="M246 0h-139v213l-34 -33l-72 77l106 101v352h139v-219l56 54l71 -74l-127 -123v-348z" />
    <glyph glyph-name="OE" unicode="&#x152;" horiz-adv-x="1117" 
d="M738 128h353v-128h-497v77q-27 -38 -86 -62t-120 -24q-151 0 -250 105.5t-99 258.5t99 258.5t250 105.5q61 0 120 -24.5t86 -62.5v78h492v-128h-348v-148h281v-128h-281v-178zM536 192q57 64 57 163t-56.5 163t-148.5 64t-148.5 -64t-56.5 -163t56.5 -163t148.5 -64
t148 64z" />
    <glyph glyph-name="oe" unicode="&#x153;" horiz-adv-x="1014" 
d="M309 538q124 0 204 -85q72 85 205 85q125 0 196 -81t71 -193v-53h-399q21 -104 132 -104q89 0 125 61l106 -55q-36 -56 -96 -89t-135 -33q-133 0 -204 86q-80 -86 -205 -86q-121 0 -199.5 80t-78.5 193q0 114 78.5 194t199.5 80zM170 264q0 -67 36.5 -112t102.5 -45
t102.5 45t36.5 112q0 66 -36.5 112t-102.5 46t-102.5 -46t-36.5 -112zM718 422q-96 0 -128 -95h256q-31 95 -128 95z" />
    <glyph glyph-name="Scaron" unicode="&#x160;" horiz-adv-x="643" 
d="M123 203q19 -32 74.5 -58t139.5 -26q44 0 73.5 9.5t41 25.5t15 28.5t3.5 28.5q0 34 -24 52t-62 24t-84 9.5t-92.5 12.5t-84.5 28.5t-62 62.5t-24 109q0 98 73.5 154t212.5 56q58 0 107 -12t77.5 -28.5t49 -33.5t27.5 -29l8 -12l-121 -69q-10 18 -50.5 37t-97.5 19
q-142 0 -142 -82q0 -34 24 -52t62 -24t84.5 -9.5t92.5 -13t84 -28.5t62 -62.5t24 -108.5q0 -27 -6 -53.5t-24.5 -57.5t-47.5 -54.5t-80 -39t-117 -15.5q-246 0 -332 144zM166 939h114l43 -59l44 59h114l-95 -149h-126z" />
    <glyph glyph-name="scaron" unicode="&#x161;" horiz-adv-x="518" 
d="M13 108l113 45q3 -5 11.5 -12.5t44.5 -20.5t86 -13q52 0 67 11t15 34q0 20 -23.5 32.5t-59 18t-76.5 17t-76.5 26.5t-59 49t-23.5 83q0 17 5 36t20 42t38.5 40.5t63.5 29.5t92 12q55 0 107 -19t76 -38l24 -19l-86 -78q-4 4 -12.5 10.5t-40 17t-68.5 10.5q-80 0 -80 -44
q0 -26 23.5 -41.5t59 -21t76.5 -15t76.5 -22.5t59 -45t23.5 -81q0 -72 -49.5 -116.5t-163.5 -44.5q-61 0 -110.5 12t-76.5 29.5t-45.5 34.5t-24.5 29zM94 758h114l43 -59l44 59h114l-95 -149h-126z" />
    <glyph glyph-name="Ydieresis" unicode="&#x178;" horiz-adv-x="616" 
d="M308 410l149 300h164l-241 -442v-268h-144v268l-241 442h164zM275 910v-120h-117v120h117zM457 910v-120h-117v120h117z" />
    <glyph glyph-name="Zcaron" unicode="&#x17d;" 
d="M212 128h347v-128h-526v128l337 454h-323v128h502v-128zM138 939h114l43 -59l44 59h114l-95 -149h-126z" />
    <glyph glyph-name="zcaron" unicode="&#x17e;" horiz-adv-x="490" 
d="M205 116h255v-116h-428v116l243 297h-228v116h401v-116zM88 758h114l43 -59l44 59h114l-95 -149h-126z" />
    <glyph glyph-name="florin" unicode="&#x192;" horiz-adv-x="600" 
d="M471 719q23 0 64 -9v-128q-33 9 -54 9q-47 0 -59 -52l-5 -21h113v-128h-142l-99 -433q-15 -66 -65 -106t-120 -40q-31 0 -62 9v128q36 -9 52 -9q43 0 56 57l89 394h-84v128h114l11 49q16 70 66.5 111t124.5 41z" />
    <glyph glyph-name="circumflex" unicode="&#x2c6;" horiz-adv-x="515" 
d="M214 570h-114l94 149h126l95 -149h-114l-44 59z" />
    <glyph glyph-name="caron" unicode="&#x2c7;" horiz-adv-x="515" 
d="M100 719h114l43 -59l44 59h114l-95 -149h-126z" />
    <glyph glyph-name="breve" unicode="&#x2d8;" horiz-adv-x="511" 
d="M293 714h118q0 -65 -45.5 -105.5t-110.5 -40.5t-110 40.5t-45 105.5h118q0 -17 11 -26t26 -9q16 0 27 8.5t11 26.5z" />
    <glyph glyph-name="dotaccent" unicode="&#x2d9;" horiz-adv-x="345" 
d="M245 579h-145v131h145v-131z" />
    <glyph glyph-name="ring" unicode="&#x2da;" horiz-adv-x="461" 
d="M230 550q17 0 28.5 11.5t11.5 27.5t-12 27.5t-28 11.5t-27.5 -11.5t-11.5 -27.5q0 -17 11.5 -28t27.5 -11zM138 680q39 39 92 39t92 -38.5t39 -91.5t-39 -91.5t-92 -38.5t-91.5 38.5t-38.5 91.5t38 91z" />
    <glyph glyph-name="ogonek" unicode="&#x2db;" horiz-adv-x="421" 
d="M194 26h117q-5 -2 -13 -6t-28 -17t-35.5 -26t-28 -32t-12.5 -37t21 -18q26 0 54 24l52 -72q-56 -42 -107 -42q-46 0 -80 25.5t-34 69.5q0 22 9.5 43.5t23.5 37t28 27t23 17.5z" />
    <glyph glyph-name="tilde" unicode="&#x2dc;" horiz-adv-x="570" 
d="M157 564l-57 58q6 8 16 20.5t40.5 33t61.5 20.5q34 0 74 -28t57 -28q12 0 28 11t26 21l10 11l57 -58q-6 -8 -16 -20.5t-41.5 -33t-61.5 -20.5q-33 0 -73.5 28t-56.5 28q-12 0 -28 -10.5t-26 -21.5z" />
    <glyph glyph-name="hungarumlaut" unicode="&#x2dd;" horiz-adv-x="620" 
d="M100 570l82 149h128l-104 -149h-106zM310 570l82 149h128l-104 -149h-106z" />
    <glyph glyph-name="Delta" unicode="&#x2206;" horiz-adv-x="600" 
d="M374 710l289 -710h-726l289 710h148zM144 128h312l-156 392z" />
    <glyph glyph-name="Omega" unicode="&#x3a9;" horiz-adv-x="754" 
d="M694 0h-289v127q68 41 103 122.5t35 165.5q0 73 -41 125.5t-125 52.5t-125 -52.5t-41 -125.5q0 -84 35 -165.5t103 -122.5v-127h-289v127h145q-119 108 -119 297q0 120 83 203t208 83t208 -83t83 -203q0 -189 -119 -297h145v-127z" />
    <glyph glyph-name="pi" unicode="&#x3c0;" horiz-adv-x="712" 
d="M43 401v128h612v-128h-102v-237q0 -43 54 -45q18 0 48 6v-130q-23 -4 -48 -4q-196 0 -196 168v242h-125v-401h-142v401h-101z" />
    <glyph glyph-name="endash" unicode="&#x2013;" horiz-adv-x="600" 
d="M549 354v-138h-499v138h499z" />
    <glyph glyph-name="emdash" unicode="&#x2014;" horiz-adv-x="920" 
d="M869 354v-138h-819v138h819z" />
    <glyph glyph-name="quoteleft" unicode="&#x2018;" horiz-adv-x="250" 
d="M45 438v141q0 53 17.5 79t75.5 61l37 -59q-33 -19 -41.5 -33t-8.5 -41v-7h70v-141h-150z" />
    <glyph glyph-name="quoteright" unicode="&#x2019;" horiz-adv-x="250" 
d="M205 719v-141q0 -53 -17.5 -79t-75.5 -61l-37 59q33 19 41.5 33t8.5 41v7h-70v141h150z" />
    <glyph glyph-name="quotesinglbase" unicode="&#x201a;" horiz-adv-x="282" 
d="M216 141v-141q0 -53 -17.5 -79t-75.5 -61l-37 59q33 19 41.5 33t8.5 41v7h-70v141h150z" />
    <glyph glyph-name="quotedblleft" unicode="&#x201c;" horiz-adv-x="465" 
d="M45 438v141q0 53 17.5 79t75.5 61l37 -59q-33 -19 -41.5 -33t-8.5 -41v-7h70v-141h-150zM260 438v141q0 53 17.5 79t75.5 61l37 -59q-33 -19 -41.5 -33t-8.5 -41v-7h70v-141h-150z" />
    <glyph glyph-name="quotedblright" unicode="&#x201d;" horiz-adv-x="465" 
d="M420 719v-141q0 -53 -17.5 -79t-75.5 -61l-37 59q33 19 41.5 33t8.5 41v7h-70v141h150zM205 719v-141q0 -53 -17.5 -79t-75.5 -61l-37 59q33 19 41.5 33t8.5 41v7h-70v141h150z" />
    <glyph glyph-name="quotedblbase" unicode="&#x201e;" horiz-adv-x="497" 
d="M431 141v-141q0 -53 -17.5 -79t-75.5 -61l-37 59q33 19 41.5 33t8.5 41v7h-70v141h150zM216 141v-141q0 -53 -17.5 -79t-75.5 -61l-37 59q33 19 41.5 33t8.5 41v7h-70v141h150z" />
    <glyph glyph-name="dagger" unicode="&#x2020;" horiz-adv-x="634" 
d="M46 414v115h201v181h140v-181h201v-115h-201v-594h-140v594h-201z" />
    <glyph glyph-name="daggerdbl" unicode="&#x2021;" horiz-adv-x="634" 
d="M46 0v115h201v300h-201v115h201v180h140v-180h201v-115h-201v-300h201v-115h-201v-180h-140v180h-201z" />
    <glyph glyph-name="bullet" unicode="&#x2022;" horiz-adv-x="354" 
d="M41 288q0 55 40 95.5t96 40.5q55 0 95.5 -40.5t40.5 -95.5q0 -56 -40 -96t-96 -40q-57 0 -96.5 40t-39.5 96z" />
    <glyph glyph-name="ellipsis" unicode="&#x2026;" horiz-adv-x="842" 
d="M216 0h-150v141h150v-141zM496 0h-150v141h150v-141zM776 0h-150v141h150v-141z" />
    <glyph glyph-name="perthousand" unicode="&#x2030;" horiz-adv-x="960" 
d="M310 567q0 -153 -135 -153t-135 153q0 152 135 152t135 -152zM227 567q0 41 -10.5 64t-41.5 23t-41.5 -23t-10.5 -64q0 -43 10.5 -65.5t41.5 -22.5t41.5 22.5t10.5 65.5zM615 144q0 -153 -135 -153t-135 153q0 152 135 152t135 -152zM532 144q0 41 -10.5 64t-41.5 23
t-41.5 -23t-10.5 -64q0 -43 10.5 -65.5t41.5 -22.5t41.5 22.5t10.5 65.5zM915 144q0 -153 -135 -153t-135 153q0 152 135 152t135 -152zM832 144q0 41 -10.5 64t-41.5 23t-41.5 -23t-10.5 -64q0 -43 10.5 -65.5t41.5 -22.5t41.5 22.5t10.5 65.5zM38 0l464 710h115l-465 -710
h-114z" />
    <glyph glyph-name="guilsinglleft" unicode="&#x2039;" horiz-adv-x="384" 
d="M233 48l-183 217v47l182 217l93 -78l-135 -162l136 -163z" />
    <glyph glyph-name="guilsinglright" unicode="&#x203a;" horiz-adv-x="384" 
d="M334 265l-183 -217l-93 78l136 163l-135 162l93 78l182 -217v-47z" />
    <glyph glyph-name="fraction" unicode="&#x2044;" horiz-adv-x="585" 
d="M3 0l464 710h115l-465 -710h-114z" />
    <glyph glyph-name="Euro" unicode="&#x20ac;" 
d="M440 337l-20 -100h-198q23 -118 113 -118q89 0 129 57l114 -71q-28 -55 -91 -84.5t-152 -29.5q-123 0 -182 65t-75 181h-66v100h59v41h-59v100h66q8 53 24.5 93.5t45.5 75.5t76.5 53.5t110.5 18.5q89 0 152 -29.5t91 -84.5l-114 -71q-41 57 -129 57q-90 0 -113 -113h248
l-20 -100h-237v-41h227z" />
    <glyph glyph-name="trademark" unicode="&#x2122;" horiz-adv-x="832" 
d="M321 710v-67h-107v-293h-82v293h-107v67h296zM634 710h128v-360h-82v263l-87 -263h-78l-85 263v-263h-82v360h128l78 -262z" />
    <glyph glyph-name="partialdiff" unicode="&#x2202;" horiz-adv-x="571" 
d="M38 250q0 122 61.5 199.5t172.5 77.5q60 0 106 -34q-24 50 -77 74.5t-107 24.5v127q75 0 134 -25.5t97 -67t63 -98t35 -115t10 -122.5q0 -132 -60 -216t-184 -84q-113 0 -182 74t-69 185zM174 250q2 -58 32.5 -94.5t84.5 -36.5q35 0 57.5 13.5t32.5 39t13 50t3 59.5v34
q-33 48 -61.5 70t-61.5 22q-36 -2 -60 -29.5t-32 -59.5t-8 -68z" />
    <glyph glyph-name="product" unicode="&#x220f;" horiz-adv-x="884" 
d="M163 -180v762h-118v128h801v-128h-118v-762h-145v762h-275v-762h-145z" />
    <glyph glyph-name="summation" unicode="&#x2211;" horiz-adv-x="697" 
d="M670 -180h-635v128l243 318l-243 316v128h635v-128h-460l243 -316l-244 -318h461v-128z" />
    <glyph glyph-name="minus" unicode="&#x2212;" horiz-adv-x="600" 
d="M549 354v-138h-499v138h499z" />
    <glyph glyph-name="radical" unicode="&#x221a;" horiz-adv-x="600" 
d="M544 889h150l-259 -889h-150l-118 361h-152v144h256l85 -262z" />
    <glyph glyph-name="infinity" unicode="&#x221e;" horiz-adv-x="660" 
d="M458 409q71 0 106.5 -37t35.5 -98t-35.5 -97.5t-106.5 -36.5q-66 0 -129 70q-63 -70 -127 -70q-70 0 -106 36.5t-36 97.5t36 98t106 37q39 0 66.5 -17.5t60.5 -53.5q33 35 61.5 53t67.5 18zM199 212q34 0 81 62q-6 9 -15 21t-28.5 27t-37.5 15q-53 0 -53 -63
q0 -62 53 -62zM462 212q52 0 52 62q0 63 -52 63q-16 0 -36.5 -15.5t-32.5 -31.5l-12 -16q45 -62 81 -62z" />
    <glyph glyph-name="integral" unicode="&#x222b;" horiz-adv-x="566" 
d="M461 719q23 0 64 -9v-128q-33 9 -54 9q-47 0 -59 -52l-133 -582q-15 -66 -65 -106t-120 -40q-31 0 -62 9v128q36 -9 52 -9q43 0 56 57l130 571q16 70 66.5 111t124.5 41z" />
    <glyph glyph-name="approxequal" unicode="&#x2248;" horiz-adv-x="600" 
d="M89 385l-93 75q3 5 8.5 14.5t24 32.5t39 41t52.5 32.5t66 14.5q38 0 73.5 -16.5t57.5 -35.5t48.5 -35.5t48.5 -16.5q23 0 47.5 19.5t38.5 39.5l13 19l92 -77q-3 -5 -8.5 -14.5t-24 -32.5t-39 -40.5t-52.5 -32t-65 -14.5q-40 0 -76.5 16t-59 36t-48.5 36t-46 16
q-22 0 -46.5 -19t-37.5 -39zM89 105l-93 75q3 5 8.5 14.5t24 32.5t39 41t52.5 32.5t66 14.5q38 0 73.5 -16.5t57.5 -35.5t48.5 -35.5t48.5 -16.5q23 0 47.5 19.5t38.5 39.5l13 19l92 -77q-3 -5 -8.5 -14.5t-24 -32.5t-39 -40.5t-52.5 -32t-65 -14.5q-40 0 -76.5 16t-59 36
t-48.5 36t-46 16q-22 0 -46.5 -19t-37.5 -39z" />
    <glyph glyph-name="notequal" unicode="&#x2260;" horiz-adv-x="600" 
d="M539 452v-140h-144l-39 -97h183v-140h-240l-63 -155h-145l63 155h-86v140h143l39 97h-182v140h239l56 138h145l-56 -138h87z" />
    <glyph glyph-name="lessequal" unicode="&#x2264;" horiz-adv-x="600" 
d="M451 221l-364 248v58l364 248l52 -75l-297 -202l297 -202zM508 108v-108h-421v108h421z" />
    <glyph glyph-name="greaterequal" unicode="&#x2265;" horiz-adv-x="600" 
d="M513 469l-364 -248l-52 75l297 202l-297 202l52 75l364 -248v-58zM92 0v108h421v-108h-421z" />
    <glyph glyph-name="lozenge" unicode="&#x25ca;" 
d="M336 0h-82l-216 361l216 349h82l216 -349zM295 502l-89 -141l89 -149l89 149z" />
    <glyph glyph-name="apple" unicode="&#xf8ff;" horiz-adv-x="752" 
d="M672 22q0 -9 -6.5 -15.5t-15.5 -6.5q-3 0 -7 1l-267 77l-267 -77q-4 -1 -7 -1q-9 0 -15.5 6.5t-6.5 15.5v595q0 17 16 22l270 78q6 2 10 2t10 -2l270 -78q16 -5 16 -22v-595zM354 669l-230 -67q6 -94 71.5 -161t158.5 -75v303zM398 669v-303q93 8 158.5 75t71.5 161z
M123 51l231 67v204q-73 6 -134 43.5t-97 97.5v-412zM629 51v412q-37 -60 -97.5 -97.5t-133.5 -43.5v-204z" />
    <glyph glyph-name="nonbreakingspace" unicode="&#xa0;" horiz-adv-x="307" 
 />
    </font>
</defs>
</svg>
