<?xml version="1.0" encoding="UTF-8"?> <svg xmlns="http://www.w3.org/2000/svg" xmlns:xlink="http://www.w3.org/1999/xlink" height="180" viewBox="0 0 184 180" width="184"><mask id="a" fill="#fff"><path d="m0 97.5418994h97v-97.5418994h-97z" fill="#fff" fill-rule="evenodd"></path></mask><g fill="#6634ff" fill-rule="evenodd"><g transform="translate(44)"><path d="m48.5 6.38667199c-23.2450685 0-42.14880952 19.00934861-42.14880952 42.38427771 0 23.3749292 18.90374102 42.3842778 42.14880952 42.3842778s42.1488095-19.0093486 42.1488095-42.3842778c0-23.3749291-18.903741-42.38427771-42.1488095-42.38427771m0 91.15522741c-26.7416875 0-48.5-21.8798673-48.5-48.7709497s21.7583125-48.7709497 48.5-48.7709497 48.5 21.8798673 48.5 48.7709497-21.7583125 48.7709497-48.5 48.7709497"></path><path d="m24.25 55.7382283h48.5v-12.773344h-48.5z" mask="url(#a)"></path><path d="m41.5714286 73.1564246h12.7023809v-48.7709497h-12.7023809z" mask="url(#a)"></path></g><g transform="translate(0 54.301676)"><path d="m68.8553459 108.240223h-36.9832285v-8.5452803c-.0028449-.1595119-.1593124-4.6771171-4.8561824-9.3798699l-19.91404611-19.9389886c-6.44930608-6.4573838-6.52327254-13.1255513-6.52327254-13.4075455v-45.574831c0-6.28362978 5.10368554-11.3937077 11.37945495-11.3937077 6.2757694 0 11.3794549 5.11007792 11.3794549 11.3937077v22.7874155h-5.6897275v-22.7874155c0-3.14181487-2.5518427-5.69685383-5.6897274-5.69685383-3.13788472 0-5.68972748 2.55503896-5.68972748 5.69685383v45.574831c.00284486.1595119.15931236 4.677117 4.85618238 9.3798699l19.9140461 19.9389885c6.4493061 6.4573838 6.5232726 13.1255513 6.5232726 13.4075456v2.8484273h25.6037735v-19.9389889c0-.0626654-.102415-7.4685755-4.8561823-12.2282969l-27.6150923-27.6496802h-1.6670901c-3.1378847 0-5.6897275 2.555039-5.6897275 5.6968539v1.6691781l19.0805011 19.1043995-4.0226374 4.0276757-20.7475912-20.7735777v-4.0276756c0-6.2836298 5.1036856-11.3937078 11.379455-11.3937078h4.0226373l29.2821824 29.3188585c6.4493061 6.4573838 6.5232725 15.8571927 6.5232725 16.2559725z"></path><path d="m152.127883 108.240223h-36.983229v-25.6358419c0-.3987798.073967-9.7985887 6.523273-16.2559725l29.282182-29.3188585h4.022637c6.27577 0 11.379455 5.110078 11.379455 11.3937078v4.0276756l-20.747591 20.7735777-4.022637-4.0276757 19.080501-19.1043995v-1.6691781c0-3.1418149-2.551843-5.6968539-5.689728-5.6968539h-1.66709l-27.615092 27.6496802c-4.799285 4.8081447-4.856182 12.1570862-4.856182 12.2282969v19.9389889h25.603773v-2.8484273c0-.2819943.073967-6.9501618 6.523273-13.4075456l19.914046-19.9389885c4.69687-4.7027529 4.853337-9.220358 4.856182-9.4112026v-45.5434983c0-3.14181487-2.551843-5.69685383-5.689727-5.69685383-3.137885 0-5.689728 2.55503896-5.689728 5.69685383v22.7874155h-5.689727v-22.7874155c0-6.28362978 5.103685-11.3937077 11.379455-11.3937077 6.275769 0 11.379455 5.11007792 11.379455 11.3937077v45.574831c0 .2819942-.073967 6.9501617-6.523273 13.4075455l-19.914046 19.9389886c-4.69687 4.7027528-4.853338 9.220358-4.856182 9.4112026z"></path><path d="m157.962264 125.698324h-5.718091v-17.458101h-37.167591v17.458101h-5.718091v-17.458101c0-3.20938 2.564563-5.819366 5.718091-5.819366h37.167591c3.153527 0 5.718091 2.609986 5.718091 5.819366z"></path><path d="m74.6415094 125.698324h-5.718091v-17.458101h-37.1675915v17.458101h-5.7180911v-17.458101c0-3.20938 2.5645639-5.819366 5.7180911-5.819366h37.1675915c3.1535272 0 5.718091 2.609986 5.718091 5.819366z"></path></g></g></svg> 