<?xml version="1.0" encoding="UTF-8"?> <!-- Generator: Adobe Illustrator 25.2.3, SVG Export Plug-In . SVG Version: 6.00 Build 0) --> <svg xmlns="http://www.w3.org/2000/svg" xmlns:xlink="http://www.w3.org/1999/xlink" version="1.1" id="Layer_1" x="0px" y="0px" viewBox="0 0 180 180" style="enable-background:new 0 0 180 180;" xml:space="preserve"> <style type="text/css"> .st0{fill:#6633FF;} </style> <g> <path class="st0" d="M90,3C42,3,3,42,3,90c0,48,39,87,87,87c47.9-0.1,86.9-39.1,87-87C177,42,138,3,90,3z M90,171.8 c-45.1,0-81.8-36.7-81.8-81.8S44.9,8.2,90,8.2s81.8,36.7,81.8,81.8S135.1,171.8,90,171.8z"></path> <path class="st0" d="M101.3,122.2l-1.9-1.4l22.5-56.2l0,0c0.3-1.3-0.4-2.6-1.6-3c-0.3-0.1-0.6-0.1-0.9-0.1c-1.1,0-2.1,0.7-2.4,1.7 l0,0.1L94.6,119l-2.3-0.3c-0.8-0.1-1.5-0.1-2.3-0.1c-7.8,0-14.8,4.7-17.7,12c-1.9,4.7-1.8,9.9,0.2,14.6s5.7,8.3,10.5,10.2 c2.2,0.9,4.4,1.4,6.9,1.4c7.8,0,14.9-4.8,17.7-12C110.9,136.5,108.3,127.3,101.3,122.2z M102.8,142.7c-1.4,3.6-4.1,6.4-7.5,7.8 c-1.7,0.7-3.5,1.1-5.3,1.1c-5.6,0-10.6-3.3-12.7-8.5l-0.2-0.6v-0.1c-1.2-3.2-1.2-6.6,0.1-9.9c1.4-3.5,4-6.2,7.4-7.6 c1.8-0.8,3.6-1.1,5.5-1.1c1.6,0,3.1,0.2,4.5,0.7h0.1l0.5,0.2C102.2,127.6,105.6,135.7,102.8,142.7z"></path> <path class="st0" d="M61.4,113.9H31.6c-1.4,0-2.6,1.2-2.6,2.6s1.2,2.6,2.6,2.6h29.8c1.4,0,2.6-1.2,2.6-2.6S62.8,113.9,61.4,113.9z"></path> <path class="st0" d="M149.1,113.9h-29.8c-1.4,0-2.6,1.2-2.6,2.6s1.2,2.6,2.6,2.6h29.8c1.4,0,2.6-1.2,2.6-2.6 S150.5,113.9,149.1,113.9z"></path> <path class="st0" d="M32.9,92.6h9c1.4,0,2.6-1.2,2.6-2.6s-1.2-2.6-2.6-2.6h-6.4l0.4-3.3c2.7-25.2,23-45.5,48.3-48.3l3.3-0.4v6.4 c0,1.4,1.2,2.6,2.6,2.6s2.6-1.2,2.6-2.6v-6.4l3.3,0.4c25.2,2.7,45.5,23,48.3,48.3l0.4,3.3h-6.4c-1.4,0-2.6,1.2-2.6,2.6 s1.2,2.6,2.6,2.6h9c1.4,0,2.6-1.2,2.6-2.6c0-32.9-26.8-59.7-59.7-59.7S30.3,57.1,30.3,90C30.3,91.4,31.5,92.6,32.9,92.6z"></path> </g> </svg> 