<?xml version="1.0" encoding="UTF-8"?> <!-- Generator: Adobe Illustrator 25.2.3, SVG Export Plug-In . SVG Version: 6.00 Build 0) --> <svg xmlns="http://www.w3.org/2000/svg" xmlns:xlink="http://www.w3.org/1999/xlink" version="1.1" id="Layer_1" x="0px" y="0px" viewBox="0 0 180 180" style="enable-background:new 0 0 180 180;" xml:space="preserve"> <style type="text/css"> .st0{fill:#6633FF;} </style> <path class="st0" d="M162.4,75.3c-1.8-0.4-3.6-0.7-5.4-0.7c-10,0-18.7,6.8-21.1,16.5c-2.5,9.8,2.2,20.2,11.3,24.8l2.5,1.3l-1,2.6 c-10.8,27.8-38.1,46.4-67.8,46.4c0,0,0,0,0,0c-6,0-12-0.7-17.9-2.2c-39-9.8-62.7-49.5-52.9-88.5C13.9,60,23,46,35.4,36.2 c13-10.3,28.6-15.7,45.2-15.7c17.3,0,34.1,6.2,47.3,17.4l6,5.1l-26.1,0.9c-0.9,0-1.7,0.4-2.3,1c-0.6,0.6-0.9,1.5-0.9,2.4 c0,1.8,1.5,3.3,3.3,3.3l0.3,0l35.8-1.3l-1.3-35.9c-0.1-1.8-1.5-3.2-3.3-3.2l-0.1,0c-0.9,0-1.7,0.4-2.3,1.1c-0.6,0.7-0.9,1.5-0.9,2.4 l0.8,23.1l-5.3-4.4c-14.3-11.9-32.3-18.4-50.9-18.4h-0.2C36.6,13.9,1,49.6,1.1,93.5c0.1,43.8,35.8,79.4,79.5,79.4h0.2 c33.4-0.1,63.4-21.2,74.7-52.6l0.7-1.9l2-0.1c9.6-0.5,17.6-7.1,19.9-16.4C181.2,90.1,174.1,78.2,162.4,75.3z M171.8,100.1 c-1,3.9-3.5,7.3-6.9,9.3c-2.4,1.4-5.1,2.2-7.8,2.2c-5.3,0-10.3-2.8-13.1-7.4c-2.1-3.4-2.7-7.7-1.7-11.5c1.7-6.8,7.8-11.5,14.7-11.5 h0c1.3,0,2.5,0.2,3.7,0.5C168.9,83.7,173.8,92,171.8,100.1z"></path> <path class="st0" d="M81.9,141.4c-2.1,0-3.7-1.7-3.7-3.7v-10l-2.9-0.4c-5.4-0.8-10.6-2.8-15.1-5.8l4.9-5.7 c4.7,2.9,10.2,4.4,15.7,4.4l0.6,0l0.1,0c0.1,0,0.2,0,0.3,0l0.3,0l0.1,0c3.1-0.2,6.2-0.8,9.1-1.9l0.1,0l0.1-0.1 c2.9-1.3,6.3-3.9,6.3-8.5c0-7.3-8.1-10.7-17.4-14.7c-9.8-4.1-20.9-8.8-20.9-19.9C59.6,68.4,63.7,62.4,70,60c1.8-0.8,3.6-1.3,5.5-1.8 l2.7-0.6V47.1c0-2.1,1.7-3.7,3.7-3.7c2.1,0,3.7,1.7,3.7,3.7v10.1l2.9,0.5c4.7,0.7,9.2,2.5,13.1,5.1l-4.9,5.8 c-4.1-2.5-8.9-3.8-13.7-3.8c-3.3,0-6.5,0.6-9.6,1.8l-0.2,0.1c-2.8,1.3-6.2,3.8-6.2,8.4c0,6.2,7.5,9.4,16.3,13.1 c9.8,4.2,22,9.3,22,21.6c-0.1,6.7-4.2,12.7-10.5,15.2l-0.1,0.1c-2,0.9-4.2,1.6-6.4,2.1l-2.7,0.6v10.2 C85.6,139.7,84,141.4,81.9,141.4z"></path> </svg> 