<?xml version="1.0" encoding="UTF-8"?> <svg xmlns="http://www.w3.org/2000/svg" xmlns:xlink="http://www.w3.org/1999/xlink" height="60" viewBox="0 0 64 60" width="64"><mask id="a" fill="#fff"><path d="m0 60h64v-60h-64z" fill="#fff" fill-rule="evenodd"></path></mask><g fill="#9d7cff" fill-rule="evenodd"><path d="m2 58h60v-35.844l-11.354 9.608c-.297.25-.712.306-1.067.143-.353-.164-.579-.517-.579-.907v-8.844l-11.354 9.608c-.297.25-.713.306-1.067.143-.353-.164-.579-.517-.579-.907v-8.844l-11.354 9.608c-.297.25-.713.306-1.067.143-.353-.164-.579-.517-.579-.907v-8.739l-9 8.181v21.558h-2v-21.905l-3.827-20.095h-2.346l-3.827 20.095zm61 2h-62c-.553 0-1-.447-1-1v-29c0-.062.006-.125.018-.187l4-21.001c.089-.471.502-.812.982-.812h4c.48 0 .893.341.982.812l3.666 19.248 9.679-8.8c.292-.265.716-.334 1.077-.174.363.16.596.518.596.914v8.844l11.354-9.608c.296-.251.711-.308 1.067-.143.353.164.579.517.579.907v8.844l11.354-9.608c.296-.251.711-.308 1.067-.143.353.164.579.517.579.907v8.844l11.354-9.608c.296-.251.712-.308 1.067-.143.353.164.579.517.579.907v39c0 .553-.447 1-1 1z"></path><path d="m28 6c-2.128 0-3.662-2.192-3.83-2.442-.274-.403-1.264-1.558-2.17-1.558-.933 0-1.949 1.229-2.17 1.558-.168.25-1.702 2.442-3.83 2.442s-3.662-2.192-3.83-2.442c-.274-.403-1.264-1.558-2.17-1.558v-2c2.128 0 3.662 2.192 3.83 2.442.274.403 1.264 1.558 2.17 1.558.933 0 1.949-1.229 2.17-1.558.168-.25 1.702-2.442 3.83-2.442s3.662 2.192 3.83 2.442c.274.403 1.264 1.558 2.17 1.558.933 0 1.949-1.229 2.17-1.558.168-.25 1.702-2.442 3.83-2.442v2c-.933 0-1.949 1.229-2.17 1.558-.168.25-1.702 2.442-3.83 2.442"></path><path d="m8 4h-2c0-2.206 1.794-4 4-4v2c-1.103 0-2 .897-2 2"></path><path d="m6 6h2v-2h-2z" mask="url(#a)"></path><path d="m6 46h2v-2h-2z" mask="url(#a)"></path><path d="m6 50h2v-2h-2z" mask="url(#a)"></path><path d="m6 42h2v-2h-2z" mask="url(#a)"></path><path d="m6 38h2v-2h-2z" mask="url(#a)"></path><path d="m21 40h4v-2h-4zm-2 2h8v-6h-8z" mask="url(#a)"></path><path d="m21 48h4v-2h-4zm-2 2h8v-6h-8z" mask="url(#a)"></path><path d="m31 40h4v-2h-4zm-2 2h8v-6h-8z" mask="url(#a)"></path><path d="m31 48h4v-2h-4zm-2 2h8v-6h-8z" mask="url(#a)"></path><path d="m41 40h4v-2h-4zm-2 2h8v-6h-8z" mask="url(#a)"></path><path d="m41 48h4v-2h-4zm-2 2h8v-6h-8z" mask="url(#a)"></path><path d="m51 40h4v-2h-4zm-2 2h8v-6h-8z" mask="url(#a)"></path><path d="m51 48h4v-2h-4zm-2 2h8v-6h-8z" mask="url(#a)"></path><path d="m16 56h44v-2h-44z" mask="url(#a)"></path><path d="m4 16h6v-2h-6z" mask="url(#a)"></path><path d="m14 59h-2v-3h-11v-2h13z" mask="url(#a)"></path></g></svg> 