<?xml version="1.0" encoding="UTF-8"?> <svg xmlns="http://www.w3.org/2000/svg" xmlns:xlink="http://www.w3.org/1999/xlink" width="56px" height="88px" viewBox="0 0 56 88"><!-- Generator: Sketch 51.3 (57544) - http://www.bohemiancoding.com/sketch --><title>Shape</title><desc>Created with Sketch.</desc><defs></defs><g id="Desktop-&amp;-Mobile" stroke="none" stroke-width="1" fill="none" fill-rule="evenodd"><g id="Technology---Desktop" transform="translate(-924.000000, -1834.000000)" fill="#8D66D1" fill-rule="nonzero"><g id="Group-19-Copy-3" transform="translate(0.000000, 1099.000000)"><g id="Group-12" transform="translate(920.000000, 735.000000)"><path d="M32.0005718,19.4348471 C27.2704169,19.4361211 23.4367825,23.2713827 23.4376319,28.0014215 C23.4384812,32.7314602 27.2734928,36.5653448 32.0036478,36.5649202 C36.7338028,36.5644957 40.568126,32.7299227 40.5681262,27.9998838 C40.5681262,25.7278951 39.6654022,23.5489947 38.0586077,21.9426724 C36.4518132,20.3363501 34.2726163,19.4342351 32.0005718,19.4348471 Z M32.0005718,3.10861157e-15 C24.5742646,-0.000305960683 17.4520319,2.94957508 12.2008397,8.20063821 C6.94964755,13.4517013 3.99969403,20.5737591 4,27.9998838 C4.00883637,39.4244432 10.9503913,49.7005215 21.5457791,53.9741509 C26.0158577,55.7840556 28.0449849,58.9343742 28.0449849,62.3765385 C28.0282545,64.6829325 27.1114042,66.8915976 25.4898304,68.5318295 C22.9704364,71.1411377 21.1212659,73.7527529 21.1212659,77.232984 C21.1826858,83.1972931 26.0352232,88 31.999995,88 C37.9647669,88 42.8173042,83.1972931 42.8787242,77.232984 C42.8787242,73.8727211 41.1483712,71.0165553 38.5113133,68.5329831 C36.8482086,66.9200113 35.9231279,64.6931125 35.9538516,62.3765385 C35.9538516,58.9309136 38.4917026,55.5602688 42.4542109,53.9741509 C53.0617248,49.7155271 60.0096018,39.4300897 59.99999,27.9998838 C59.9999901,12.5364255 47.4644101,0.00063706416 32.0005718,3.10861157e-15 Z M32.0005718,80.9785294 C30.4900588,80.978996 29.1280429,80.0694047 28.549779,78.6739961 C27.9715151,77.2785876 28.2909157,75.6722437 29.3590098,74.6041759 C30.4271038,73.5361081 32.0334872,73.2167153 33.4289301,73.794965 C34.8243729,74.3732146 35.7339865,75.7351971 35.73352,77.245673 C35.73352,79.3072727 34.0622221,80.9785294 32.0005718,80.9785294 Z M32.0005718,48.1868392 C20.8513503,48.1868392 11.8131205,39.1488314 11.8131205,27.9998838 C11.8131205,16.8509362 20.8513503,7.81292849 32.0005718,7.81292849 C43.1497933,7.81292849 52.1880232,16.8509362 52.1880232,27.9998838 C52.1861121,39.1474799 43.148442,48.1833787 32.0005718,48.1833785 L32.0005718,48.1868392 Z" id="Shape"></path></g></g></g></g></svg> 