<?xml version="1.0" encoding="UTF-8"?> <svg xmlns="http://www.w3.org/2000/svg" xmlns:xlink="http://www.w3.org/1999/xlink" width="78px" height="62px" viewBox="0 0 78 62"><!-- Generator: Sketch 51.3 (57544) - http://www.bohemiancoding.com/sketch --><title>Shape</title><desc>Created with Sketch.</desc><defs></defs><g id="Desktop-&amp;-Mobile" stroke="none" stroke-width="1" fill="none" fill-rule="evenodd"><g id="Technology---Desktop" transform="translate(-1290.000000, -1536.000000)" fill="#8D66D1" fill-rule="nonzero"><g id="Group-19-Copy-3" transform="translate(0.000000, 1099.000000)"><path d="M1352.5,475.005 C1351.32885,476.1765 1351.32885,478.0755 1352.5,479.247 L1356.394,483.147 L1355.933,483.147 C1351.5878,483.157431 1347.41903,481.428997 1344.356,478.347 L1333.589,467.579 L1344.357,456.811 C1347.42079,453.730743 1351.5895,452.004135 1355.934,452.016 L1356.4,452.016 L1352.5,455.91 C1351.72013,456.663223 1351.40736,457.778634 1351.68191,458.827522 C1351.95645,459.87641 1352.77559,460.695545 1353.82448,460.970091 C1354.87337,461.244638 1355.98878,460.93187 1356.742,460.152 L1367.881,449.016 L1356.743,437.879 C1355.56886,436.723553 1353.68267,436.73101 1352.5177,437.895705 C1351.35273,439.060401 1351.34483,440.946585 1352.5,442.121 L1356.4,446.016 L1355.939,446.016 C1350.00232,445.999849 1344.30584,448.359099 1340.119,452.568 L1329.346,463.336 L1318.579,452.569 C1316.16343,450.146113 1313.22,448.315022 1309.979,447.219 C1309.09917,442.330619 1304.79075,438.810889 1299.82511,438.923859 C1294.85947,439.03683 1290.71557,442.748855 1290.05897,447.67219 C1289.40236,452.595526 1292.42861,457.263804 1297.19109,458.674176 C1301.95357,460.084548 1307.03382,457.816948 1309.164,453.33 C1311.09765,454.145735 1312.85526,455.327777 1314.34,456.811 L1325.1,467.578 L1314.336,478.346 C1312.85233,479.830057 1311.09487,481.012224 1309.161,481.827 C1307.03252,477.350271 1301.96169,475.089496 1297.20917,476.498404 C1292.45664,477.907313 1289.43726,482.566468 1290.09255,487.479931 C1290.74784,492.393393 1294.88272,496.098413 1299.83837,496.21258 C1304.79402,496.326747 1309.09514,492.816073 1309.976,487.938 C1313.21666,486.841742 1316.15997,485.011069 1318.576,482.589 L1329.347,471.821 L1340.114,482.588 C1344.30038,486.797824 1349.99698,489.157845 1355.934,489.142 L1356.4,489.142 L1352.5,493.036 C1351.72013,493.789223 1351.40736,494.904634 1351.68191,495.953522 C1351.95645,497.00241 1352.77559,497.821545 1353.82448,498.096091 C1354.87337,498.370638 1355.98878,498.05787 1356.742,497.278 L1367.881,486.142 L1356.743,475.005 C1356.18038,474.442281 1355.41724,474.126141 1354.6215,474.126141 C1353.82576,474.126141 1353.06262,474.442281 1352.5,475.005 Z M1300.073,453.089 C1297.82354,453.089 1296,451.265456 1296,449.016 C1296,446.766544 1297.82354,444.943 1300.073,444.943 C1302.32246,444.943 1304.146,446.766544 1304.146,449.016 C1304.14545,451.265227 1302.32223,453.088448 1300.073,453.089 Z M1300.073,490.215 C1297.82354,490.215 1296,488.391456 1296,486.142 C1296,483.892544 1297.82354,482.069 1300.073,482.069 C1302.32246,482.069 1304.146,483.892544 1304.146,486.142 C1304.14545,488.391227 1302.32223,490.214448 1300.073,490.215 Z" id="Shape" transform="translate(1328.925369, 467.605607) scale(-1, 1) translate(-1328.925369, -467.605607) "></path></g></g></g></svg> 