<?xml version="1.0" encoding="UTF-8"?> <svg xmlns="http://www.w3.org/2000/svg" xmlns:xlink="http://www.w3.org/1999/xlink" width="81px" height="77px" viewBox="0 0 81 77"><!-- Generator: Sketch 51.3 (57544) - http://www.bohemiancoding.com/sketch --><title>Shape</title><desc>Created with Sketch.</desc><defs></defs><g id="Desktop-&amp;-Mobile" stroke="none" stroke-width="1" fill="none" fill-rule="evenodd"><g id="Technology---Desktop" transform="translate(-1289.000000, -1848.000000)" fill="#8D66D1" fill-rule="nonzero"><g id="Group-19-Copy-3" transform="translate(0.000000, 1099.000000)"><g id="Group-11" transform="translate(1289.000000, 749.000000)"><path d="M73.5576415,62.5082225 L68.5406415,67.5252225 L68.5406415,61.8512225 C68.5316824,52.1241041 63.1322913,43.2032874 54.5186415,38.6842225 C63.1322928,34.1656639 68.5317597,25.2451069 68.5406415,15.5182225 L68.5406415,9.84322248 L73.5576415,14.8582225 C74.7347781,15.9951391 76.6058958,15.9788796 77.7630972,14.8216782 C78.9202986,13.6644768 78.9365581,11.7933591 77.7996415,10.6162225 L67.6626415,0.480222481 L65.5406415,-1.64177752 L63.4186415,0.479222481 L53.2806415,10.6182225 C52.4700294,11.363951 52.1332566,12.4939197 52.4033628,13.5617426 C52.673469,14.6295655 53.5070124,15.4635023 54.5747077,15.7341123 C55.6424031,16.0047223 56.7725305,15.6684827 57.5186415,14.8582225 L62.5366415,9.84122248 L62.5366415,15.5182225 C62.5234202,26.6489448 53.5043617,35.6693453 42.3736415,35.6842225 L25.7786415,35.6842225 C24.1870883,29.8004182 18.4660012,26.0202374 12.4293924,26.8637703 C6.39278351,27.7073032 1.92706257,32.9109501 2.00934108,39.0056548 C2.09161959,45.1003594 6.69618594,50.1815575 12.7533661,50.8618243 C18.8105463,51.542091 24.4275021,47.6088466 25.8596415,41.6842225 L42.3736415,41.6842225 C53.5063137,41.6968974 62.5279666,50.7185503 62.5406415,61.8512225 L62.5406415,67.5252225 L57.5186415,62.5082225 C56.765418,61.7283527 55.6500078,61.4155847 54.6011195,61.690131 C53.5522312,61.9646773 52.7330963,62.7838122 52.45855,63.8327005 C52.1840037,64.8815888 52.4967717,65.9969991 53.2766415,66.7502225 L63.4186415,76.8882225 L65.5396415,79.0082225 L67.6596415,76.8882225 L77.7996415,66.7502225 C78.9365581,65.5730858 78.9202986,63.7019681 77.7630972,62.5447668 C76.6058958,61.3875654 74.7347781,61.3713059 73.5576415,62.5082225 Z M14.1186415,44.9372225 C11.6509669,44.9372217 9.42636992,43.4504628 8.48249953,41.1704351 C7.53862915,38.8904074 8.06143633,36.2662968 9.80706099,34.522103 C11.5526857,32.7779092 14.1772241,32.257254 16.456477,33.2029937 C18.73573,34.1487334 20.2206641,36.3745488 20.2186415,38.8422225 C20.2158816,42.2092067 17.4856268,44.9372236 14.1186415,44.9372225 Z" id="Shape" transform="translate(40.325000, 38.683222) rotate(-90.000000) translate(-40.325000, -38.683222) "></path></g></g></g></g></svg> 