<?xml version="1.0" encoding="UTF-8"?> <svg xmlns="http://www.w3.org/2000/svg" xmlns:xlink="http://www.w3.org/1999/xlink" width="69px" height="73px" viewBox="0 0 69 73"><!-- Generator: Sketch 51.3 (57544) - http://www.bohemiancoding.com/sketch --><title>Shape</title><desc>Created with Sketch.</desc><defs></defs><g id="Desktop-&amp;-Mobile" stroke="none" stroke-width="1" fill="none" fill-rule="evenodd"><g id="Technology---Desktop" transform="translate(-920.000000, -1530.000000)" fill="#8D66D1" fill-rule="nonzero"><g id="Group-19-Copy-3" transform="translate(0.000000, 1099.000000)"><path d="M988.908,479.774 L987.273,474 L977.65,476.727 L966.062,470.255 C966.607385,468.238168 966.60186,466.111971 966.046,464.098 L977.6,457.564 L987.237,460.238 L988.837,454.456 L980.893,452.256 L983.093,444.313 L977.311,442.713 L974.638,452.349 L963.094,458.874 C961.554297,457.277864 959.601854,456.140323 957.454,455.588 L957.454,442.314 L964.526,435.243 L960.283,431 L954.454,436.829 L948.625,431 L944.382,435.243 L951.454,442.314 L951.454,455.588 C949.285339,456.147151 947.316429,457.302032 945.77,458.922 L934.183,452.451 L931.458,442.828 L925.685,444.463 L927.932,452.4 L920,454.642 L921.635,460.415 L931.258,457.689 L942.846,464.161 C942.300615,466.177832 942.30614,468.304029 942.862,470.318 L931.31,476.852 L921.672,474.178 L920.068,479.96 L928.012,482.16 L925.812,490.103 L931.594,491.703 L934.268,482.067 L945.818,475.534 C947.357866,477.129928 949.310247,478.267432 951.458,478.82 L951.458,492.1 L944.386,499.171 L948.629,503.414 L954.458,497.585 L960.287,503.414 L964.53,499.171 L957.454,492.1 L957.454,478.828 C959.622845,478.269297 961.591871,477.114348 963.138,475.494 L974.725,481.965 L977.451,491.588 L983.224,489.953 L980.977,482.021 L988.908,479.774 Z M954.454,473.221 C951.133112,473.221 948.441,470.528888 948.441,467.208 C948.441,463.887112 951.133112,461.195 954.454,461.195 C957.774888,461.195 960.467,463.887112 960.467,467.208 C960.463143,470.527289 957.773289,473.217143 954.454,473.221 Z" id="Shape"></path></g></g></g></svg> 