<?xml version="1.0" standalone="no"?>
<!DOCTYPE svg PUBLIC "-//W3C//DTD SVG 1.1//EN" "http://www.w3.org/Graphics/SVG/1.1/DTD/svg11.dtd" >
<svg>
<metadata>
Created by FontForge 20120731 at Mon Jan 21 06:22:50 2019
 By www-data
2013 published by Oak Studios, LLC
</metadata>
<defs>
<font id="SSSocialRegular" horiz-adv-x="2048" >
  <font-face 
    font-family="SS Social"
    font-weight="400"
    font-stretch="normal"
    units-per-em="2048"
    panose-1="2 0 0 0 0 0 0 0 0 0"
    ascent="2048"
    descent="0"
    x-height="1076"
    cap-height="1479"
    bbox="-43 -472 2304 2197.08"
    underline-thickness="128"
    underline-position="-128"
    unicode-range="U+0020-1F517"
  />
<missing-glyph 
 />
    <glyph glyph-name=".notdef" unicode="DFLT" 
 />
    <glyph glyph-name="facebook" unicode="FACEBOOK" 
d="M2048 1920v-1792c0 -70 -58 -128 -128 -128h-512v796h256l43 295h-299v232c0 84 43 132 128 132h192v266s-86 14 -210 14c-281 0 -423 -156 -423 -389v-255h-256v-295h256v-796h-967c-70 0 -128 58 -128 128v1792c0 70 58 128 128 128h1792c70 0 128 -58 128 -128z" />
    <glyph glyph-name="twitter" unicode="TWITTER" 
d="M2048 1681c-57 -86 -128 -159 -209 -218v-55c0 -555 -422 -1195 -1194 -1195c-237 0 -460 52 -645 171c33 -5 66 -7 100 -7c196 0 379 85 521 199c-182 2 -339 126 -391 292c26 -5 52 -8 78 -8c38 0 76 5 112 15c-192 38 -337 208 -337 412v5c57 -31 121 -50 190 -52
c-114 76 -188 204 -188 348c0 78 22 142 57 204c209 -254 517 -412 865 -431c-7 30 -9 64 -9 97c0 232 187 419 419 419c121 0 230 -52 309 -132c94 19 185 54 265 102c-31 -98 -97 -181 -185 -233c86 10 166 33 242 67z" />
    <glyph glyph-name="linkedin" unicode="LINKEDIN" 
d="M43 1323h426v-1323h-426v1323zM1152 0v768c0 171 109 256 237 256s232 -85 232 -299v-725h427v768c0 384 -213 597 -512 597c-171 0 -299 -97 -384 -225l-14 183h-420c0 -45 7 -299 7 -299v-1024h427zM254 1536v0h-3c-151 0 -251 104 -251 235c0 132 102 234 258 234
c154 0 252 -102 254 -234c0 -131 -100 -235 -258 -235z" />
    <glyph glyph-name="googleplus" unicode="GOOGLE&#x20;PLUS" 
d="M2048 1579v-86h-341v-341h-86v341h-341v86h341v341h86v-341h341zM889 882c140 -102 187 -195 187 -349c0 -194 -187 -386 -528 -386c-297 0 -548 121 -548 315c0 197 230 387 526 387h93c-41 40 -71 87 -71 147c0 35 9 71 26 101c-17 -2 -34 -2 -50 -2
c-244 0 -408 173 -408 389c0 211 225 393 467 393h536l-121 -87h-171c114 -43 173 -173 173 -309c0 -113 -61 -210 -151 -279c-86 -69 -102 -97 -102 -154c0 -50 92 -133 142 -166zM602 1150c138 -5 230 139 206 320c-23 182 -154 327 -294 331c-137 5 -230 -135 -206 -315
c24 -182 157 -332 294 -336zM548 232c289 0 388 124 388 280c0 19 -2 36 -4 55c-24 87 -105 132 -216 210c-40 12 -85 19 -133 22c-206 0 -389 -126 -389 -280c0 -156 147 -287 354 -287z" />
    <glyph glyph-name="tumblr" unicode="TUMBLR" 
d="M1664 111c0 0 -171 -111 -469 -111c-384 0 -555 171 -555 512v640h-299v299c256 85 427 213 470 597h298v-512h470v-384h-470v-512c0 -213 43 -299 256 -299c128 0 299 86 299 86v-316z" />
    <glyph glyph-name="appdotnet" unicode="APP&#x20;DOT&#x20;NET" 
d="M1983 563c41 0 65 -29 65 -76c0 -129 -111 -359 -364 -359c-204 0 -343 145 -447 375c-178 -253 -370 -375 -591 -375c-282 0 -646 195 -646 893c0 651 317 899 651 899c343 0 527 -343 622 -617c58 157 117 339 176 547c18 52 42 70 88 70h194c41 0 76 -18 65 -59
c-124 -431 -248 -778 -378 -1045c96 -275 181 -364 266 -364c47 0 71 23 82 53c12 29 36 58 88 58h129zM634 462c162 0 314 137 468 439c-117 444 -246 685 -462 685c-182 0 -370 -119 -370 -553c0 -493 217 -571 364 -571z" />
    <glyph glyph-name="zerply" unicode="ZERPLY" 
d="M1447 0c-157 0 -269 90 -399 184c-153 116 -323 237 -610 237c-67 0 -121 -9 -166 -18c-40 135 -9 265 157 435c226 237 567 633 721 820c-123 -19 -245 -27 -326 -27c-122 0 -283 23 -283 144s130 273 130 273c90 -63 278 -90 489 -90c170 0 358 18 515 50
c0 0 9 -27 9 -81c0 -94 -54 -161 -184 -305c-335 -379 -633 -678 -837 -928c217 -25 339 -101 456 -174c121 -81 233 -157 435 -157c81 0 139 13 224 90c67 -269 -130 -453 -331 -453z" />
    <glyph glyph-name="reddit" unicode="REDDIT" 
d="M2091 1088c0 -80 -41 -151 -102 -194c11 -41 16 -83 16 -126c0 -377 -439 -683 -981 -683s-981 306 -981 683c0 43 5 85 16 126c-61 43 -102 114 -102 194c0 130 105 235 235 235c60 0 115 -23 156 -60c174 114 407 185 664 188l133 400c8 25 34 40 60 35l352 -71
c32 63 96 105 171 105c106 0 192 -86 192 -192s-86 -192 -192 -192c-101 0 -184 78 -191 177l-307 62l-109 -328c223 -15 425 -82 579 -184c41 37 96 60 156 60c130 0 235 -105 235 -235zM555 917c0 -82 67 -149 149 -149s149 67 149 149c0 83 -67 150 -149 150
s-149 -67 -149 -150zM1378 453c20 17 24 46 8 67c-16 20 -46 24 -67 8c-79 -62 -184 -97 -295 -97s-216 35 -295 97c-21 16 -51 12 -67 -8c-16 -21 -12 -50 8 -67c96 -75 222 -116 354 -116s258 41 354 116zM1344 768c82 0 149 67 149 149c0 83 -67 150 -149 150
s-149 -67 -149 -150c0 -82 67 -149 149 -149z" />
    <glyph glyph-name="steam" unicode="STEAM" 
d="M1771 1472c153 0 277 -124 277 -277c0 -148 -116 -269 -261 -277l-272 -195c-2 -117 -97 -211 -214 -211c-100 0 -185 70 -207 163l-775 334c-31 -17 -67 -28 -106 -28c-118 0 -213 96 -213 214s95 213 213 213c101 0 185 -70 208 -163l774 -334c32 17 68 28 106 28h1
l191 256c1 153 125 277 278 277zM347 1265c9 7 11 21 4 30c-32 44 -83 70 -138 70c-94 0 -170 -76 -170 -170s76 -171 170 -171c9 0 17 1 24 2c12 1 20 12 18 24c-1 11 -12 20 -24 18c-6 -1 -11 -1 -18 -1c-70 0 -128 57 -128 128c0 70 58 128 128 128c41 0 80 -20 104 -53
c7 -9 20 -12 30 -5zM1301 555c95 0 171 76 171 170s-76 171 -171 171c-8 0 -16 -1 -24 -2c-11 -1 -20 -12 -18 -24c2 -11 13 -20 24 -18c6 1 12 1 18 1c71 0 128 -57 128 -128c0 -70 -57 -128 -128 -128c-40 0 -79 20 -103 53c-7 9 -20 12 -30 5c-9 -7 -11 -21 -5 -30
c32 -44 84 -70 138 -70zM1771 1003c106 0 192 86 192 192s-86 192 -192 192s-192 -86 -192 -192s86 -192 192 -192zM1920 1195c0 82 -67 149 -149 149c-83 0 -150 -67 -150 -149c0 -83 67 -150 150 -150c82 0 149 67 149 150z" />
    <glyph glyph-name="wordpress" unicode="WORDPRESS" 
d="M1024 2048c567 0 1024 -457 1024 -1024s-457 -1024 -1024 -1024s-1024 457 -1024 1024s457 1024 1024 1024zM1024 128c495 0 896 401 896 896s-401 896 -896 896s-896 -401 -896 -896s401 -896 896 -896zM320 1332c-40 -95 -64 -199 -64 -308c0 -303 175 -564 429 -690z
M1275 299l-242 659l-227 -671c69 -19 142 -31 218 -31c88 0 173 14 251 43zM1474 1275c-38 64 -73 116 -73 180c0 72 52 138 128 138h9c-135 123 -315 199 -514 199c-268 0 -505 -137 -642 -346h47c78 0 204 9 204 9c40 3 45 -59 5 -64c0 0 -43 -4 -88 -7l280 -832l168 505
l-121 327c-40 3 -81 7 -81 7c-40 3 -35 67 5 64c0 0 128 -9 204 -9c81 0 204 9 204 9c43 3 47 -59 5 -64c0 0 -41 -4 -88 -7l277 -825l76 256c33 107 59 183 59 249c0 95 -33 161 -64 211zM1792 1024c0 133 -33 258 -95 367c5 -23 5 -49 5 -78c0 -78 -14 -166 -57 -275
l-235 -678c228 133 382 380 382 664z" />
    <glyph glyph-name="blogger" unicode="BLOGGER" 
d="M1920 1280c71 0 128 -57 128 -128v-512c0 -353 -287 -640 -640 -640h-768c-353 0 -640 287 -640 640v768c0 353 287 640 640 640h384c353 0 640 -287 640 -640c0 -71 47 -128 107 -128h149zM640 1536c-71 0 -128 -57 -128 -128s57 -128 128 -128h384c71 0 128 57 128 128
s-57 128 -128 128h-384zM1408 512c71 0 128 57 128 128s-57 128 -128 128h-768c-71 0 -128 -57 -128 -128s57 -128 128 -128h768z" />
    <glyph glyph-name="posterous" unicode="POSTEROUS" 
d="M1109 2048c384 0 640 -299 640 -725c0 -446 -256 -768 -663 -768c-202 0 -344 106 -427 234h-19v-789h-256v1664l-14 341h227l41 -237h16c90 152 247 280 455 280zM1045 744c235 0 448 195 448 579c0 341 -213 535 -441 535c-187 0 -412 -168 -412 -450v-256
c0 -256 213 -408 405 -408z" />
    <glyph glyph-name="quora" unicode="QUORA" 
d="M1710 183h19l26 -171c-48 -20 -99 -28 -149 -28c-154 0 -302 91 -378 248c-74 -17 -152 -27 -233 -27c-533 0 -867 340 -867 929c0 533 393 914 923 914s869 -325 869 -914c0 -349 -168 -638 -433 -797c63 -110 130 -154 223 -154zM1037 772c123 0 241 -66 320 -174
c87 116 136 295 136 536c0 468 -182 684 -470 684c-289 0 -468 -244 -468 -684c0 -522 179 -699 468 -699c41 0 80 5 116 15c-51 98 -105 137 -186 137c-9 0 -20 -3 -31 -3l-28 157c47 20 95 31 143 31z" />
    <glyph glyph-name="youtube" unicode="YOUTUBE" 
d="M1024 1749c1024 0 1024 0 1024 -725s0 -725 -1024 -725s-1024 0 -1024 725s0 725 1024 725zM768 640l640 384l-640 384v-768z" />
    <glyph glyph-name="vimeo" unicode="VIMEO" 
d="M1195 1451c85 341 384 469 554 469c171 0 299 -137 299 -346c0 -550 -811 -1446 -1086 -1446c-237 0 -324 256 -365 384l-256 811c-33 102 -85 128 -256 0l-85 104s384 493 640 493s265 -384 299 -597c33 -216 99 -555 185 -555c85 0 327 384 327 555
c0 128 -86 213 -256 128z" />
    <glyph glyph-name="vine" unicode="VINE" 
d="M1903 986v-246c-70 -2 -137 3 -199 14c-134 -290 -329 -533 -588 -726c-23 -19 -52 -33 -85 -33c-28 0 -57 14 -81 29c-492 341 -796 972 -796 1725h294c0 -606 213 -1123 578 -1422c171 147 306 326 402 528c-265 158 -402 454 -402 757c0 232 157 436 436 436
c280 0 441 -213 441 -436c0 -147 -19 -270 -37 -417h-294c14 114 38 260 38 403c0 113 -57 161 -148 161c-94 0 -142 -52 -142 -161c0 -327 218 -612 583 -612z" />
    <glyph glyph-name="letterboxd" unicode="LETTERBOXD" 
d="M512 341v1366h-256v341h896v-341h-256v-1366h555v384h403v-725h-1598v341h256z" />
    <glyph glyph-name="flickr" unicode="FLICKR" 
d="M939 1024c0 -258 -211 -469 -470 -469c-258 0 -469 211 -469 469s211 469 469 469c259 0 470 -211 470 -469zM2048 1024c0 -258 -211 -469 -469 -469c-259 0 -470 211 -470 469s211 469 470 469c258 0 469 -211 469 -469z" />
    <glyph glyph-name="instagram" unicode="INSTAGRAM" 
d="M1749 2048c165 0 299 -134 299 -299v-1450c0 -165 -134 -299 -299 -299h-1450c-165 0 -299 134 -299 299v1450c0 165 134 299 299 299h1450zM1024 1408c-212 0 -384 -172 -384 -384s172 -384 384 -384s384 172 384 384s-172 384 -384 384zM1835 256v896h-227
c9 -41 13 -84 13 -128c0 -330 -267 -597 -597 -597s-597 267 -597 597c0 44 4 87 13 128h-227v-896c0 -24 19 -43 43 -43h1536c24 0 43 19 43 43zM1835 1536v256c0 24 -19 43 -43 43h-256c-24 0 -43 -19 -43 -43v-256c0 -24 19 -43 43 -43h256c24 0 43 19 43 43z" />
    <glyph glyph-name="fivehundredpx" unicode="FIVE&#x20;HUNDRED&#x20;PIXELS" 
d="M1571 790c138 0 215 104 215 233s-86 237 -224 237c-147 0 -279 -146 -368 -242c91 -108 215 -228 377 -228zM490 508c-295 0 -490 220 -490 517c0 284 177 515 477 515c249 0 400 -158 548 -335c140 169 302 335 542 335c304 0 481 -222 481 -510
c0 -285 -188 -522 -484 -522c-226 0 -399 153 -539 317c-155 -162 -290 -317 -535 -317zM486 790c133 0 279 120 370 228c-91 98 -237 242 -379 242c-129 0 -213 -117 -213 -241c0 -134 84 -229 222 -229z" />
    <glyph glyph-name="etsy" unicode="ETSY" 
d="M1905 609l-74 -609c-748 14 -1123 14 -1251 14s-345 -5 -495 -14v121c256 28 282 64 287 178c7 156 12 457 12 723c0 265 -7 573 -14 730c-5 114 -29 149 -285 177v121c323 -16 561 -19 905 -19c343 0 535 0 817 31l-33 -588h-111c-69 332 -135 425 -278 425h-637
c-36 0 -48 -10 -48 -48v-763c592 2 551 -26 614 320h114c-6 -88 -20 -235 -20 -384s10 -301 13 -365h-114c-63 324 -24 299 -607 301v-626c0 -125 67 -185 190 -185h450c226 0 311 38 460 460h105z" />
    <glyph glyph-name="pinterest" unicode="PINTEREST" 
d="M1071 2048c451 0 745 -325 745 -673c0 -462 -256 -806 -633 -806c-128 0 -247 66 -289 144c0 0 -67 -270 -83 -322c-50 -185 -199 -370 -211 -384c-10 -12 -26 -7 -29 5c-2 24 -40 258 5 448c21 95 149 640 149 640s-35 76 -35 187c0 176 99 304 225 304
c107 0 159 -79 159 -176c0 -107 -69 -268 -105 -417c-28 -126 64 -228 188 -228c223 0 372 287 372 626c0 259 -173 451 -488 451c-358 0 -581 -266 -581 -562c0 -105 31 -176 78 -233c21 -26 24 -35 17 -64c-5 -23 -19 -75 -24 -94c-7 -31 -31 -41 -59 -31
c-164 69 -240 249 -240 450c0 334 280 735 839 735z" />
    <glyph glyph-name="svpply" unicode="SVPPLY" 
d="M2304 1664v-85h-85c-86 0 -152 -67 -211 -211c0 0 -377 -958 -387 -984v0h-85l-417 1124c-22 56 -52 71 -138 71h-85v85h683v-85h-214l308 -849l268 678c38 102 22 171 -64 171h-85v85h512zM939 768c0 -213 -128 -408 -384 -408c-197 0 -342 109 -418 207l-52 -183h-85
v512h85c128 -341 316 -450 460 -450c159 0 266 102 266 206c0 102 -36 168 -204 218l-315 95c-188 59 -304 173 -304 379c0 235 171 344 353 344c173 0 287 -86 349 -161l35 137h86v-427h-86c-54 233 -215 375 -386 375s-235 -119 -235 -204c0 -73 60 -133 180 -171
c121 -38 140 -45 335 -102c196 -56 320 -170 320 -367z" />
    <glyph glyph-name="readmill" unicode="READMILL" 
d="M384 1408l469 -128v171l-469 128v-171zM384 1109l469 -128v171l-469 128v-171zM384 811l469 -128v170l-469 128v-170zM1664 1408l-469 -128v171l469 128v-171zM1664 1109l-469 -128v171l469 128v-171zM1664 811l-469 -128v170l469 128v-170zM1887 1901
c21 -14 33 -40 33 -66v-1280c0 -38 -26 -74 -64 -83l-735 -197c19 -85 62 -140 140 -202c5 -2 5 -7 5 -9c-3 -5 -5 -7 -10 -7l-109 -14l-9 -162c0 -4 -3 -7 -7 -9h-3c-2 0 -4 0 -7 2c-104 102 -159 216 -175 396l-754 202c-38 9 -64 45 -64 83v1280c0 26 12 52 33 66
c22 17 48 24 74 17l640 -173c57 -15 109 -48 149 -93c40 45 92 78 149 93l640 173c24 7 52 0 74 -17zM939 448v998c0 57 -50 118 -107 135l-533 142v-1102zM1749 621v1102l-533 -142c-57 -17 -107 -78 -107 -135v-998z" />
    <glyph glyph-name="dropbox" unicode="DROPBOX" 
d="M2048 915l-602 -391l-422 351l607 374zM0 915l602 -391l422 351l-607 374zM0 1583l602 394l422 -353l-607 -375zM2048 1583l-602 394l-422 -353l607 -375zM1024 71l604 363v123l-184 -118l-420 346l-417 -346l-185 118v-123z" />
    <glyph glyph-name="pinboard" unicode="PINBOARD" 
d="M2036 12c-9 -8 -20 -12 -31 -12c-9 0 -19 3 -27 10l-838 686l-384 -385c-9 -8 -20 -12 -31 -12c-8 0 -15 2 -22 6c-17 11 -24 32 -18 51l111 315l-626 731l-49 -49c-13 -14 -32 -21 -50 -21s-36 7 -50 21c-28 28 -28 73 0 100l574 574c27 28 72 28 100 0s28 -73 0 -100
l-49 -49l731 -626l315 111c19 6 40 -1 51 -18c10 -16 8 -38 -6 -53l-385 -384l686 -838c14 -17 13 -42 -2 -58z" />
    <glyph glyph-name="delicious" unicode="DELICIOUS" 
d="M0 0v1024h1024v-1024h-1024zM1024 1024v1024h1024v-1024h-1024z" />
    <glyph glyph-name="dribbble" unicode="DRIBBBLE" 
d="M998 1356c-266 -78 -588 -121 -977 -128c64 322 282 590 574 725c164 -199 296 -400 403 -597zM270 329c-168 183 -270 427 -270 695v47c429 8 780 55 1069 145c33 -66 62 -130 90 -197c-26 -7 -52 -14 -78 -23c-322 -114 -595 -337 -811 -667zM1427 83
c-126 -55 -261 -83 -403 -83c-239 0 -462 83 -635 220c239 377 531 572 827 655c109 -290 171 -560 211 -792zM2036 870c-43 -292 -211 -543 -448 -699c-40 220 -99 471 -199 739c225 33 448 10 647 -40zM1166 1413c-106 199 -237 403 -398 602c83 21 168 33 256 33
c263 0 503 -100 683 -263c-138 -159 -316 -282 -541 -372zM2048 1029c-254 57 -493 68 -716 31c-28 71 -61 142 -95 215c237 95 429 228 579 398c144 -175 230 -400 232 -644z" />
    <glyph glyph-name="behance" unicode="BEHANCE" 
d="M853 1071c0 0 197 -52 197 -301c0 -194 -111 -386 -474 -386h-576v1280h619c234 0 391 -116 391 -332c0 -189 -123 -242 -157 -261zM294 1441v-282h273c104 0 187 33 187 145c0 111 -76 137 -221 137h-239zM567 607c168 0 213 76 213 182c0 105 -69 159 -209 159h-277
v-341h273zM2048 844v-57h-668c2 -149 106 -228 227 -228c140 0 183 105 183 105h246c-40 -178 -213 -299 -436 -299c-270 0 -462 168 -462 479c0 332 197 493 455 493c294 0 455 -185 455 -493zM1384 946h415c0 109 -85 194 -206 194c-130 0 -197 -90 -209 -194zM1877 1493
v128h-554v-128h554z" />
    <glyph glyph-name="github" unicode="GITHUB" 
d="M1579 2048v-299h-169c26 -59 41 -128 41 -204c0 -282 -202 -469 -451 -478c-73 -116 -54 -185 52 -256c294 -12 527 -183 527 -406c0 -237 -249 -405 -555 -405s-555 171 -555 405c0 152 105 278 263 346c-149 147 -97 294 8 380c-138 78 -228 225 -228 414
c0 290 211 482 469 482c95 0 183 -26 256 -71c254 16 342 92 342 92zM1024 555c-156 0 -256 -67 -256 -150s100 -149 256 -149s256 66 256 149s-100 150 -256 150zM981 1323c95 0 171 85 171 234c0 150 -76 235 -171 235c-94 0 -170 -85 -170 -235c0 -149 76 -234 170 -234z
" />
    <glyph glyph-name="octocat" unicode="GITHUB&#x20;OCTOCAT" 
d="M1899 1413c94 -119 149 -263 149 -429c0 -600 -384 -813 -1024 -813s-1024 213 -1024 810c0 166 55 313 149 429c-21 114 -42 311 22 467c201 -16 358 -111 445 -180c124 33 261 52 408 52s284 -19 405 -52c90 69 247 164 448 180c64 -154 43 -353 22 -464zM1024 299
c555 0 754 170 754 426c0 299 -242 363 -370 363s-128 -21 -384 -21s-256 21 -384 21s-370 -64 -370 -363c0 -256 199 -426 754 -426zM1451 704c0 149 -48 192 -107 192s-107 -43 -107 -192s48 -192 107 -192s107 43 107 192zM811 704c0 149 -48 192 -107 192
s-107 -43 -107 -192s48 -192 107 -192s107 43 107 192z" />
    <glyph glyph-name="stackoverflow" unicode="STACK&#x20;OVERFLOW" 
d="M1920 768h-256v-512h-1280v512h-256v-768h1792v768zM512 384v256h1024v-256h-1024zM531 863l43 253l1009 -177l-45 -254zM671 1417l106 233l930 -432l-109 -232zM1010 1982l182 182l723 -725l-180 -180z" />
    <glyph glyph-name="paypal" unicode="PAYPAL" 
d="M43 0l445 2048h1005c294 0 638 -237 536 -716c-90 -424 -420 -692 -841 -692h-413l-135 -640h-597zM1474 1327c43 154 -54 294 -199 294h-291l-131 -597h275c178 0 311 147 346 303z" />
    <glyph glyph-name="kickstarter" unicode="KICKSTARTER" 
d="M1801 114c-135 -109 -331 -90 -445 38l-460 559v-391c0 -178 -145 -320 -320 -320c-178 0 -320 142 -320 320v1408c0 175 142 320 320 320c175 0 320 -145 320 -320v-344l389 517c104 140 303 171 445 64c140 -104 171 -303 64 -446l-386 -452l441 -500
c111 -138 90 -342 -48 -453z" />
    <glyph glyph-name="foursquare" unicode="FOURSQUARE" 
d="M2034 1433l-973 -974c-13 -13 -30 -20 -48 -20v0h-1c-3 0 -5 0 -8 1c-15 1 -29 8 -40 19l-542 543c-27 27 -27 70 0 96l160 160c13 13 30 20 48 20s35 -8 47 -20l336 -336l766 766c13 13 29 20 47 20c19 0 35 -7 48 -20l160 -160c26 -26 26 -69 0 -95zM1978 854
l-784 -784c-93 -93 -247 -93 -340 0l-784 784c-93 93 -93 247 0 340l784 784c93 93 247 93 340 0l354 -354l-531 -532l-250 251c-35 35 -83 55 -133 55s-98 -20 -133 -55l-160 -160c-36 -35 -55 -83 -55 -133s19 -97 55 -133l542 -543c25 -25 56 -42 89 -50l8 -5l37 -1
c50 0 97 20 133 55l824 825l4 -4c94 -93 94 -247 0 -340z" />
    <glyph glyph-name="yelp" unicode="YELP" 
d="M1031 1291c0 -92 -31 -132 -90 -132c-36 0 -68 21 -105 71l-396 540c-29 40 -45 67 -45 104c0 33 32 57 87 78l362 134c27 10 59 21 79 21c59 0 104 -52 104 -169zM794 961c42 -21 65 -45 65 -88c0 -47 -26 -80 -83 -93l-451 -100c-41 -9 -73 -16 -106 -16
c-45 0 -52 38 -47 109l26 329c6 65 32 99 82 99c32 0 56 -9 100 -31zM956 686c49 0 76 -36 75 -77l-8 -520c0 -63 -20 -89 -72 -89c-22 0 -42 5 -74 15l-287 91c-58 18 -83 42 -83 88c0 32 13 53 35 78l335 369c29 31 50 45 79 45zM1262 956c-47 0 -74 27 -74 70
c0 25 8 41 23 63l271 428c19 27 36 53 72 53c30 0 47 -14 80 -53l190 -224c38 -42 51 -65 51 -104c0 -44 -35 -72 -117 -97l-422 -123c-24 -7 -48 -13 -74 -13zM1203 713c0 36 31 72 73 72c20 0 37 -5 60 -12l470 -151c49 -15 71 -34 71 -66c0 -29 -9 -48 -26 -72l-193 -277
c-25 -36 -52 -51 -87 -51c-41 0 -64 23 -104 88l-249 417c-6 10 -15 30 -15 52z" />
    <glyph glyph-name="skype" unicode="SKYPE" 
d="M1951 870c61 -90 97 -199 97 -315c0 -306 -249 -555 -555 -555c-116 0 -225 36 -315 97c-50 -7 -102 -12 -154 -12c-519 0 -939 420 -939 939c0 52 5 104 12 154c-61 90 -97 199 -97 315c0 306 249 555 555 555c116 0 225 -36 315 -97c50 7 102 12 154 12
c519 0 939 -420 939 -939c0 -52 -5 -104 -12 -154zM1043 384c270 0 526 145 526 408c0 251 -291 332 -426 362l-143 31c-104 24 -182 43 -182 121c0 74 78 107 197 107c215 0 220 -157 353 -157c87 0 142 69 142 150c0 156 -263 258 -522 258c-234 0 -509 -102 -509 -379
c0 -230 154 -311 351 -361l201 -47c121 -31 197 -45 197 -133c0 -68 -78 -123 -199 -123c-252 0 -266 211 -413 211c-95 0 -137 -69 -137 -142c0 -169 256 -306 564 -306z" />
    <glyph glyph-name="rdio" unicode="RDIO" 
d="M2048 1427c-2 -12 -21 -202 -306 -306c5 -31 7 -64 7 -97c0 -472 -391 -853 -874 -853c-484 0 -875 381 -875 853s391 853 875 853c94 0 180 -14 256 -35v-505c-52 31 -116 50 -192 50c-299 0 -470 -256 -470 -427c0 -192 171 -299 342 -299c256 0 490 192 490 448v662
c62 -31 119 -67 176 -100c154 -95 301 -182 514 -182c17 0 31 -8 43 -19c9 -12 14 -29 14 -43z" />
    <glyph glyph-name="spotify" unicode="SPOTIFY" 
d="M1460 1474c21 -14 26 -40 14 -59c-11 -21 -38 -28 -59 -14c-161 97 -365 121 -604 66c-24 -7 -48 10 -52 31c-5 24 9 47 33 52c260 59 488 33 668 -76zM1486 1583c-187 117 -469 150 -687 81c-29 -7 -59 9 -69 38c-7 28 10 57 38 66c249 76 562 38 773 -92
c26 -14 33 -48 19 -74c-17 -26 -50 -33 -74 -19zM1024 1365c356 0 619 -256 619 -682c0 -427 -278 -683 -619 -683c-356 0 -619 256 -619 683c0 426 278 682 619 682zM1024 270c171 0 294 157 294 413c0 277 -123 412 -294 412s-294 -156 -294 -412
c0 -278 123 -413 294 -413zM1655 1823c-19 -31 -57 -40 -88 -22c-223 131 -590 145 -801 79c-34 -10 -71 9 -81 45c-9 33 10 68 43 80c244 74 649 60 905 -92c29 -19 40 -59 22 -90z" />
    <glyph glyph-name="lastfm" unicode="LAST&#x20;FM" 
d="M1564 640c159 0 245 43 245 128c0 256 -591 52 -591 488c0 240 183 337 418 337c194 0 379 -57 403 -299l-235 -28c-12 99 -67 142 -183 142c-106 0 -168 -47 -168 -126c0 -263 595 -35 595 -502c0 -195 -128 -325 -512 -325c-479 0 -564 313 -621 479
c-85 256 -121 474 -379 474c-178 0 -289 -149 -289 -384c0 -256 132 -384 265 -384c199 0 315 142 315 142l76 -204s-135 -123 -391 -123s-512 119 -512 548c0 431 244 590 529 590c400 0 502 -190 609 -548c69 -227 144 -405 426 -405z" />
    <glyph glyph-name="soundcloud" unicode="SOUNDCLOUD" 
d="M84 688c-4 0 -8 3 -8 8l-20 181l20 186c0 5 4 8 8 8c5 0 8 -3 9 -8l23 -186l-23 -181c-1 -5 -4 -8 -9 -8zM16 765v0v0v0zM8 757c-4 0 -8 3 -8 8l-15 112l15 115c0 5 4 8 8 8s8 -3 8 -8l18 -115l-18 -112c0 -5 -4 -8 -8 -8zM176 1097l22 -220l-22 -211
c-1 -6 -5 -10 -11 -10c-5 0 -9 4 -10 10l-19 211l19 220c1 6 5 10 10 10c6 0 10 -4 11 -10zM247 647c-6 0 -11 5 -12 12l-18 218l18 226c1 7 6 12 12 12c7 0 12 -5 12 -12l21 -226l-21 -218v0c0 -7 -5 -12 -12 -12zM330 643c-8 0 -14 6 -14 14l-17 220l17 210
c0 8 6 14 14 14c7 0 13 -6 13 -14l20 -210l-20 -220v0c0 -8 -6 -14 -13 -14zM446 877l-18 -220v0c0 -9 -7 -15 -15 -15c-9 0 -15 6 -16 15l-16 220l16 341c1 9 7 16 16 16c8 0 15 -7 15 -16zM496 641c-9 0 -17 8 -17 17l-15 219l15 419c0 10 8 17 17 17c10 0 17 -7 18 -17
l17 -419l-17 -219v0c-1 -9 -8 -17 -18 -17zM581 1350c10 0 18 -8 19 -19l16 -454l-16 -217v1c-1 -11 -9 -19 -19 -19c-11 0 -19 8 -19 18l-14 217l14 454c0 11 8 19 19 19zM666 641c-12 0 -21 9 -21 21l-13 215l13 469c0 12 9 21 21 21c11 0 20 -9 21 -21l14 -469l-14 -215
v0c-1 -12 -10 -21 -21 -21zM751 641c-12 0 -22 10 -22 23l-12 213l12 457c0 13 10 23 22 23c13 0 23 -10 23 -23l14 -457l-14 -213v0c0 -13 -10 -23 -23 -23zM874 877l-12 -212v0c0 -13 -11 -24 -24 -24c-14 0 -24 11 -25 24l-11 212l11 440c1 14 11 25 25 25
c13 0 24 -11 24 -24zM925 641c-14 0 -26 11 -26 25l-10 211l10 524c0 15 12 26 26 26s26 -11 26 -26l11 -524l-11 -211v1c0 -15 -12 -26 -26 -26zM1012 1477c15 0 27 -13 27 -28l13 -572l-13 -208v1c0 -16 -12 -28 -27 -28c-16 0 -28 12 -28 27l-12 208l12 572
c0 15 12 28 28 28zM1091 640c-15 2 -27 15 -28 30v806c1 15 6 22 25 30c49 19 105 30 162 30c234 0 426 -179 446 -408c30 13 63 19 98 19c140 0 254 -113 254 -253s-114 -254 -254 -254h-703z" />
    <glyph glyph-name="link" unicode="LINK" 
d="M1884 1100l-289 -289c10 109 -4 215 -42 317l151 154c116 117 116 306 0 422s-305 116 -422 0l-320 -317c-116 -119 -116 -306 0 -425c53 -49 53 -130 0 -180c-49 -50 -130 -50 -180 0c-215 218 -215 569 0 785l318 317c218 219 569 219 784 0c219 -215 219 -566 0 -784z
M1266 481l-320 -320c-216 -216 -567 -216 -785 0c-216 218 -216 569 0 785l292 291c-10 -109 4 -218 42 -320l-151 -151c-116 -117 -116 -306 0 -422s305 -116 422 0l317 317c119 116 119 306 0 422c-50 50 -50 133 0 183s133 50 183 0c215 -218 215 -569 0 -785z" />
    <glyph glyph-name="phone" unicode="CALL" 
d="M2048 1804c0 -5 0 -10 -2 -17v0c-117 -931 -856 -1668 -1785 -1785c-7 -2 -12 -2 -17 -2s-12 0 -16 2c-12 5 -19 15 -24 24l-202 507c-7 22 3 45 22 55l559 280c17 9 36 4 50 -8l272 -275c226 140 415 332 555 558l-272 272c-12 14 -17 33 -8 50l280 559
c10 19 33 29 55 22l507 -202c9 -5 19 -14 21 -24c3 -4 5 -11 5 -16z" />
    <glyph glyph-name="like" unicode="APPROVE" 
d="M341 43v1194c0 24 -19 43 -42 43h-256c-24 0 -43 -19 -43 -43v-1194c0 -24 19 -43 43 -43h256c23 0 42 19 42 43zM1944 917c61 -33 104 -97 104 -170c0 -90 -64 -169 -149 -188c14 -28 21 -59 21 -90c0 -97 -64 -177 -149 -204c14 -28 21 -61 21 -94
c0 -95 -76 -171 -171 -171h-426c-71 0 -180 24 -244 52l-439 204v896c512 341 597 512 597 768c0 71 57 128 128 128c48 0 100 -36 140 -95c48 -66 74 -154 74 -246c0 -162 -81 -368 -83 -368c-5 -14 -3 -28 4 -40c8 -12 22 -19 36 -19h448c107 0 192 -85 192 -192
c0 -73 -43 -140 -104 -171z" />
    <glyph glyph-name="mail" unicode="ENVELOPE" 
d="M2048 1664l-1024 -768l-1024 768c0 71 57 128 128 128h1792c71 0 128 -57 128 -128zM0 1434l1024 -768l1024 768v-1050c0 -71 -57 -128 -128 -128h-1792c-71 0 -128 57 -128 128v1050z" />
    <glyph glyph-name="rss" unicode="RSS" 
d="M640 320c0 -178 -145 -320 -320 -320c-178 0 -320 142 -320 320c0 175 142 320 320 320c175 0 320 -145 320 -320zM2048 43c0 -24 -19 -43 -43 -43h-298c-24 0 -43 19 -43 43c0 896 -725 1621 -1621 1621c-24 0 -43 19 -43 43v298c0 24 19 43 43 43
c1107 0 2005 -898 2005 -2005zM1408 43c0 -24 -19 -43 -43 -43h-298c-24 0 -43 19 -43 43c0 542 -439 981 -981 981c-24 0 -43 19 -43 43v298c0 24 19 43 43 43c753 0 1365 -612 1365 -1365z" />
    <glyph glyph-name="share" unicode="SHARE" 
d="M2048 384c0 -212 -172 -384 -384 -384s-384 172 -384 384v1l-665 332c-64 -48 -144 -77 -231 -77c-212 0 -384 172 -384 384s172 384 384 384c87 0 167 -29 231 -77l665 332v1c0 212 172 384 384 384s384 -172 384 -384s-172 -384 -384 -384c-87 0 -167 29 -231 77
l-667 -333l667 -333c64 48 144 77 231 77c212 0 384 -172 384 -384z" />
    <glyph glyph-name="apple" unicode="APPLE" 
d="M1003 1595c-36 285 228 477 414 492c36 -224 -169 -501 -414 -492zM1060 1516c122 0 218 105 399 105c244 0 400 -234 400 -234s-238 -128 -238 -406c0 -330 299 -426 299 -426s-236 -555 -501 -555c-149 0 -159 85 -357 85c-172 0 -230 -85 -361 -85
c-250 0 -573 541 -573 981c0 457 327 640 532 640c180 0 255 -105 400 -105z" />
    <glyph glyph-name="microsoft" unicode="MICROSOFT" 
d="M0 2048h981v-981h-981v981zM1067 2048h981v-981h-981v981zM0 981h981v-981h-981v981zM1067 981h981v-981h-981v981z" />
    <glyph glyph-name="windows" unicode="WINDOWS" 
d="M768 1804v-735l-683 -7v602zM85 986l683 -7v-735l-683 140v602zM1963 2048v-967l-1110 -11v751zM853 978l1110 -11v-967l-1110 227v751z" />
    <glyph glyph-name="android" unicode="ANDROID" 
d="M384 1365v0v-1v1zM384 768v0v2v-2zM384 1344c0 71 -57 128 -128 128s-128 -57 -128 -128v-576c0 -71 57 -128 128 -128s128 57 128 128v576zM1920 1344c0 71 -57 128 -128 128s-128 -57 -128 -128v-576c0 -71 57 -128 128 -128s128 57 128 128v576zM1621 1451h-1194v-896
c0 -71 57 -128 128 -128h128v-299c0 -71 57 -128 128 -128c70 0 128 57 128 128v299h170v-299c0 -71 58 -128 128 -128c71 0 128 57 128 128v299h128c71 0 128 57 128 128v896zM1314 1978c183 -94 307 -276 307 -485h-1194c0 209 124 391 307 485l-112 187c-6 10 -3 23 7 29
s23 3 29 -7l115 -190c76 33 161 51 251 51s175 -18 251 -51l115 190c6 10 19 13 29 7s13 -19 7 -29zM747 1707c35 0 64 28 64 64c0 35 -29 64 -64 64c-36 0 -64 -29 -64 -64c0 -36 28 -64 64 -64zM1301 1707c36 0 64 28 64 64c0 35 -28 64 -64 64c-35 0 -64 -29 -64 -64
c0 -36 29 -64 64 -64z" />
    <glyph glyph-name="blackberry" unicode="BLACKBERRY" 
d="M652 1594v0c0 -97 -62 -201 -283 -201h-282l76 356h272c176 0 217 -86 217 -155zM1382 1594v0c0 -97 -62 -201 -283 -201h-282l77 356h270c176 0 218 -86 218 -155zM555 1058v0c0 -97 -63 -201 -284 -201h-282l77 356h271c176 0 218 -86 218 -155zM1285 1058v0
c0 -97 -63 -201 -284 -201h-282l77 356h271c176 0 218 -86 218 -155zM2048 1275v0c0 -96 -63 -201 -283 -201h-283l77 357h271c176 0 218 -87 218 -156zM1943 717v0c0 -97 -63 -201 -284 -201h-282l77 356h271c176 0 218 -87 218 -155zM1179 500v0c0 -97 -62 -201 -282 -201
h-283l77 356h271c176 0 217 -87 217 -155z" />
    <glyph glyph-name="space" unicode=" " horiz-adv-x="512" 
 />
    <glyph glyph-name="plus" unicode="+" horiz-adv-x="1384" 
d="M1292 510h-515v-510h-170v510h-515v175h515v510h170v-510h515v-175z" />
    <glyph glyph-name="hyphen" unicode="-" horiz-adv-x="1975" 
 />
    <glyph glyph-name="A" unicode="A" horiz-adv-x="1375" 
d="M1344 0h-218l-145 429h-595l-154 -429h-204l555 1479h230zM905 607l-218 654l-237 -654h455z" />
    <glyph glyph-name="B" unicode="B" horiz-adv-x="1375" 
d="M1287 443c0 -272 -216 -443 -460 -443h-680v1479h668c207 0 394 -128 399 -374c0 -126 -64 -261 -192 -309c149 -52 265 -177 265 -353zM1017 1062c0 154 -64 239 -282 244h-384v-455h389c199 0 272 104 277 211zM1088 417c0 164 -59 266 -341 270h-396v-519h462
c192 0 270 138 275 249z" />
    <glyph glyph-name="C" unicode="C" horiz-adv-x="1489" 
d="M1403 543c-38 -318 -265 -583 -630 -583c-519 0 -688 438 -688 791c0 382 228 754 678 768c209 0 564 -90 624 -486h-195c-40 202 -201 304 -400 304c-361 0 -491 -270 -498 -586c7 -294 137 -614 457 -614c261 0 418 155 456 406h196z" />
    <glyph glyph-name="D" unicode="D" horiz-adv-x="1489" 
d="M1384 792c0 -413 -208 -785 -592 -792h-628v1479h621c246 0 585 -180 599 -687zM1178 775c0 273 -111 531 -422 531h-389v-1138h413c244 0 398 266 398 607z" />
    <glyph glyph-name="E" unicode="E" horiz-adv-x="1375" 
d="M1266 0h-1093v1479h1081v-180h-879v-450h810v-178h-810v-493h891v-178z" />
    <glyph glyph-name="F" unicode="F" horiz-adv-x="1256" 
d="M1197 1299h-822v-450h725v-178h-725v-671h-202v1479h1024v-180z" />
    <glyph glyph-name="G" unicode="G" horiz-adv-x="1598" 
d="M1446 0h-128l-47 197c-91 -128 -273 -223 -486 -230c-496 0 -688 339 -688 784c0 368 225 754 699 759c297 0 584 -164 626 -481h-192c-57 227 -237 308 -443 308c-275 0 -486 -223 -486 -597c0 -406 206 -614 486 -614c121 0 218 35 310 106c126 102 159 204 164 384
h-460v171h645v-787z" />
    <glyph glyph-name="H" unicode="H" horiz-adv-x="1489" 
d="M1332 0h-201v687h-773v-687h-202v1479h202v-614h773v614h201v-1479z" />
    <glyph glyph-name="I" unicode="I" horiz-adv-x="569" 
d="M386 0h-201v1479h201v-1479z" />
    <glyph glyph-name="J" unicode="J" horiz-adv-x="1029" 
d="M882 398c0 -322 -195 -434 -427 -438c-322 0 -422 208 -422 369v145h187v-104c0 -164 72 -240 223 -240c164 0 233 81 235 256v1093h204v-1081z" />
    <glyph glyph-name="K" unicode="K" horiz-adv-x="1375" 
d="M1363 0h-258l-520 740l-232 -221v-519h-201v1479h201v-720l718 720h275l-616 -597z" />
    <glyph glyph-name="L" unicode="L" horiz-adv-x="1147" 
d="M1105 0h-953v1479h201v-1301h752v-178z" />
    <glyph glyph-name="M" unicode="M" horiz-adv-x="1711" 
d="M1567 0h-197v1242l-412 -1242h-199l-422 1240v-1240h-190v1479h287l426 -1254l422 1254h285v-1479z" />
    <glyph glyph-name="N" unicode="N" horiz-adv-x="1489" 
d="M1332 0h-227l-754 1192v-1192h-195v1479h237l745 -1197v1197h194v-1479z" />
    <glyph glyph-name="O" unicode="O" horiz-adv-x="1598" 
d="M1519 740c0 -219 -68 -761 -715 -771c-498 0 -719 382 -719 771c0 407 228 763 719 770c545 0 715 -443 715 -770zM1318 740c0 346 -187 587 -514 592c-304 0 -515 -227 -515 -592c0 -354 195 -588 515 -593c327 0 514 242 514 593z" />
    <glyph glyph-name="P" unicode="P" horiz-adv-x="1375" 
d="M1278 1062c0 -211 -114 -431 -439 -439h-464v-623h-202v1479h666c240 0 432 -142 439 -417zM1071 1062c0 161 -97 244 -291 244h-405v-514h398c199 0 296 90 298 270z" />
    <glyph glyph-name="Q" unicode="Q" horiz-adv-x="1598" 
d="M1519 740c0 -214 -61 -418 -215 -569l201 -157l-97 -121l-228 178c-97 -64 -220 -102 -379 -102c-498 0 -720 382 -720 771c0 407 227 763 720 770c543 0 718 -443 718 -770zM1313 740c0 346 -185 587 -512 592c-306 0 -514 -227 -514 -592c0 -354 192 -588 514 -593
c81 0 154 17 216 47l-154 117l102 125l189 -144c105 109 159 251 159 448z" />
    <glyph glyph-name="R" unicode="R" horiz-adv-x="1489" 
d="M1384 0h-225c-59 128 -47 377 -59 450c-10 69 -50 178 -242 181h-502v-631h-202v1479h709c230 0 457 -121 464 -408c0 -158 -80 -272 -215 -343c106 -33 170 -119 182 -240c19 -170 14 -334 52 -429c10 -23 22 -45 38 -59zM1124 1052c0 138 -64 249 -245 254h-523v-502
h507c147 0 261 99 261 248z" />
    <glyph glyph-name="S" unicode="S" horiz-adv-x="1375" 
d="M1273 415c0 -299 -247 -446 -578 -446c-368 0 -591 157 -593 519h185c0 -270 211 -341 408 -348c187 0 386 57 386 249s-138 213 -533 301c-202 45 -394 128 -401 367c0 237 152 453 512 453c566 0 569 -389 576 -469h-185c0 218 -192 294 -372 301
c-157 0 -337 -50 -337 -261c0 -95 60 -154 178 -180l422 -97c223 -50 332 -176 332 -389z" />
    <glyph glyph-name="T" unicode="T" horiz-adv-x="1256" 
d="M1230 1299h-502v-1299h-202v1299h-498v180h1202v-180z" />
    <glyph glyph-name="U" unicode="U" horiz-adv-x="1489" 
d="M1327 486c0 -273 -180 -510 -597 -514c-384 0 -564 187 -569 504v1003h202v-965c0 -225 128 -367 367 -367c237 0 389 128 396 363v969h201v-993z" />
    <glyph glyph-name="V" unicode="V" horiz-adv-x="1375" 
d="M1330 1479l-538 -1479h-214l-538 1479h233l419 -1263l436 1263h202z" />
    <glyph glyph-name="W" unicode="W" horiz-adv-x="1941" 
d="M1911 1479l-392 -1479h-208l-337 1225l-346 -1225h-211l-384 1479h216l272 -1206l339 1206h216l339 -1206l273 1206h223z" />
    <glyph glyph-name="X" unicode="X" horiz-adv-x="1375" 
d="M1332 0h-249l-396 607l-410 -607h-239l529 759l-498 720h251l375 -566l376 566h240l-496 -723z" />
    <glyph glyph-name="Y" unicode="Y" horiz-adv-x="1375" 
d="M1342 1479l-557 -889v-590h-200v590l-554 889h242l422 -711l424 711h223z" />
    <glyph glyph-name="Z" unicode="Z" horiz-adv-x="1256" 
d="M1209 0h-1162v164l906 1137h-839v178h1095v-173l-910 -1126h910v-180z" />
    <glyph glyph-name="a" unicode="a" horiz-adv-x="1147" 
d="M1093 2v-2c-19 -7 -57 -21 -119 -21c-109 0 -170 54 -173 161c-88 -95 -213 -168 -389 -173c-208 0 -341 142 -341 303c0 330 334 330 569 377c119 21 152 81 152 130c0 107 -81 183 -249 183c-140 0 -242 -64 -247 -213h-168c0 180 133 353 439 358
c201 0 407 -98 407 -318v-576c0 -66 10 -116 119 -78v-131zM787 358v194c-130 -85 -529 -42 -529 -279c0 -107 79 -159 192 -159c133 0 337 90 337 244z" />
    <glyph glyph-name="b" unicode="b" horiz-adv-x="1147" 
d="M1088 569c9 -270 -109 -602 -476 -602c-136 0 -254 57 -318 166l-14 -133h-164v1479h185v-538c76 100 175 159 330 164c263 0 448 -221 457 -536zM898 538c0 268 -113 405 -301 405c-230 0 -303 -234 -303 -403c0 -248 92 -407 313 -414c192 0 291 170 291 412z" />
    <glyph glyph-name="c" unicode="c" horiz-adv-x="1029" 
d="M991 379c-33 -310 -261 -412 -455 -412c-266 0 -477 227 -477 571c0 386 228 569 484 569c197 0 419 -90 448 -391h-173c-14 144 -123 227 -268 227c-159 0 -299 -99 -299 -405c0 -223 124 -405 299 -405c145 0 237 83 265 246h176z" />
    <glyph glyph-name="d" unicode="d" horiz-adv-x="1147" 
d="M64 569c9 315 194 536 457 536c157 -5 254 -64 330 -164v538h185v-1479h-164v152c-64 -109 -196 -185 -332 -185c-367 0 -485 332 -476 602zM254 538c0 -242 99 -412 291 -412c221 7 313 166 313 414c0 169 -71 403 -303 403c-188 0 -301 -137 -301 -405z" />
    <glyph glyph-name="e" unicode="e" horiz-adv-x="1147" 
d="M1074 476h-804c0 -203 140 -343 318 -343c192 0 287 135 287 204h185c-41 -233 -233 -368 -482 -368c-313 0 -495 244 -500 538c0 361 204 602 505 602c327 0 500 -263 491 -633zM884 623c0 197 -137 325 -299 325c-173 0 -308 -149 -315 -325h614z" />
    <glyph glyph-name="f" unicode="f" horiz-adv-x="569" 
d="M538 1493v-149c-31 5 -54 5 -76 5c-73 0 -99 -31 -99 -109v-164h175v-163h-175v-913h-185v913h-150v163h150v199c0 128 104 230 265 230c29 0 62 -2 95 -12z" />
    <glyph glyph-name="g" unicode="g" horiz-adv-x="1228" 
d="M1086 47c0 -360 -190 -519 -486 -519c-135 0 -415 43 -420 339h180c0 -114 116 -170 228 -170c192 0 317 102 317 336v64c-92 -99 -201 -128 -329 -128c-220 0 -469 195 -476 541c0 377 211 595 502 595c133 0 249 -64 303 -152v130h181v-1036zM905 536
c0 239 -116 386 -310 386c-145 0 -303 -118 -303 -370c0 -294 158 -422 310 -422c171 0 299 145 303 406z" />
    <glyph glyph-name="h" unicode="h" horiz-adv-x="1147" 
d="M1012 0h-185v704c0 149 -57 239 -211 239c-156 0 -303 -104 -303 -358v-585h-185v1479h185v-547c80 123 223 170 334 175c171 0 365 -81 365 -391v-716z" />
    <glyph glyph-name="i" unicode="i" horiz-adv-x="460" 
d="M318 1271h-185v203h185v-203zM318 0h-185v1076h185v-1076z" />
    <glyph glyph-name="j" unicode="j" horiz-adv-x="543" 
d="M405 -185c0 -135 -90 -244 -270 -244c-28 0 -59 0 -92 7v157c33 -8 59 -10 83 -10c68 0 94 33 94 130v1221h185v-1261zM405 1271h-185v208h185v-208z" />
    <glyph glyph-name="k" unicode="k" horiz-adv-x="1029" 
d="M1029 0h-230l-356 526l-130 -128v-398h-185v1479h185v-860l460 457h232l-429 -412z" />
    <glyph glyph-name="l" unicode="l" horiz-adv-x="460" 
d="M320 0h-187v1479h187v-1479z" />
    <glyph glyph-name="m" unicode="m" horiz-adv-x="1711" 
d="M1586 0h-185v695c0 163 -66 248 -199 248c-142 0 -244 -109 -251 -289v-654h-185v742c0 99 -45 201 -173 201c-133 0 -273 -87 -278 -358v-585h-185v1076h171v-152c78 121 202 181 330 181c163 0 239 -79 289 -173c54 85 166 173 329 173c126 0 337 -64 337 -363v-742z
" />
    <glyph glyph-name="n" unicode="n" horiz-adv-x="1147" 
d="M1012 0h-185v673c0 154 -45 270 -211 270c-168 0 -303 -120 -303 -329v-614h-185v1076h175v-156c34 54 162 185 344 185c209 0 365 -114 365 -389v-716z" />
    <glyph glyph-name="o" unicode="o" horiz-adv-x="1147" 
d="M1081 538c0 -296 -185 -562 -505 -569c-320 0 -503 270 -503 569c0 306 183 569 503 569s505 -263 505 -569zM891 538c3 171 -87 403 -315 408c-225 0 -313 -237 -313 -408c0 -209 88 -410 313 -410c228 0 308 201 315 410z" />
    <glyph glyph-name="p" unicode="p" horiz-adv-x="1147" 
d="M1090 507c-9 -315 -194 -535 -459 -535c-155 4 -252 64 -328 163v-562h-187v1503h166v-152c64 109 197 185 332 185c367 0 486 -332 476 -602zM901 538c0 242 -100 413 -292 413c-220 -8 -313 -166 -313 -415c0 -169 71 -403 304 -403c187 0 301 137 301 405z" />
    <glyph glyph-name="q" unicode="q" horiz-adv-x="1147" 
d="M45 507c0 268 109 602 476 602c136 0 252 -57 316 -166l16 133h166v-1503h-185v562c-78 -99 -175 -159 -329 -163c-263 0 -453 199 -460 535zM235 538c0 -268 116 -405 303 -405c230 0 301 234 301 403c0 249 -92 407 -313 415c-192 0 -291 -171 -291 -413z" />
    <glyph glyph-name="r" unicode="r" horiz-adv-x="683" 
d="M609 913c-201 0 -346 -98 -346 -268v-645h-185v1076h178v-182c50 109 147 206 353 206v-187z" />
    <glyph glyph-name="s" unicode="s" horiz-adv-x="1029" 
d="M960 325c0 -199 -154 -358 -424 -358c-249 0 -446 102 -465 379h178c0 -97 43 -220 287 -220c123 0 244 52 244 168c0 81 -36 114 -372 194c-128 31 -299 83 -299 275c0 225 178 344 408 344c348 0 405 -235 410 -339h-176c0 116 -85 180 -253 180
c-41 0 -209 -5 -216 -152c0 -99 90 -116 365 -182c164 -45 308 -107 313 -289z" />
    <glyph glyph-name="t" unicode="t" horiz-adv-x="569" 
d="M538 128v-152c-33 -7 -66 -12 -95 -12c-161 0 -265 105 -265 230v719h-140v163h140v304h185v-304h175v-163h-175v-681c0 -78 26 -111 99 -111c22 0 45 2 76 7z" />
    <glyph glyph-name="u" unicode="u" horiz-adv-x="1147" 
d="M116 1076h187v-673c0 -154 45 -270 211 -270s304 121 304 329v614h185v-1076h-178v156c-33 -54 -161 -184 -344 -184c-208 0 -365 113 -365 388v716z" />
    <glyph glyph-name="v" unicode="v" horiz-adv-x="1029" 
d="M988 1076l-410 -1076h-194l-391 1076h206l294 -882l301 882h194z" />
    <glyph glyph-name="w" unicode="w" horiz-adv-x="1489" 
d="M1458 1076l-311 -1076h-189l-216 832l-216 -832h-189l-309 1076h197l204 -848l220 848h202l211 -848l216 848h180z" />
    <glyph glyph-name="x" unicode="x" horiz-adv-x="1029" 
d="M1007 0h-232l-265 405l-261 -405h-228l380 555l-361 521h233l248 -381l252 381h218l-363 -524z" />
    <glyph glyph-name="y" unicode="y" horiz-adv-x="1029" 
d="M1007 1076c-239 -680 -457 -1247 -497 -1327c-88 -176 -181 -221 -384 -176v166c83 -31 173 -45 227 57l74 171l-403 1109h204l293 -879l292 879h194z" />
    <glyph glyph-name="z" unicode="z" horiz-adv-x="1029" 
d="M965 0h-901v140l647 784h-597v152h829v-149l-642 -780h664v-147z" />
    <glyph glyph-name="zero" unicode="0" horiz-adv-x="1157" 
d="M1096 727c0 -436 -191 -725 -506 -725c-354 0 -500 336 -506 727c0 539 209 782 510 782c307 0 502 -243 502 -784zM907 750c0 411 -114 596 -313 596c-209 0 -305 -224 -305 -547c0 -355 96 -631 305 -631c199 0 313 272 313 582z" />
    <glyph glyph-name="five" unicode="5" horiz-adv-x="1141" 
d="M1090 494c0 -254 -177 -494 -517 -494c-227 0 -489 119 -489 406h192c21 -164 136 -244 302 -244c180 0 319 139 319 317c0 228 -152 338 -324 338c-124 0 -233 -49 -276 -133l-160 8l109 787h766v-181h-625l-63 -403c51 49 174 88 282 88c260 0 484 -158 484 -489z" />
    </font>
</defs>
</svg>
