<?xml version="1.0" encoding="UTF-8"?> <svg xmlns="http://www.w3.org/2000/svg" xmlns:xlink="http://www.w3.org/1999/xlink" height="64" viewBox="0 0 69 64" width="69"><mask id="a" fill="#fff"><path d="m0 64h68.2666667v-64h-68.2666667z" fill="#fff" fill-rule="evenodd"></path></mask><g fill="#9d7cff" fill-rule="evenodd"><path d="m0 46.9333333h68.2666667v-2.1333333h-68.2666667z"></path><path d="m68.2666667 42.6666667c-10.2069334 0-15.1264-11.3792-19.8837334-22.3829334-4.0352-9.3344-7.8464-18.15039997-14.2496-18.15039997s-10.2144 8.81599997-14.2496 18.15039997c-4.7573333 11.0037334-9.6768 22.3829334-19.8837333 22.3829334v-2.1333334c8.80533333 0 13.4421333-10.7253333 17.9253333-21.0965333 4.3210667-9.99573333 8.4032-19.4368 16.208-19.4368s11.8869334 9.44106667 16.208 19.4368c4.4832 10.3712 9.12 21.0965333 17.9253334 21.0965333z"></path><path d="m19.2 45.8666667h2.1333333v-28.8h-2.1333333z" mask="url(#a)"></path><path d="m33.0666667 45.8666667h2.1333333v-44.80000003h-2.1333333z" mask="url(#a)"></path><path d="m14.9333333 45.8666667h2.1333334v-19.2h-2.1333334z" mask="url(#a)"></path><path d="m10.6666667 45.8666667h2.1333333v-11.7333334h-2.1333333z" mask="url(#a)"></path><path d="m6.4 45.8666667h2.13333333v-6.4h-2.13333333z" mask="url(#a)"></path><path d="m2.13333333 45.8666667h2.13333334v-4.2666667h-2.13333334z" mask="url(#a)"></path><path d="m46.9333333 45.8666667h2.1333334v-28.8h-2.1333334z" mask="url(#a)"></path><path d="m51.2 45.8666667h2.1333333v-19.2h-2.1333333z" mask="url(#a)"></path><path d="m55.4666667 45.8666667h2.1333333v-11.7333334h-2.1333333z" mask="url(#a)"></path><path d="m59.7333333 45.8666667h2.1333334v-6.4h-2.1333334z" mask="url(#a)"></path><path d="m64 45.8666667h2.1333333v-4.2666667h-2.1333333z" mask="url(#a)"></path><path d="m8.53333333 18.1333333h11.73333337v-2.1333333h-11.73333337z" mask="url(#a)"></path><path d="m4.26666667 18.1333333h2.13333333v-2.1333333h-2.13333333z" mask="url(#a)"></path><path d="m0 18.1333333h2.13333333v-2.1333333h-2.13333333z" mask="url(#a)"></path><path d="m34.1333333 2.13333333h25.6v-2.13333333h-25.6z" mask="url(#a)"></path><path d="m61.8666667 2.13333333h2.1333333v-2.13333333h-2.1333333z" mask="url(#a)"></path><path d="m66.1333333 2.13333333h2.1333334v-2.13333333h-2.1333334z" mask="url(#a)"></path><path d="m1.06666667 51.2h2.13333333v-2.1333333h-2.13333333z" mask="url(#a)"></path><path d="m5.33333333 51.2h2.13333334v-2.1333333h-2.13333334z" mask="url(#a)"></path><path d="m9.6 51.2h2.1333333v-2.1333333h-2.1333333z" mask="url(#a)"></path><path d="m13.8666667 51.2h2.1333333v-2.1333333h-2.1333333z" mask="url(#a)"></path><path d="m18.1333333 51.2h2.1333334v-2.1333333h-2.1333334z" mask="url(#a)"></path><path d="m22.4 51.2h2.1333333v-2.1333333h-2.1333333z" mask="url(#a)"></path><path d="m26.6666667 51.2h2.1333333v-2.1333333h-2.1333333z" mask="url(#a)"></path><path d="m30.9333333 51.2h2.1333334v-2.1333333h-2.1333334z" mask="url(#a)"></path><path d="m35.2 51.2h2.1333333v-2.1333333h-2.1333333z" mask="url(#a)"></path><path d="m39.4666667 51.2h2.1333333v-2.1333333h-2.1333333z" mask="url(#a)"></path><path d="m43.7333333 51.2h2.1333334v-2.1333333h-2.1333334z" mask="url(#a)"></path><path d="m48 51.2h2.1333333v-2.1333333h-2.1333333z" mask="url(#a)"></path><path d="m9.6 55.4666667h2.1333333v-2.1333334h-2.1333333z" mask="url(#a)"></path><path d="m13.8666667 55.4666667h2.1333333v-2.1333334h-2.1333333z" mask="url(#a)"></path><path d="m18.1333333 55.4666667h2.1333334v-2.1333334h-2.1333334z" mask="url(#a)"></path><path d="m22.4 55.4666667h2.1333333v-2.1333334h-2.1333333z" mask="url(#a)"></path><path d="m26.6666667 55.4666667h2.1333333v-2.1333334h-2.1333333z" mask="url(#a)"></path><path d="m30.9333333 55.4666667h2.1333334v-2.1333334h-2.1333334z" mask="url(#a)"></path><path d="m35.2 55.4666667h2.1333333v-2.1333334h-2.1333333z" mask="url(#a)"></path><path d="m39.4666667 55.4666667h2.1333333v-2.1333334h-2.1333333z" mask="url(#a)"></path><path d="m43.7333333 55.4666667h2.1333334v-2.1333334h-2.1333334z" mask="url(#a)"></path><path d="m48 55.4666667h2.1333333v-2.1333334h-2.1333333z" mask="url(#a)"></path><path d="m18.1333333 59.7333333h2.1333334v-2.1333333h-2.1333334z" mask="url(#a)"></path><path d="m22.4 59.7333333h2.1333333v-2.1333333h-2.1333333z" mask="url(#a)"></path><path d="m26.6666667 59.7333333h2.1333333v-2.1333333h-2.1333333z" mask="url(#a)"></path><path d="m30.9333333 59.7333333h2.1333334v-2.1333333h-2.1333334z" mask="url(#a)"></path><path d="m35.2 59.7333333h2.1333333v-2.1333333h-2.1333333z" mask="url(#a)"></path><path d="m39.4666667 59.7333333h2.1333333v-2.1333333h-2.1333333z" mask="url(#a)"></path><path d="m43.7333333 59.7333333h2.1333334v-2.1333333h-2.1333334z" mask="url(#a)"></path><path d="m48 59.7333333h2.1333333v-2.1333333h-2.1333333z" mask="url(#a)"></path><path d="m26.6666667 64h2.1333333v-2.1333333h-2.1333333z" mask="url(#a)"></path><path d="m30.9333333 64h2.1333334v-2.1333333h-2.1333334z" mask="url(#a)"></path><path d="m35.2 64h2.1333333v-2.1333333h-2.1333333z" mask="url(#a)"></path><path d="m39.4666667 64h2.1333333v-2.1333333h-2.1333333z" mask="url(#a)"></path><path d="m52.2666667 51.2h2.1333333v-2.1333333h-2.1333333z" mask="url(#a)"></path><path d="m56.5333333 51.2h2.1333334v-2.1333333h-2.1333334z" mask="url(#a)"></path><path d="m60.8 51.2h2.1333333v-2.1333333h-2.1333333z" mask="url(#a)"></path><path d="m65.0666667 51.2h2.1333333v-2.1333333h-2.1333333z" mask="url(#a)"></path><path d="m52.2666667 55.4666667h2.1333333v-2.1333334h-2.1333333z" mask="url(#a)"></path><path d="m56.5333333 55.4666667h2.1333334v-2.1333334h-2.1333334z" mask="url(#a)"></path></g></svg> 