<?xml version="1.0" encoding="UTF-8"?> <svg xmlns="http://www.w3.org/2000/svg" viewBox="0 0 75.53 68.1"><defs><style>.cls-1{fill:#9D7CFF;}</style></defs><title>Asset 2</title><g id="Layer_2" data-name="Layer 2"><g id="Layer_1-2" data-name="Layer 1"><polygon class="cls-1" points="19.05 35.43 17.95 31.58 22.43 30.32 21.16 25.84 25.01 24.75 27.37 33.07 19.05 35.43"></polygon><polygon class="cls-1" points="50.52 53.01 48.16 44.69 56.48 42.33 57.57 46.18 53.1 47.45 54.37 51.92 50.52 53.01"></polygon><polygon class="cls-1" points="25.09 53.08 21.23 52.01 22.47 47.53 18 46.29 19.06 42.43 27.4 44.74 25.09 53.08"></polygon><polygon class="cls-1" points="56.47 35.33 48.13 33.02 50.44 24.69 54.3 25.75 53.05 30.23 57.53 31.48 56.47 35.33"></polygon><polygon class="cls-1" points="41.05 59.73 37.76 56.45 34.48 59.73 31.65 56.91 37.76 50.79 43.88 56.91 41.05 59.73"></polygon><polygon class="cls-1" points="37.76 26.97 31.65 20.86 34.48 18.03 37.76 21.32 41.05 18.03 43.88 20.86 37.76 26.97"></polygon><path class="cls-1" d="M37.76,47a8.12,8.12,0,1,1,8.13-8.12A8.13,8.13,0,0,1,37.76,47Zm0-12.24a4.12,4.12,0,1,0,4.13,4.12A4.13,4.13,0,0,0,37.76,34.76Z"></path><rect class="cls-1" x="24.38" y="42.02" width="8.62" height="4" transform="translate(-17.95 19.82) rotate(-29.48)"></rect><rect class="cls-1" x="42.32" y="31.8" width="8.85" height="4" transform="translate(-10.58 27.38) rotate(-29.48)"></rect><path class="cls-1" d="M37.76,55.62a2,2,0,0,1-2-2V45a2,2,0,0,1,4,0v8.62A2,2,0,0,1,37.76,55.62Z"></path><path class="cls-1" d="M37.76,34.76a2,2,0,0,1-2-2V24.14a2,2,0,0,1,4,0v8.62A2,2,0,0,1,37.76,34.76Z"></path><path class="cls-1" d="M32.42,37.9a1.88,1.88,0,0,1-1-.26l-7.53-4.2A2,2,0,0,1,25.87,30l7.53,4.2a2,2,0,0,1-1,3.75Z"></path><path class="cls-1" d="M50.63,48.07a1.88,1.88,0,0,1-1-.26l-7.53-4.2a2,2,0,0,1,1.95-3.49l7.53,4.2a2,2,0,0,1-1,3.75Z"></path><polygon class="cls-1" points="65.68 68.1 9.85 68.1 9.85 23.4 14.85 23.4 14.85 63.1 60.68 63.1 60.68 23.4 65.68 23.4 65.68 68.1"></polygon><path class="cls-1" d="M73,33.39a2.52,2.52,0,0,1-1.55-.54L37.76,6.36,4,32.85A2.5,2.5,0,0,1,1,28.92L37.76,0,74.57,28.92A2.5,2.5,0,0,1,73,33.39Z"></path></g></g></svg> 